<?xml version="1.0" standalone="no"?>
<!DOCTYPE svg PUBLIC "-//W3C//DTD SVG 1.1//EN" "http://www.w3.org/Graphics/SVG/1.1/DTD/svg11.dtd" >
<svg xmlns="http://www.w3.org/2000/svg" xmlns:xlink="http://www.w3.org/1999/xlink" version="1.1">
<metadata>
Created by FontForge 20150824 at Sun Jan 24 16:46:13 2016
 By Everything Fonts
Digitised data (c) 2002 Monotype Imaging, Inc. All Rights Reserved.
</metadata>
<defs>
<font id="SceneProBlack" horiz-adv-x="659" >
  <font-face 
    font-family="SceneProBlack"
    font-weight="900"
    font-stretch="normal"
    units-per-em="1000"
    panose-1="2 11 9 4 3 5 4 2 2 4"
    ascent="800"
    descent="-200"
    x-height="537"
    cap-height="721"
    bbox="-63 -323 1469 1031"
    underline-thickness="20"
    underline-position="-153"
    unicode-range="U+0020-FB04"
  />
<missing-glyph horiz-adv-x="500" 
d="M12 0v665h475v-665h-475zM88 618l162 -243l161 243h-323zM60 575v-484l40 61l80 120l41 61zM440 575l-162 -242l162 -243v485zM411 48l-161 242l-162 -242h323z" />
    <glyph glyph-name="f_b" unicode="fb" horiz-adv-x="1071" 
d="M1043 272q0 -150 -72.5 -218.5t-212.5 -68.5q-132 0 -258 57v607h-152q-76 0 -76 -80v-32h164l-33 -131h-131v-406h-179v359q0 25 19 47h-93v131h74v32q0 64 17.5 107t50.5 64.5t70 30t86 8.5h362v-213q0 -19 -18 -45q57 31 111 31q271 0 271 -280zM861 272q0 86 -24 123
t-76 37q-37 0 -82 -21v-295q38 -9 80 -9q58 0 80 37.5t22 127.5z" />
    <glyph glyph-name="f_f_b" unicode="ffb" horiz-adv-x="1478" 
d="M519 406h-247v-406h-179v372q0 16 16 34h-90v131h74v32q0 64 17.5 107t50.5 65t70 30.5t86 8.5q20 0 35.5 -1t32.5 -4.5t25.5 -5.5t30 -8t29.5 -8l-35 -121q-54 16 -87 16q-37 0 -56.5 -18t-19.5 -61v-32h228v32q0 64 17.5 107t50.5 64.5t70 30t86 8.5h362v-213
q0 -19 -18 -45q57 31 111 31q271 0 271 -280q0 -150 -72.5 -218.5t-212.5 -68.5q-132 0 -258 57v607h-152q-76 0 -76 -80v-32h164l-33 -131h-131v-406h-179v359q0 25 19 47zM1268 272q0 86 -24 123t-76 37q-37 0 -82 -21v-295q38 -9 80 -9q58 0 80 37.5t22 127.5z" />
    <glyph glyph-name="f_f_h" unicode="ffh" horiz-adv-x="1466" 
d="M519 406h-247v-406h-179v372q0 16 16 34h-90v131h74v32q0 64 17.5 107t50.5 65t70 30.5t86 8.5q20 0 35.5 -1t32.5 -4.5t25.5 -5.5t30 -8t29.5 -8l-35 -121q-54 16 -87 16q-37 0 -56.5 -18t-19.5 -61v-32h228v32q0 64 17.5 107t50.5 64.5t70 30t86 8.5h355v-278
q57 51 130 51q105 0 156.5 -59.5t51.5 -159.5v-333h-181v333q0 48 -14.5 70t-48.5 22q-43 0 -94 -36v-389h-182v649h-142q-76 0 -76 -80v-32h164l-33 -131h-131v-406h-179v359q0 25 19 47z" />
    <glyph glyph-name="f_f_j" unicode="ffj" horiz-adv-x="1136" 
d="M516 406h-244v-406h-179v372q0 16 16 34h-90v131h74v32q0 64 17.5 107t50.5 65t70 30.5t86 8.5q20 0 35.5 -1t32.5 -4.5t25.5 -5.5t30 -8t29.5 -8l-35 -121q-54 16 -87 16q-37 0 -56.5 -18t-19.5 -61v-32h228v32q0 64 17.5 107t50.5 65t70 30.5t86 8.5q20 0 35.5 -1
t32.5 -4.5t25.5 -5.5t30 -8t29.5 -8l-35 -121q-54 16 -87 16q-37 0 -56.5 -18t-19.5 -61v-32h409v-612q0 -75 -42 -120.5t-129 -45.5h-109v139h77q14 0 18 6t4 21v481h-228v-406h-179v372q0 16 16 34zM912 618h166q10 0 10 10v141q0 10 -10 10h-166q-10 0 -10 -10v-141
q0 -10 10 -10z" />
    <glyph glyph-name="f_f_k" unicode="ffk" horiz-adv-x="1480" 
d="M519 406h-247v-406h-179v372q0 16 16 34h-90v131h74v32q0 64 17.5 107t50.5 65t70 30.5t86 8.5q20 0 35.5 -1t32.5 -4.5t25.5 -5.5t30 -8t29.5 -8l-35 -121q-54 16 -87 16q-37 0 -56.5 -18t-19.5 -61v-32h228v32q0 64 17.5 107t50.5 64.5t70 30t86 8.5h353v-386l151 144
h240l-249 -208l250 -329h-220l-138 202q-7 11 -7 32l-27 -22v-212h-180v649h-142q-76 0 -76 -80v-32h164l-33 -131h-131v-406h-179v359q0 25 19 47z" />
    <glyph glyph-name="f_h" unicode="fh" horiz-adv-x="1059" 
d="M1010 0h-181v333q0 48 -14.5 70t-48.5 22q-43 0 -94 -36v-389h-182v649h-142q-76 0 -76 -80v-32h164l-33 -131h-131v-406h-179v359q0 25 19 47h-93v131h74v32q0 64 17.5 107t50.5 64.5t70 30t86 8.5h355v-278q57 51 130 51q105 0 156.5 -59.5t51.5 -159.5v-333z" />
    <glyph glyph-name="f_j" unicode="fj" horiz-adv-x="729" 
d="M681 -75q0 -75 -42 -120.5t-129 -45.5h-109v139h77q14 0 18 6t4 21v481h-228v-406h-179v372q0 16 16 34h-90v131h74v32q0 64 17.5 107t50.5 65t70 30.5t86 8.5q20 0 35.5 -1t32.5 -4.5t25.5 -5.5t30 -8t29.5 -8l-35 -121q-54 16 -87 16q-37 0 -56.5 -18t-19.5 -61v-32
h409v-612zM505 618h166q10 0 10 10v141q0 10 -10 10h-166q-10 0 -10 -10v-141q0 -10 10 -10z" />
    <glyph glyph-name="f_k" unicode="fk" horiz-adv-x="1073" 
d="M1062 0h-220l-138 202q-7 11 -7 32l-27 -22v-212h-180v649h-142q-76 0 -76 -80v-32h164l-33 -131h-131v-406h-179v359q0 25 19 47h-93v131h74v32q0 64 17.5 107t50.5 64.5t70 30t86 8.5h353v-386l151 144h240l-249 -208z" />
    <glyph glyph-name="f_f" unicode="ff" horiz-adv-x="871" 
d="M515 406h-243v-406h-179v372q0 16 16 34h-90v131h74v32q0 64 17.5 107t50.5 65t70 30.5t86 8.5q20 0 35.5 -1t32.5 -4.5t25.5 -5.5t30 -8t29.5 -8l-35 -121q-54 16 -87 16q-37 0 -56.5 -18t-19.5 -61v-32h228v31q0 64 17.5 107t50.5 65t70 30.5t86 8.5q72 0 173 -27
l-35 -125q-68 20 -107 20q-37 0 -55.5 -17.5t-18.5 -61.5v-31h162l-33 -131h-129v-406h-181v369q0 20 15 37z" />
    <glyph glyph-name="fi" unicode="fi" horiz-adv-x="729" 
d="M681 627q0 -7 -1.5 -8t-6.5 -1h-170q-5 0 -6.5 1t-1.5 8v142q0 7 1 8.5t7 1.5h170q8 0 8 -10v-142zM681 0h-181v406h-228v-406h-179v372q0 16 16 34h-90v131h74v32q0 64 17.5 107t50.5 65t70 30.5t86 8.5q20 0 35.5 -1t32.5 -4.5t25.5 -5.5t30 -8t29.5 -8l-35 -121
q-54 16 -87 16q-37 0 -56.5 -18t-19.5 -61v-32h409v-537z" />
    <glyph glyph-name="fl" unicode="fl" horiz-adv-x="758" 
d="M738 -9h-97q-74 0 -112.5 40.5t-38.5 118.5v499h-142q-76 0 -76 -80v-32h164l-33 -131h-131v-406h-179v359q0 25 19 47h-93v131h74v32q0 64 17.5 107t50.5 64.5t70 30t86 8.5h353v-629q0 -29 23 -29h45v-130z" />
    <glyph glyph-name="f_f_i" unicode="ffi" horiz-adv-x="1136" 
d="M1088 627q0 -7 -1 -8t-7 -1h-170q-6 0 -7 1t-1 8v142q0 7 1 8.5t7 1.5h170q8 0 8 -10v-142zM516 406h-244v-406h-179v372q0 16 16 34h-90v131h74v32q0 64 17.5 107t50.5 65t70 30.5t86 8.5q20 0 35.5 -1t32.5 -4.5t25.5 -5.5t30 -8t29.5 -8l-35 -121q-54 16 -87 16
q-37 0 -56.5 -18t-19.5 -61v-32h228v32q0 64 17.5 107t50.5 65t70 30.5t86 8.5q20 0 35.5 -1t32.5 -4.5t25.5 -5.5t30 -8t29.5 -8l-35 -121q-54 16 -87 16q-37 0 -56.5 -18t-19.5 -61v-32h409v-537h-181v406h-228v-406h-179v372q0 16 16 34z" />
    <glyph glyph-name="f_f_l" unicode="ffl" horiz-adv-x="1165" 
d="M519 406h-247v-406h-179v372q0 16 16 34h-90v131h74v32q0 64 17.5 107t50.5 65t70 30.5t86 8.5q20 0 35.5 -1t32.5 -4.5t25.5 -5.5t30 -8t29.5 -8l-35 -121q-54 16 -87 16q-37 0 -56.5 -18t-19.5 -61v-32h228v32q0 64 17.5 107t50.5 64.5t70 30t86 8.5h353v-629
q0 -29 23 -29h45v-130h-97q-74 0 -112.5 40.5t-38.5 118.5v499h-142q-76 0 -76 -80v-32h164l-33 -131h-131v-406h-179v359q0 25 19 47z" />
    <glyph glyph-name=".notdef" horiz-adv-x="500" 
d="M12 0v665h475v-665h-475zM88 618l162 -243l161 243h-323zM60 575v-484l40 61l80 120l41 61zM440 575l-162 -242l162 -243v485zM411 48l-161 242l-162 -242h323z" />
    <glyph glyph-name=".null" horiz-adv-x="0" 
 />
    <glyph glyph-name="nonmarkingreturn" horiz-adv-x="333" 
 />
    <glyph glyph-name="space" unicode=" " horiz-adv-x="233" 
 />
    <glyph glyph-name="exclam" unicode="!" horiz-adv-x="284" 
d="M230 408l-21 -181h-133l-23 182v370h177v-371zM231 11q0 -11 -10 -11h-158q-10 0 -10 11v155q0 12 10 12h158q10 0 10 -12v-155z" />
    <glyph glyph-name="quotedbl" unicode="&#x22;" horiz-adv-x="488" 
d="M426 721l-38 -234q-2 -14 -16 -14h-79q-8 0 -10 2.5t-2 11.5v234h145zM225 721l-38 -234q-2 -14 -16 -14h-79q-8 0 -10 2.5t-2 11.5v234h145z" />
    <glyph glyph-name="numbersign" unicode="#" horiz-adv-x="587" 
d="M550 213h-131l-23 -174h-98l23 174h-103l-23 -174h-98l23 174h-77v100h90l14 100h-104v100h117l23 173h98l-22 -173h102l23 173h98l-22 -173h90v-100h-104l-13 -100h117v-100zM348 413h-103l-14 -100h103z" />
    <glyph glyph-name="dollar" unicode="$" 
d="M586 251q0 -73 -47 -123.5t-141 -66.5v-131h-139v129q-95 14 -140.5 63t-45.5 141h149q2 -45 24 -64.5t80 -19.5q97 0 97 65q0 50 -43 56l-148 22q-66 10 -107.5 55t-41.5 125q0 149 176 174v107h139v-107q169 -26 169 -187h-148q0 37 -19 54.5t-71 17.5
q-49 0 -67.5 -12.5t-18.5 -40.5q0 -38 33 -44l131 -19q92 -14 135.5 -56.5t43.5 -137.5z" />
    <glyph glyph-name="percent" unicode="%" horiz-adv-x="954" 
d="M777 737l-475 -752h-128l475 752h128zM364 519q0 -37 -2.5 -64.5t-12 -59t-26 -52t-46.5 -34t-72 -13.5t-72 13.5t-47 34t-26.5 52t-12 59t-2.5 64.5q0 44 6 78t22 67t49.5 51t82.5 18t82 -18t49 -51t22 -67t6 -78zM253 519q0 74 -10 101t-38 27t-38.5 -27.5
t-10.5 -100.5q0 -77 10.5 -107t38.5 -30q27 0 37.5 30t10.5 107zM909 214q0 -37 -2.5 -64.5t-12 -59t-26 -52t-46.5 -34t-72 -13.5t-72 13.5t-47 34t-26.5 52t-12 59t-2.5 64.5q0 44 6 78t22 67t49.5 51t82.5 18t82 -18t49 -51t22 -67t6 -78zM798 214q0 74 -10 101t-38 27
t-38.5 -27.5t-10.5 -100.5q0 -77 10.5 -107t38.5 -30q27 0 37.5 30t10.5 107z" />
    <glyph glyph-name="ampersand" unicode="&#x26;" horiz-adv-x="711" 
d="M720 13l-178 -35l-54 57q-76 -50 -171 -50q-85 0 -149 21t-105.5 72.5t-41.5 129.5v16q0 63 30.5 103.5t87.5 69.5l-3 4q-64 86 -64 143v8q0 51 22.5 88.5t59.5 57.5t76.5 29.5t80.5 9.5t80 -9.5t75.5 -29.5t58.5 -57.5t22 -88.5v-8q0 -64 -28.5 -106.5t-94.5 -70.5
l-36 -15l93 -95q11 27 11 60v26h152v-26q0 -88 -50 -175zM381 544v8q0 61 -70 61q-72 0 -72 -61v-8q0 -40 32 -72l10 -10l58 26q42 19 42 56zM383 144l-140 144q-10 -3 -13 -9q-29 -20 -29 -55v-16q0 -83 116 -83q36 0 66 19z" />
    <glyph glyph-name="quotesingle" unicode="'" horiz-adv-x="255" 
d="M211 721l-38 -234q-2 -14 -16 -14h-79q-8 0 -10 2.5t-2 11.5v234h145z" />
    <glyph glyph-name="parenleft" unicode="(" horiz-adv-x="360" 
d="M333 -163q-65 0 -114 25t-79.5 67t-49.5 103.5t-26 127t-7 144.5t7 144.5t26 127t49.5 103.5t79.5 67t114 25v-120q-48 0 -70.5 -28t-33.5 -83q-12 -62 -12 -236t12 -236q11 -55 33.5 -83t70.5 -28v-120z" />
    <glyph glyph-name="parenright" unicode=")" horiz-adv-x="360" 
d="M303 304q0 -79 -7 -144.5t-26 -127t-49.5 -103.5t-79.5 -67t-114 -25v120q48 0 70.5 28t33.5 83q12 62 12 236q0 169 -13 236q-11 55 -33.5 83t-70.5 28v120q80 0 136.5 -37t86 -104.5t42 -146.5t12.5 -179z" />
    <glyph glyph-name="asterisk" unicode="*" horiz-adv-x="377" 
d="M359 569q6 -19 -12 -22l-95 -11l72 -65q14 -12 -4 -25l-66 -47q-17 -12 -24 4l-40 87l-40 -89q-7 -16 -24 -4l-66 48q-18 13 -4 25l71 64l-96 11q-18 1 -12 22l25 77q6 20 22 11l85 -48l-21 96q-4 18 17 18h81q22 0 18 -18l-19 -94l84 49q15 9 22 -12z" />
    <glyph glyph-name="plus" unicode="+" 
d="M613 294h-215v-217h-135v217h-216v134h216v215h135v-215h215v-134z" />
    <glyph glyph-name="comma" unicode="," horiz-adv-x="294" 
d="M236 21q0 -61 -41 -115.5t-105 -84.5l-51 57q40 28 56.5 54.5t16.5 67.5h-44q-10 0 -10 9v154q0 15 11 15h156q11 0 11 -15v-142z" />
    <glyph glyph-name="hyphen" unicode="-" horiz-adv-x="343" 
d="M310 246h-277v147h277v-147z" />
    <glyph glyph-name="period" unicode="." horiz-adv-x="294" 
d="M236 11q0 -11 -10 -11h-158q-10 0 -10 11v155q0 12 10 12h158q10 0 10 -12v-155z" />
    <glyph glyph-name="slash" unicode="/" horiz-adv-x="497" 
d="M470 737l-319 -752h-123l319 752h123z" />
    <glyph glyph-name="zero" unicode="0" 
d="M601 369q0 -64 -4.5 -111.5t-20.5 -102t-44 -89t-79.5 -58t-122.5 -23.5q-51 0 -92.5 12t-69.5 31.5t-48.5 50t-32 62t-18.5 73t-9 76.5t-2 79q0 61 5.5 108.5t22.5 98.5t46 84.5t79.5 55t118.5 21.5t118.5 -21.5t79 -55t45.5 -84.5t22.5 -98.5t5.5 -108.5zM424 369
q0 134 -20 184t-74 50q-55 0 -75 -50t-20 -184q0 -141 20.5 -196t74.5 -55t74 54.5t20 196.5z" />
    <glyph glyph-name="one" unicode="1" 
d="M573 0h-478v140h151v406q0 7 8 23l-159 -31v137l327 63v-598h151v-140z" />
    <glyph glyph-name="two" unicode="2" 
d="M593 523q0 -77 -40 -127t-143 -123q-76 -54 -104 -79t-44 -58h174v65h153v-201h-533q0 63 15.5 117t35.5 89.5t57 72.5t62.5 56.5t69.5 49.5q74 50 96.5 75t22.5 63q0 81 -82 81q-117 0 -123 -119h-149q2 116 70.5 184t201.5 68q128 0 194 -54t66 -160z" />
    <glyph glyph-name="three" unicode="3" 
d="M609 220q0 -112 -81 -173.5t-201 -61.5q-205 0 -289 169l130 59q33 -56 67.5 -76t90.5 -20q107 0 107 102q0 41 -23 67t-66 26h-96l-39 126h131q40 0 59.5 25t19.5 64q0 79 -90 79q-55 0 -91.5 -19.5t-63.5 -69.5l-129 57q32 63 80.5 100.5t98 50t111.5 12.5
q134 0 197 -56.5t63 -147.5q0 -50 -25.5 -91.5t-65.5 -60.5q49 -21 77 -64t28 -97z" />
    <glyph glyph-name="four" unicode="4" 
d="M631 167h-76v-167h-175v167h-343v128l364 426h154v-413h76v-141zM390 491l-160 -183h150v148q0 15 10 35z" />
    <glyph glyph-name="five" unicode="5" 
d="M605 242q0 -117 -70.5 -187t-209.5 -70q-207 0 -291 169l130 59q33 -55 68 -75.5t91 -20.5q105 0 105 120q0 56 -28 83.5t-93 27.5q-100 0 -170 -27l-57 53l42 347h478l-39 -140h-302l-14 -110q43 8 86 8q130 0 202 -57.5t72 -179.5z" />
    <glyph glyph-name="six" unicode="6" 
d="M601 255q0 -124 -65.5 -197t-208.5 -73q-144 0 -209.5 73t-65.5 197v114q0 60 4 104t21 97t46.5 87t84.5 57t132 23q170 0 256 -114l-105 -91q-35 37 -68 53.5t-83 16.5q-109 0 -115 -134q50 26 108 26q133 0 200.5 -62t67.5 -177zM425 255q0 59 -22.5 86t-75.5 27
q-102 0 -102 -113q0 -75 25 -106.5t77 -31.5q53 0 75.5 31.5t22.5 106.5z" />
    <glyph glyph-name="seven" unicode="7" 
d="M611 599l-339 -599h-202l322 558q9 14 27 25h-204v-76h-153v214h549v-122z" />
    <glyph glyph-name="eight" unicode="8" 
d="M610 224q0 -239 -277 -239t-277 239q0 97 91 156q-33 19 -56.5 57t-23.5 85q0 215 267 215q265 0 265 -215q0 -47 -23.5 -85t-56.5 -57q91 -59 91 -156zM427 522q0 84 -94 84t-94 -84q0 -80 58 -80h71q59 0 59 80zM434 224q0 41 -17.5 66.5t-51.5 25.5h-64q-34 0 -52 -26
t-18 -66q0 -59 23.5 -83t78.5 -24t78 24t23 83z" />
    <glyph glyph-name="nine" unicode="9" 
d="M602 354q0 -42 -2 -74t-9 -72t-18.5 -70t-33.5 -60t-51.5 -49.5t-74 -31.5t-99.5 -12q-167 0 -254 116l101 87q35 -37 69 -54t84 -17q110 0 116 136q-46 -24 -108 -24q-133 0 -201 61.5t-68 176.5q0 124 65.5 197t208.5 73q144 0 209.5 -73t65.5 -197v-113zM430 467
q0 75 -25.5 106.5t-77.5 31.5q-53 0 -75 -31.5t-22 -106.5q0 -60 22 -86t75 -26q103 0 103 112z" />
    <glyph glyph-name="colon" unicode=":" horiz-adv-x="294" 
d="M236 370q0 -11 -10 -11h-158q-10 0 -10 11v155q0 12 10 12h158q10 0 10 -12v-155zM236 11q0 -11 -10 -11h-158q-10 0 -10 11v155q0 12 10 12h158q10 0 10 -12v-155z" />
    <glyph glyph-name="semicolon" unicode=";" horiz-adv-x="294" 
d="M236 370q0 -11 -10 -11h-158q-10 0 -10 11v155q0 12 10 12h158q10 0 10 -12v-155zM236 21q0 -61 -41 -115.5t-105 -84.5l-51 57q40 28 56.5 54.5t16.5 67.5h-44q-10 0 -10 9v154q0 15 11 15h156q11 0 11 -15v-142z" />
    <glyph glyph-name="less" unicode="&#x3c;" 
d="M532 80h-180l-224 280l224 280h180l-226 -280z" />
    <glyph glyph-name="equal" unicode="=" 
d="M578 423h-496v140h496v-140zM578 159h-496v140h496v-140z" />
    <glyph glyph-name="greater" unicode="&#x3e;" 
d="M532 360l-225 -280h-179l225 280l-225 280h179z" />
    <glyph glyph-name="question" unicode="?" horiz-adv-x="584" 
d="M546 574q0 -60 -26 -101t-88 -94q-3 -3 -22 -17.5t-25.5 -21.5t-19 -20.5t-17 -27t-4.5 -28.5v-49h-155v49q0 47 12 81t32 57.5t59 55.5q53 44 67.5 64.5t14.5 51.5q0 50 -19 71t-68 21q-55 0 -76.5 -25.5t-22.5 -87.5h-152q1 117 56 180t195 63q135 0 197 -56.5
t62 -165.5zM356 11q0 -11 -10 -11h-158q-10 0 -10 11v155q0 12 10 12h158q10 0 10 -12v-155z" />
    <glyph glyph-name="at" unicode="@" horiz-adv-x="985" 
d="M935 314q0 -118 -65.5 -201.5t-181.5 -83.5h-131l-8 61q-43 -41 -80.5 -58.5t-85.5 -17.5q-70 0 -110.5 46.5t-40.5 136.5q0 79 24 138.5t66.5 93.5t96 50.5t117.5 16.5q81 0 168 -23q20 -40 20 -91q0 -18 -3 -36l-34 -231h15q62 0 98 56.5t36 142.5q0 72 -26.5 127
t-72 87.5t-100 48.5t-116.5 16q-54 0 -106 -13t-101 -41t-85.5 -68t-59 -99t-22.5 -130q0 -160 89 -241.5t225 -81.5q111 0 214 46l40 -65q-135 -58 -267 -58q-82 0 -153 23.5t-127 71t-88 125.5t-32 180q0 138 67 238t172 147.5t232 47.5q87 0 161.5 -23t131.5 -67
t90 -113.5t33 -157.5zM571 367q0 11 -2 35q-25 3 -37 3q-75 0 -108 -53t-33 -155q0 -44 10.5 -63t35.5 -19q22 0 47 17t64 51l21 152q2 11 2 32z" />
    <glyph glyph-name="A" unicode="A" horiz-adv-x="735" 
d="M727 0h-189l-55 145h-239l-55 -145h-180l279 721h161zM428 290l-56 155q-5 12 -8 31q-2 -14 -9 -31l-57 -155h130z" />
    <glyph glyph-name="B" unicode="B" horiz-adv-x="662" 
d="M636 227q0 -115 -77.5 -171t-217.5 -56h-291v721h291q263 0 263 -203q0 -39 -19 -74.5t-53 -55.5q104 -45 104 -161zM421 513q0 33 -18.5 51t-63.5 18h-110v-140h114q78 0 78 71zM452 227q0 42 -25 62t-84 20h-114v-170h110q64 0 88.5 22.5t24.5 65.5z" />
    <glyph glyph-name="C" unicode="C" horiz-adv-x="685" 
d="M663 173q-38 -89 -108 -138.5t-193 -49.5q-79 0 -138 21.5t-94.5 56.5t-57 85.5t-29 101t-7.5 111.5q0 86 16 151.5t52.5 117.5t101 79.5t156.5 27.5q142 0 215 -70.5t82 -193.5h-166q-9 61 -39 87.5t-92 26.5q-84 0 -113 -51t-29 -175q0 -120 28.5 -173.5t113.5 -53.5
q58 0 95.5 27t67.5 93z" />
    <glyph glyph-name="D" unicode="D" horiz-adv-x="701" 
d="M669 369q0 -77 -20 -141t-62.5 -116.5t-117 -82t-174.5 -29.5h-245v721h245q98 0 171.5 -27t117 -75.5t64.5 -111t21 -138.5zM485 369q0 107 -45 156.5t-145 49.5h-65v-430h65q98 0 144 55t46 169z" />
    <glyph glyph-name="E" unicode="E" horiz-adv-x="613" 
d="M574 0h-524v721h524v-148h-344v-124h314l-46 -149h-273q5 -10 5 -19v-133h344v-148z" />
    <glyph glyph-name="F" unicode="F" horiz-adv-x="578" 
d="M558 721l-48 -148h-282v-132h253v-146h-257q4 -12 4 -19v-276h-178v721h508z" />
    <glyph glyph-name="G" unicode="G" horiz-adv-x="731" 
d="M681 93q-142 -108 -295 -108q-183 0 -266.5 93t-83.5 283q0 183 81 279.5t268 96.5q140 0 213.5 -70.5t82.5 -188.5h-168q-16 109 -128 109q-92 0 -128.5 -48.5t-36.5 -177.5q0 -130 36.5 -178.5t129.5 -48.5q63 0 114 32v76q0 7 4 19h-115l-40 141h332v-309z" />
    <glyph glyph-name="H" unicode="H" horiz-adv-x="733" 
d="M683 0h-180v300h-273v-300h-180v721h180v-266h273v266h180v-721z" />
    <glyph glyph-name="I" unicode="I" horiz-adv-x="280" 
d="M230 0h-180v721h180v-721z" />
    <glyph glyph-name="J" unicode="J" horiz-adv-x="491" 
d="M429 223q0 -238 -241 -238q-105 0 -181 56l90 124q42 -31 91 -31q35 0 48.5 20t13.5 69v498h179v-498z" />
    <glyph glyph-name="K" unicode="K" horiz-adv-x="685" 
d="M679 0h-233l-186 239q-7 8 -9 32l-21 -20v-251h-180v721h180v-243l216 243h230l-311 -328z" />
    <glyph glyph-name="L" unicode="L" horiz-adv-x="548" 
d="M516 0h-466v721h180v-565h286v-156z" />
    <glyph glyph-name="M" unicode="M" horiz-adv-x="850" 
d="M803 0h-172l-27 336q-2 22 4 59l-115 -249h-137l-115 249q6 -37 4 -59l-27 -336h-172l57 721h153l156 -330q7 -15 12 -53q4 36 13 53l156 330h153z" />
    <glyph glyph-name="N" unicode="N" horiz-adv-x="743" 
d="M693 0h-156l-318 420q8 -26 8 -41v-379h-177v721h154l320 -420q-8 26 -8 47v373h177v-721z" />
    <glyph glyph-name="O" unicode="O" horiz-adv-x="734" 
d="M697 369q0 -66 -8 -119t-30.5 -104t-58.5 -85t-95.5 -55t-138.5 -21t-138 21t-95 55.5t-58.5 85.5t-30.5 104t-8 118q0 368 330 368q331 0 331 -368zM513 369q0 120 -32.5 169t-114.5 49t-113.5 -48.5t-31.5 -169.5q0 -133 31.5 -184t113.5 -51t114.5 51.5t32.5 183.5z
" />
    <glyph glyph-name="P" unicode="P" horiz-adv-x="639" 
d="M607 484q0 -118 -73 -182.5t-218 -64.5h-95q9 -13 9 -28v-209h-180v721h266q144 0 217.5 -60.5t73.5 -176.5zM424 484q0 52 -25 74t-83 22h-86v-202h86q57 0 82.5 25t25.5 81z" />
    <glyph glyph-name="Q" unicode="Q" horiz-adv-x="732" 
d="M712 5l-76 -151l-389 137q-80 28 -128.5 85.5t-65.5 126.5t-17 163q0 371 330 371q331 0 331 -371q0 -112 -26.5 -193.5t-101.5 -135.5q37 0 55 -5zM514 366q0 120 -33 170.5t-115 50.5t-113.5 -49.5t-31.5 -171.5q0 -133 32 -185.5t113 -52.5q82 0 115 53t33 185z" />
    <glyph glyph-name="R" unicode="R" horiz-adv-x="661" 
d="M651 0h-214l-157 240q-8 12 -10 26h-40v-266h-180v721h263q146 0 217 -59.5t71 -169.5q0 -152 -139 -203zM417 492q0 88 -104 88h-83v-174h83q104 0 104 86z" />
    <glyph glyph-name="S" unicode="S" horiz-adv-x="651" 
d="M623 221q0 -113 -78 -174.5t-219 -61.5q-212 0 -299 172l142 69q28 -48 63.5 -71t93.5 -23q66 0 92.5 21t26.5 62q0 31 -14.5 47t-52.5 23q-16 3 -57.5 9t-60 9t-54 12t-53 18.5t-42 27t-36 39t-20.5 52.5t-9 70q0 102 78.5 158.5t204.5 56.5q103 0 170.5 -34.5
t112.5 -108.5l-143 -70q-23 36 -55.5 52.5t-84.5 16.5q-106 0 -106 -64q0 -27 11.5 -40t38.5 -18q17 -3 48.5 -7.5t50 -7t47.5 -8.5t47 -12t42 -16t38.5 -22t31 -29.5t25 -38.5t14.5 -48.5t6 -60.5z" />
    <glyph glyph-name="T" unicode="T" horiz-adv-x="651" 
d="M623 574h-206v-574h-181v574h-207v147h594v-147z" />
    <glyph glyph-name="U" unicode="U" horiz-adv-x="737" 
d="M689 304q0 -160 -87.5 -239.5t-234.5 -79.5t-233 79t-86 240v417h180v-417q0 -92 34.5 -131t104.5 -39q71 0 105.5 38.5t34.5 131.5v417h182v-417z" />
    <glyph glyph-name="V" unicode="V" horiz-adv-x="730" 
d="M719 721l-271 -721h-168l-271 721h197l148 -429q3 -10 9 -62q5 44 11 62l148 429h197z" />
    <glyph glyph-name="W" unicode="W" horiz-adv-x="916" 
d="M903 721l-174 -721h-172l-88 348q-6 27 -10 57q-1 -11 -12 -57l-88 -348h-172l-174 721h181l76 -362q5 -27 10 -71q6 58 10 71l88 340h160l88 -340q4 -13 10 -71q5 44 10 71l76 362h181z" />
    <glyph glyph-name="X" unicode="X" horiz-adv-x="707" 
d="M705 0h-221l-118 206q-9 16 -11 40q-5 -28 -12 -41l-119 -205h-223l234 369l-210 352h221l98 -188q10 -18 13 -39q4 22 12 39l99 188h224l-213 -357z" />
    <glyph glyph-name="Y" unicode="Y" horiz-adv-x="708" 
d="M704 721l-258 -432v-289h-182v289l-259 432h206l132 -248q3 -6 10 -37q7 31 10 36l135 249h206z" />
    <glyph glyph-name="Z" unicode="Z" horiz-adv-x="622" 
d="M589 593l-299 -426q-8 -12 -20 -20h311v-147h-539v127l301 427q8 11 20 20h-287l-46 147h559v-128z" />
    <glyph glyph-name="bracketleft" unicode="[" horiz-adv-x="344" 
d="M341 -163h-287v934h287v-112l-127 -9v-692l127 -9v-112z" />
    <glyph glyph-name="backslash" unicode="\" horiz-adv-x="497" 
d="M470 -15h-123l-319 752h123z" />
    <glyph glyph-name="bracketright" unicode="]" horiz-adv-x="344" 
d="M290 -163h-288v112l128 9v692l-128 9v112h288v-934z" />
    <glyph glyph-name="asciicircum" unicode="^" 
d="M534 502l-68 -58l-136 160l-137 -160l-68 58l161 212q17 23 44 23t44 -23z" />
    <glyph glyph-name="underscore" unicode="_" horiz-adv-x="512" 
d="M518 -143h-524v98h524v-98z" />
    <glyph glyph-name="grave" unicode="`" horiz-adv-x="358" 
d="M50 737l181 -139q10 -8 19 1l51 48q9 9 -1 19l-155 166z" />
    <glyph glyph-name="a" unicode="a" horiz-adv-x="594" 
d="M543 0h-129l-17 41q-67 -56 -151 -56q-107 0 -162.5 48.5t-55.5 137.5q0 168 214 168q59 0 120 -11v48q0 52 -75 52q-71 0 -106 -42l-114 67q74 99 231 99q119 0 182 -47t63 -129v-376zM362 132v105q-33 5 -67 5q-87 0 -87 -65q0 -69 68 -69q44 0 86 24z" />
    <glyph glyph-name="b" unicode="b" horiz-adv-x="622" 
d="M594 272q0 -150 -72.5 -218.5t-212.5 -68.5q-132 0 -258 57v737h179v-213q0 -19 -18 -45q57 31 111 31q271 0 271 -280zM412 272q0 86 -24 123t-76 37q-37 0 -82 -21v-295q38 -9 80 -9q58 0 80 37.5t22 127.5z" />
    <glyph glyph-name="c" unicode="c" horiz-adv-x="573" 
d="M558 124q-62 -139 -241 -139q-289 0 -289 284t289 284q178 0 241 -141l-129 -57q-24 38 -47 53.5t-65 15.5q-56 0 -81.5 -33.5t-25.5 -121.5t24.5 -121.5t82.5 -33.5q42 0 65 15t47 53z" />
    <glyph glyph-name="d" unicode="d" horiz-adv-x="626" 
d="M572 0h-134l-14 37q-60 -52 -136 -52q-118 0 -189 69t-71 217q0 139 73.5 210t203.5 71q54 0 100 -25q-12 24 -12 39v213h179v-779zM393 131v284q-37 16 -73 16q-57 0 -83.5 -37.5t-26.5 -122.5q0 -77 22.5 -120.5t79.5 -43.5q38 0 81 24z" />
    <glyph glyph-name="e" unicode="e" horiz-adv-x="607" 
d="M579 225h-372q0 -113 108 -113q75 0 112 58l139 -46q-74 -139 -251 -139q-287 0 -287 284q0 138 72.5 210.5t210.5 72.5q268 0 268 -297v-30zM405 331q-3 47 -27.5 72t-65.5 25q-89 0 -103 -97h196z" />
    <glyph glyph-name="f" unicode="f" horiz-adv-x="464" 
d="M490 752l-35 -125q-68 20 -107 20q-37 0 -55.5 -17.5t-18.5 -61.5v-31h162l-33 -131h-129v-406h-181v369q0 20 15 37h-89v131h74v31q0 64 17.5 107t50.5 65t70 30.5t86 8.5q72 0 173 -27z" />
    <glyph glyph-name="g" unicode="g" horiz-adv-x="653" 
d="M650 553l-22 -136h-27q-25 0 -44 10q17 -37 17 -80q0 -105 -64.5 -154t-195.5 -49q-34 0 -80 7q-4 0 -13 2.5t-14 2.5q-16 0 -16 -16q0 -10 6.5 -15t24.5 -8l206 -36q96 -16 139.5 -51t43.5 -106q0 -93 -74.5 -133t-222.5 -40q-69 0 -119 8.5t-93.5 30t-65.5 63
t-22 102.5q0 79 75 129q-25 25 -25 56q0 44 48 66q-59 56 -59 141q0 206 261 206q101 0 154 -31l57 31h125zM399 348q0 84 -85 84q-84 0 -84 -84q0 -81 84 -81q85 0 85 81zM422 -66q0 25 -9 38.5t-36 18.5l-172 31q-21 -28 -21 -68q0 -43 32 -62t98 -19q108 0 108 61z" />
    <glyph glyph-name="h" unicode="h" horiz-adv-x="619" 
d="M570 0h-181v333q0 48 -14.5 70t-48.5 22q-43 0 -94 -36v-389h-182v778h182v-277q57 51 130 51q105 0 156.5 -59.5t51.5 -159.5v-333z" />
    <glyph glyph-name="i" unicode="i" horiz-adv-x="283" 
d="M232 0h-181v537h181v-537zM59 618h166q10 0 10 10v141q0 10 -10 10h-166q-10 0 -10 -10v-141q0 -10 10 -10z" />
    <glyph glyph-name="j" unicode="j" horiz-adv-x="283" 
d="M232 -75q0 -75 -42 -120.5t-129 -45.5h-109v139h77q14 0 18 6t4 21v612h181v-612zM59 618h166q10 0 10 10v141q0 10 -10 10h-166q-10 0 -10 -10v-141q0 -10 10 -10z" />
    <glyph glyph-name="k" unicode="k" horiz-adv-x="634" 
d="M623 0h-220l-138 202q-7 11 -7 32l-27 -22v-212h-180v779h180v-386l151 144h240l-249 -208z" />
    <glyph glyph-name="l" unicode="l" horiz-adv-x="319" 
d="M299 -9h-97q-74 0 -112.5 40.5t-38.5 118.5v629h180v-629q0 -29 23 -29h45v-130z" />
    <glyph glyph-name="m" unicode="m" horiz-adv-x="917" 
d="M870 0h-180v339q0 48 -12 67.5t-39 19.5q-42 0 -91 -35q3 -27 3 -52v-339h-180v339q0 48 -10.5 67.5t-38.5 19.5q-35 0 -90 -37v-389h-181v537h150l19 -50q62 66 147 66q49 0 83.5 -17.5t64.5 -56.5q77 74 169 74q95 0 140.5 -53t45.5 -161v-339z" />
    <glyph glyph-name="n" unicode="n" horiz-adv-x="616" 
d="M570 0h-181v333q0 48 -14.5 70.5t-48.5 22.5q-41 0 -94 -37v-389h-181v537h150l18 -49q65 65 143 65q105 0 156.5 -59.5t51.5 -160.5v-333z" />
    <glyph glyph-name="o" unicode="o" horiz-adv-x="623" 
d="M595 270q0 -133 -68 -209t-216 -76q-283 0 -283 284t283 284q284 0 284 -283zM412 270q0 88 -23.5 119.5t-77.5 31.5t-77.5 -32t-23.5 -120t23.5 -120.5t77.5 -32.5q53 0 77 33t24 121z" />
    <glyph glyph-name="p" unicode="p" horiz-adv-x="626" 
d="M598 272q0 -136 -69.5 -211.5t-207.5 -75.5q-54 0 -97 21q11 -25 11 -34v-215h-181v780h135l15 -38q60 54 141 54q116 0 184.5 -71t68.5 -210zM417 272q0 81 -24 120.5t-78 39.5q-35 0 -80 -27v-283q34 -16 77 -16q55 0 80 40t25 126z" />
    <glyph glyph-name="q" unicode="q" horiz-adv-x="628" 
d="M575 -243h-181v212q0 19 9 36q-54 -20 -105 -20q-270 0 -270 277q0 83 21 141t61.5 90t90.5 46t117 14q120 0 257 -37v-759zM394 121v303q-39 9 -74 9q-58 0 -83.5 -39.5t-25.5 -131.5q0 -87 24.5 -121t77.5 -34q44 0 81 14z" />
    <glyph glyph-name="r" unicode="r" horiz-adv-x="431" 
d="M409 406q-35 5 -67 5q-67 0 -110 -24v-387h-181v537h151l17 -47q51 63 132 63q19 0 58 -7v-140z" />
    <glyph glyph-name="s" unicode="s" horiz-adv-x="549" 
d="M524 173q0 -92 -68 -140t-182 -48q-186 0 -250 129l127 48q38 -58 123 -58q78 0 78 49q0 37 -40 44l-128 21q-67 11 -108 52.5t-41 117.5q0 85 67.5 125t174.5 40q159 0 234 -107l-118 -62q-42 49 -116 49q-70 0 -70 -42q0 -31 33 -37l113 -19q84 -14 127.5 -51
t43.5 -111z" />
    <glyph glyph-name="t" unicode="t" horiz-adv-x="494" 
d="M495 55q-78 -70 -192 -70q-89 0 -145.5 42.5t-56.5 131.5v207q0 21 16 40h-99v131h83v171l180 49v-220h193l-42 -131h-151v-247q0 -39 44 -39q41 0 75 29z" />
    <glyph glyph-name="u" unicode="u" horiz-adv-x="616" 
d="M565 0h-149l-19 48q-63 -63 -143 -63q-105 0 -156.5 59.5t-51.5 159.5v333h181v-333q0 -47 14 -70t48 -23q44 0 95 36v390h181v-537z" />
    <glyph glyph-name="v" unicode="v" horiz-adv-x="616" 
d="M604 537l-211 -537h-172l-209 537h186l94 -300q7 -23 16 -93q11 72 17 93l94 300h185z" />
    <glyph glyph-name="w" unicode="w" horiz-adv-x="856" 
d="M843 537l-171 -537h-156l-69 236q-13 45 -20 95q-8 -56 -20 -95l-69 -236h-156l-169 537h179l60 -254q10 -41 14 -94q12 62 20 94l69 254h144l70 -254q15 -55 19 -94q3 34 16 94l59 254h180z" />
    <glyph glyph-name="x" unicode="x" horiz-adv-x="641" 
d="M633 0h-210l-89 135q-14 21 -16 60q-9 -50 -15 -60l-82 -135h-213l198 277l-186 260h212l74 -120q9 -14 16 -63q2 39 17 64l70 119h210l-179 -263z" />
    <glyph glyph-name="y" unicode="y" horiz-adv-x="629" 
d="M615 537l-259 -659q-25 -63 -72.5 -91.5t-139.5 -28.5h-96v133h96q19 0 29 10t20 34l31 77l-211 525h188l102 -314q10 -30 11 -51q1 13 12 51l101 314h188z" />
    <glyph glyph-name="z" unicode="z" horiz-adv-x="548" 
d="M511 0h-469v126l211 243q15 16 45 27h-225l-42 141h478v-126l-208 -241q-16 -20 -46 -31h256v-139z" />
    <glyph glyph-name="braceleft" unicode="{" horiz-adv-x="390" 
d="M382 -163h-160q-58 0 -92.5 35t-34.5 100v210q0 70 -64 78v89q38 5 50.5 25t12.5 52v210q0 65 34.5 100t92.5 35h160v-113h-94q-19 0 -26.5 -7t-7.5 -30v-207q0 -91 -79 -111q80 -21 80 -109v-207q0 -23 7 -30t27 -7h94v-113z" />
    <glyph glyph-name="bar" unicode="|" horiz-adv-x="297" 
d="M228 -163h-159v934h159v-934z" />
    <glyph glyph-name="braceright" unicode="}" horiz-adv-x="390" 
d="M359 260q-64 -8 -64 -78v-210q0 -65 -34.5 -100t-92.5 -35h-160v113h89q20 0 29.5 7.5t9.5 29.5v207q0 88 80 109q-79 20 -79 111v207q0 22 -9.5 29.5t-29.5 7.5h-90v113h161q58 0 92.5 -35t34.5 -100v-210q0 -32 12.5 -52t50.5 -25v-89z" />
    <glyph glyph-name="asciitilde" unicode="~" 
d="M573 364q-49 -69 -134 -69q-40 0 -78.5 21.5t-73.5 43t-66 21.5q-86 0 -135 -69v144q49 69 134 69q35 0 67.5 -13.5t53 -29.5t46.5 -29.5t51 -13.5q86 0 135 69v-144z" />
    <glyph glyph-name="uni00A0" unicode="&#xa0;" horiz-adv-x="233" 
 />
    <glyph glyph-name="exclamdown" unicode="&#xa1;" horiz-adv-x="284" 
d="M222 397q0 -7 -1 -8.5t-7 -1.5h-147q-8 0 -8 10v146q0 7 1 8t7 1h147q6 0 7 -1t1 -8v-146zM230 -227h-177v371l22 181h133l22 -182v-370z" />
    <glyph glyph-name="cent" unicode="&#xa2;" 
d="M579 433h-134q-4 69 -94 69q-50 0 -72.5 -35t-22.5 -109t22.5 -108t72.5 -34q30 0 51 9.5t31 21t25 34.5l120 -58q-31 -53 -69 -82t-93 -41v-115h-138v115q-195 35 -195 258q0 226 194 259v120h139v-118q76 -12 119 -60t44 -126z" />
    <glyph glyph-name="sterling" unicode="&#xa3;" 
d="M607 649l-95 -99q-34 32 -62 44t-73 12q-44 0 -64.5 -20t-20.5 -71v-89h148v-140h-148v-90q0 -39 -25 -56h330v-140h-504v129q30 24 30 65v92h-76v140h76v89q0 222 242 222q81 0 138.5 -20t103.5 -68z" />
    <glyph glyph-name="currency" unicode="&#xa4;" horiz-adv-x="645" 
d="M583 557q0 -8 -7 -15l-86 -85q23 -41 23 -86q0 -48 -24 -90l84 -84q7 -7 7 -15q0 -6 -5 -11l-57 -57q-5 -5 -11 -5q-8 0 -15 7l-86 87q-38 -21 -82 -21q-46 0 -86 22l-85 -85q-8 -8 -16 -8q-5 0 -10 5l-57 57q-5 5 -5 12q0 8 7 15l85 84q-23 41 -23 87t20 82l-85 86
q-7 7 -7 15q0 6 5 11l57 57q5 5 11 5q8 0 15 -7l83 -83q40 23 91 23q46 0 86 -22l85 85q7 7 15 7q6 0 11 -5l57 -57q5 -5 5 -11zM410 374q0 34 -24.5 58.5t-59.5 24.5t-60 -24.5t-25 -58.5t25 -59t60 -25q34 0 59 25t25 59z" />
    <glyph glyph-name="yen" unicode="&#xa5;" 
d="M663 721l-114 -202h75v-101h-130l-42 -74h172v-101h-204v-243h-179v243h-209v101h176l-41 74h-135v101h78l-114 202h193l127 -257q9 -17 13 -46q5 32 12 46l128 257h194z" />
    <glyph glyph-name="brokenbar" unicode="&#xa6;" horiz-adv-x="329" 
d="M236 433h-143v317h143v-317zM236 0h-143v317h143v-317z" />
    <glyph glyph-name="section" unicode="&#xa7;" horiz-adv-x="630" 
d="M557 97q0 -113 -61 -161t-195 -48h-223v200h139v-79h84q62 0 80.5 15.5t18.5 53.5q0 25 -10.5 35.5t-39.5 18.5l-126 32q-153 38 -153 208v148q0 107 54.5 154t162.5 47h257v-191h-138v70h-119q-62 0 -62 -49q0 -26 9 -38t40 -20l113 -30q45 -12 72.5 -24.5t51.5 -34.5
t34.5 -56.5t10.5 -85.5v-165zM400 236v38q0 55 -48 67l-107 27q-10 2 -19 21v-33q0 -31 10.5 -47.5t36.5 -23.5l108 -28q11 -4 19 -21z" />
    <glyph glyph-name="dieresis" unicode="&#xa8;" horiz-adv-x="517" 
d="M461 641q0 -8 -7 -8h-132q-5 0 -6.5 1.5t-1.5 6.5v138q0 9 8 9h132q7 0 7 -9v-138zM205 641q0 -8 -7 -8h-132q-5 0 -6.5 1.5t-1.5 6.5v138q0 9 8 9h132q7 0 7 -9v-138z" />
    <glyph glyph-name="copyright" unicode="&#xa9;" horiz-adv-x="896" 
d="M836 359q0 -156 -114 -265t-275 -109t-274 109t-113 265t113.5 267t273.5 111q161 0 275 -111t114 -267zM744 359q0 119 -87 204.5t-210 85.5t-209 -85t-86 -205q0 -119 86 -202.5t209 -83.5t210 84t87 202zM616 248q-55 -108 -169 -108q-46 0 -80.5 12t-54.5 32
t-32.5 49.5t-17 59t-4.5 65.5q0 104 42 160.5t145 56.5q82 0 124.5 -43.5t46.5 -117.5h-101q-4 36 -20.5 52t-49.5 16q-45 0 -60 -27.5t-15 -96.5q0 -66 16 -96t61 -30q26 0 46.5 14t39.5 53z" />
    <glyph glyph-name="ordfeminine" unicode="&#xaa;" horiz-adv-x="349" 
d="M303 456h-62l-11 22q-32 -31 -77 -31q-52 0 -82.5 25t-30.5 72q0 84 110 84q29 0 57 -5v22q0 24 -34 24q-32 0 -51 -19l-61 35q42 52 118 52q124 0 124 -92v-189zM207 526v48q-27 3 -32 3q-39 0 -39 -30q0 -33 30 -33q17 0 41 12z" />
    <glyph glyph-name="guillemotleft" unicode="&#xab;" horiz-adv-x="620" 
d="M582 129l-80 -69l-191 215l191 216l80 -69l-121 -147zM304 129l-80 -69l-192 215l192 216l80 -69l-121 -147z" />
    <glyph glyph-name="logicalnot" unicode="&#xac;" 
d="M570 248h-136v184h-345v132h481v-316z" />
    <glyph glyph-name="uni00AD" unicode="&#xad;" horiz-adv-x="343" 
d="M310 246h-277v147h277v-147z" />
    <glyph glyph-name="registered" unicode="&#xae;" horiz-adv-x="896" 
d="M836 359q0 -156 -114 -265t-275 -109t-274 109t-113 265t113.5 267t273.5 111q161 0 275 -111t114 -267zM744 359q0 119 -87 204.5t-210 85.5t-209 -85t-86 -205q0 -119 86 -202.5t209 -83.5t210 84t87 202zM615 154h-113l-79 141q-1 1 -3 15h-39v-156h-98v418h155
q74 0 114.5 -35.5t40.5 -96.5q0 -87 -78 -118zM493 440q0 53 -62 53h-50v-108h50q62 0 62 55z" />
    <glyph glyph-name="macron" unicode="&#xaf;" horiz-adv-x="461" 
d="M399 626h-332v130h332v-130z" />
    <glyph glyph-name="degree" unicode="&#xb0;" horiz-adv-x="333" 
d="M303 600q0 -56 -40.5 -96t-96.5 -40t-95.5 40t-39.5 96t39.5 96t95.5 40t96.5 -40t40.5 -96zM221 600q0 23 -16.5 39.5t-38.5 16.5t-38 -16.5t-16 -39.5q0 -22 16 -38t38 -16q23 0 39 16t16 38z" />
    <glyph glyph-name="plusminus" unicode="&#xb1;" 
d="M613 386h-215v-217h-135v217h-217v134h216v215h135v-215h216v-134zM604 0h-549v118h549v-118z" />
    <glyph glyph-name="two.superior" unicode="&#xb2;" horiz-adv-x="391" 
d="M349 607q0 -46 -23.5 -75t-82.5 -71q-29 -21 -39.5 -29t-21.5 -18.5t-17 -21.5h85v37h97v-124h-313q0 46 11.5 82t35 64t41.5 43.5t50 37.5q39 26 52.5 41t13.5 34q0 40 -42 40q-61 0 -64 -67h-95q2 70 41.5 111.5t117.5 41.5q153 0 153 -126z" />
    <glyph glyph-name="three.superior" unicode="&#xb3;" horiz-adv-x="387" 
d="M356 434q0 -66 -47 -102t-118 -36q-117 0 -170 105l82 36q19 -32 38.5 -44t48.5 -12q56 0 56 58q0 18 -12 31.5t-33 13.5h-61l-23 76h81q40 0 40 49q0 39 -46 39q-30 0 -50 -11t-36 -41l-82 36q52 101 172 101q78 0 115 -33.5t37 -87.5q0 -57 -48 -85q56 -28 56 -93z" />
    <glyph glyph-name="acute" unicode="&#xb4;" horiz-adv-x="358" 
d="M308 737l-181 -139q-11 -8 -19 1l-51 48q-9 9 1 19l155 166z" />
    <glyph glyph-name="mu" unicode="&#xb5;" horiz-adv-x="616" 
d="M570 0h-149l-19 48q-63 -63 -143 -63q-18 0 -27 1v-228h-181v779h181v-333q0 -47 14 -70t48 -23q44 0 95 36v390h181v-537z" />
    <glyph glyph-name="paragraph" unicode="&#xb6;" horiz-adv-x="553" 
d="M508 0h-100v628h-55v-628h-100v342h-31q-103 0 -153 53.5t-50 137.5t50 136t153 52h286v-721z" />
    <glyph glyph-name="periodcentered" unicode="&#xb7;" horiz-adv-x="294" 
d="M236 344q0 -11 -10 -11h-158q-10 0 -10 11v155q0 12 10 12h158q10 0 10 -12v-155z" />
    <glyph glyph-name="cedilla" unicode="&#xb8;" horiz-adv-x="402" 
d="M329 -125q0 -92 -143 -92q-69 0 -126 21l18 51q62 -11 85 -11q52 0 52 36q0 14 -10 22t-26 8h-69l-29 45l56 58h88l-46 -54h29q67 0 94 -19.5t27 -64.5z" />
    <glyph glyph-name="one.superior" unicode="&#xb9;" horiz-adv-x="331" 
d="M307 305h-281v90h86v230l-86 -16v87l195 38v-339h86v-90z" />
    <glyph glyph-name="ordmasculine" unicode="&#xba;" horiz-adv-x="353" 
d="M320 592q0 -145 -143 -145t-143 145t143 145t143 -145zM223 592q0 43 -10.5 58t-35.5 15t-36 -15t-11 -58t11 -58.5t36 -15.5t35.5 15.5t10.5 58.5z" />
    <glyph glyph-name="guillemotright" unicode="&#xbb;" horiz-adv-x="620" 
d="M589 275l-193 -215l-79 69l120 146l-120 147l79 69zM310 275l-193 -215l-78 69l120 146l-120 147l78 69z" />
    <glyph glyph-name="onequarter" unicode="&#xbc;" horiz-adv-x="929" 
d="M326 305h-281v90h86v230l-86 -16v87l195 38v-339h86v-90zM788 737l-479 -752h-124l479 752h124zM884 95h-44v-95h-109v95h-195v80l210 244h94v-235h44v-89zM731 184v88l-75 -88h75z" />
    <glyph glyph-name="onehalf" unicode="&#xbd;" horiz-adv-x="976" 
d="M326 305h-281v90h86v230l-86 -16v87l195 38v-339h86v-90zM788 737l-479 -752h-124l479 752h124zM931 302q0 -46 -23.5 -75t-82.5 -71q-29 -21 -39.5 -29t-21.5 -18.5t-17 -21.5h85v37h97v-124h-313q0 46 11.5 82t35 64t41.5 43.5t50 37.5q39 26 52.5 41t13.5 34
q0 40 -42 40q-61 0 -64 -67h-95q2 70 41.5 111.5t117.5 41.5q153 0 153 -126z" />
    <glyph glyph-name="threequarters" unicode="&#xbe;" horiz-adv-x="954" 
d="M813 737l-479 -752h-124l479 752h124zM909 95h-44v-95h-109v95h-195v80l210 244h94v-235h44v-89zM756 184v88l-75 -88h75zM380 434q0 -66 -47 -102t-118 -36q-117 0 -170 105l82 36q19 -32 38.5 -44t48.5 -12q56 0 56 58q0 18 -12 31.5t-33 13.5h-61l-23 76h81
q40 0 40 49q0 39 -46 39q-30 0 -50 -11t-36 -41l-82 36q52 101 172 101q78 0 115 -33.5t37 -87.5q0 -57 -48 -85q56 -28 56 -93z" />
    <glyph glyph-name="questiondown" unicode="&#xbf;" horiz-adv-x="584" 
d="M406 386q0 -12 -10 -12h-158q-10 0 -10 12v155q0 11 10 11h158q10 0 10 -11v-155zM548 -1q-1 -117 -56 -180t-195 -63q-135 0 -197 56.5t-62 165.5q0 60 26 101t88 94q3 3 22 17.5t25.5 21.5t19 20.5t17 27t4.5 28.5v49h155v-49q0 -47 -12 -81t-32 -57.5t-59 -55.5
q-53 -44 -67.5 -64.5t-14.5 -51.5q0 -50 19 -71t68 -21q55 0 76.5 25.5t22.5 87.5h152z" />
    <glyph glyph-name="Agrave" unicode="&#xc0;" horiz-adv-x="735" 
d="M727 0h-189l-55 145h-239l-55 -145h-180l279 721h161zM428 290l-56 155q-5 12 -8 31q-2 -14 -9 -31l-57 -155h130zM193 907l181 -139q10 -8 19 1l51 48q9 9 -1 19l-155 166z" />
    <glyph glyph-name="Aacute" unicode="&#xc1;" horiz-adv-x="735" 
d="M727 0h-189l-55 145h-239l-55 -145h-180l279 721h161zM428 290l-56 155q-5 12 -8 31q-2 -14 -9 -31l-57 -155h130zM534 905l-181 -139q-11 -8 -19 1l-51 48q-9 9 1 19l155 166z" />
    <glyph glyph-name="Acircumflex" unicode="&#xc2;" horiz-adv-x="735" 
d="M727 0h-189l-55 145h-239l-55 -145h-180l279 721h161zM428 290l-56 155q-5 12 -8 31q-2 -14 -9 -31l-57 -155h130zM539 821l-62 -62l-110 92l-109 -92l-62 62l162 166q5 5 11 5q5 0 10 -5z" />
    <glyph glyph-name="Atilde" unicode="&#xc3;" horiz-adv-x="735" 
d="M727 0h-189l-55 145h-239l-55 -145h-180l279 721h161zM428 290l-56 155q-5 12 -8 31q-2 -14 -9 -31l-57 -155h130zM570 893l-82 -109q-18 -24 -49 -24q-24 0 -39 11l-83 57q-10 5 -11 5q-5 0 -9 -4l-59 -71l-73 49l90 118q19 25 48 25q22 0 40 -12l80 -55q5 -4 11 -4
t13 7l48 58z" />
    <glyph glyph-name="Adieresis" unicode="&#xc4;" horiz-adv-x="735" 
d="M727 0h-189l-55 145h-239l-55 -145h-180l279 721h161zM428 290l-56 155q-5 12 -8 31q-2 -14 -9 -31l-57 -155h130zM569 787q0 -8 -7 -8h-132q-5 0 -6.5 1.5t-1.5 6.5v138q0 9 8 9h132q7 0 7 -9v-138zM313 787q0 -8 -7 -8h-132q-5 0 -6.5 1.5t-1.5 6.5v138q0 9 8 9h132
q7 0 7 -9v-138z" />
    <glyph glyph-name="Aring" unicode="&#xc5;" horiz-adv-x="735" 
d="M727 0h-189l-55 145h-239l-55 -145h-180l279 721h161zM428 290l-56 155q-5 12 -8 31q-2 -14 -9 -31l-57 -155h130zM489 867q0 -50 -36 -86t-86 -36t-86 36t-36 86t36 86t86 36t86 -36t36 -86zM416 866q0 20 -15 34.5t-34 14.5t-33 -14.5t-14 -34.5t14 -33.5t33 -13.5
q20 0 34.5 14t14.5 33z" />
    <glyph glyph-name="AE" unicode="&#xc6;" horiz-adv-x="1030" 
d="M991 0h-528v154h-190l-80 -154h-184l355 721h627v-147h-347v-125h323l-48 -146h-281q6 -12 6 -25v-131h347v-147zM463 303v250q-4 -15 -10 -27l-109 -223h119z" />
    <glyph glyph-name="Ccedilla" unicode="&#xc7;" horiz-adv-x="685" 
d="M487 -125q0 -92 -143 -92q-69 0 -126 21l18 51q62 -11 85 -11q52 0 52 36q0 14 -10 22t-26 8h-69l-29 45l36 38q-71 13 -120 48.5t-74 88.5t-35 108t-10 123q0 86 16 151.5t52.5 117.5t101 79.5t156.5 27.5q142 0 215 -70.5t82 -193.5h-166q-9 61 -39 87.5t-92 26.5
q-84 0 -113 -51t-29 -175q0 -120 28.5 -173.5t113.5 -53.5q58 0 95.5 27t67.5 93l138 -81q-38 -89 -108 -138.5t-193 -49.5h-3l-22 -26h29q67 0 94 -19.5t27 -64.5z" />
    <glyph glyph-name="Egrave" unicode="&#xc8;" horiz-adv-x="613" 
d="M574 0h-524v721h524v-148h-344v-124h314l-46 -149h-273q5 -10 5 -19v-133h344v-148zM144 906l181 -139q10 -7 19 1l51 48q9 9 -1 19l-155 166z" />
    <glyph glyph-name="Eacute" unicode="&#xc9;" horiz-adv-x="613" 
d="M574 0h-524v721h524v-148h-344v-124h314l-46 -149h-273q5 -10 5 -19v-133h344v-148zM488 907l-181 -139q-11 -8 -19 1l-51 48q-9 9 1 19l155 166z" />
    <glyph glyph-name="Ecircumflex" unicode="&#xca;" horiz-adv-x="613" 
d="M574 0h-524v721h524v-148h-344v-124h314l-46 -149h-273q5 -10 5 -19v-133h344v-148zM478 823l-62 -62l-110 92l-109 -92l-62 62l162 166q5 5 11 5q5 0 10 -5z" />
    <glyph glyph-name="Edieresis" unicode="&#xcb;" horiz-adv-x="613" 
d="M574 0h-524v721h524v-148h-344v-124h314l-46 -149h-273q5 -10 5 -19v-133h344v-148zM518 787q0 -8 -7 -8h-132q-5 0 -6.5 1.5t-1.5 6.5v138q0 9 8 9h132q7 0 7 -9v-138zM262 787q0 -8 -7 -8h-132q-5 0 -6.5 1.5t-1.5 6.5v138q0 9 8 9h132q7 0 7 -9v-138z" />
    <glyph glyph-name="Igrave" unicode="&#xcc;" horiz-adv-x="280" 
d="M230 0h-180v721h180v-721zM-15 905l181 -139q10 -8 19 1l51 48q9 9 -1 19l-155 166z" />
    <glyph glyph-name="Iacute" unicode="&#xcd;" horiz-adv-x="280" 
d="M230 0h-180v721h180v-721zM304 906l-181 -139q-10 -7 -19 1l-51 48q-9 9 1 19l155 166z" />
    <glyph glyph-name="Icircumflex" unicode="&#xce;" horiz-adv-x="280" 
d="M230 0h-180v721h180v-721zM312 823l-62 -62l-110 92l-109 -92l-62 62l162 166q5 5 11 5q5 0 10 -5z" />
    <glyph glyph-name="Idieresis" unicode="&#xcf;" horiz-adv-x="280" 
d="M230 0h-180v721h180v-721zM342 788q0 -8 -7 -8h-132q-5 0 -6.5 1.5t-1.5 6.5v138q0 9 8 9h132q7 0 7 -9v-138zM86 788q0 -8 -7 -8h-132q-5 0 -6.5 1.5t-1.5 6.5v138q0 9 8 9h132q7 0 7 -9v-138z" />
    <glyph glyph-name="Eth" unicode="&#xd0;" horiz-adv-x="701" 
d="M669 369q0 -77 -20 -141t-62.5 -116.5t-117 -82t-174.5 -29.5h-245v308h-57v136h57v277h245q98 0 171.5 -27t117 -75.5t64.5 -111t21 -138.5zM485 369q0 107 -45 156.5t-145 49.5h-65v-131h135l-45 -136h-90v-163h65q98 0 144 55t46 169z" />
    <glyph glyph-name="Ntilde" unicode="&#xd1;" horiz-adv-x="743" 
d="M693 0h-156l-318 420q8 -26 8 -41v-379h-177v721h154l320 -420q-8 26 -8 47v373h177v-721zM574 892l-82 -109q-18 -24 -49 -24q-24 0 -39 11l-83 57q-10 5 -11 5q-5 0 -9 -4l-59 -71l-73 49l90 118q19 25 48 25q22 0 40 -12l80 -55q5 -4 11 -4t13 7l48 58z" />
    <glyph glyph-name="Ograve" unicode="&#xd2;" horiz-adv-x="734" 
d="M697 369q0 -66 -8 -119t-30.5 -104t-58.5 -85t-95.5 -55t-138.5 -21t-138 21t-95 55.5t-58.5 85.5t-30.5 104t-8 118q0 368 330 368q331 0 331 -368zM513 369q0 120 -32.5 169t-114.5 49t-113.5 -48.5t-31.5 -169.5q0 -133 31.5 -184t113.5 -51t114.5 51.5t32.5 183.5z
M209 906l181 -139q10 -7 19 1l51 48q9 9 -1 19l-155 166z" />
    <glyph glyph-name="Oacute" unicode="&#xd3;" horiz-adv-x="734" 
d="M697 369q0 -66 -8 -119t-30.5 -104t-58.5 -85t-95.5 -55t-138.5 -21t-138 21t-95 55.5t-58.5 85.5t-30.5 104t-8 118q0 368 330 368q331 0 331 -368zM513 369q0 120 -32.5 169t-114.5 49t-113.5 -48.5t-31.5 -169.5q0 -133 31.5 -184t113.5 -51t114.5 51.5t32.5 183.5z
M537 905l-181 -139q-11 -8 -19 1l-51 48q-9 9 1 19l155 166z" />
    <glyph glyph-name="Ocircumflex" unicode="&#xd4;" horiz-adv-x="734" 
d="M697 369q0 -66 -8 -119t-30.5 -104t-58.5 -85t-95.5 -55t-138.5 -21t-138 21t-95 55.5t-58.5 85.5t-30.5 104t-8 118q0 368 330 368q331 0 331 -368zM513 369q0 120 -32.5 169t-114.5 49t-113.5 -48.5t-31.5 -169.5q0 -133 31.5 -184t113.5 -51t114.5 51.5t32.5 183.5z
M538 822l-62 -62l-110 92l-109 -92l-62 62l162 166q5 5 11 5q5 0 10 -5z" />
    <glyph glyph-name="Otilde" unicode="&#xd5;" horiz-adv-x="734" 
d="M697 369q0 -66 -8 -119t-30.5 -104t-58.5 -85t-95.5 -55t-138.5 -21t-138 21t-95 55.5t-58.5 85.5t-30.5 104t-8 118q0 368 330 368q331 0 331 -368zM513 369q0 120 -32.5 169t-114.5 49t-113.5 -48.5t-31.5 -169.5q0 -133 31.5 -184t113.5 -51t114.5 51.5t32.5 183.5z
M569 896l-82 -109q-18 -24 -49 -24q-24 0 -39 11l-83 57q-10 5 -11 5q-5 0 -9 -4l-59 -71l-73 49l90 118q19 25 48 25q22 0 40 -12l80 -55q5 -4 11 -4t13 7l48 58z" />
    <glyph glyph-name="Odieresis" unicode="&#xd6;" horiz-adv-x="734" 
d="M697 369q0 -66 -8 -119t-30.5 -104t-58.5 -85t-95.5 -55t-138.5 -21t-138 21t-95 55.5t-58.5 85.5t-30.5 104t-8 118q0 368 330 368q331 0 331 -368zM513 369q0 120 -32.5 169t-114.5 49t-113.5 -48.5t-31.5 -169.5q0 -133 31.5 -184t113.5 -51t114.5 51.5t32.5 183.5z
M568 790q0 -8 -7 -8h-132q-5 0 -6.5 1.5t-1.5 6.5v138q0 9 8 9h132q7 0 7 -9v-138zM312 790q0 -8 -7 -8h-132q-5 0 -6.5 1.5t-1.5 6.5v138q0 9 8 9h132q7 0 7 -9v-138z" />
    <glyph glyph-name="multiply" unicode="&#xd7;" 
d="M577 231l-95 -95l-152 153l-152 -153l-96 95l153 153l-152 152l95 95l152 -152l152 152l95 -95l-152 -152z" />
    <glyph glyph-name="Oslash" unicode="&#xd8;" horiz-adv-x="734" 
d="M731 746l-96 -126q62 -87 62 -251q0 -66 -8 -119t-30.5 -104t-58.5 -85t-95.5 -55t-138.5 -21q-113 0 -186 42l-39 -52h-128l91 119q-68 93 -68 275q0 368 330 368q119 0 194 -47l43 56h128zM462 562q-34 27 -96 27q-83 0 -115.5 -49.5t-32.5 -170.5q0 -67 9 -114z
M516 369q0 50 -6 89l-232 -304q32 -22 88 -22q84 0 117 52t33 185z" />
    <glyph glyph-name="Ugrave" unicode="&#xd9;" horiz-adv-x="737" 
d="M689 304q0 -160 -87.5 -239.5t-234.5 -79.5t-233 79t-86 240v417h180v-417q0 -92 34.5 -131t104.5 -39q71 0 105.5 38.5t34.5 131.5v417h182v-417zM199 906l181 -139q11 -7 19 1l51 48q9 9 -1 19l-155 166z" />
    <glyph glyph-name="Uacute" unicode="&#xda;" horiz-adv-x="737" 
d="M689 304q0 -160 -87.5 -239.5t-234.5 -79.5t-233 79t-86 240v417h180v-417q0 -92 34.5 -131t104.5 -39q71 0 105.5 38.5t34.5 131.5v417h182v-417zM534 905l-181 -139q-11 -8 -19 1l-51 48q-9 9 1 19l155 166z" />
    <glyph glyph-name="Ucircumflex" unicode="&#xdb;" horiz-adv-x="737" 
d="M689 304q0 -160 -87.5 -239.5t-234.5 -79.5t-233 79t-86 240v417h180v-417q0 -92 34.5 -131t104.5 -39q71 0 105.5 38.5t34.5 131.5v417h182v-417zM540 822l-62 -62l-110 92l-109 -92l-62 62l162 166q5 5 11 5q5 0 10 -5z" />
    <glyph glyph-name="Udieresis" unicode="&#xdc;" horiz-adv-x="737" 
d="M689 304q0 -160 -87.5 -239.5t-234.5 -79.5t-233 79t-86 240v417h180v-417q0 -92 34.5 -131t104.5 -39q71 0 105.5 38.5t34.5 131.5v417h182v-417zM570 789q0 -8 -7 -8h-132q-5 0 -6.5 1.5t-1.5 6.5v138q0 9 8 9h132q7 0 7 -9v-138zM314 789q0 -8 -7 -8h-132
q-5 0 -6.5 1.5t-1.5 6.5v138q0 9 8 9h132q7 0 7 -9v-138z" />
    <glyph glyph-name="Yacute" unicode="&#xdd;" horiz-adv-x="708" 
d="M704 721l-258 -432v-289h-182v289l-259 432h206l132 -248q3 -6 10 -37q7 31 10 36l135 249h206zM526 905l-181 -139q-11 -8 -19 1l-51 48q-9 9 1 19l155 166z" />
    <glyph glyph-name="Thorn" unicode="&#xde;" horiz-adv-x="639" 
d="M607 376q0 -118 -73 -182.5t-218 -64.5h-95q9 -13 9 -28v-101h-180v722h180v-109h86q144 0 217.5 -60.5t73.5 -176.5zM424 376q0 52 -25 74t-83 22h-86v-202h86q57 0 82.5 25t25.5 81z" />
    <glyph glyph-name="germandbls" unicode="&#xdf;" horiz-adv-x="668" 
d="M638 232q0 -84 -29 -136t-105 -82t-205 -30v134q87 0 121 28t34 86q0 104 -124 104h-51v118h51q93 0 93 112q0 97 -91 97q-94 0 -94 -114v-549h-184v549q0 120 74 183.5t204 63.5q74 0 129 -20.5t85 -54.5t44.5 -73t14.5 -82q0 -58 -27.5 -100.5t-73.5 -60.5
q59 -17 96.5 -62t37.5 -111z" />
    <glyph glyph-name="agrave" unicode="&#xe0;" horiz-adv-x="594" 
d="M543 0h-129l-17 41q-67 -56 -151 -56q-107 0 -162.5 48.5t-55.5 137.5q0 168 214 168q59 0 120 -11v48q0 52 -75 52q-71 0 -106 -42l-114 67q74 99 231 99q119 0 182 -47t63 -129v-376zM362 132v105q-33 5 -67 5q-87 0 -87 -65q0 -69 68 -69q44 0 86 24zM145 737
l181 -139q10 -8 19 1l51 48q9 9 -1 19l-155 166z" />
    <glyph glyph-name="aacute" unicode="&#xe1;" horiz-adv-x="594" 
d="M543 0h-129l-17 41q-67 -56 -151 -56q-107 0 -162.5 48.5t-55.5 137.5q0 168 214 168q59 0 120 -11v48q0 52 -75 52q-71 0 -106 -42l-114 67q74 99 231 99q119 0 182 -47t63 -129v-376zM362 132v105q-33 5 -67 5q-87 0 -87 -65q0 -69 68 -69q44 0 86 24zM488 737
l-181 -139q-11 -8 -19 1l-51 48q-9 9 1 19l155 166z" />
    <glyph glyph-name="acircumflex" unicode="&#xe2;" horiz-adv-x="594" 
d="M543 0h-129l-17 41q-67 -56 -151 -56q-107 0 -162.5 48.5t-55.5 137.5q0 168 214 168q59 0 120 -11v48q0 52 -75 52q-71 0 -106 -42l-114 67q74 99 231 99q119 0 182 -47t63 -129v-376zM362 132v105q-33 5 -67 5q-87 0 -87 -65q0 -69 68 -69q44 0 86 24zM468 655l-62 -62
l-110 92l-109 -92l-62 62l162 166q5 5 11 5q5 0 10 -5z" />
    <glyph glyph-name="atilde" unicode="&#xe3;" horiz-adv-x="594" 
d="M543 0h-129l-17 41q-67 -56 -151 -56q-107 0 -162.5 48.5t-55.5 137.5q0 168 214 168q59 0 120 -11v48q0 52 -75 52q-71 0 -106 -42l-114 67q74 99 231 99q119 0 182 -47t63 -129v-376zM362 132v105q-33 5 -67 5q-87 0 -87 -65q0 -69 68 -69q44 0 86 24zM499 735
l-82 -109q-18 -24 -49 -24q-24 0 -39 11l-83 57q-10 5 -11 5q-5 0 -9 -4l-59 -71l-73 49l90 118q19 25 48 25q22 0 40 -12l80 -55q5 -4 11 -4t13 7l48 58z" />
    <glyph glyph-name="adieresis" unicode="&#xe4;" horiz-adv-x="594" 
d="M543 0h-129l-17 41q-67 -56 -151 -56q-107 0 -162.5 48.5t-55.5 137.5q0 168 214 168q59 0 120 -11v48q0 52 -75 52q-71 0 -106 -42l-114 67q74 99 231 99q119 0 182 -47t63 -129v-376zM362 132v105q-33 5 -67 5q-87 0 -87 -65q0 -69 68 -69q44 0 86 24zM498 641
q0 -8 -7 -8h-132q-5 0 -6.5 1.5t-1.5 6.5v138q0 9 8 9h132q7 0 7 -9v-138zM242 641q0 -8 -7 -8h-132q-5 0 -6.5 1.5t-1.5 6.5v138q0 9 8 9h132q7 0 7 -9v-138z" />
    <glyph glyph-name="aring" unicode="&#xe5;" horiz-adv-x="594" 
d="M543 0h-129l-17 41q-67 -56 -151 -56q-107 0 -162.5 48.5t-55.5 137.5q0 168 214 168q59 0 120 -11v48q0 52 -75 52q-71 0 -106 -42l-114 67q74 99 231 99q119 0 182 -47t63 -129v-376zM362 132v105q-33 5 -67 5q-87 0 -87 -65q0 -69 68 -69q44 0 86 24zM419 715
q0 -50 -36 -86t-86 -36t-86 36t-36 86t36 86t86 36t86 -36t36 -86zM346 714q0 20 -15 34.5t-34 14.5t-33 -14.5t-14 -34.5t14 -33.5t33 -13.5q20 0 34.5 14t14.5 33z" />
    <glyph glyph-name="ae" unicode="&#xe6;" horiz-adv-x="943" 
d="M915 224h-371q0 -53 27 -82.5t81 -29.5q73 0 109 58l140 -46q-75 -140 -249 -140q-148 0 -221 77q-91 -77 -186 -77q-106 0 -161.5 49t-55.5 138q0 169 213 169q59 0 120 -11v47q0 52 -75 52q-72 0 -103 -43l-117 68q75 100 231 100q112 0 179 -56q67 56 168 56
q142 0 206.5 -80.5t64.5 -217.5v-31zM742 331q-3 47 -27.5 71.5t-65.5 24.5q-88 0 -102 -96h195zM361 134v99q-35 7 -67 7q-87 0 -87 -63q0 -35 17 -52t45 -17q46 0 92 26z" />
    <glyph glyph-name="ccedilla" unicode="&#xe7;" horiz-adv-x="573" 
d="M558 124q-62 -139 -241 -139h-14l-22 -26h29q67 0 94 -19.5t27 -64.5q0 -92 -143 -92q-69 0 -126 21l18 51q62 -11 85 -11q52 0 52 36q0 14 -10 22t-26 8h-69l-29 45l38 40q-193 42 -193 274q0 284 289 284q178 0 241 -141l-129 -57q-24 38 -47 53.5t-65 15.5
q-56 0 -81.5 -33.5t-25.5 -121.5t24.5 -121.5t82.5 -33.5q42 0 65 15t47 53z" />
    <glyph glyph-name="egrave" unicode="&#xe8;" horiz-adv-x="607" 
d="M579 225h-372q0 -113 108 -113q75 0 112 58l139 -46q-74 -139 -251 -139q-287 0 -287 284q0 138 72.5 210.5t210.5 72.5q268 0 268 -297v-30zM405 331q-3 47 -27.5 72t-65.5 25q-89 0 -103 -97h196zM134 737l181 -139q11 -8 19 1l51 48q9 9 -1 19l-155 166z" />
    <glyph glyph-name="eacute" unicode="&#xe9;" horiz-adv-x="607" 
d="M579 225h-372q0 -113 108 -113q75 0 112 58l139 -46q-74 -139 -251 -139q-287 0 -287 284q0 138 72.5 210.5t210.5 72.5q268 0 268 -297v-30zM405 331q-3 47 -27.5 72t-65.5 25q-89 0 -103 -97h196zM466 737l-181 -139q-11 -8 -19 1l-51 48q-9 9 1 19l155 166z" />
    <glyph glyph-name="ecircumflex" unicode="&#xea;" horiz-adv-x="607" 
d="M579 225h-372q0 -113 108 -113q75 0 112 58l139 -46q-74 -139 -251 -139q-287 0 -287 284q0 138 72.5 210.5t210.5 72.5q268 0 268 -297v-30zM405 331q-3 47 -27.5 72t-65.5 25q-89 0 -103 -97h196zM475 655l-62 -62l-110 92l-109 -92l-62 62l162 166q5 5 11 5q5 0 10 -5
z" />
    <glyph glyph-name="edieresis" unicode="&#xeb;" horiz-adv-x="607" 
d="M579 225h-372q0 -113 108 -113q75 0 112 58l139 -46q-74 -139 -251 -139q-287 0 -287 284q0 138 72.5 210.5t210.5 72.5q268 0 268 -297v-30zM405 331q-3 47 -27.5 72t-65.5 25q-89 0 -103 -97h196zM515 641q0 -8 -7 -8h-132q-5 0 -6.5 1.5t-1.5 6.5v138q0 9 8 9h132
q7 0 7 -9v-138zM259 641q0 -8 -7 -8h-132q-5 0 -6.5 1.5t-1.5 6.5v138q0 9 8 9h132q7 0 7 -9v-138z" />
    <glyph glyph-name="igrave" unicode="&#xec;" horiz-adv-x="283" 
d="M232 0h-181v537h181v-537zM-17 737l181 -139q10 -8 19 1l51 48q9 9 -1 19l-155 166z" />
    <glyph glyph-name="iacute" unicode="&#xed;" horiz-adv-x="283" 
d="M232 0h-181v537h181v-537zM281 737l-181 -139q-10 -8 -19 1l-51 48q-9 9 1 19l155 166z" />
    <glyph glyph-name="icircumflex" unicode="&#xee;" horiz-adv-x="283" 
d="M232 0h-181v537h181v-537zM313 655l-62 -62l-110 92l-109 -92l-62 62l162 166q5 5 11 5q5 0 10 -5z" />
    <glyph glyph-name="idieresis" unicode="&#xef;" horiz-adv-x="283" 
d="M232 0h-181v537h181v-537zM343 641q0 -8 -7 -8h-132q-5 0 -6.5 1.5t-1.5 6.5v138q0 9 8 9h132q7 0 7 -9v-138zM87 641q0 -8 -7 -8h-132q-5 0 -6.5 1.5t-1.5 6.5v138q0 9 8 9h132q7 0 7 -9v-138z" />
    <glyph glyph-name="eth" unicode="&#xf0;" horiz-adv-x="623" 
d="M594 291q0 -152 -67.5 -229.5t-215.5 -77.5q-283 0 -283 284q0 281 277 281q25 0 63 -11q-46 57 -106 96l-71 -58l-62 52l59 47q-54 25 -90 39l61 102q77 -26 134 -54l74 60l60 -51l-61 -50q113 -72 170.5 -174.5t57.5 -255.5zM413 269q0 85 -22 118t-80 33
q-54 0 -77.5 -31.5t-23.5 -120.5q0 -88 23.5 -120.5t77.5 -32.5t78 33t24 121z" />
    <glyph glyph-name="ntilde" unicode="&#xf1;" horiz-adv-x="616" 
d="M570 0h-181v333q0 48 -14.5 70.5t-48.5 22.5q-41 0 -94 -37v-389h-181v537h150l18 -49q65 65 143 65q105 0 156.5 -59.5t51.5 -160.5v-333zM510 735l-82 -109q-18 -24 -49 -24q-24 0 -39 11l-83 57q-10 5 -11 5q-5 0 -9 -4l-59 -71l-73 49l90 118q19 25 48 25
q22 0 40 -12l80 -55q5 -4 11 -4t13 7l48 58z" />
    <glyph glyph-name="ograve" unicode="&#xf2;" horiz-adv-x="623" 
d="M595 270q0 -133 -68 -209t-216 -76q-283 0 -283 284t283 284q284 0 284 -283zM412 270q0 88 -23.5 119.5t-77.5 31.5t-77.5 -32t-23.5 -120t23.5 -120.5t77.5 -32.5q53 0 77 33t24 121zM143 737l181 -139q10 -8 19 1l51 48q9 9 -1 19l-155 166z" />
    <glyph glyph-name="oacute" unicode="&#xf3;" horiz-adv-x="623" 
d="M595 270q0 -133 -68 -209t-216 -76q-283 0 -283 284t283 284q284 0 284 -283zM412 270q0 88 -23.5 119.5t-77.5 31.5t-77.5 -32t-23.5 -120t23.5 -120.5t77.5 -32.5q53 0 77 33t24 121zM477 737l-181 -139q-10 -8 -19 1l-51 48q-9 9 1 19l155 166z" />
    <glyph glyph-name="ocircumflex" unicode="&#xf4;" horiz-adv-x="623" 
d="M595 270q0 -133 -68 -209t-216 -76q-283 0 -283 284t283 284q284 0 284 -283zM412 270q0 88 -23.5 119.5t-77.5 31.5t-77.5 -32t-23.5 -120t23.5 -120.5t77.5 -32.5q53 0 77 33t24 121zM483 655l-62 -62l-110 92l-109 -92l-62 62l162 166q5 5 11 5q5 0 10 -5z" />
    <glyph glyph-name="otilde" unicode="&#xf5;" horiz-adv-x="623" 
d="M595 270q0 -133 -68 -209t-216 -76q-283 0 -283 284t283 284q284 0 284 -283zM412 270q0 88 -23.5 119.5t-77.5 31.5t-77.5 -32t-23.5 -120t23.5 -120.5t77.5 -32.5q53 0 77 33t24 121zM514 735l-82 -109q-18 -24 -49 -24q-24 0 -39 11l-83 57q-10 5 -11 5q-5 0 -9 -4
l-59 -71l-73 49l90 118q19 25 48 25q22 0 40 -12l80 -55q5 -4 11 -4t13 7l48 58z" />
    <glyph glyph-name="odieresis" unicode="&#xf6;" horiz-adv-x="623" 
d="M595 270q0 -133 -68 -209t-216 -76q-283 0 -283 284t283 284q284 0 284 -283zM412 270q0 88 -23.5 119.5t-77.5 31.5t-77.5 -32t-23.5 -120t23.5 -120.5t77.5 -32.5q53 0 77 33t24 121zM513 641q0 -8 -7 -8h-132q-5 0 -6.5 1.5t-1.5 6.5v138q0 9 8 9h132q7 0 7 -9v-138z
M257 641q0 -8 -7 -8h-132q-5 0 -6.5 1.5t-1.5 6.5v138q0 9 8 9h132q7 0 7 -9v-138z" />
    <glyph glyph-name="divide" unicode="&#xf7;" 
d="M415 527q0 -6 -0.5 -8t-2 -2.5t-7.5 -0.5h-149q-8 0 -9.5 1.5t-1.5 9.5v142q0 9 1.5 10.5t9.5 1.5h149q7 0 8.5 -1.5t1.5 -10.5v-142zM570 275h-481v146h481v-146zM415 27q0 -6 -0.5 -8t-2 -2.5t-7.5 -0.5h-149q-8 0 -9.5 1.5t-1.5 9.5v142q0 9 1.5 10.5t9.5 1.5h149
q7 0 8.5 -1.5t1.5 -10.5v-142z" />
    <glyph glyph-name="oslash" unicode="&#xf8;" horiz-adv-x="623" 
d="M595 269q0 -133 -68 -209t-216 -76q-95 0 -160 33l-28 -32h-89l62 74q-68 74 -68 209q0 285 283 285q92 0 158 -32l26 32h89l-59 -74q70 -73 70 -210zM374 405q-23 16 -63 16q-54 0 -77.5 -32.5t-23.5 -120.5q0 -31 4 -62zM412 269q0 34 -4 66l-162 -201q24 -19 65 -19
q53 0 77 33t24 121z" />
    <glyph glyph-name="ugrave" unicode="&#xf9;" horiz-adv-x="616" 
d="M565 0h-149l-19 48q-63 -63 -143 -63q-105 0 -156.5 59.5t-51.5 159.5v333h181v-333q0 -47 14 -70t48 -23q44 0 95 36v390h181v-537zM144 737l181 -139q10 -8 19 1l51 48q9 9 -1 19l-155 166z" />
    <glyph glyph-name="uacute" unicode="&#xfa;" horiz-adv-x="616" 
d="M565 0h-149l-19 48q-63 -63 -143 -63q-105 0 -156.5 59.5t-51.5 159.5v333h181v-333q0 -47 14 -70t48 -23q44 0 95 36v390h181v-537zM488 737l-181 -139q-11 -8 -19 1l-51 48q-9 9 1 19l155 166z" />
    <glyph glyph-name="ucircumflex" unicode="&#xfb;" horiz-adv-x="616" 
d="M565 0h-149l-19 48q-63 -63 -143 -63q-105 0 -156.5 59.5t-51.5 159.5v333h181v-333q0 -47 14 -70t48 -23q44 0 95 36v390h181v-537zM479 655l-62 -62l-110 92l-109 -92l-62 62l162 166q5 5 11 5q5 0 10 -5z" />
    <glyph glyph-name="udieresis" unicode="&#xfc;" horiz-adv-x="616" 
d="M565 0h-149l-19 48q-63 -63 -143 -63q-105 0 -156.5 59.5t-51.5 159.5v333h181v-333q0 -47 14 -70t48 -23q44 0 95 36v390h181v-537zM509 641q0 -8 -7 -8h-132q-5 0 -6.5 1.5t-1.5 6.5v138q0 9 8 9h132q7 0 7 -9v-138zM253 641q0 -8 -7 -8h-132q-5 0 -6.5 1.5t-1.5 6.5
v138q0 9 8 9h132q7 0 7 -9v-138z" />
    <glyph glyph-name="yacute" unicode="&#xfd;" horiz-adv-x="629" 
d="M615 537l-259 -659q-25 -63 -72.5 -91.5t-139.5 -28.5h-96v133h96q19 0 29 10t20 34l31 77l-211 525h188l102 -314q10 -30 11 -51q1 13 12 51l101 314h188zM507 737l-181 -139q-10 -8 -19 1l-51 48q-9 9 1 19l155 166z" />
    <glyph glyph-name="thorn" unicode="&#xfe;" horiz-adv-x="626" 
d="M598 272q0 -136 -69.5 -211.5t-207.5 -75.5q-54 0 -97 21q11 -25 11 -34v-215h-181v1022h181v-257q50 31 110 31q116 0 184.5 -71t68.5 -210zM417 272q0 81 -24 120.5t-78 39.5q-35 0 -80 -27v-283q34 -16 77 -16q55 0 80 40t25 126z" />
    <glyph glyph-name="ydieresis" unicode="&#xff;" horiz-adv-x="629" 
d="M615 537l-259 -659q-25 -63 -72.5 -91.5t-139.5 -28.5h-96v133h96q19 0 29 10t20 34l31 77l-211 525h188l102 -314q10 -30 11 -51q1 13 12 51l101 314h188zM516 641q0 -8 -7 -8h-132q-5 0 -6.5 1.5t-1.5 6.5v138q0 9 8 9h132q7 0 7 -9v-138zM260 641q0 -8 -7 -8h-132
q-5 0 -6.5 1.5t-1.5 6.5v138q0 9 8 9h132q7 0 7 -9v-138z" />
    <glyph glyph-name="Amacron" unicode="&#x100;" horiz-adv-x="735" 
d="M727 0h-189l-55 145h-239l-55 -145h-180l279 721h161zM428 290l-56 155q-5 12 -8 31q-2 -14 -9 -31l-57 -155h130zM533 780h-332v130h332v-130z" />
    <glyph glyph-name="amacron" unicode="&#x101;" horiz-adv-x="594" 
d="M543 0h-129l-17 41q-67 -56 -151 -56q-107 0 -162.5 48.5t-55.5 137.5q0 168 214 168q59 0 120 -11v48q0 52 -75 52q-71 0 -106 -42l-114 67q74 99 231 99q119 0 182 -47t63 -129v-376zM362 132v105q-33 5 -67 5q-87 0 -87 -65q0 -69 68 -69q44 0 86 24zM463 626h-332
v130h332v-130z" />
    <glyph glyph-name="Abreve" unicode="&#x102;" horiz-adv-x="735" 
d="M727 0h-189l-55 145h-239l-55 -145h-180l279 721h161zM428 290l-56 155q-5 12 -8 31q-2 -14 -9 -31l-57 -155h130zM541 891q-35 -67 -73 -99t-101 -32t-101 32t-73 99l72 46q32 -48 52 -62t49 -14t50 14.5t53 61.5z" />
    <glyph glyph-name="abreve" unicode="&#x103;" horiz-adv-x="594" 
d="M543 0h-129l-17 41q-67 -56 -151 -56q-107 0 -162.5 48.5t-55.5 137.5q0 168 214 168q59 0 120 -11v48q0 52 -75 52q-71 0 -106 -42l-114 67q74 99 231 99q119 0 182 -47t63 -129v-376zM362 132v105q-33 5 -67 5q-87 0 -87 -65q0 -69 68 -69q44 0 86 24zM471 749
q-35 -67 -73 -99t-101 -32t-101 32t-73 99l72 46q32 -48 52 -62t49 -14t50 14.5t53 61.5z" />
    <glyph glyph-name="Aogonek" unicode="&#x104;" horiz-adv-x="735" 
d="M734 -192q-60 -16 -112 -16q-120 0 -120 112q0 58 35 97l-54 144h-239l-55 -145h-180l279 721h161l278 -721h1q-65 -32 -91.5 -55t-26.5 -51t31 -28q11 0 84 13zM428 290l-56 155q-4 10 -8 30q-3 -16 -9 -30l-57 -155h130z" />
    <glyph glyph-name="aogonek" unicode="&#x105;" horiz-adv-x="594" 
d="M546 -192q-60 -16 -112 -16q-55 0 -87.5 23t-32.5 69q0 69 96 125l-13 32q-67 -56 -151 -56q-107 0 -162.5 48.5t-55.5 137.5q0 168 214 168q59 0 120 -11v48q0 52 -75 52q-71 0 -106 -42l-114 67q74 99 231 99q119 0 182 -47t63 -129v-376q-121 -54 -121 -106
q0 -28 31 -28q11 0 84 13zM362 132v105q-33 5 -67 5q-87 0 -87 -65q0 -69 68 -69q44 0 86 24z" />
    <glyph glyph-name="Cacute" unicode="&#x106;" horiz-adv-x="685" 
d="M663 173q-38 -89 -108 -138.5t-193 -49.5q-79 0 -138 21.5t-94.5 56.5t-57 85.5t-29 101t-7.5 111.5q0 86 16 151.5t52.5 117.5t101 79.5t156.5 27.5q142 0 215 -70.5t82 -193.5h-166q-9 61 -39 87.5t-92 26.5q-84 0 -113 -51t-29 -175q0 -120 28.5 -173.5t113.5 -53.5
q58 0 95.5 27t67.5 93zM526 908l-181 -139q-11 -7 -19 1l-51 48q-9 9 1 19l155 166z" />
    <glyph glyph-name="cacute" unicode="&#x107;" horiz-adv-x="573" 
d="M558 124q-62 -139 -241 -139q-289 0 -289 284t289 284q178 0 241 -141l-129 -57q-24 38 -47 53.5t-65 15.5q-56 0 -81.5 -33.5t-25.5 -121.5t24.5 -121.5t82.5 -33.5q42 0 65 15t47 53zM454 737l-181 -139q-11 -8 -19 1l-51 48q-9 9 1 19l155 166z" />
    <glyph glyph-name="Ccircumflex" unicode="&#x108;" horiz-adv-x="685" 
d="M663 173q-38 -89 -108 -138.5t-193 -49.5q-79 0 -138 21.5t-94.5 56.5t-57 85.5t-29 101t-7.5 111.5q0 86 16 151.5t52.5 117.5t101 79.5t156.5 27.5q142 0 215 -70.5t82 -193.5h-166q-9 61 -39 87.5t-92 26.5q-84 0 -113 -51t-29 -175q0 -120 28.5 -173.5t113.5 -53.5
q58 0 95.5 27t67.5 93zM542 823l-62 -62l-110 92l-109 -92l-62 62l162 166q5 5 11 5q5 0 10 -5z" />
    <glyph glyph-name="ccircumflex" unicode="&#x109;" horiz-adv-x="573" 
d="M558 124q-62 -139 -241 -139q-289 0 -289 284t289 284q178 0 241 -141l-129 -57q-24 38 -47 53.5t-65 15.5q-56 0 -81.5 -33.5t-25.5 -121.5t24.5 -121.5t82.5 -33.5q42 0 65 15t47 53zM481 655l-62 -62l-110 92l-109 -92l-62 62l162 166q5 5 11 5q5 0 10 -5z" />
    <glyph glyph-name="Cdotaccent" unicode="&#x10a;" horiz-adv-x="685" 
d="M663 173q-38 -89 -108 -138.5t-193 -49.5q-79 0 -138 21.5t-94.5 56.5t-57 85.5t-29 101t-7.5 111.5q0 86 16 151.5t52.5 117.5t101 79.5t156.5 27.5q142 0 215 -70.5t82 -193.5h-166q-9 61 -39 87.5t-92 26.5q-84 0 -113 -51t-29 -175q0 -120 28.5 -173.5t113.5 -53.5
q58 0 95.5 27t67.5 93zM443 791q0 -11 -10 -11h-148q-10 0 -10 11v145q0 12 10 12h148q10 0 10 -12v-145z" />
    <glyph glyph-name="cdotaccent" unicode="&#x10b;" horiz-adv-x="573" 
d="M558 124q-62 -139 -241 -139q-289 0 -289 284t289 284q178 0 241 -141l-129 -57q-24 38 -47 53.5t-65 15.5q-56 0 -81.5 -33.5t-25.5 -121.5t24.5 -121.5t82.5 -33.5q42 0 65 15t47 53zM393 622q0 -11 -10 -11h-148q-10 0 -10 11v145q0 12 10 12h148q10 0 10 -12v-145z
" />
    <glyph glyph-name="Ccaron" unicode="&#x10c;" horiz-adv-x="685" 
d="M663 173q-38 -89 -108 -138.5t-193 -49.5q-79 0 -138 21.5t-94.5 56.5t-57 85.5t-29 101t-7.5 111.5q0 86 16 151.5t52.5 117.5t101 79.5t156.5 27.5q142 0 215 -70.5t82 -193.5h-166q-9 61 -39 87.5t-92 26.5q-84 0 -113 -51t-29 -175q0 -120 28.5 -173.5t113.5 -53.5
q58 0 95.5 27t67.5 93zM546 927l-157 -155q-11 -10 -21 -10q-11 0 -21 10l-156 155l65 62l113 -94l112 94z" />
    <glyph glyph-name="ccaron" unicode="&#x10d;" horiz-adv-x="573" 
d="M558 124q-62 -139 -241 -139q-289 0 -289 284t289 284q178 0 241 -141l-129 -57q-24 38 -47 53.5t-65 15.5q-56 0 -81.5 -33.5t-25.5 -121.5t24.5 -121.5t82.5 -33.5q42 0 65 15t47 53zM491 758l-157 -155q-11 -10 -21 -10q-11 0 -21 10l-156 155l65 62l113 -94l112 94z
" />
    <glyph glyph-name="Dcaron" unicode="&#x10e;" horiz-adv-x="701" 
d="M669 369q0 -77 -20 -141t-62.5 -116.5t-117 -82t-174.5 -29.5h-245v721h245q98 0 171.5 -27t117 -75.5t64.5 -111t21 -138.5zM485 369q0 107 -45 156.5t-145 49.5h-65v-430h65q98 0 144 55t46 169zM501 926l-157 -155q-11 -10 -21 -10q-11 0 -21 10l-156 155l65 62
l113 -94l112 94z" />
    <glyph glyph-name="dcaron" unicode="&#x10f;" horiz-adv-x="762" 
d="M572 0h-134l-14 37q-60 -52 -136 -52q-118 0 -189 69t-71 217q0 139 73.5 210t203.5 71q54 0 100 -25q-12 24 -12 39v213h179v-779zM393 131v284q-37 16 -73 16q-57 0 -83.5 -37.5t-26.5 -122.5q0 -77 22.5 -120.5t79.5 -43.5q38 0 81 24zM837 781l-77 -234
q-3 -9 -5.5 -11.5t-10.5 -2.5h-79q-8 0 -10.5 2.5t-1.5 11.5l39 234h145z" />
    <glyph glyph-name="Dcroat" unicode="&#x110;" horiz-adv-x="701" 
d="M669 369q0 -77 -20 -141t-62.5 -116.5t-117 -82t-174.5 -29.5h-245v308h-57v136h57v277h245q98 0 171.5 -27t117 -75.5t64.5 -111t21 -138.5zM485 369q0 107 -45 156.5t-145 49.5h-65v-131h135l-45 -136h-90v-163h65q98 0 144 55t46 169z" />
    <glyph glyph-name="dcroat" unicode="&#x111;" horiz-adv-x="626" 
d="M572 0h-134l-14 37q-60 -52 -136 -52q-118 0 -189 69t-71 217q0 139 73.5 210t203.5 71q54 0 100 -25q-12 24 -12 39v44h-179v111h179v58h179v-58h56v-111h-56v-610zM393 131v284q-37 16 -73 16q-57 0 -83.5 -37.5t-26.5 -122.5q0 -77 22.5 -120.5t79.5 -43.5q38 0 81 24
z" />
    <glyph glyph-name="Emacron" unicode="&#x112;" horiz-adv-x="613" 
d="M574 0h-524v721h524v-148h-344v-124h314l-46 -149h-273q5 -10 5 -19v-133h344v-148zM472 780h-332v130h332v-130z" />
    <glyph glyph-name="emacron" unicode="&#x113;" horiz-adv-x="607" 
d="M579 225h-372q0 -113 108 -113q75 0 112 58l139 -46q-74 -139 -251 -139q-287 0 -287 284q0 138 72.5 210.5t210.5 72.5q268 0 268 -297v-30zM405 331q-3 47 -27.5 72t-65.5 25q-89 0 -103 -97h196zM469 626h-332v130h332v-130z" />
    <glyph glyph-name="Ebreve" unicode="&#x114;" horiz-adv-x="613" 
d="M574 0h-524v721h524v-148h-344v-124h314l-46 -149h-273q5 -10 5 -19v-133h344v-148zM480 891q-35 -67 -73 -99t-101 -32t-101 32t-73 99l72 46q32 -48 52 -62t49 -14t50 14.5t53 61.5z" />
    <glyph glyph-name="ebreve" unicode="&#x115;" horiz-adv-x="607" 
d="M579 225h-372q0 -113 108 -113q75 0 112 58l139 -46q-74 -139 -251 -139q-287 0 -287 284q0 138 72.5 210.5t210.5 72.5q268 0 268 -297v-30zM405 331q-3 47 -27.5 72t-65.5 25q-89 0 -103 -97h196zM477 749q-35 -67 -73 -99t-101 -32t-101 32t-73 99l72 46
q32 -48 52 -62t49 -14t50 14.5t53 61.5z" />
    <glyph glyph-name="Edotaccent" unicode="&#x116;" horiz-adv-x="613" 
d="M574 0h-524v721h524v-148h-344v-124h314l-46 -149h-273q5 -10 5 -19v-133h344v-148zM390 790q0 -11 -10 -11h-148q-10 0 -10 11v145q0 12 10 12h148q10 0 10 -12v-145z" />
    <glyph glyph-name="edotaccent" unicode="&#x117;" horiz-adv-x="607" 
d="M579 225h-372q0 -113 108 -113q75 0 112 58l139 -46q-74 -139 -251 -139q-287 0 -287 284q0 138 72.5 210.5t210.5 72.5q268 0 268 -297v-30zM405 331q-3 47 -27.5 72t-65.5 25q-89 0 -103 -97h196zM387 622q0 -11 -10 -11h-148q-10 0 -10 11v145q0 12 10 12h148
q10 0 10 -12v-145z" />
    <glyph glyph-name="Eogonek" unicode="&#x118;" horiz-adv-x="613" 
d="M574 0h-38q-43 -34 -61.5 -57.5t-18.5 -48.5q0 -28 31 -28q11 0 84 13l9 -71q-60 -16 -112 -16q-55 0 -87.5 23t-32.5 69q0 63 82 116h-380v721h524v-148h-344v-124h314l-46 -149h-273q5 -10 5 -19v-133h344v-148z" />
    <glyph glyph-name="eogonek" unicode="&#x119;" horiz-adv-x="607" 
d="M579 225h-372q0 -113 108 -113q75 0 112 58l139 -46q-32 -62 -83 -95q-59 -44 -85.5 -75t-26.5 -60q0 -28 31 -28q39 0 84 13l9 -71q-60 -16 -112 -16q-55 0 -87.5 23t-32.5 69q0 51 57 101h-5q-287 0 -287 284q0 138 72.5 210.5t210.5 72.5q268 0 268 -297v-30zM405 331
q-3 47 -27.5 72t-65.5 25q-89 0 -103 -97h196z" />
    <glyph glyph-name="Ecaron" unicode="&#x11a;" horiz-adv-x="613" 
d="M574 0h-524v721h524v-148h-344v-124h314l-46 -149h-273q5 -10 5 -19v-133h344v-148zM487 924l-157 -155q-11 -10 -21 -10q-11 0 -21 10l-156 155l65 62l113 -94l112 94z" />
    <glyph glyph-name="ecaron" unicode="&#x11b;" horiz-adv-x="607" 
d="M579 225h-372q0 -113 108 -113q75 0 112 58l139 -46q-74 -139 -251 -139q-287 0 -287 284q0 138 72.5 210.5t210.5 72.5q268 0 268 -297v-30zM405 331q-3 47 -27.5 72t-65.5 25q-89 0 -103 -97h196zM481 758l-157 -155q-11 -10 -21 -10q-11 0 -21 10l-156 155l65 62
l113 -94l112 94z" />
    <glyph glyph-name="Gcircumflex" unicode="&#x11c;" horiz-adv-x="731" 
d="M681 93q-142 -108 -295 -108q-183 0 -266.5 93t-83.5 283q0 183 81 279.5t268 96.5q140 0 213.5 -70.5t82.5 -188.5h-168q-16 109 -128 109q-92 0 -128.5 -48.5t-36.5 -177.5q0 -130 36.5 -178.5t129.5 -48.5q63 0 114 32v76q0 7 4 19h-115l-40 141h332v-309zM547 823
l-62 -62l-110 92l-109 -92l-62 62l162 166q5 5 11 5q5 0 10 -5z" />
    <glyph glyph-name="gcircumflex" unicode="&#x11d;" horiz-adv-x="653" 
d="M650 553l-22 -136h-27q-25 0 -44 10q17 -37 17 -80q0 -105 -64.5 -154t-195.5 -49q-34 0 -80 7q-4 0 -13 2.5t-14 2.5q-16 0 -16 -16q0 -10 6.5 -15t24.5 -8l206 -36q96 -16 139.5 -51t43.5 -106q0 -93 -74.5 -133t-222.5 -40q-69 0 -119 8.5t-93.5 30t-65.5 63
t-22 102.5q0 79 75 129q-25 25 -25 56q0 44 48 66q-59 56 -59 141q0 206 261 206q101 0 154 -31l57 31h125zM399 348q0 84 -85 84q-84 0 -84 -84q0 -81 84 -81q85 0 85 81zM422 -66q0 25 -9 38.5t-36 18.5l-172 31q-21 -28 -21 -68q0 -43 32 -62t98 -19q108 0 108 61z
M498 655l-62 -62l-110 92l-109 -92l-62 62l162 166q5 5 11 5q5 0 10 -5z" />
    <glyph glyph-name="Gbreve" unicode="&#x11e;" horiz-adv-x="731" 
d="M681 93q-142 -108 -295 -108q-183 0 -266.5 93t-83.5 283q0 183 81 279.5t268 96.5q140 0 213.5 -70.5t82.5 -188.5h-168q-16 109 -128 109q-92 0 -128.5 -48.5t-36.5 -177.5q0 -130 36.5 -178.5t129.5 -48.5q63 0 114 32v76q0 7 4 19h-115l-40 141h332v-309zM557 893
q-35 -67 -73 -99t-101 -32t-101 32t-73 99l72 46q32 -48 52 -62t49 -14t50 14.5t53 61.5z" />
    <glyph glyph-name="gbreve" unicode="&#x11f;" horiz-adv-x="653" 
d="M650 553l-22 -136h-27q-25 0 -44 10q17 -37 17 -80q0 -105 -64.5 -154t-195.5 -49q-34 0 -80 7q-4 0 -13 2.5t-14 2.5q-16 0 -16 -16q0 -10 6.5 -15t24.5 -8l206 -36q96 -16 139.5 -51t43.5 -106q0 -93 -74.5 -133t-222.5 -40q-69 0 -119 8.5t-93.5 30t-65.5 63
t-22 102.5q0 79 75 129q-25 25 -25 56q0 44 48 66q-59 56 -59 141q0 206 261 206q101 0 154 -31l57 31h125zM399 348q0 84 -85 84q-84 0 -84 -84q0 -81 84 -81q85 0 85 81zM422 -66q0 25 -9 38.5t-36 18.5l-172 31q-21 -28 -21 -68q0 -43 32 -62t98 -19q108 0 108 61z
M500 749q-35 -67 -73 -99t-101 -32t-101 32t-73 99l72 46q32 -48 52 -62t49 -14t50 14.5t53 61.5z" />
    <glyph glyph-name="Gdotaccent" unicode="&#x120;" horiz-adv-x="731" 
d="M681 93q-142 -108 -295 -108q-183 0 -266.5 93t-83.5 283q0 183 81 279.5t268 96.5q140 0 213.5 -70.5t82.5 -188.5h-168q-16 109 -128 109q-92 0 -128.5 -48.5t-36.5 -177.5q0 -130 36.5 -178.5t129.5 -48.5q63 0 114 32v76q0 7 4 19h-115l-40 141h332v-309zM466 790
q0 -11 -10 -11h-148q-10 0 -10 11v145q0 12 10 12h148q10 0 10 -12v-145z" />
    <glyph glyph-name="gdotaccent" unicode="&#x121;" horiz-adv-x="653" 
d="M650 553l-22 -136h-27q-25 0 -44 10q17 -37 17 -80q0 -105 -64.5 -154t-195.5 -49q-34 0 -80 7q-4 0 -13 2.5t-14 2.5q-16 0 -16 -16q0 -10 6.5 -15t24.5 -8l206 -36q96 -16 139.5 -51t43.5 -106q0 -93 -74.5 -133t-222.5 -40q-69 0 -119 8.5t-93.5 30t-65.5 63
t-22 102.5q0 79 75 129q-25 25 -25 56q0 44 48 66q-59 56 -59 141q0 206 261 206q101 0 154 -31l57 31h125zM399 348q0 84 -85 84q-84 0 -84 -84q0 -81 84 -81q85 0 85 81zM422 -66q0 25 -9 38.5t-36 18.5l-172 31q-21 -28 -21 -68q0 -43 32 -62t98 -19q108 0 108 61z
M410 622q0 -11 -10 -11h-148q-10 0 -10 11v145q0 12 10 12h148q10 0 10 -12v-145z" />
    <glyph glyph-name="Gcommaaccent" unicode="&#x122;" horiz-adv-x="731" 
d="M681 93q-142 -108 -295 -108q-183 0 -266.5 93t-83.5 283q0 183 81 279.5t268 96.5q140 0 213.5 -70.5t82.5 -188.5h-168q-16 109 -128 109q-92 0 -128.5 -48.5t-36.5 -177.5q0 -130 36.5 -178.5t129.5 -48.5q63 0 114 32v76q0 7 4 19h-115l-40 141h332v-309zM384 -323
l-68 45q25 33 25 88h-57q-10 0 -10 9v125q0 15 11 15h156q11 0 11 -15v-95q0 -106 -68 -172z" />
    <glyph glyph-name="gcommaaccent" unicode="&#x123;" horiz-adv-x="653" 
d="M650 553l-22 -136h-27q-25 0 -44 10q17 -37 17 -80q0 -105 -64.5 -154t-195.5 -49q-34 0 -80 7q-4 0 -13 2.5t-14 2.5q-16 0 -16 -16q0 -10 6.5 -15t24.5 -8l206 -36q96 -16 139.5 -51t43.5 -106q0 -93 -74.5 -133t-222.5 -40q-69 0 -119 8.5t-93.5 30t-65.5 63
t-22 102.5q0 79 75 129q-25 25 -25 56q0 44 48 66q-59 56 -59 141q0 206 261 206q101 0 154 -31l57 31h125zM399 348q0 84 -85 84q-84 0 -84 -84q0 -81 84 -81q85 0 85 81zM422 -66q0 25 -9 38.5t-36 18.5l-172 31q-21 -28 -21 -68q0 -43 32 -62t98 -19q108 0 108 61z
M305 894l68 -45q-25 -33 -25 -88h57q10 0 10 -9v-125q0 -15 -11 -15h-156q-11 0 -11 15v95q0 106 68 172z" />
    <glyph glyph-name="Hcircumflex" unicode="&#x124;" horiz-adv-x="733" 
d="M683 0h-180v300h-273v-300h-180v721h180v-266h273v266h180v-721zM538 823l-62 -62l-110 92l-109 -92l-62 62l162 166q5 5 11 5q5 0 10 -5z" />
    <glyph glyph-name="hcircumflex" unicode="&#x125;" horiz-adv-x="619" 
d="M570 0h-181v333q0 48 -14.5 70t-48.5 22q-43 0 -94 -36v-389h-182v778h182v-277q57 51 130 51q105 0 156.5 -59.5t51.5 -159.5v-333zM481 843l-62 -62l-110 92l-109 -92l-62 62l162 166q5 5 11 5q5 0 10 -5z" />
    <glyph glyph-name="Hbar" unicode="&#x126;" horiz-adv-x="733" 
d="M0 537v112h50v72h180v-72h273v72h180v-72h51v-112h-51v-537h-180v300h-273v-300h-180v537h-50zM230 455h273v82h-273v-82z" />
    <glyph glyph-name="hbar" unicode="&#x127;" horiz-adv-x="619" 
d="M401 610h-169v-109q57 51 130 51q105 0 156.5 -59.5t51.5 -159.5v-333h-181v333q0 48 -14.5 70t-48.5 22q-43 0 -94 -36v-389h-182v610h-53v111h53v57h182v-57h169v-111z" />
    <glyph glyph-name="Itilde" unicode="&#x128;" horiz-adv-x="280" 
d="M230 0h-180v721h180v-721zM343 893l-82 -109q-18 -24 -49 -24q-24 0 -39 11l-83 57q-10 5 -11 5q-5 0 -9 -4l-59 -71l-73 49l90 118q19 25 48 25q22 0 40 -12l80 -55q5 -4 11 -4t13 7l48 58z" />
    <glyph glyph-name="itilde" unicode="&#x129;" horiz-adv-x="283" 
d="M232 0h-181v537h181v-537zM344 735l-82 -109q-18 -24 -49 -24q-24 0 -39 11l-83 57q-10 5 -11 5q-5 0 -9 -4l-59 -71l-73 49l90 118q19 25 48 25q22 0 40 -12l80 -55q5 -4 11 -4t13 7l48 58z" />
    <glyph glyph-name="Imacron" unicode="&#x12a;" horiz-adv-x="280" 
d="M230 0h-180v721h180v-721zM306 778h-332v130h332v-130z" />
    <glyph glyph-name="imacron" unicode="&#x12b;" horiz-adv-x="283" 
d="M232 0h-181v537h181v-537zM308 626h-332v130h332v-130z" />
    <glyph glyph-name="Ibreve" unicode="&#x12c;" horiz-adv-x="280" 
d="M230 0h-180v721h180v-721zM314 892q-35 -67 -73 -99t-101 -32t-101 32t-73 99l72 46q32 -48 52 -62t49 -14t50 14.5t53 61.5z" />
    <glyph glyph-name="ibreve" unicode="&#x12d;" horiz-adv-x="283" 
d="M232 0h-181v537h181v-537zM316 749q-35 -67 -73 -99t-101 -32t-101 32t-73 99l72 46q32 -48 52 -62t49 -14t50 14.5t53 61.5z" />
    <glyph glyph-name="Iogonek" unicode="&#x12e;" horiz-adv-x="280" 
d="M230 0q-55 -30 -76.5 -53.5t-21.5 -52.5q0 -28 38 -28q4 0 77 13l9 -71q-60 -16 -112 -16q-62 0 -94.5 32t-32.5 81q0 51 33 96v720h180v-721z" />
    <glyph glyph-name="iogonek" unicode="&#x12f;" horiz-adv-x="283" 
d="M232 0q-98 -43 -98 -99q0 -36 43 -36q25 0 72 14l9 -71q-60 -16 -112 -16q-56 0 -93 30t-37 88q0 57 35 98v529h181v-537zM59 618h166q10 0 10 10v141q0 10 -10 10h-166q-10 0 -10 -10v-141q0 -10 10 -10z" />
    <glyph glyph-name="Idotaccent" unicode="&#x130;" horiz-adv-x="280" 
d="M230 0h-180v721h180v-721zM224 792q0 -11 -10 -11h-148q-10 0 -10 11v145q0 12 10 12h148q10 0 10 -12v-145z" />
    <glyph glyph-name="dotlessi" unicode="&#x131;" horiz-adv-x="283" 
d="M232 0h-181v537h181v-537z" />
    <glyph glyph-name="IJ" unicode="&#x132;" horiz-adv-x="771" 
d="M230 0h-180v721h180v-721zM709 223q0 -238 -241 -238q-105 0 -181 56l90 124q42 -31 91 -31q35 0 48.5 20t13.5 69v498h179v-498z" />
    <glyph glyph-name="ij" unicode="&#x133;" horiz-adv-x="566" 
d="M232 0h-181v537h181v-537zM59 618h166q10 0 10 10v141q0 10 -10 10h-166q-10 0 -10 -10v-141q0 -10 10 -10zM515 -75q0 -75 -42 -120.5t-129 -45.5h-109v139h77q14 0 18 6t4 21v612h181v-612zM342 618h166q10 0 10 10v141q0 10 -10 10h-166q-10 0 -10 -10v-141
q0 -10 10 -10z" />
    <glyph glyph-name="Jcircumflex" unicode="&#x134;" horiz-adv-x="491" 
d="M429 223q0 -238 -241 -238q-105 0 -181 56l90 124q42 -31 91 -31q35 0 48.5 20t13.5 69v498h179v-498zM510 823l-62 -62l-110 92l-109 -92l-62 62l162 166q5 5 11 5q5 0 10 -5z" />
    <glyph glyph-name="jcircumflex" unicode="&#x135;" horiz-adv-x="283" 
d="M232 -75q0 -75 -42 -120.5t-129 -45.5h-109v139h77q14 0 18 6t4 21v612h181v-612zM313 655l-62 -62l-110 92l-109 -92l-62 62l162 166q5 5 11 5q5 0 10 -5z" />
    <glyph glyph-name="Kcommaaccent" unicode="&#x136;" horiz-adv-x="685" 
d="M679 0h-233l-186 239q-7 8 -9 32l-21 -20v-251h-180v721h180v-243l216 243h230l-311 -328zM361 -323l-68 45q25 33 25 88h-57q-10 0 -10 9v125q0 15 11 15h156q11 0 11 -15v-95q0 -106 -68 -172z" />
    <glyph glyph-name="kcommaaccent" unicode="&#x137;" horiz-adv-x="634" 
d="M623 0h-220l-138 202q-7 11 -7 32l-27 -22v-212h-180v779h180v-386l151 144h240l-249 -208zM336 -323l-68 45q25 33 25 88h-57q-10 0 -10 9v125q0 15 11 15h156q11 0 11 -15v-95q0 -106 -68 -172z" />
    <glyph glyph-name="kgreenlandic" unicode="&#x138;" horiz-adv-x="634" 
d="M623 0h-220l-138 202q-7 11 -7 32l-27 -22v-212h-180v537h180v-144l151 144h240l-249 -208z" />
    <glyph glyph-name="Lacute" unicode="&#x139;" horiz-adv-x="548" 
d="M516 0h-466v721h180v-565h286v-156zM455 904l-181 -139q-10 -7 -19 1l-51 48q-9 9 1 19l155 166z" />
    <glyph glyph-name="lacute" unicode="&#x13a;" horiz-adv-x="319" 
d="M299 -9h-97q-74 0 -112.5 40.5t-38.5 118.5v629h180v-629q0 -29 23 -29h45v-130zM319 936l-181 -139q-11 -7 -19 1l-51 48q-9 9 1 19l155 166z" />
    <glyph glyph-name="Lcommaaccent" unicode="&#x13b;" horiz-adv-x="548" 
d="M516 0h-466v721h180v-565h286v-156zM293 -323l-68 45q25 33 25 88h-57q-10 0 -10 9v125q0 15 11 15h156q11 0 11 -15v-95q0 -106 -68 -172z" />
    <glyph glyph-name="lcommaaccent" unicode="&#x13c;" horiz-adv-x="319" 
d="M299 -9h-97q-74 0 -112.5 40.5t-38.5 118.5v629h180v-629q0 -29 23 -29h45v-130zM178 -323l-68 45q25 33 25 88h-57q-10 0 -10 9v125q0 15 11 15h156q11 0 11 -15v-95q0 -106 -68 -172z" />
    <glyph glyph-name="Lcaron" unicode="&#x13d;" horiz-adv-x="548" 
d="M516 0h-466v721h180v-565h286v-156zM515 761l-77 -234q-3 -9 -5.5 -11.5t-10.5 -2.5h-79q-8 0 -10.5 2.5t-1.5 11.5l39 234h145z" />
    <glyph glyph-name="lcaron" unicode="&#x13e;" horiz-adv-x="422" 
d="M299 -9h-97q-74 0 -112.5 40.5t-38.5 118.5v629h180v-629q0 -29 23 -29h45v-130zM497 781l-77 -234q-3 -9 -5.5 -11.5t-10.5 -2.5h-79q-8 0 -10.5 2.5t-1.5 11.5l39 234h145z" />
    <glyph glyph-name="Ldot" unicode="&#x13f;" horiz-adv-x="548" 
d="M516 0h-466v721h180v-565h286v-156zM481 380q0 -11 -10 -11h-148q-10 0 -10 11v145q0 12 10 12h148q10 0 10 -12v-145z" />
    <glyph glyph-name="ldot" unicode="&#x140;" horiz-adv-x="516" 
d="M299 -9h-97q-74 0 -112.5 40.5t-38.5 118.5v629h180v-629q0 -29 23 -29h45v-130zM461 320q0 -11 -10 -11h-148q-10 0 -10 11v145q0 12 10 12h148q10 0 10 -12v-145z" />
    <glyph glyph-name="Lslash" unicode="&#x141;" horiz-adv-x="549" 
d="M517 0h-466v270l-58 -35v123l58 36v327h180v-217l89 55v-124l-89 -54v-225h286v-156z" />
    <glyph glyph-name="lslash" unicode="&#x142;" horiz-adv-x="319" 
d="M313 473l-82 -53v-270q0 -29 23 -29h45v-130h-97q-74 0 -112.5 40.5t-38.5 118.5v154l-80 -51v127l80 51v348h180v-232l82 53v-127z" />
    <glyph glyph-name="Nacute" unicode="&#x143;" horiz-adv-x="743" 
d="M693 0h-156l-318 420q8 -26 8 -41v-379h-177v721h154l320 -420q-8 26 -8 47v373h177v-721zM530 905l-181 -139q-11 -8 -19 1l-51 48q-9 9 1 19l155 166z" />
    <glyph glyph-name="nacute" unicode="&#x144;" horiz-adv-x="616" 
d="M570 0h-181v333q0 48 -14.5 70.5t-48.5 22.5q-41 0 -94 -37v-389h-181v537h150l18 -49q65 65 143 65q105 0 156.5 -59.5t51.5 -160.5v-333zM480 737l-181 -139q-11 -8 -19 1l-51 48q-9 9 1 19l155 166z" />
    <glyph glyph-name="Ncommaaccent" unicode="&#x145;" horiz-adv-x="743" 
d="M693 0h-156l-318 420q8 -26 8 -41v-379h-177v721h154l320 -420q-8 26 -8 47v373h177v-721zM390 -323l-68 45q25 33 25 88h-57q-10 0 -10 9v125q0 15 11 15h156q11 0 11 -15v-95q0 -106 -68 -172z" />
    <glyph glyph-name="ncommaaccent" unicode="&#x146;" horiz-adv-x="616" 
d="M570 0h-181v333q0 48 -14.5 70.5t-48.5 22.5q-41 0 -94 -37v-389h-181v537h150l18 -49q65 65 143 65q105 0 156.5 -59.5t51.5 -160.5v-333zM327 -323l-68 45q25 33 25 88h-57q-10 0 -10 9v125q0 15 11 15h156q11 0 11 -15v-95q0 -106 -68 -172z" />
    <glyph glyph-name="Ncaron" unicode="&#x147;" horiz-adv-x="743" 
d="M693 0h-156l-318 420q8 -26 8 -41v-379h-177v721h154l320 -420q-8 26 -8 47v373h177v-721zM549 926l-157 -155q-11 -10 -21 -10q-11 0 -21 10l-156 155l65 62l113 -94l112 94z" />
    <glyph glyph-name="ncaron" unicode="&#x148;" horiz-adv-x="616" 
d="M570 0h-181v333q0 48 -14.5 70.5t-48.5 22.5q-41 0 -94 -37v-389h-181v537h150l18 -49q65 65 143 65q105 0 156.5 -59.5t51.5 -160.5v-333zM485 758l-157 -155q-11 -10 -21 -10q-11 0 -21 10l-156 155l65 62l113 -94l112 94z" />
    <glyph glyph-name="napostrophe" unicode="&#x149;" horiz-adv-x="827" 
d="M213 579q0 -58 -35.5 -108.5t-92.5 -77.5l-49 56q37 26 52 49.5t15 58.5h-39q-7 0 -8.5 1.5t-1.5 9.5v142q0 9 1.5 10.5t8.5 1.5h140q7 0 8 -1.5t1 -10.5v-131zM781 0h-181v333q0 48 -14.5 70.5t-48.5 22.5q-41 0 -94 -37v-389h-181v537h150l18 -49q65 65 143 65
q105 0 156.5 -59.5t51.5 -160.5v-333z" />
    <glyph glyph-name="Eng" unicode="&#x14a;" horiz-adv-x="743" 
d="M693 -23q0 -238 -241 -238q-105 0 -181 56l90 124q42 -31 91 -31q35 0 49.5 20.5t14.5 68.5v50l-297 393q8 -26 8 -41v-379h-177v721h154l312 -410v410h177v-744z" />
    <glyph glyph-name="eng" unicode="&#x14b;" horiz-adv-x="616" 
d="M570 -75q0 -75 -42 -120.5t-129 -45.5h-109v139h77q14 0 18 6t4 21v408q0 48 -14.5 70.5t-48.5 22.5q-41 0 -94 -37v-389h-181v537h150l18 -49q65 65 143 65q105 0 156.5 -59.5t51.5 -160.5v-408z" />
    <glyph glyph-name="Omacron" unicode="&#x14c;" horiz-adv-x="734" 
d="M697 369q0 -66 -8 -119t-30.5 -104t-58.5 -85t-95.5 -55t-138.5 -21t-138 21t-95 55.5t-58.5 85.5t-30.5 104t-8 118q0 368 330 368q331 0 331 -368zM513 369q0 120 -32.5 169t-114.5 49t-113.5 -48.5t-31.5 -169.5q0 -133 31.5 -184t113.5 -51t114.5 51.5t32.5 183.5z
M533 781h-332v130h332v-130z" />
    <glyph glyph-name="omacron" unicode="&#x14d;" horiz-adv-x="623" 
d="M595 270q0 -133 -68 -209t-216 -76q-283 0 -283 284t283 284q284 0 284 -283zM412 270q0 88 -23.5 119.5t-77.5 31.5t-77.5 -32t-23.5 -120t23.5 -120.5t77.5 -32.5q53 0 77 33t24 121zM477 626h-332v130h332v-130z" />
    <glyph glyph-name="Obreve" unicode="&#x14e;" horiz-adv-x="734" 
d="M697 369q0 -66 -8 -119t-30.5 -104t-58.5 -85t-95.5 -55t-138.5 -21t-138 21t-95 55.5t-58.5 85.5t-30.5 104t-8 118q0 368 330 368q331 0 331 -368zM513 369q0 120 -32.5 169t-114.5 49t-113.5 -48.5t-31.5 -169.5q0 -133 31.5 -184t113.5 -51t114.5 51.5t32.5 183.5z
M541 892q-35 -67 -73 -99t-101 -32t-101 32t-73 99l72 46q32 -48 52 -62t49 -14t50 14.5t53 61.5z" />
    <glyph glyph-name="obreve" unicode="&#x14f;" horiz-adv-x="623" 
d="M595 270q0 -133 -68 -209t-216 -76q-283 0 -283 284t283 284q284 0 284 -283zM412 270q0 88 -23.5 119.5t-77.5 31.5t-77.5 -32t-23.5 -120t23.5 -120.5t77.5 -32.5q53 0 77 33t24 121zM485 749q-35 -67 -73 -99t-101 -32t-101 32t-73 99l72 46q32 -48 52 -62t49 -14
t50 14.5t53 61.5z" />
    <glyph glyph-name="Ohungarumlaut" unicode="&#x150;" horiz-adv-x="734" 
d="M697 369q0 -66 -8 -119t-30.5 -104t-58.5 -85t-95.5 -55t-138.5 -21t-138 21t-95 55.5t-58.5 85.5t-30.5 104t-8 118q0 368 330 368q331 0 331 -368zM513 369q0 120 -32.5 169t-114.5 49t-113.5 -48.5t-31.5 -169.5q0 -133 31.5 -184t113.5 -51t114.5 51.5t32.5 183.5z
M670 902l-181 -139q-7 -5 -10 -5t-7 4q-1 1 -17.5 15.5t-29.5 27.5t-13 16q0 2 8 10l155 166zM401 902l-181 -139q-8 -5 -10 -5q-3 0 -7 4q-1 1 -17.5 15.5t-29.5 27.5t-13 16q0 2 8 10l155 166z" />
    <glyph glyph-name="ohungarumlaut" unicode="&#x151;" horiz-adv-x="623" 
d="M595 270q0 -133 -68 -209t-216 -76q-283 0 -283 284t283 284q284 0 284 -283zM412 270q0 88 -23.5 119.5t-77.5 31.5t-77.5 -32t-23.5 -120t23.5 -120.5t77.5 -32.5q53 0 77 33t24 121zM630 737l-181 -139q-7 -5 -10 -5t-7 4q-1 1 -17.5 15.5t-29.5 27.5t-13 16q0 2 8 10
l155 166zM361 737l-181 -139q-8 -5 -10 -5q-3 0 -7 4q-1 1 -17.5 15.5t-29.5 27.5t-13 16q0 2 8 10l155 166z" />
    <glyph glyph-name="OE" unicode="&#x152;" horiz-adv-x="1085" 
d="M1046 0h-528v41q-64 -56 -150 -56q-79 0 -138.5 21t-96 55.5t-59 85.5t-30.5 104t-8 118q0 368 332 368q90 0 150 -58v42h528v-147h-347v-125h323l-48 -146h-280q5 -9 5 -23v-133h347v-147zM516 369q0 120 -32.5 169t-115.5 49t-115 -49t-32 -169q0 -133 32.5 -184
t114.5 -51t115 51.5t33 183.5z" />
    <glyph glyph-name="oe" unicode="&#x153;" horiz-adv-x="990" 
d="M962 224h-370q0 -53 27 -82.5t81 -29.5q73 0 109 58l140 -46q-75 -140 -249 -140q-127 0 -197 75q-68 -75 -193 -75q-282 0 -282 284q0 133 67.5 209t214.5 76q122 0 194 -74q71 74 187 74q142 0 206.5 -80.5t64.5 -217.5v-31zM789 331q-3 47 -27 71.5t-65 24.5
q-90 0 -104 -96h196zM411 269q0 88 -23.5 120t-77.5 32t-77.5 -32.5t-23.5 -120.5t23.5 -120.5t77.5 -32.5q53 0 77 33t24 121z" />
    <glyph glyph-name="Racute" unicode="&#x154;" horiz-adv-x="661" 
d="M651 0h-214l-157 240q-8 12 -10 26h-40v-266h-180v721h263q146 0 217 -59.5t71 -169.5q0 -152 -139 -203zM417 492q0 88 -104 88h-83v-174h83q104 0 104 86zM469 906l-181 -139q-10 -7 -19 1l-51 48q-9 9 1 19l155 166z" />
    <glyph glyph-name="racute" unicode="&#x155;" horiz-adv-x="431" 
d="M409 406q-35 5 -67 5q-67 0 -110 -24v-387h-181v537h151l17 -47q51 63 132 63q19 0 58 -7v-140zM400 737l-181 -139q-11 -8 -19 1l-51 48q-9 9 1 19l155 166z" />
    <glyph glyph-name="Rcommaaccent" unicode="&#x156;" horiz-adv-x="661" 
d="M651 0h-214l-157 240q-8 12 -10 26h-40v-266h-180v721h263q146 0 217 -59.5t71 -169.5q0 -152 -139 -203zM417 492q0 88 -104 88h-83v-174h83q104 0 104 86zM349 -323l-68 45q25 33 25 88h-57q-10 0 -10 9v125q0 15 11 15h156q11 0 11 -15v-95q0 -106 -68 -172z" />
    <glyph glyph-name="rcommaaccent" unicode="&#x157;" horiz-adv-x="431" 
d="M409 406q-35 5 -67 5q-67 0 -110 -24v-387h-181v537h151l17 -47q51 63 132 63q19 0 58 -7v-140zM234 -323l-68 45q25 33 25 88h-57q-10 0 -10 9v125q0 15 11 15h156q11 0 11 -15v-95q0 -106 -68 -172z" />
    <glyph glyph-name="Rcaron" unicode="&#x158;" horiz-adv-x="661" 
d="M651 0h-214l-157 240q-8 12 -10 26h-40v-266h-180v721h263q146 0 217 -59.5t71 -169.5q0 -152 -139 -203zM417 492q0 88 -104 88h-83v-174h83q104 0 104 86zM489 926l-157 -155q-11 -10 -21 -10q-11 0 -21 10l-156 155l65 62l113 -94l112 94z" />
    <glyph glyph-name="rcaron" unicode="&#x159;" horiz-adv-x="431" 
d="M409 406q-35 5 -67 5q-67 0 -110 -24v-387h-181v537h151l17 -47q51 63 132 63q19 0 58 -7v-140zM414 758l-157 -155q-11 -10 -21 -10q-11 0 -21 10l-156 155l65 62l113 -94l112 94z" />
    <glyph glyph-name="Sacute" unicode="&#x15a;" horiz-adv-x="651" 
d="M623 221q0 -113 -78 -174.5t-219 -61.5q-212 0 -299 172l142 69q28 -48 63.5 -71t93.5 -23q66 0 92.5 21t26.5 62q0 31 -14.5 47t-52.5 23q-16 3 -57.5 9t-60 9t-54 12t-53 18.5t-42 27t-36 39t-20.5 52.5t-9 70q0 102 78.5 158.5t204.5 56.5q103 0 170.5 -34.5
t112.5 -108.5l-143 -70q-23 36 -55.5 52.5t-84.5 16.5q-106 0 -106 -64q0 -27 11.5 -40t38.5 -18q17 -3 48.5 -7.5t50 -7t47.5 -8.5t47 -12t42 -16t38.5 -22t31 -29.5t25 -38.5t14.5 -48.5t6 -60.5zM489 907l-181 -139q-10 -8 -19 1l-51 48q-9 9 1 19l155 166z" />
    <glyph glyph-name="sacute" unicode="&#x15b;" horiz-adv-x="549" 
d="M524 173q0 -92 -68 -140t-182 -48q-186 0 -250 129l127 48q38 -58 123 -58q78 0 78 49q0 37 -40 44l-128 21q-67 11 -108 52.5t-41 117.5q0 85 67.5 125t174.5 40q159 0 234 -107l-118 -62q-42 49 -116 49q-70 0 -70 -42q0 -31 33 -37l113 -19q84 -14 127.5 -51
t43.5 -111zM447 737l-181 -139q-11 -8 -19 1l-51 48q-9 9 1 19l155 166z" />
    <glyph glyph-name="Scircumflex" unicode="&#x15c;" horiz-adv-x="651" 
d="M623 221q0 -113 -78 -174.5t-219 -61.5q-212 0 -299 172l142 69q28 -48 63.5 -71t93.5 -23q66 0 92.5 21t26.5 62q0 31 -14.5 47t-52.5 23q-16 3 -57.5 9t-60 9t-54 12t-53 18.5t-42 27t-36 39t-20.5 52.5t-9 70q0 102 78.5 158.5t204.5 56.5q103 0 170.5 -34.5
t112.5 -108.5l-143 -70q-23 36 -55.5 52.5t-84.5 16.5q-106 0 -106 -64q0 -27 11.5 -40t38.5 -18q17 -3 48.5 -7.5t50 -7t47.5 -8.5t47 -12t42 -16t38.5 -22t31 -29.5t25 -38.5t14.5 -48.5t6 -60.5zM497 822l-62 -62l-110 92l-109 -92l-62 62l162 166q5 5 11 5q5 0 10 -5z
" />
    <glyph glyph-name="scircumflex" unicode="&#x15d;" horiz-adv-x="549" 
d="M524 173q0 -92 -68 -140t-182 -48q-186 0 -250 129l127 48q38 -58 123 -58q78 0 78 49q0 37 -40 44l-128 21q-67 11 -108 52.5t-41 117.5q0 85 67.5 125t174.5 40q159 0 234 -107l-118 -62q-42 49 -116 49q-70 0 -70 -42q0 -31 33 -37l113 -19q84 -14 127.5 -51
t43.5 -111zM457 655l-62 -62l-110 92l-109 -92l-62 62l162 166q5 5 11 5q5 0 10 -5z" />
    <glyph glyph-name="uni015E" unicode="&#x15e;" horiz-adv-x="651" 
d="M623 221q0 -110 -73.5 -171t-207.5 -65l-22 -26h29q67 0 94 -19.5t27 -64.5q0 -92 -143 -92q-69 0 -126 21l18 51q62 -11 85 -11q52 0 52 36q0 14 -10 22t-26 8h-69l-29 45l34 35q-157 24 -229 167l142 69q28 -48 63.5 -71t93.5 -23q66 0 92.5 21t26.5 62q0 31 -14.5 47
t-52.5 23q-16 3 -57.5 9t-60 9t-54 12t-53 18.5t-42 27t-36 39t-20.5 52.5t-9 70q0 102 78.5 158.5t204.5 56.5q103 0 170.5 -34.5t112.5 -108.5l-143 -70q-23 36 -55.5 52.5t-84.5 16.5q-106 0 -106 -64q0 -27 11.5 -40t38.5 -18q17 -3 48.5 -7.5t50 -7t47.5 -8.5t47 -12
t42 -16t38.5 -22t31 -29.5t25 -38.5t14.5 -48.5t6 -60.5z" />
    <glyph glyph-name="uni015F" unicode="&#x15f;" horiz-adv-x="549" 
d="M524 173q0 -89 -63 -136.5t-170 -50.5l-22 -27h29q67 0 94 -19.5t27 -64.5q0 -92 -143 -92q-69 0 -126 21l18 51q62 -11 85 -11q52 0 52 36q0 14 -10 22t-26 8h-69l-29 45l34 35q-129 21 -181 124l127 48q38 -58 123 -58q78 0 78 49q0 37 -40 44l-128 21
q-67 11 -108 52.5t-41 117.5q0 85 67.5 125t174.5 40q159 0 234 -107l-118 -62q-42 49 -116 49q-70 0 -70 -42q0 -31 33 -37l113 -19q84 -14 127.5 -51t43.5 -111z" />
    <glyph glyph-name="Scaron" unicode="&#x160;" horiz-adv-x="651" 
d="M623 221q0 -113 -78 -174.5t-219 -61.5q-212 0 -299 172l142 69q28 -48 63.5 -71t93.5 -23q66 0 92.5 21t26.5 62q0 31 -14.5 47t-52.5 23q-16 3 -57.5 9t-60 9t-54 12t-53 18.5t-42 27t-36 39t-20.5 52.5t-9 70q0 102 78.5 158.5t204.5 56.5q103 0 170.5 -34.5
t112.5 -108.5l-143 -70q-23 36 -55.5 52.5t-84.5 16.5q-106 0 -106 -64q0 -27 11.5 -40t38.5 -18q17 -3 48.5 -7.5t50 -7t47.5 -8.5t47 -12t42 -16t38.5 -22t31 -29.5t25 -38.5t14.5 -48.5t6 -60.5zM503 924l-157 -155q-11 -10 -21 -10q-11 0 -21 10l-156 155l65 62l113 -94
l112 94z" />
    <glyph glyph-name="scaron" unicode="&#x161;" horiz-adv-x="549" 
d="M524 173q0 -92 -68 -140t-182 -48q-186 0 -250 129l127 48q38 -58 123 -58q78 0 78 49q0 37 -40 44l-128 21q-67 11 -108 52.5t-41 117.5q0 85 67.5 125t174.5 40q159 0 234 -107l-118 -62q-42 49 -116 49q-70 0 -70 -42q0 -31 33 -37l113 -19q84 -14 127.5 -51
t43.5 -111zM464 758l-157 -155q-11 -10 -21 -10q-11 0 -21 10l-156 155l65 62l113 -94l112 94z" />
    <glyph glyph-name="Tcommaaccent" unicode="&#x162;" horiz-adv-x="651" 
d="M623 574h-206v-574h-181v574h-207v147h594v-147zM344 -323l-68 45q25 33 25 88h-57q-10 0 -10 9v125q0 15 11 15h156q11 0 11 -15v-95q0 -106 -68 -172z" />
    <glyph glyph-name="tcommaaccent" unicode="&#x163;" horiz-adv-x="494" 
d="M495 55q-78 -70 -192 -70q-89 0 -145.5 42.5t-56.5 131.5v207q0 21 16 40h-99v131h83v171l180 49v-220h193l-42 -131h-151v-247q0 -39 44 -39q41 0 75 29zM266 -323l-68 45q25 33 25 88h-57q-10 0 -10 9v125q0 15 11 15h156q11 0 11 -15v-95q0 -106 -68 -172z" />
    <glyph glyph-name="Tcaron" unicode="&#x164;" horiz-adv-x="651" 
d="M623 574h-206v-574h-181v574h-207v147h594v-147zM503 925l-157 -155q-11 -10 -21 -10q-11 0 -21 10l-156 155l65 62l113 -94l112 94z" />
    <glyph glyph-name="tcaron" unicode="&#x165;" horiz-adv-x="630" 
d="M495 55q-78 -70 -192 -70q-89 0 -145.5 42.5t-56.5 131.5v207q0 21 16 40h-99v131h83v171l180 49v-220h193l-42 -131h-151v-247q0 -39 44 -39q41 0 75 29zM705 781l-77 -234q-3 -9 -5.5 -11.5t-10.5 -2.5h-79q-8 0 -10.5 2.5t-1.5 11.5l39 234h145z" />
    <glyph glyph-name="Tbar" unicode="&#x166;" horiz-adv-x="651" 
d="M417 324v-324h-181v324h-207v147h207v103h-207v147h594v-147h-206v-103h206v-147h-206z" />
    <glyph glyph-name="tbar" unicode="&#x167;" horiz-adv-x="494" 
d="M432 208h-151v-49q0 -39 44 -39q41 0 75 29l95 -94q-78 -70 -192 -70q-89 0 -145.5 42.5t-56.5 131.5v49h-83v131h83v27q0 21 16 40h-99v131h83v171l180 49v-220h193l-42 -131h-151v-67h193z" />
    <glyph glyph-name="Utilde" unicode="&#x168;" horiz-adv-x="737" 
d="M689 304q0 -160 -87.5 -239.5t-234.5 -79.5t-233 79t-86 240v417h180v-417q0 -92 34.5 -131t104.5 -39q71 0 105.5 38.5t34.5 131.5v417h182v-417zM571 894l-82 -109q-18 -24 -49 -24q-24 0 -39 11l-83 57q-10 5 -11 5q-5 0 -9 -4l-59 -71l-73 49l90 118q19 25 48 25
q22 0 40 -12l80 -55q5 -4 11 -4t13 7l48 58z" />
    <glyph glyph-name="utilde" unicode="&#x169;" horiz-adv-x="616" 
d="M565 0h-149l-19 48q-63 -63 -143 -63q-105 0 -156.5 59.5t-51.5 159.5v333h181v-333q0 -47 14 -70t48 -23q44 0 95 36v390h181v-537zM510 735l-82 -109q-18 -24 -49 -24q-24 0 -39 11l-83 57q-10 5 -11 5q-5 0 -9 -4l-59 -71l-73 49l90 118q19 25 48 25q22 0 40 -12
l80 -55q5 -4 11 -4t13 7l48 58z" />
    <glyph glyph-name="Umacron" unicode="&#x16a;" horiz-adv-x="737" 
d="M689 304q0 -160 -87.5 -239.5t-234.5 -79.5t-233 79t-86 240v417h180v-417q0 -92 34.5 -131t104.5 -39q71 0 105.5 38.5t34.5 131.5v417h182v-417zM534 780h-332v130h332v-130z" />
    <glyph glyph-name="umacron" unicode="&#x16b;" horiz-adv-x="616" 
d="M565 0h-149l-19 48q-63 -63 -143 -63q-105 0 -156.5 59.5t-51.5 159.5v333h181v-333q0 -47 14 -70t48 -23q44 0 95 36v390h181v-537zM474 626h-332v130h332v-130z" />
    <glyph glyph-name="Ubreve" unicode="&#x16c;" horiz-adv-x="737" 
d="M689 304q0 -160 -87.5 -239.5t-234.5 -79.5t-233 79t-86 240v417h180v-417q0 -92 34.5 -131t104.5 -39q71 0 105.5 38.5t34.5 131.5v417h182v-417zM542 892q-35 -67 -73 -99t-101 -32t-101 32t-73 99l72 46q32 -48 52 -62t49 -14t50 14.5t53 61.5z" />
    <glyph glyph-name="ubreve" unicode="&#x16d;" horiz-adv-x="616" 
d="M565 0h-149l-19 48q-63 -63 -143 -63q-105 0 -156.5 59.5t-51.5 159.5v333h181v-333q0 -47 14 -70t48 -23q44 0 95 36v390h181v-537zM482 749q-35 -67 -73 -99t-101 -32t-101 32t-73 99l72 46q32 -48 52 -62t49 -14t50 14.5t53 61.5z" />
    <glyph glyph-name="Uring" unicode="&#x16e;" horiz-adv-x="737" 
d="M689 304q0 -160 -87.5 -239.5t-234.5 -79.5t-233 79t-86 240v417h180v-417q0 -92 34.5 -131t104.5 -39q71 0 105.5 38.5t34.5 131.5v417h182v-417zM490 866q0 -50 -36 -86t-86 -36t-86 36t-36 86t36 86t86 36t86 -36t36 -86zM417 865q0 19 -14.5 34t-34.5 15
q-19 0 -33 -14.5t-14 -34.5q0 -19 13.5 -33t33.5 -14t34.5 14t14.5 33z" />
    <glyph glyph-name="uring" unicode="&#x16f;" horiz-adv-x="616" 
d="M565 0h-149l-19 48q-63 -63 -143 -63q-105 0 -156.5 59.5t-51.5 159.5v333h181v-333q0 -47 14 -70t48 -23q44 0 95 36v390h181v-537zM430 715q0 -50 -36 -86t-86 -36t-86 36t-36 86t36 86t86 36t86 -36t36 -86zM357 714q0 20 -14.5 34.5t-34.5 14.5q-19 0 -33 -14.5
t-14 -34.5t13.5 -33.5t33.5 -13.5t34.5 14t14.5 33z" />
    <glyph glyph-name="Uhungarumlaut" unicode="&#x170;" horiz-adv-x="737" 
d="M689 304q0 -160 -87.5 -239.5t-234.5 -79.5t-233 79t-86 240v417h180v-417q0 -92 34.5 -131t104.5 -39q71 0 105.5 38.5t34.5 131.5v417h182v-417zM663 904l-181 -139q-8 -5 -10 -5q-3 0 -7 4q-1 1 -17.5 15.5t-29.5 27.5t-13 16q0 2 8 10l155 166zM394 904l-181 -139
q-7 -5 -10 -5t-7 4q-1 1 -17.5 15.5t-29.5 27.5t-13 16q0 2 8 10l155 166z" />
    <glyph glyph-name="uhungarumlaut" unicode="&#x171;" horiz-adv-x="616" 
d="M565 0h-149l-19 48q-63 -63 -143 -63q-105 0 -156.5 59.5t-51.5 159.5v333h181v-333q0 -47 14 -70t48 -23q44 0 95 36v390h181v-537zM627 737l-181 -139q-8 -5 -10 -5q-3 0 -7 4q-1 1 -17.5 15.5t-29.5 27.5t-13 16q0 2 8 10l155 166zM358 737l-181 -139q-7 -5 -10 -5
t-7 4q-1 1 -17.5 15.5t-29.5 27.5t-13 16q0 2 8 10l155 166z" />
    <glyph glyph-name="Uogonek" unicode="&#x172;" horiz-adv-x="737" 
d="M689 304q0 -201 -142 -279q-97 -72 -97 -120q0 -19 8 -29t31 -10q3 0 76 13l9 -71q-60 -16 -112 -16q-55 0 -87.5 23t-32.5 69q0 54 63 103q-24 -2 -38 -2q-147 0 -233 79t-86 240v417h180v-417q0 -92 34.5 -131t104.5 -39q71 0 105.5 38.5t34.5 131.5v417h182v-417z" />
    <glyph glyph-name="uogonek" unicode="&#x173;" horiz-adv-x="616" 
d="M565 0q-112 -54 -112 -96q0 -18 8.5 -28t35.5 -10q24 0 71 13l9 -71q-60 -16 -112 -16q-120 0 -120 105q0 66 68 111l-16 40q-63 -63 -143 -63q-105 0 -156.5 59.5t-51.5 159.5v333h181v-333q0 -47 14 -70t48 -23q44 0 95 36v390h181v-537z" />
    <glyph glyph-name="Wcircumflex" unicode="&#x174;" horiz-adv-x="916" 
d="M903 721l-174 -721h-172l-88 348q-6 27 -10 57q-1 -11 -12 -57l-88 -348h-172l-174 721h181l76 -362q5 -27 10 -71q6 58 10 71l88 340h160l88 -340q4 -13 10 -71q5 44 10 71l76 362h181zM629 821l-62 -62l-110 92l-109 -92l-62 62l162 166q5 5 11 5q5 0 10 -5z" />
    <glyph glyph-name="wcircumflex" unicode="&#x175;" horiz-adv-x="856" 
d="M843 537l-171 -537h-156l-69 236q-13 45 -20 95q-8 -56 -20 -95l-69 -236h-156l-169 537h179l60 -254q10 -41 14 -94q12 62 20 94l69 254h144l70 -254q15 -55 19 -94q3 34 16 94l59 254h180zM599 655l-62 -62l-110 92l-109 -92l-62 62l162 166q5 5 11 5q5 0 10 -5z" />
    <glyph glyph-name="Ycircumflex" unicode="&#x176;" horiz-adv-x="708" 
d="M704 721l-258 -432v-289h-182v289l-259 432h206l132 -248q3 -6 10 -37q7 31 10 36l135 249h206zM525 822l-62 -62l-110 92l-109 -92l-62 62l162 166q5 5 11 5q5 0 10 -5z" />
    <glyph glyph-name="ycircumflex" unicode="&#x177;" horiz-adv-x="629" 
d="M615 537l-259 -659q-25 -63 -72.5 -91.5t-139.5 -28.5h-96v133h96q19 0 29 10t20 34l31 77l-211 525h188l102 -314q10 -30 11 -51q1 13 12 51l101 314h188zM486 655l-62 -62l-110 92l-109 -92l-62 62l162 166q5 5 11 5q5 0 10 -5z" />
    <glyph glyph-name="Ydieresis" unicode="&#x178;" horiz-adv-x="708" 
d="M704 721l-258 -432v-289h-182v289l-259 432h206l132 -248q3 -6 10 -37q7 31 10 36l135 249h206zM555 788q0 -8 -7 -8h-132q-5 0 -6.5 1.5t-1.5 6.5v138q0 9 8 9h132q7 0 7 -9v-138zM299 788q0 -8 -7 -8h-132q-5 0 -6.5 1.5t-1.5 6.5v138q0 9 8 9h132q7 0 7 -9v-138z" />
    <glyph glyph-name="Zacute" unicode="&#x179;" horiz-adv-x="622" 
d="M589 593l-299 -426q-8 -12 -20 -20h311v-147h-539v127l301 427q8 11 20 20h-287l-46 147h559v-128zM507 905l-181 -139q-10 -8 -19 1l-51 48q-9 9 1 19l155 166z" />
    <glyph glyph-name="zacute" unicode="&#x17a;" horiz-adv-x="548" 
d="M511 0h-469v126l211 243q15 16 45 27h-225l-42 141h478v-126l-208 -241q-16 -20 -46 -31h256v-139zM456 737l-181 -139q-11 -8 -19 1l-51 48q-9 9 1 19l155 166z" />
    <glyph glyph-name="Zdotaccent" unicode="&#x17b;" horiz-adv-x="622" 
d="M589 593l-299 -426q-8 -12 -20 -20h311v-147h-539v127l301 427q8 11 20 20h-287l-46 147h559v-128zM395 792q0 -11 -10 -11h-148q-10 0 -10 11v145q0 12 10 12h148q10 0 10 -12v-145z" />
    <glyph glyph-name="zdotaccent" unicode="&#x17c;" horiz-adv-x="548" 
d="M511 0h-469v126l211 243q15 16 45 27h-225l-42 141h478v-126l-208 -241q-16 -20 -46 -31h256v-139zM358 622q0 -11 -10 -11h-148q-10 0 -10 11v145q0 12 10 12h148q10 0 10 -12v-145z" />
    <glyph glyph-name="Zcaron" unicode="&#x17d;" horiz-adv-x="622" 
d="M589 593l-299 -426q-8 -12 -20 -20h311v-147h-539v127l301 427q8 11 20 20h-287l-46 147h559v-128zM498 926l-157 -155q-11 -10 -21 -10q-11 0 -21 10l-156 155l65 62l113 -94l112 94z" />
    <glyph glyph-name="zcaron" unicode="&#x17e;" horiz-adv-x="548" 
d="M511 0h-469v126l211 243q15 16 45 27h-225l-42 141h478v-126l-208 -241q-16 -20 -46 -31h256v-139zM451 758l-157 -155q-11 -10 -21 -10q-11 0 -21 10l-156 155l65 62l113 -94l112 94z" />
    <glyph glyph-name="florin" unicode="&#x192;" 
d="M638 698l-45 -119q-54 15 -89 15q-29 0 -46 -16t-21 -54l-6 -50h158l-46 -126h-125l-29 -265q-21 -197 -215 -197q-71 0 -153 25l45 117q63 -14 83 -14q30 0 47.5 16t21.5 55l25 229q2 18 19 34h-115l16 126h98l5 53q18 196 208 196q74 0 164 -25z" />
    <glyph glyph-name="AEacute" unicode="&#x1fc;" horiz-adv-x="1030" 
d="M991 0h-528v154h-190l-80 -154h-184l355 721h627v-147h-347v-125h323l-48 -146h-281q6 -12 6 -25v-131h347v-147zM463 303v250q-4 -15 -10 -27l-109 -223h119zM803 921l-181 -139q-11 -8 -19 1l-51 48q-9 9 1 19l155 166z" />
    <glyph glyph-name="aeacute" unicode="&#x1fd;" horiz-adv-x="943" 
d="M915 224h-371q0 -53 27 -82.5t81 -29.5q73 0 109 58l140 -46q-75 -140 -249 -140q-148 0 -221 77q-91 -77 -186 -77q-106 0 -161.5 49t-55.5 138q0 169 213 169q59 0 120 -11v47q0 52 -75 52q-72 0 -103 -43l-117 68q75 100 231 100q112 0 179 -56q67 56 168 56
q142 0 206.5 -80.5t64.5 -217.5v-31zM742 331q-3 47 -27.5 71.5t-65.5 24.5q-88 0 -102 -96h195zM361 134v99q-35 7 -67 7q-87 0 -87 -63q0 -35 17 -52t45 -17q46 0 92 26zM663 737l-181 -139q-11 -8 -19 1l-51 48q-9 9 1 19l155 166z" />
    <glyph glyph-name="Oslashacute" unicode="&#x1fe;" horiz-adv-x="734" 
d="M731 746l-96 -126q62 -87 62 -251q0 -66 -8 -119t-30.5 -104t-58.5 -85t-95.5 -55t-138.5 -21q-113 0 -186 42l-39 -52h-128l91 119q-68 93 -68 275q0 368 330 368q119 0 194 -47l43 56h128zM462 562q-34 27 -96 27q-83 0 -115.5 -49.5t-32.5 -170.5q0 -67 9 -114z
M516 369q0 50 -6 89l-232 -304q32 -22 88 -22q84 0 117 52t33 185zM539 903l-181 -139q-10 -8 -19 1l-51 48q-9 9 1 19l155 166z" />
    <glyph glyph-name="oslashacute" unicode="&#x1ff;" horiz-adv-x="623" 
d="M595 269q0 -133 -68 -209t-216 -76q-95 0 -160 33l-28 -32h-89l62 74q-68 74 -68 209q0 285 283 285q92 0 158 -32l26 32h89l-59 -74q70 -73 70 -210zM374 405q-23 16 -63 16q-54 0 -77.5 -32.5t-23.5 -120.5q0 -31 4 -62zM412 269q0 34 -4 66l-162 -201q24 -19 65 -19
q53 0 77 33t24 121zM481 737l-181 -139q-10 -8 -19 1l-51 48q-9 9 1 19l155 166z" />
    <glyph glyph-name="uni0218" unicode="&#x218;" horiz-adv-x="651" 
d="M623 221q0 -113 -78 -174.5t-219 -61.5q-212 0 -299 172l142 69q28 -48 63.5 -71t93.5 -23q66 0 92.5 21t26.5 62q0 31 -14.5 47t-52.5 23q-16 3 -57.5 9t-60 9t-54 12t-53 18.5t-42 27t-36 39t-20.5 52.5t-9 70q0 102 78.5 158.5t204.5 56.5q103 0 170.5 -34.5
t112.5 -108.5l-143 -70q-23 36 -55.5 52.5t-84.5 16.5q-106 0 -106 -64q0 -27 11.5 -40t38.5 -18q17 -3 48.5 -7.5t50 -7t47.5 -8.5t47 -12t42 -16t38.5 -22t31 -29.5t25 -38.5t14.5 -48.5t6 -60.5zM344 -323l-68 45q25 33 25 88h-57q-10 0 -10 9v125q0 15 11 15h156
q11 0 11 -15v-95q0 -106 -68 -172z" />
    <glyph glyph-name="uni0219" unicode="&#x219;" horiz-adv-x="549" 
d="M524 173q0 -92 -68 -140t-182 -48q-186 0 -250 129l127 48q38 -58 123 -58q78 0 78 49q0 37 -40 44l-128 21q-67 11 -108 52.5t-41 117.5q0 85 67.5 125t174.5 40q159 0 234 -107l-118 -62q-42 49 -116 49q-70 0 -70 -42q0 -31 33 -37l113 -19q84 -14 127.5 -51
t43.5 -111zM293 -323l-68 45q25 33 25 88h-57q-10 0 -10 9v125q0 15 11 15h156q11 0 11 -15v-95q0 -106 -68 -172z" />
    <glyph glyph-name="circumflex" unicode="&#x2c6;" horiz-adv-x="444" 
d="M383 655l-62 -62l-110 92l-109 -92l-62 62l162 166q5 5 11 5q5 0 10 -5z" />
    <glyph glyph-name="caron" unicode="&#x2c7;" horiz-adv-x="458" 
d="M407 758l-157 -155q-11 -10 -21 -10q-11 0 -21 10l-156 155l65 62l113 -94l112 94z" />
    <glyph glyph-name="uni02C9" unicode="&#x2c9;" horiz-adv-x="461" 
d="M399 626h-332v130h332v-130z" />
    <glyph glyph-name="breve" unicode="&#x2d8;" horiz-adv-x="458" 
d="M404 749q-35 -67 -73 -99t-101 -32t-101 32t-73 99l72 46q32 -48 52 -62t49 -14t50 14.5t53 61.5z" />
    <glyph glyph-name="dotaccent" unicode="&#x2d9;" horiz-adv-x="376" 
d="M272 622q0 -11 -10 -11h-148q-10 0 -10 11v145q0 12 10 12h148q10 0 10 -12v-145z" />
    <glyph glyph-name="ring" unicode="&#x2da;" horiz-adv-x="407" 
d="M326 715q0 -50 -36 -86t-86 -36t-86 36t-36 86t36 86t86 36t86 -36t36 -86zM253 714q0 20 -14.5 34.5t-34.5 14.5q-19 0 -33 -14.5t-14 -34.5t13.5 -33.5t33.5 -13.5t34.5 14t14.5 33z" />
    <glyph glyph-name="ogonek" unicode="&#x2db;" horiz-adv-x="393" 
d="M302 -192q-60 -16 -112 -16q-55 0 -87.5 23t-32.5 69q0 40 34 76t85 61h98q-61 -45 -85 -72t-24 -55t31 -28q11 0 84 13z" />
    <glyph glyph-name="tilde" unicode="&#x2dc;" horiz-adv-x="465" 
d="M436 735l-82 -109q-18 -24 -49 -24q-24 0 -39 11l-83 57q-10 5 -11 5q-5 0 -9 -4l-59 -71l-73 49l90 118q19 25 48 25q22 0 40 -12l80 -55q5 -4 11 -4t13 7l48 58z" />
    <glyph glyph-name="hungarumlaut" unicode="&#x2dd;" horiz-adv-x="507" 
d="M577 737l-181 -139q-8 -5 -10 -5q-3 0 -7 4q-1 1 -17.5 15.5t-29.5 27.5t-13 16q0 2 8 10l155 166zM308 737l-181 -139q-8 -5 -10 -5q-3 0 -7 4q-1 1 -17.5 15.5t-29.5 27.5t-13 16q0 2 8 10l155 166z" />
    <glyph glyph-name="uni03A9" unicode="&#x3a9;" horiz-adv-x="720" 
d="M682 433q0 -219 -186 -266v-43h164v-124h-262v238q56 12 78 49.5t22 125.5q0 176 -150 176t-150 -176q0 -88 22 -125.5t78 -49.5v-238h-262v124h164v43q-100 25 -143 92.5t-43 173.5q0 61 18.5 114t56.5 96.5t104 68.5t155 25t155 -25t104 -68.5t56.5 -96.5t18.5 -114z
" />
    <glyph glyph-name="uni03BC" unicode="&#x3bc;" horiz-adv-x="616" 
d="M570 0h-149l-19 48q-63 -63 -143 -63q-18 0 -27 1v-228h-181v779h181v-333q0 -47 14 -70t48 -23q44 0 95 36v390h181v-537z" />
    <glyph glyph-name="pi" unicode="&#x3c0;" horiz-adv-x="720" 
d="M676 -9h-97q-153 0 -153 167v251h-159v-409h-181v408h-68v152h657v-152h-68v-250q0 -20 6.5 -28.5t22.5 -8.5h40v-130z" />
    <glyph glyph-name="Wgrave" unicode="&#x1e80;" horiz-adv-x="916" 
d="M903 721l-174 -721h-172l-88 348q-6 27 -10 57q-1 -11 -12 -57l-88 -348h-172l-174 721h181l76 -362q5 -27 10 -71q6 58 10 71l88 340h160l88 -340q4 -13 10 -71q5 44 10 71l76 362h181zM304 907l181 -139q11 -8 19 1l51 48q9 9 -1 19l-155 166z" />
    <glyph glyph-name="wgrave" unicode="&#x1e81;" horiz-adv-x="856" 
d="M843 537l-171 -537h-156l-69 236q-13 45 -20 95q-8 -56 -20 -95l-69 -236h-156l-169 537h179l60 -254q10 -41 14 -94q12 62 20 94l69 254h144l70 -254q15 -55 19 -94q3 34 16 94l59 254h180zM257 737l181 -139q10 -8 19 1l51 48q9 9 -1 19l-155 166z" />
    <glyph glyph-name="Wacute" unicode="&#x1e82;" horiz-adv-x="916" 
d="M903 721l-174 -721h-172l-88 348q-6 27 -10 57q-1 -11 -12 -57l-88 -348h-172l-174 721h181l76 -362q5 -27 10 -71q6 58 10 71l88 340h160l88 -340q4 -13 10 -71q5 44 10 71l76 362h181zM632 904l-181 -139q-11 -7 -19 1l-51 48q-9 9 1 19l155 166z" />
    <glyph glyph-name="wacute" unicode="&#x1e83;" horiz-adv-x="856" 
d="M843 537l-171 -537h-156l-69 236q-13 45 -20 95q-8 -56 -20 -95l-69 -236h-156l-169 537h179l60 -254q10 -41 14 -94q12 62 20 94l69 254h144l70 -254q15 -55 19 -94q3 34 16 94l59 254h180zM606 737l-181 -139q-11 -8 -19 1l-51 48q-9 9 1 19l155 166z" />
    <glyph glyph-name="Wdieresis" unicode="&#x1e84;" horiz-adv-x="916" 
d="M903 721l-174 -721h-172l-88 348q-6 27 -10 57q-1 -11 -12 -57l-88 -348h-172l-174 721h181l76 -362q5 -27 10 -71q6 58 10 71l88 340h160l88 -340q4 -13 10 -71q5 44 10 71l76 362h181zM659 788q0 -8 -7 -8h-132q-5 0 -6.5 1.5t-1.5 6.5v138q0 9 8 9h132q7 0 7 -9v-138z
M403 788q0 -8 -7 -8h-132q-5 0 -6.5 1.5t-1.5 6.5v138q0 9 8 9h132q7 0 7 -9v-138z" />
    <glyph glyph-name="wdieresis" unicode="&#x1e85;" horiz-adv-x="856" 
d="M843 537l-171 -537h-156l-69 236q-13 45 -20 95q-8 -56 -20 -95l-69 -236h-156l-169 537h179l60 -254q10 -41 14 -94q12 62 20 94l69 254h144l70 -254q15 -55 19 -94q3 34 16 94l59 254h180zM629 641q0 -8 -7 -8h-132q-5 0 -6.5 1.5t-1.5 6.5v138q0 9 8 9h132q7 0 7 -9
v-138zM373 641q0 -8 -7 -8h-132q-5 0 -6.5 1.5t-1.5 6.5v138q0 9 8 9h132q7 0 7 -9v-138z" />
    <glyph glyph-name="Ygrave" unicode="&#x1ef2;" horiz-adv-x="708" 
d="M704 721l-258 -432v-289h-182v289l-259 432h206l132 -248q3 -6 10 -37q7 31 10 36l135 249h206zM197 904l181 -139q10 -7 19 1l51 48q9 9 -1 19l-155 166z" />
    <glyph glyph-name="ygrave" unicode="&#x1ef3;" horiz-adv-x="629" 
d="M615 537l-259 -659q-25 -63 -72.5 -91.5t-139.5 -28.5h-96v133h96q19 0 29 10t20 34l31 77l-211 525h188l102 -314q10 -30 11 -51q1 13 12 51l101 314h188zM142 737l181 -139q11 -8 19 1l51 48q9 9 -1 19l-155 166z" />
    <glyph glyph-name="endash" unicode="&#x2013;" horiz-adv-x="464" 
d="M429 248h-393v144h393v-144z" />
    <glyph glyph-name="emdash" unicode="&#x2014;" horiz-adv-x="903" 
d="M867 248h-831v144h831v-144z" />
    <glyph glyph-name="quoteleft" unicode="&#x2018;" horiz-adv-x="255" 
d="M223 746q-37 -26 -52 -49.5t-15 -58.5h39q7 0 8.5 -1.5t1.5 -9.5v-142q0 -9 -1.5 -10.5t-8.5 -1.5h-140q-7 0 -8.5 1.5t-1.5 10.5v131q0 57 36 107.5t93 78.5z" />
    <glyph glyph-name="quoteright" unicode="&#x2019;" horiz-adv-x="255" 
d="M213 579q0 -58 -35.5 -108.5t-92.5 -77.5l-49 56q37 26 52 49.5t15 58.5h-39q-7 0 -8.5 1.5t-1.5 9.5v142q0 9 1.5 10.5t8.5 1.5h140q7 0 8 -1.5t1 -10.5v-131z" />
    <glyph glyph-name="quotesinglbase" unicode="&#x201a;" horiz-adv-x="255" 
d="M212 21q0 -61 -41 -115.5t-105 -84.5l-51 57q40 28 56.5 54.5t16.5 67.5h-44q-10 0 -10 9v154q0 15 11 15h156q11 0 11 -15v-142z" />
    <glyph glyph-name="quotedblleft" unicode="&#x201c;" horiz-adv-x="488" 
d="M456 750q-37 -26 -52 -49.5t-15 -58.5h39q7 0 8.5 -1.5t1.5 -9.5v-142q0 -9 -1.5 -10.5t-8.5 -1.5h-140q-7 0 -8.5 1.5t-1.5 10.5v132q0 57 36 107t93 78zM224 750q-37 -26 -52 -49.5t-15 -58.5h39q7 0 8.5 -1.5t1.5 -9.5v-142q0 -9 -1.5 -10.5t-8.5 -1.5h-141
q-7 0 -8 1.5t-1 10.5v132q0 58 35.5 107.5t92.5 77.5z" />
    <glyph glyph-name="quotedblright" unicode="&#x201d;" horiz-adv-x="488" 
d="M442 578q0 -58 -35.5 -107.5t-92.5 -77.5l-50 56q37 26 52.5 49.5t15.5 58.5h-39q-7 0 -8.5 1.5t-1.5 9.5v142q0 9 1.5 10.5t8.5 1.5h140q7 0 8 -1.5t1 -10.5v-132zM210 578q0 -57 -36 -107t-93 -78l-49 56q37 26 52 49.5t15 58.5h-39q-7 0 -8.5 1.5t-1.5 9.5v142
q0 9 1.5 10.5t8.5 1.5h140q7 0 8.5 -1.5t1.5 -10.5v-132z" />
    <glyph glyph-name="quotedblbase" unicode="&#x201e;" horiz-adv-x="488" 
d="M465 21q0 -61 -41 -115.5t-105 -84.5l-51 57q40 28 56.5 54.5t16.5 67.5h-44q-10 0 -10 9v154q0 15 11 15h156q11 0 11 -15v-142zM202 21q0 -61 -41 -115.5t-105 -84.5l-51 57q40 28 56.5 54.5t16.5 67.5h-44q-10 0 -10 9v154q0 15 11 15h156q11 0 11 -15v-142z" />
    <glyph glyph-name="dagger" unicode="&#x2020;" horiz-adv-x="562" 
d="M536 393h-145l-37 10l10 -37v-366h-163v366l11 37l-38 -10h-148v160h148l38 -10l-11 40v196h163v-196l-10 -40l37 10h145v-160z" />
    <glyph glyph-name="daggerdbl" unicode="&#x2021;" horiz-adv-x="562" 
d="M536 194h-145l-37 10l10 -37v-167h-163v167l11 37l-38 -10h-148v154h148l38 -10l-11 40v35l11 36l-38 -9h-148v153h148l38 -10l-11 40v156h163v-156l-10 -40l37 10h145v-153h-145l-37 9l10 -36v-35l-10 -40l37 10h145v-154z" />
    <glyph glyph-name="bullet" unicode="&#x2022;" horiz-adv-x="476" 
d="M435 301q0 -82 -57 -139t-139 -57t-139.5 57t-57.5 139t57.5 139.5t139.5 57.5t139 -57.5t57 -139.5z" />
    <glyph glyph-name="ellipsis" unicode="&#x2026;" horiz-adv-x="894" 
d="M836 11q0 -11 -10 -11h-158q-10 0 -10 11v155q0 12 10 12h158q10 0 10 -12v-155zM536 11q0 -11 -10 -11h-158q-10 0 -10 11v155q0 12 10 12h158q10 0 10 -12v-155zM236 11q0 -11 -10 -11h-158q-10 0 -10 11v155q0 12 10 12h158q10 0 10 -12v-155z" />
    <glyph glyph-name="perthousand" unicode="&#x2030;" horiz-adv-x="1328" 
d="M777 737l-475 -752h-128l475 752h128zM364 519q0 -37 -2.5 -64.5t-12 -59t-26 -52t-46.5 -34t-72 -13.5t-72 13.5t-47 34t-26.5 52t-12 59t-2.5 64.5q0 44 6 78t22 67t49.5 51t82.5 18t82 -18t49 -51t22 -67t6 -78zM253 519q0 74 -10 101t-38 27t-38.5 -27.5
t-10.5 -100.5q0 -77 10.5 -107t38.5 -30q27 0 37.5 30t10.5 107zM909 214q0 -37 -2.5 -64.5t-12 -59t-26 -52t-46.5 -34t-72 -13.5t-72 13.5t-47 34t-26.5 52t-12 59t-2.5 64.5q0 44 6 78t22 67t49.5 51t82.5 18t82 -18t49 -51t22 -67t6 -78zM798 214q0 74 -10 101t-38 27
t-38.5 -27.5t-10.5 -100.5q0 -77 10.5 -107t38.5 -30q27 0 37.5 30t10.5 107zM1283 214q0 -37 -2.5 -64.5t-12 -59t-26 -52t-46.5 -34t-72 -13.5t-72 13.5t-47 34t-26.5 52t-12 59t-2.5 64.5q0 44 6 78t22 67t49.5 51t82.5 18t82 -18t49 -51t22 -67t6 -78zM1172 214
q0 74 -10 101t-38 27t-38.5 -27.5t-10.5 -100.5q0 -77 10.5 -107t38.5 -30q27 0 37.5 30t10.5 107z" />
    <glyph glyph-name="guilsinglleft" unicode="&#x2039;" horiz-adv-x="345" 
d="M307 129l-81 -69l-194 215l194 216l81 -69l-123 -147z" />
    <glyph glyph-name="guilsinglright" unicode="&#x203a;" horiz-adv-x="345" 
d="M313 275l-195 -215l-79 69l121 146l-121 147l79 69z" />
    <glyph glyph-name="fraction" unicode="&#x2044;" horiz-adv-x="391" 
d="M540 737l-479 -752h-124l479 752h124z" />
    <glyph glyph-name="n.superior" unicode="&#x207f;" horiz-adv-x="370" 
d="M345 305h-118v202q0 50 -31 50q-25 0 -51 -19v-233h-117v327h98l9 -22q34 32 82 32q65 0 96.5 -36.5t31.5 -98.5v-202z" />
    <glyph glyph-name="Euro" unicode="&#x20ac;" 
d="M627 163q-32 -85 -93 -131.5t-171 -46.5q-123 0 -197 68.5t-95 185.5h-64l28 84h27q-1 12 -1 37v29h-54l28 84h34q18 126 91.5 195t201.5 69q126 0 190.5 -65.5t71.5 -179.5h-148q-7 58 -33 80.5t-81 22.5q-54 0 -81 -28t-37 -94h209l-30 -84h-186q0 -7 -0.5 -16
t-0.5 -16q0 -5 0.5 -17.5t0.5 -16.5h170l-31 -84h-129q12 -57 39.5 -85t77.5 -28t81 25t56 86z" />
    <glyph glyph-name="afii61289" unicode="&#x2113;" horiz-adv-x="468" 
d="M423 594q0 -170 -165 -282v-154q0 -20 6.5 -28.5t22.5 -8.5h40v-130h-97q-72 0 -112.5 44t-40.5 123v76q-38 -14 -57 -19l-15 70q55 19 72 26v271q0 45 9 82t29.5 69t58 50t90.5 18q45 0 77 -15t47.5 -34t24 -52.5t9.5 -53t1 -52.5zM344 594q0 51 -9 71t-31 20
q-46 0 -46 -104v-181q86 79 86 194z" />
    <glyph glyph-name="trademark" unicode="&#x2122;" horiz-adv-x="761" 
d="M730 382h-95l-14 166l-49 -98h-74l-50 98l-13 -166h-95l29 339h86l79 -165l81 165h85zM331 644h-98v-262h-101v262h-98v77h297v-77z" />
    <glyph glyph-name="Omega" unicode="&#x2126;" horiz-adv-x="720" 
d="M682 433q0 -219 -186 -266v-43h164v-124h-262v238q56 12 78 49.5t22 125.5q0 176 -150 176t-150 -176q0 -88 22 -125.5t78 -49.5v-238h-262v124h164v43q-100 25 -143 92.5t-43 173.5q0 61 18.5 114t56.5 96.5t104 68.5t155 25t155 -25t104 -68.5t56.5 -96.5t18.5 -114z
" />
    <glyph glyph-name="estimated" unicode="&#x212e;" horiz-adv-x="606" 
d="M577 282h-429v-193q66 -63 152 -63q76 0 123 33t87 94l31 -19q-44 -68 -99 -104.5t-142 -36.5q-119 0 -195 84.5t-76 205.5q0 123 75 206.5t200 83.5q124 0 198.5 -84.5t74.5 -206.5zM457 315v163q-68 62 -153 62q-96 0 -156 -62v-163h309z" />
    <glyph glyph-name="onethird" unicode="&#x2153;" horiz-adv-x="987" 
d="M326 305h-281v90h86v230l-86 -16v87l195 38v-339h86v-90zM788 737l-479 -752h-124l479 752h124zM942 129q0 -66 -47 -102t-118 -36q-117 0 -170 105l82 36q19 -32 38.5 -44t48.5 -12q56 0 56 58q0 18 -12 31.5t-33 13.5h-61l-23 76h81q40 0 40 49q0 39 -46 39
q-30 0 -50 -11t-36 -41l-82 36q52 101 172 101q78 0 115 -33.5t37 -87.5q0 -57 -48 -85q56 -28 56 -93z" />
    <glyph glyph-name="twothirds" unicode="&#x2154;" horiz-adv-x="1009" 
d="M810 737l-479 -752h-124l479 752h124zM964 129q0 -66 -47 -102t-118 -36q-117 0 -170 105l82 36q19 -32 38.5 -44t48.5 -12q56 0 56 58q0 18 -12 31.5t-33 13.5h-61l-23 76h81q40 0 40 49q0 39 -46 39q-30 0 -50 -11t-36 -41l-82 36q52 101 172 101q78 0 115 -33.5
t37 -87.5q0 -57 -48 -85q56 -28 56 -93zM360 607q0 -46 -23.5 -75t-82.5 -71q-29 -21 -39.5 -29t-21.5 -18.5t-17 -21.5h85v37h97v-124h-313q0 46 11.5 82t35 64t41.5 43.5t50 37.5q39 26 52.5 41t13.5 34q0 40 -42 40q-61 0 -64 -67h-95q2 70 41.5 111.5t117.5 41.5
q153 0 153 -126z" />
    <glyph glyph-name="oneeighth" unicode="&#x215b;" horiz-adv-x="986" 
d="M326 305h-281v90h86v230l-86 -16v87l195 38v-339h86v-90zM788 737l-479 -752h-124l479 752h124zM941 132q0 -141 -163 -141q-162 0 -162 141q0 55 48 88q-41 31 -41 88q0 120 156 120q155 0 155 -120q0 -57 -41 -88q48 -32 48 -88zM831 132q0 47 -40 47h-27
q-38 0 -38 -47q0 -30 12.5 -43t39.5 -13q28 0 40.5 13t12.5 43zM827 301q0 42 -49 42q-48 0 -48 -42q0 -41 32 -41h31q34 0 34 41z" />
    <glyph glyph-name="threeeighths" unicode="&#x215c;" horiz-adv-x="1001" 
d="M803 737l-479 -752h-124l479 752h124zM956 132q0 -141 -163 -141q-162 0 -162 141q0 55 48 88q-41 31 -41 88q0 120 156 120q155 0 155 -120q0 -57 -41 -88q48 -32 48 -88zM846 132q0 47 -40 47h-27q-38 0 -38 -47q0 -30 12.5 -43t39.5 -13q28 0 40.5 13t12.5 43z
M842 301q0 42 -49 42q-48 0 -48 -42q0 -41 32 -41h31q34 0 34 41zM380 434q0 -66 -47 -102t-118 -36q-117 0 -170 105l82 36q19 -32 38.5 -44t48.5 -12q56 0 56 58q0 18 -12 31.5t-33 13.5h-61l-23 76h81q40 0 40 49q0 39 -46 39q-30 0 -50 -11t-36 -41l-82 36
q52 101 172 101q78 0 115 -33.5t37 -87.5q0 -57 -48 -85q56 -28 56 -93z" />
    <glyph glyph-name="fiveeighths" unicode="&#x215d;" horiz-adv-x="999" 
d="M801 737l-479 -752h-124l479 752h124zM954 132q0 -141 -163 -141q-162 0 -162 141q0 55 48 88q-41 31 -41 88q0 120 156 120q155 0 155 -120q0 -57 -41 -88q48 -32 48 -88zM844 132q0 47 -40 47h-27q-38 0 -38 -47q0 -30 12.5 -43t39.5 -13q28 0 40.5 13t12.5 43z
M840 301q0 42 -49 42q-48 0 -48 -42q0 -41 32 -41h31q34 0 34 41zM380 447q0 -69 -41.5 -110t-122.5 -41q-118 0 -171 105l81 36q20 -32 39.5 -44t49.5 -12q54 0 54 63q0 58 -63 58q-55 0 -98 -16l-36 34l24 204h283l-25 -90h-171l-7 -51q21 3 43 3q161 0 161 -139z" />
    <glyph glyph-name="seveneighths" unicode="&#x215e;" horiz-adv-x="903" 
d="M705 737l-479 -752h-124l479 752h124zM858 132q0 -141 -163 -141q-162 0 -162 141q0 55 48 88q-41 31 -41 88q0 120 156 120q155 0 155 -120q0 -57 -41 -88q48 -32 48 -88zM748 132q0 47 -40 47h-27q-38 0 -38 -47q0 -30 12.5 -43t39.5 -13q28 0 40.5 13t12.5 43z
M744 301q0 42 -49 42q-48 0 -48 -42q0 -41 32 -41h31q34 0 34 41zM366 649l-196 -344h-124l190 330h-94v-42h-97v131h321v-75z" />
    <glyph glyph-name="partialdiff" unicode="&#x2202;" horiz-adv-x="720" 
d="M646 448q0 -73 -11 -132q-30 -171 -112.5 -251.5t-235.5 -80.5q-245 0 -245 207q0 36 8 79q22 132 98 207t200 75q60 0 108 -19q-2 75 -49 115t-155 40q-33 0 -69 -3l1 114q56 4 79 4q106 0 182.5 -28t119 -78.5t62 -111.5t19.5 -137zM451 337q0 49 -21 69.5t-65 20.5
q-56 0 -87 -34.5t-48 -124.5q-8 -45 -8 -71q0 -48 21 -68t65 -20q57 0 88.5 35t47.5 124q7 38 7 69z" />
    <glyph glyph-name="Delta" unicode="&#x2206;" horiz-adv-x="720" 
d="M706 0h-726l286 721h155zM462 141l-124 359l-119 -359h243z" />
    <glyph glyph-name="product" unicode="&#x220f;" horiz-adv-x="720" 
d="M721 570h-83v-570h-181v571h-228v-571h-181v570h-84v151h757v-151z" />
    <glyph glyph-name="summation" unicode="&#x2211;" horiz-adv-x="720" 
d="M614 0h-531v146l178 222l-178 207v146h531v-150h-342l178 -203l-178 -218h342v-150z" />
    <glyph glyph-name="minus" unicode="&#x2212;" 
d="M570 288h-481v146h481v-146z" />
    <glyph glyph-name="uni2215" unicode="&#x2215;" horiz-adv-x="391" 
d="M540 737l-479 -752h-124l479 752h124z" />
    <glyph glyph-name="uni2219" unicode="&#x2219;" horiz-adv-x="294" 
d="M236 344q0 -11 -10 -11h-158q-10 0 -10 11v155q0 12 10 12h158q10 0 10 -12v-155z" />
    <glyph glyph-name="radical" unicode="&#x221a;" horiz-adv-x="720" 
d="M720 571h-118l-204 -571h-165l-126 346h-106v150h242l72 -258l147 483h258v-150z" />
    <glyph glyph-name="infinity" unicode="&#x221e;" horiz-adv-x="720" 
d="M655 377q0 -266 -189 -266q-78 0 -132 42q-43 -44 -107 -44q-57 0 -95.5 23t-56 65.5t-24 83.5t-6.5 96q0 266 188 266q69 0 129 -43q46 44 112 44q47 0 81.5 -16.5t53.5 -40.5t29.5 -62t13.5 -71t3 -77zM524 377q0 69 -10 105.5t-40 36.5q-24 0 -35.5 -30.5
t-24.5 -117.5q-13 -81 -19 -106q31 -30 71 -30q58 0 58 142zM302 490q-31 28 -68 28q-57 0 -57 -143q0 -69 9.5 -105t40.5 -36q22 0 34.5 34t24.5 118q11 84 16 104z" />
    <glyph glyph-name="integral" unicode="&#x222b;" horiz-adv-x="720" 
d="M660 753l-35 -121q-70 18 -107 18q-83 0 -83 -80v-563q0 -52 -12 -90t-31.5 -60.5t-50 -36t-61.5 -18t-71 -4.5q-87 0 -178 26l35 122q67 -19 107 -19q83 0 83 81v562q0 52 12 90t31.5 60.5t50 36t61.5 18t71 4.5q87 0 178 -26z" />
    <glyph glyph-name="approxequal" unicode="&#x2248;" horiz-adv-x="500" 
d="M493 524q-49 -69 -134 -69q-40 0 -78.5 21.5t-73.5 43t-66 21.5q-86 0 -135 -69v144q49 69 134 69q35 0 67.5 -13.5t53 -29.5t46.5 -29.5t51 -13.5q86 0 135 69v-144zM493 268q-49 -69 -134 -69q-40 0 -78.5 21.5t-73.5 43t-66 21.5q-86 0 -135 -69v144q49 69 134 69
q35 0 67.5 -13.5t53 -29.5t46.5 -29.5t51 -13.5q86 0 135 69v-144z" />
    <glyph glyph-name="notequal" unicode="&#x2260;" 
d="M549 737l-74 -174h102v-140h-161l-53 -124h214v-140h-273l-74 -174h-123l74 174h-100v140h159l53 124h-212v140h271l74 174h123z" />
    <glyph glyph-name="lessequal" unicode="&#x2264;" 
d="M604 0h-549v118h549v-118zM512 170h-180l-224 280l224 280h180l-226 -280z" />
    <glyph glyph-name="greaterequal" unicode="&#x2265;" 
d="M55 0h549v118h-549v-118zM147 170h180l224 280l-224 280h-180l226 -280z" />
    <glyph glyph-name="lozenge" unicode="&#x25ca;" horiz-adv-x="700" 
d="M636 353l-295 -346l-295 346l295 347zM466 353l-125 153l-126 -153l126 -153z" />
    <glyph glyph-name="I.alt" unicode="&#xe000;" horiz-adv-x="375" 
d="M353 0h-331v92h76v537h-76v92h331v-92h-75v-537h75v-92z" />
    <glyph glyph-name="IJ.alt" unicode="&#xe001;" horiz-adv-x="899" 
d="M837 223q0 -238 -241 -238q-105 0 -181 56l90 124q42 -31 91 -31q35 0 48.5 20t13.5 69v332q0 9 5 19h-147l-43 147h364v-498zM381 0h-331v92h76v537h-76v92h331v-92h-75v-537h75v-92z" />
    <glyph glyph-name="Iacute.alt" unicode="&#xe002;" horiz-adv-x="375" 
d="M326 906l-181 -139q-8 -5 -10 -5q-3 0 -7 4q-1 1 -17.5 15.5t-29.5 27.5t-13 16q0 2 8 10l155 166zM353 0h-331v92h76v537h-76v92h331v-92h-75v-537h75v-92z" />
    <glyph glyph-name="Ibreve.alt" unicode="&#xe003;" horiz-adv-x="375" 
d="M360 883q-35 -67 -73 -99t-101 -32t-101 32t-73 99l72 46q32 -48 52 -62t49 -14t50 14.5t53 61.5zM353 0h-331v92h76v537h-76v92h331v-92h-75v-537h75v-92z" />
    <glyph glyph-name="Icircumflex.alt" unicode="&#xe004;" horiz-adv-x="375" 
d="M358 824l-62 -62l-110 92l-109 -92l-62 62l162 166q4 5 11 5q5 0 10 -5zM353 0h-331v92h76v537h-76v92h331v-92h-75v-537h75v-92z" />
    <glyph glyph-name="Idieresis.alt" unicode="&#xe005;" horiz-adv-x="375" 
d="M389 789q0 -8 -7 -8h-132q-5 0 -6.5 1.5t-1.5 6.5v138q0 9 8 9h132q7 0 7 -9v-138zM133 789q0 -8 -7 -8h-132q-5 0 -6.5 1.5t-1.5 6.5v138q0 9 8 9h132q7 0 7 -9v-138zM353 0h-331v92h76v537h-76v92h331v-92h-75v-537h75v-92z" />
    <glyph glyph-name="Idotaccent.alt" unicode="&#xe006;" horiz-adv-x="375" 
d="M268 789q0 -11 -10 -11h-148q-10 0 -10 11v145q0 12 10 12h148q10 0 10 -12v-145zM353 0h-331v92h76v537h-76v92h331v-92h-75v-537h75v-92z" />
    <glyph glyph-name="Igrave.alt" unicode="&#xe007;" horiz-adv-x="375" 
d="M317 826q0 -2 -8.5 -11.5t-18.5 -19t-20.5 -19t-11.5 -10.5q-4 -4 -7 -4t-10 5l-182 139l96 95l155 -166q7 -7 7 -9zM353 0h-331v92h76v537h-76v92h331v-92h-75v-537h75v-92z" />
    <glyph glyph-name="Imacron.alt" unicode="&#xe008;" horiz-adv-x="375" 
d="M354 771h-332v130h332v-130zM353 0h-331v92h76v537h-76v92h331v-92h-75v-537h75v-92z" />
    <glyph glyph-name="Iogonek.alt" unicode="&#xe009;" horiz-adv-x="375" 
d="M284 -192q-60 -16 -112 -16q-55 0 -87.5 23t-32.5 69q0 63 82 116h-112v92h76v537h-76v92h331v-92h-75v-537h75v-92h-113q-43 -34 -61.5 -57.5t-18.5 -48.5q0 -28 31 -28q11 0 84 13z" />
    <glyph glyph-name="Itilde.alt" unicode="&#xe00a;" horiz-adv-x="375" 
d="M392 876l-82 -109q-18 -24 -49 -24q-24 0 -39 11l-83 57q-10 5 -11 5q-5 0 -9 -4l-59 -71l-73 49l90 118q19 25 48 25q22 0 40 -12l80 -55q5 -4 11 -4t13 7l48 58zM353 0h-331v92h76v537h-76v92h331v-92h-75v-537h75v-92z" />
    <glyph glyph-name="J.alt" unicode="&#xe00b;" horiz-adv-x="491" 
d="M429 223q0 -238 -241 -238q-105 0 -181 56l90 124q42 -31 91 -31q35 0 48.5 20t13.5 69v332q0 9 5 19h-147l-43 147h364v-498z" />
    <glyph glyph-name="Jcircumflex.alt" unicode="&#xe00c;" horiz-adv-x="491" 
d="M481 815l-62 -62l-110 92l-109 -92l-62 62l162 166q5 5 11 5q5 0 10 -5zM429 223q0 -238 -241 -238q-105 0 -181 56l90 124q42 -31 91 -31q35 0 48.5 20t13.5 69v332q0 9 5 19h-147l-43 147h364v-498z" />
    <glyph glyph-name="a.alt" unicode="&#xe00d;" horiz-adv-x="614" 
d="M596 0h-94q-66 0 -94 50q-71 -65 -162 -65q-107 0 -162.5 48.5t-55.5 137.5q0 168 214 168q59 0 120 -11v48q0 52 -75 52q-71 0 -106 -42l-114 67q75 100 231 100q119 0 182 -47t63 -130v-218q0 -26 22 -26h31v-132zM362 132v105q-33 5 -67 5q-87 0 -87 -65q0 -69 68 -69
q44 0 86 24z" />
    <glyph glyph-name="aacute.alt" unicode="&#xe00e;" horiz-adv-x="614" 
d="M465 737l-181 -139q-8 -5 -10 -5q-3 0 -7 4q-1 1 -17.5 15.5t-29.5 27.5t-13 16q0 2 8 10l155 166zM596 0h-94q-66 0 -94 50q-71 -65 -162 -65q-107 0 -162.5 48.5t-55.5 137.5q0 168 214 168q59 0 120 -11v48q0 52 -75 52q-71 0 -106 -42l-114 67q75 100 231 100
q119 0 182 -47t63 -130v-218q0 -26 22 -26h31v-132zM362 132v105q-33 5 -67 5q-87 0 -87 -65q0 -69 68 -69q44 0 86 24z" />
    <glyph glyph-name="abreve.alt" unicode="&#xe00f;" horiz-adv-x="614" 
d="M458 726q-35 -67 -73 -99t-101 -32t-101 32t-73 99l72 46q32 -48 52 -62t49 -14t50 14.5t53 61.5zM596 0h-94q-66 0 -94 50q-71 -65 -162 -65q-107 0 -162.5 48.5t-55.5 137.5q0 168 214 168q59 0 120 -11v48q0 52 -75 52q-71 0 -106 -42l-114 67q75 100 231 100
q119 0 182 -47t63 -130v-218q0 -26 22 -26h31v-132zM362 132v105q-33 5 -67 5q-87 0 -87 -65q0 -69 68 -69q44 0 86 24z" />
    <glyph glyph-name="acircumflex.alt" unicode="&#xe010;" horiz-adv-x="614" 
d="M466 655l-62 -62l-110 92l-109 -92l-62 62l162 166q5 5 11 5t10 -5zM596 0h-94q-66 0 -94 50q-71 -65 -162 -65q-107 0 -162.5 48.5t-55.5 137.5q0 168 214 168q59 0 120 -11v48q0 52 -75 52q-71 0 -106 -42l-114 67q75 100 231 100q119 0 182 -47t63 -130v-218
q0 -26 22 -26h31v-132zM362 132v105q-33 5 -67 5q-87 0 -87 -65q0 -69 68 -69q44 0 86 24z" />
    <glyph glyph-name="adieresis.alt" unicode="&#xe011;" horiz-adv-x="614" 
d="M496 629q0 -8 -7 -8h-132q-5 0 -6.5 1.5t-1.5 6.5v138q0 9 8 9h132q7 0 7 -9v-138zM240 629q0 -8 -7 -8h-132q-5 0 -6.5 1.5t-1.5 6.5v138q0 9 8 9h132q7 0 7 -9v-138zM596 0h-94q-66 0 -94 50q-71 -65 -162 -65q-107 0 -162.5 48.5t-55.5 137.5q0 168 214 168
q59 0 120 -11v48q0 52 -75 52q-71 0 -106 -42l-114 67q75 100 231 100q119 0 182 -47t63 -130v-218q0 -26 22 -26h31v-132zM362 132v105q-33 5 -67 5q-87 0 -87 -65q0 -69 68 -69q44 0 86 24z" />
    <glyph glyph-name="agrave.alt" unicode="&#xe012;" horiz-adv-x="614" 
d="M405 657q0 -9 -59 -60q-4 -4 -7 -4t-10 5l-182 139l96 95l155 -166q7 -7 7 -9zM596 0h-94q-66 0 -94 50q-71 -65 -162 -65q-107 0 -162.5 48.5t-55.5 137.5q0 168 214 168q59 0 120 -11v48q0 52 -75 52q-71 0 -106 -42l-114 67q75 100 231 100q119 0 182 -47t63 -130
v-218q0 -26 22 -26h31v-132zM362 132v105q-33 5 -67 5q-87 0 -87 -65q0 -69 68 -69q44 0 86 24z" />
    <glyph glyph-name="amacron.alt" unicode="&#xe013;" horiz-adv-x="614" 
d="M596 0h-94q-66 0 -94 50q-71 -65 -162 -65q-107 0 -162.5 48.5t-55.5 137.5q0 168 214 168q59 0 120 -11v48q0 52 -75 52q-71 0 -106 -42l-114 67q75 100 231 100q119 0 182 -47t63 -130v-218q0 -26 22 -26h31v-132zM362 132v105q-33 5 -67 5q-87 0 -87 -65q0 -69 68 -69
q44 0 86 24zM463 626h-332v130h332v-130z" />
    <glyph glyph-name="aogonek.alt" unicode="&#xe014;" horiz-adv-x="614" 
d="M605 -192q-60 -16 -112 -16q-55 0 -87.5 23t-32.5 69q0 66 89 120q-35 11 -54 46q-71 -65 -162 -65q-107 0 -162.5 48.5t-55.5 137.5q0 168 214 168q59 0 120 -11v48q0 52 -75 52q-71 0 -106 -42l-114 67q75 100 231 100q119 0 182 -47t63 -130v-218q0 -26 22 -26h31
v-132h-35q-43 -34 -61.5 -57.5t-18.5 -48.5q0 -28 31 -28q11 0 84 13zM362 132v105q-33 5 -67 5q-87 0 -87 -65q0 -69 68 -69q44 0 86 24z" />
    <glyph glyph-name="apple" unicode="&#xe015;" horiz-adv-x="790" 
d="M684 369q0 -90 -13 -156.5t-45 -120t-90 -81t-142 -27.5q-85 0 -142.5 27.5t-88.5 81t-44 119.5t-13 157q0 82 13 144.5t43.5 115t88.5 80.5t142 28t143 -28t90 -80.5t44.5 -115t13.5 -144.5zM606 251q0 69 -36 116t-107 61l-106 20q-26 5 -33 13.5t-7 33.5
q0 18 3.5 27.5t21 17t52.5 7.5q37 0 57.5 -12t35.5 -40l25 -8l68 36l10 27q-57 116 -195 116q-102 0 -149.5 -47t-47.5 -124q0 -139 127 -165l112 -23q29 -6 39.5 -18t10.5 -38q0 -74 -94 -74q-40 0 -63.5 15.5t-41.5 56.5l-26 10l-67 -36l-11 -25q49 -139 208 -139
q102 0 157.5 54t55.5 138h1zM567 251q0 -66 -44 -109t-130 -43q-122 0 -166 97l34 18q41 -77 131 -77q69 0 101.5 32.5t32.5 81.5q0 78 -81 95l-112 22q-96 20 -96 127q0 131 157 131q105 0 152 -77l-35 -18q-38 56 -116 56q-64 0 -90.5 -23t-26.5 -69q0 -40 15.5 -60
t54.5 -27l107 -21q111 -21 111 -136h1z" />
    <glyph glyph-name="aring.alt" unicode="&#xe016;" horiz-adv-x="614" 
d="M427 715q0 -50 -36 -86t-86 -36q-51 0 -86.5 36t-35.5 86t35.5 86t86.5 36q50 0 86 -36t36 -86zM596 0h-94q-66 0 -94 50q-71 -65 -162 -65q-107 0 -162.5 48.5t-55.5 137.5q0 168 214 168q59 0 120 -11v48q0 52 -75 52q-71 0 -106 -42l-114 67q75 100 231 100
q119 0 182 -47t63 -130v-218q0 -26 22 -26h31v-132zM354 714q0 20 -15 34.5t-34 14.5q-20 0 -33.5 -14.5t-13.5 -34.5t13.5 -33.5t33.5 -13.5t34.5 14t14.5 33zM362 132v105q-33 5 -67 5q-87 0 -87 -65q0 -69 68 -69q44 0 86 24z" />
    <glyph glyph-name="arrow" unicode="&#xe017;" horiz-adv-x="790" 
d="M736 360q0 -141 -100 -241t-240 -100q-141 0 -241.5 100t-100.5 241t100.5 241t240.5 100q141 0 241 -100t100 -241zM668 360l-233 232l-81 -80l91 -91h-305v-120h307l-92 -93l79 -80z" />
    <glyph glyph-name="atilde.alt" unicode="&#xe018;" horiz-adv-x="614" 
d="M510 733l-82 -109q-18 -24 -49 -24q-22 0 -39 11l-83 57q-5 5 -11 5t-9 -4l-59 -71l-73 49l90 118q19 25 48 25q23 0 40 -12l80 -55q5 -4 11 -4q8 0 13 7l48 58zM596 0h-94q-66 0 -94 50q-71 -65 -162 -65q-107 0 -162.5 48.5t-55.5 137.5q0 168 214 168q59 0 120 -11v48
q0 52 -75 52q-71 0 -106 -42l-114 67q75 100 231 100q119 0 182 -47t63 -130v-218q0 -26 22 -26h31v-132zM362 132v105q-33 5 -67 5q-87 0 -87 -65q0 -69 68 -69q44 0 86 24z" />
    <glyph glyph-name="caronalt" unicode="&#xe019;" horiz-adv-x="200" 
d="M211 721l-77 -234q-3 -9 -5.5 -11.5t-10.5 -2.5h-79q-8 0 -10.5 2.5t-1.5 11.5l39 234h145z" />
    <glyph glyph-name="commaaccentalt" unicode="&#xe01a;" horiz-adv-x="311" 
d="M135 894l68 -45q-25 -33 -25 -88h57q10 0 10 -9v-125q0 -15 -11 -15h-156q-11 0 -11 15v95q0 106 68 172z" />
    <glyph glyph-name="dotlessi.alt" unicode="&#xe01b;" horiz-adv-x="375" 
d="M355 -9h-97q-73 0 -112 43t-39 122v223q0 13 14 27h-100v131h269v-383q0 -27 20 -27h45v-136z" />
    <glyph glyph-name="f_i.alt" unicode="&#xe022;" horiz-adv-x="766" 
d="M681 627q0 -7 -1.5 -8t-6.5 -1h-170q-5 0 -6.5 1t-1.5 8v142q0 7 1 8.5t7 1.5h170q8 0 8 -10v-142zM746 -9h-95q-73 0 -112 43t-39 122v223q0 10 14 27h-242v-406h-179v359q0 25 19 47h-93v131h74v32q0 64 17.5 107t50.5 65t70 30.5t86 8.5q20 0 35.5 -1t32.5 -4.5
t25.5 -5.5t30 -8t29.5 -8l-35 -121q-54 16 -87 16q-37 0 -56.5 -18t-19.5 -61v-32h409v-383q0 -27 20 -27h45v-136z" />
    <glyph glyph-name="i.alt" unicode="&#xe025;" horiz-adv-x="375" 
d="M288 627q0 -7 -1 -8t-7 -1h-170q-6 0 -7 1t-1 8v142q0 7 1 8.5t7 1.5h170q8 0 8 -10v-142zM355 -9h-97q-73 0 -112 43t-39 122v223q0 13 14 27h-100v131h269v-383q0 -27 20 -27h45v-136z" />
    <glyph glyph-name="iacute.alt" unicode="&#xe026;" horiz-adv-x="375" 
d="M325 737l-181 -139q-5 -5 -10 -5q-3 0 -7 4q-1 1 -17.5 15.5t-29.5 27.5t-13 16q0 2 4 6l4 4l155 166zM355 -9h-97q-73 0 -112 43t-39 122v223q0 13 14 27h-100v131h269v-383q0 -27 20 -27h45v-136z" />
    <glyph glyph-name="ibreve.alt" unicode="&#xe027;" horiz-adv-x="375" 
d="M372 749q-35 -67 -73 -99t-101 -32t-101 32t-73 99l72 46q32 -48 52 -62t49 -14t50 14.5t53 61.5zM355 -9h-97q-73 0 -112 43t-39 122v223q0 13 14 27h-100v131h269v-383q0 -27 20 -27h45v-136z" />
    <glyph glyph-name="icircumflex.alt" unicode="&#xe028;" horiz-adv-x="375" 
d="M372 655l-62 -62l-110 92l-109 -92l-62 62l162 166q5 5 11 5q5 0 10 -5zM355 -9h-97q-73 0 -112 43t-39 122v223q0 13 14 27h-100v131h269v-383q0 -27 20 -27h45v-136z" />
    <glyph glyph-name="idieresis.alt" unicode="&#xe029;" horiz-adv-x="375" 
d="M394 629q0 -8 -7 -8h-132q-5 0 -6.5 1.5t-1.5 6.5v138q0 9 8 9h132q7 0 7 -9v-138zM139 629q0 -8 -7 -8h-132q-5 0 -6.5 1.5t-1.5 6.5v138q0 9 8 9h132q7 0 7 -9v-138zM355 -9h-97q-73 0 -112 43t-39 122v223q0 13 14 27h-100v131h269v-383q0 -27 20 -27h45v-136z" />
    <glyph glyph-name="igrave.alt" unicode="&#xe02a;" horiz-adv-x="375" 
d="M316 657q0 -2 -8.5 -11.5t-18.5 -19t-20.5 -19t-11.5 -10.5q-4 -4 -7 -4q-2 0 -10 5l-182 139l96 95l155 -166q7 -7 7 -9zM355 -9h-97q-73 0 -112 43t-39 122v223q0 13 14 27h-100v131h269v-383q0 -27 20 -27h45v-136z" />
    <glyph glyph-name="ij.alt" unicode="&#xe02b;" horiz-adv-x="700" 
d="M288 627q0 -7 -1 -8t-7 -1h-170q-6 0 -7 1t-1 8v142q0 7 1 8.5t7 1.5h170q8 0 8 -10v-142zM355 -9h-97q-73 0 -112 43t-39 122v223q0 13 14 27h-100v131h269v-383q0 -27 20 -27h45v-136zM650 627q0 -7 -1 -8t-7 -1h-170q-6 0 -7 1t-1 8v142q0 7 1 8.5t7 1.5h170
q8 0 8 -10v-142zM652 -75q0 -75 -43 -120.5t-130 -45.5h-109v139h77q14 0 18 6t4 21v452q0 11 14 29h-100v131h269v-612z" />
    <glyph glyph-name="imacron.alt" unicode="&#xe02c;" horiz-adv-x="375" 
d="M360 611h-332v130h332v-130zM355 -9h-97q-73 0 -112 43t-39 122v223q0 13 14 27h-100v131h269v-383q0 -27 20 -27h45v-136z" />
    <glyph glyph-name="iogonek.alt" unicode="&#xe02d;" horiz-adv-x="375" 
d="M359 -192q-60 -16 -112 -16q-55 0 -87.5 23t-32.5 69q0 60 79 114q-99 27 -99 158v223q0 13 14 27h-100v131h269v-383q0 -27 20 -27h45v-136h-51q-37 -30 -53 -52t-16 -45q0 -28 31 -28q11 0 84 13zM288 627q0 -7 -1 -8t-7 -1h-170q-6 0 -7 1t-1 8v142q0 7 1 8.5t7 1.5
h170q8 0 8 -10v-142z" />
    <glyph glyph-name="itilde.alt" unicode="&#xe02e;" horiz-adv-x="375" 
d="M399 721l-82 -109q-18 -24 -49 -24q-24 0 -39 11l-83 57q-10 5 -11 5q-5 0 -9 -4l-59 -71l-73 49l90 118q19 25 48 25q22 0 40 -12l80 -55q5 -4 11 -4t13 7l48 58zM355 -9h-97q-73 0 -112 43t-39 122v223q0 13 14 27h-100v131h269v-383q0 -27 20 -27h45v-136z" />
    <glyph glyph-name="j.alt" unicode="&#xe02f;" horiz-adv-x="341" 
d="M288 627q0 -7 -1 -8t-7 -1h-170q-6 0 -7 1t-1 8v142q0 7 1 8.5t7 1.5h170q8 0 8 -10v-142zM290 -75q0 -75 -43 -120.5t-130 -45.5h-109v139h77q14 0 18 6t4 21v452q0 11 14 29h-100v131h269v-612z" />
    <glyph glyph-name="j.dotless" unicode="&#xe030;" horiz-adv-x="283" 
d="M232 -75q0 -75 -42 -120.5t-129 -45.5h-109v139h77q14 0 18 6t4 21v612h181v-612z" />
    <glyph glyph-name="jcircumflex.alt" unicode="&#xe031;" horiz-adv-x="341" 
d="M290 -75q0 -75 -43 -120.5t-130 -45.5h-109v139h77q14 0 18 6t4 21v452q0 11 14 29h-100v131h269v-612zM371 655l-62 -62l-110 92l-109 -92l-62 62l162 166q5 5 11 5q5 0 10 -5z" />
    <glyph glyph-name="l.alt" unicode="&#xe032;" horiz-adv-x="350" 
d="M330 -9h-97q-74 0 -112.5 40.5t-38.5 118.5v499h-90v130h270v-629q0 -29 23 -29h45v-130z" />
    <glyph glyph-name="lacute.alt" unicode="&#xe033;" horiz-adv-x="350" 
d="M351 934l-181 -139q-10 -7 -19 1l-51 48q-9 9 1 19l155 166zM330 -9h-97q-74 0 -112.5 40.5t-38.5 118.5v499h-90v130h270v-629q0 -29 23 -29h45v-130z" />
    <glyph glyph-name="lcaron.alt" unicode="&#xe034;" horiz-adv-x="435" 
d="M510 779l-77 -234q-3 -9 -5.5 -11.5t-10.5 -2.5h-79q-8 0 -10.5 2.5t-1.5 11.5l39 234h145zM330 -9h-97q-74 0 -112.5 40.5t-38.5 118.5v499h-90v130h270v-629q0 -29 23 -29h45v-130z" />
    <glyph glyph-name="lcommaaccent.alt" unicode="&#xe035;" horiz-adv-x="350" 
d="M330 -9h-97q-74 0 -112.5 40.5t-38.5 118.5v499h-90v130h270v-629q0 -29 23 -29h45v-130zM211 -323l-68 45q25 33 25 88h-57q-10 0 -10 9v125q0 15 11 15h156q11 0 11 -15v-95q0 -106 -68 -172z" />
    <glyph glyph-name="ldot.alt" unicode="&#xe036;" horiz-adv-x="536" 
d="M486 348q0 -11 -10 -11h-148q-10 0 -10 11v145q0 12 10 12h148q10 0 10 -12v-145zM330 -9h-97q-74 0 -112.5 40.5t-38.5 118.5v499h-90v130h270v-629q0 -29 23 -29h45v-130z" />
    <glyph glyph-name="lslash.alt" unicode="&#xe037;" horiz-adv-x="350" 
d="M344 473l-82 -52v-271q0 -29 23 -29h45v-130h-97q-74 0 -112.5 40.5t-38.5 118.5v155l-80 -52v127l80 52v217h-90v130h270v-231l82 52v-127z" />
    <glyph glyph-name="uni2014.alt" unicode="&#xe038;" horiz-adv-x="607" 
d="M571 248h-535v144h535v-144z" />
    <glyph glyph-name="h.superior" unicode="&#xf637;" horiz-adv-x="370" 
d="M345 305h-118v202q0 50 -31 50q-26 0 -52 -19l1 -233h-117v470h116v-157q35 24 73 24q65 0 96.5 -36.5t31.5 -98.5v-202z" />
    <glyph glyph-name="zero.fitted" unicode="&#xf639;" 
d="M601 369q0 -64 -4.5 -111.5t-20.5 -102t-44 -89t-79.5 -58t-122.5 -23.5q-51 0 -92.5 12t-69.5 31.5t-48.5 50t-32 62t-18.5 73t-9 76.5t-2 79q0 61 5.5 108.5t22.5 98.5t46 84.5t79.5 55t118.5 21.5t118.5 -21.5t79 -55t45.5 -84.5t22.5 -98.5t5.5 -108.5zM424 369
q0 134 -20 184t-74 50q-55 0 -75 -50t-20 -184q0 -141 20.5 -196t74.5 -55t74 54.5t20 196.5z" />
    <glyph glyph-name="two.fitted" unicode="&#xf63a;" 
d="M593 523q0 -77 -40 -127t-143 -123q-76 -54 -104 -79t-44 -58h174v65h153v-201h-533q0 63 15.5 117t35.5 89.5t57 72.5t62.5 56.5t69.5 49.5q74 50 96.5 75t22.5 63q0 81 -82 81q-117 0 -123 -119h-149q2 116 70.5 184t201.5 68q128 0 194 -54t66 -160z" />
    <glyph glyph-name="three.fitted" unicode="&#xf63b;" 
d="M609 220q0 -112 -81 -173.5t-201 -61.5q-205 0 -289 169l130 59q33 -56 67.5 -76t90.5 -20q107 0 107 102q0 41 -23 67t-66 26h-96l-39 126h131q40 0 59.5 25t19.5 64q0 79 -90 79q-55 0 -91.5 -19.5t-63.5 -69.5l-129 57q32 63 80.5 100.5t98 50t111.5 12.5
q134 0 197 -56.5t63 -147.5q0 -50 -25.5 -91.5t-65.5 -60.5q49 -21 77 -64t28 -97z" />
    <glyph glyph-name="four.fitted" unicode="&#xf63c;" 
d="M631 167h-76v-167h-175v167h-343v128l364 426h154v-413h76v-141zM390 491l-160 -183h150v148q0 15 10 35z" />
    <glyph glyph-name="five.fitted" unicode="&#xf63d;" 
d="M605 242q0 -117 -70.5 -187t-209.5 -70q-207 0 -291 169l130 59q33 -55 68 -75.5t91 -20.5q105 0 105 120q0 56 -28 83.5t-93 27.5q-100 0 -170 -27l-57 53l42 347h478l-39 -140h-302l-14 -110q43 8 86 8q130 0 202 -57.5t72 -179.5z" />
    <glyph glyph-name="six.fitted" unicode="&#xf63e;" 
d="M601 255q0 -124 -65.5 -197t-208.5 -73q-144 0 -209.5 73t-65.5 197v114q0 60 4 104t21 97t46.5 87t84.5 57t132 23q170 0 256 -114l-105 -91q-35 37 -68 53.5t-83 16.5q-109 0 -115 -134q50 26 108 26q133 0 200.5 -62t67.5 -177zM425 255q0 59 -22.5 86t-75.5 27
q-102 0 -102 -113q0 -75 25 -106.5t77 -31.5q53 0 75.5 31.5t22.5 106.5z" />
    <glyph glyph-name="seven.fitted" unicode="&#xf63f;" 
d="M611 599l-339 -599h-202l322 558q9 14 27 25h-204v-76h-153v214h549v-122z" />
    <glyph glyph-name="eight.fitted" unicode="&#xf640;" 
d="M610 224q0 -239 -277 -239t-277 239q0 97 91 156q-33 19 -56.5 57t-23.5 85q0 215 267 215q265 0 265 -215q0 -47 -23.5 -85t-56.5 -57q91 -59 91 -156zM427 522q0 84 -94 84t-94 -84q0 -80 58 -80h71q59 0 59 80zM434 224q0 41 -17.5 66.5t-51.5 25.5h-64q-34 0 -52 -26
t-18 -66q0 -59 23.5 -83t78.5 -24t78 24t23 83z" />
    <glyph glyph-name="nine.fitted" unicode="&#xf641;" 
d="M602 354q0 -42 -2 -74t-9 -72t-18.5 -70t-33.5 -60t-51.5 -49.5t-74 -31.5t-99.5 -12q-167 0 -254 116l101 87q35 -37 69 -54t84 -17q110 0 116 136q-46 -24 -108 -24q-133 0 -201 61.5t-68 176.5q0 124 65.5 197t208.5 73q144 0 209.5 -73t65.5 -197v-113zM430 467
q0 75 -25.5 106.5t-77.5 31.5q-53 0 -75 -31.5t-22 -106.5q0 -60 22 -86t75 -26q103 0 103 112z" />
    <glyph glyph-name="zero.taboldstyle" unicode="&#xf643;" 
d="M602 301q0 -316 -272 -316t-272 316t272 316t272 -316zM425 301q0 100 -20.5 141t-74.5 41t-74.5 -41t-20.5 -141t20.5 -141t74.5 -41t74.5 41t20.5 141z" />
    <glyph glyph-name="one.taboldstyle" unicode="&#xf644;" 
d="M568 0h-478v140h151v286q0 7 8 23l-159 -31v137l327 63v-478h151v-140z" />
    <glyph glyph-name="two.taboldstyle" unicode="&#xf645;" 
d="M589 0h-534q0 144 67.5 227.5t182.5 125.5q39 14 61.5 25t31 22t9.5 16.5t1 18.5q0 51 -75 51q-59 0 -89.5 -18t-33.5 -73h-153q2 109 75 165.5t201 56.5q72 0 124 -16t79 -43t39 -57t12 -64q0 -79 -33 -120t-144 -83q-73 -28 -100 -48t-42 -50h168v49h153v-185z" />
    <glyph glyph-name="three.taboldstyle" unicode="&#xf646;" 
d="M609 100q0 -112 -81 -173.5t-201 -61.5q-205 0 -289 169l130 59q33 -56 67.5 -76t90.5 -20q107 0 107 102q0 41 -23 67t-66 26h-96l-39 126h131q40 0 59.5 25t19.5 64q0 79 -90 79q-55 0 -91.5 -19.5t-63.5 -69.5l-129 57q32 63 80.5 100.5t98 50t111.5 12.5
q134 0 197 -56.5t63 -147.5q0 -50 -25.5 -91.5t-65.5 -60.5q49 -21 77 -64t28 -97z" />
    <glyph glyph-name="four.taboldstyle" unicode="&#xf647;" 
d="M631 47h-76v-166h-175v166h-343v128l364 427h154v-414h76v-141zM390 372l-160 -184h150v149q0 15 10 35z" />
    <glyph glyph-name="five.taboldstyle" unicode="&#xf648;" 
d="M605 123q0 -117 -70.5 -187t-209.5 -70q-207 0 -291 169l130 59q33 -55 68 -75.5t91 -20.5q105 0 105 120q0 56 -28 83.5t-93 27.5q-100 0 -170 -27l-57 53l42 347h478l-39 -140h-302l-14 -110q43 8 86 8q130 0 202 -57.5t72 -179.5z" />
    <glyph glyph-name="six.taboldstyle" unicode="&#xf649;" 
d="M601 255q0 -124 -65.5 -197t-208.5 -73q-144 0 -209.5 73t-65.5 197v114q0 60 4 104t21 97t46.5 87t84.5 57t132 23q170 0 256 -114l-105 -91q-35 37 -68 53.5t-83 16.5q-109 0 -115 -134q50 26 108 26q133 0 200.5 -62t67.5 -177zM425 255q0 59 -22.5 86t-75.5 27
q-102 0 -102 -113q0 -75 25 -106.5t77 -31.5q53 0 75.5 31.5t22.5 106.5z" />
    <glyph glyph-name="seven.taboldstyle" unicode="&#xf64a;" 
d="M611 480l-339 -599h-202l322 558q9 14 27 25h-204v-76h-153v214h549v-122z" />
    <glyph glyph-name="eight.taboldstyle" unicode="&#xf64b;" 
d="M610 224q0 -239 -277 -239t-277 239q0 97 91 156q-33 19 -56.5 57t-23.5 85q0 215 267 215q265 0 265 -215q0 -47 -23.5 -85t-56.5 -57q91 -59 91 -156zM427 522q0 84 -94 84t-94 -84q0 -80 58 -80h71q59 0 59 80zM434 224q0 41 -17.5 66.5t-51.5 25.5h-64q-34 0 -52 -26
t-18 -66q0 -59 23.5 -83t78.5 -24t78 24t23 83z" />
    <glyph glyph-name="nine.taboldstyle" unicode="&#xf64c;" 
d="M602 234q0 -42 -2 -74t-9 -72t-18.5 -70t-33.5 -60t-51.5 -49.5t-74 -31.5t-99.5 -12q-167 0 -254 116l101 87q35 -37 69 -54t84 -17q110 0 116 136q-46 -24 -108 -24q-133 0 -201 61.5t-68 176.5q0 124 65.5 197t208.5 73q144 0 209.5 -73t65.5 -197v-113zM430 347
q0 75 -25.5 106.5t-77.5 31.5q-53 0 -75 -31.5t-22 -106.5q0 -60 22 -86t75 -26q103 0 103 112z" />
    <glyph glyph-name="zero.denominator" unicode="&#xf655;" horiz-adv-x="391" 
d="M355 214q0 -37 -2.5 -64.5t-12 -59t-26 -52t-46.5 -34t-72 -13.5t-72 13.5t-47 34t-26.5 52t-12 59t-2.5 64.5q0 44 6 78t22 67t49.5 51t82.5 18t82 -18t49 -51t22 -67t6 -78zM244 214q0 74 -10 101t-38 27t-38.5 -27.5t-10.5 -100.5q0 -77 10.5 -107t38.5 -30
q27 0 37.5 30t10.5 107z" />
    <glyph glyph-name="one.denominator" unicode="&#xf656;" horiz-adv-x="331" 
d="M307 0h-281v90h86v230l-86 -16v87l195 38v-339h86v-90z" />
    <glyph glyph-name="two.denominator" unicode="&#xf657;" horiz-adv-x="391" 
d="M349 302q0 -46 -23.5 -75t-82.5 -71q-29 -21 -39.5 -29t-21.5 -18.5t-17 -21.5h85v37h97v-124h-313q0 46 11.5 82t35 64t41.5 43.5t50 37.5q39 26 52.5 41t13.5 34q0 40 -42 40q-61 0 -64 -67h-95q2 70 41.5 111.5t117.5 41.5q153 0 153 -126z" />
    <glyph glyph-name="three.denominator" unicode="&#xf658;" horiz-adv-x="387" 
d="M356 129q0 -66 -47 -102t-118 -36q-117 0 -170 105l82 36q19 -32 38.5 -44t48.5 -12q56 0 56 58q0 18 -12 31.5t-33 13.5h-61l-23 76h81q40 0 40 49q0 39 -46 39q-30 0 -50 -11t-36 -41l-82 36q52 101 172 101q78 0 115 -33.5t37 -87.5q0 -57 -48 -85q56 -28 56 -93z" />
    <glyph glyph-name="four.denominator" unicode="&#xf659;" horiz-adv-x="384" 
d="M369 95h-44v-95h-109v95h-195v80l210 244h94v-235h44v-89zM216 184v88l-75 -88h75z" />
    <glyph glyph-name="five.denominator" unicode="&#xf65a;" horiz-adv-x="387" 
d="M354 142q0 -69 -41.5 -110t-122.5 -41q-118 0 -171 105l81 36q20 -32 39.5 -44t49.5 -12q54 0 54 63q0 58 -63 58q-55 0 -98 -16l-36 34l24 204h283l-25 -90h-171l-7 -51q21 3 43 3q161 0 161 -139z" />
    <glyph glyph-name="six.denominator" unicode="&#xf65b;" horiz-adv-x="390" 
d="M354 150q0 -73 -38.5 -116t-122.5 -43q-161 0 -161 159v64q0 35 2.5 60.5t12 56.5t27 50.5t49.5 33t77 13.5q98 0 153 -71l-67 -57q-39 41 -86 41q-54 0 -60 -63q29 12 56 12q77 0 117.5 -36.5t40.5 -103.5zM243 150q0 59 -50 59q-53 0 -53 -59q0 -40 13 -57t40 -17
q26 0 38 17t12 57z" />
    <glyph glyph-name="seven.denominator" unicode="&#xf65c;" horiz-adv-x="390" 
d="M360 344l-196 -344h-124l190 330h-94v-42h-97v131h321v-75z" />
    <glyph glyph-name="eight.denominator" unicode="&#xf65d;" horiz-adv-x="389" 
d="M359 132q0 -141 -163 -141q-162 0 -162 141q0 55 48 88q-41 31 -41 88q0 120 156 120q155 0 155 -120q0 -57 -41 -88q48 -32 48 -88zM249 132q0 47 -40 47h-27q-38 0 -38 -47q0 -30 12.5 -43t39.5 -13q28 0 40.5 13t12.5 43zM245 301q0 42 -49 42q-48 0 -48 -42
q0 -41 32 -41h31q34 0 34 41z" />
    <glyph glyph-name="nine.denominator" unicode="&#xf65e;" horiz-adv-x="390" 
d="M354 206q0 -35 -2.5 -60.5t-12 -57t-26.5 -51t-49.5 -33t-77.5 -13.5q-96 0 -151 72l64 55q40 -42 87 -42q54 0 60 64q-22 -10 -56 -10q-78 0 -118 36t-40 104q0 73 38.5 115.5t122.5 42.5q161 0 161 -158v-64zM246 270q0 39 -13 56t-40 17t-38.5 -17t-11.5 -56
q0 -31 11.5 -45t38.5 -14q53 0 53 59z" />
    <glyph glyph-name="zero.numerator" unicode="&#xf661;" horiz-adv-x="391" 
d="M355 519q0 -37 -2.5 -64.5t-12 -59t-26 -52t-46.5 -34t-72 -13.5t-72 13.5t-47 34t-26.5 52t-12 59t-2.5 64.5q0 44 6 78t22 67t49.5 51t82.5 18t82 -18t49 -51t22 -67t6 -78zM244 519q0 74 -10 101t-38 27t-38.5 -27.5t-10.5 -100.5q0 -77 10.5 -107t38.5 -30
q27 0 37.5 30t10.5 107z" />
    <glyph glyph-name="one.numerator" unicode="&#xf662;" horiz-adv-x="331" 
d="M307 305h-281v90h86v230l-86 -16v87l195 38v-339h86v-90z" />
    <glyph glyph-name="two.numerator" unicode="&#xf663;" horiz-adv-x="391" 
d="M349 607q0 -46 -23.5 -75t-82.5 -71q-29 -21 -39.5 -29t-21.5 -18.5t-17 -21.5h85v37h97v-124h-313q0 46 11.5 82t35 64t41.5 43.5t50 37.5q39 26 52.5 41t13.5 34q0 40 -42 40q-61 0 -64 -67h-95q2 70 41.5 111.5t117.5 41.5q153 0 153 -126z" />
    <glyph glyph-name="three.numerator" unicode="&#xf664;" horiz-adv-x="387" 
d="M356 434q0 -66 -47 -102t-118 -36q-117 0 -170 105l82 36q19 -32 38.5 -44t48.5 -12q56 0 56 58q0 18 -12 31.5t-33 13.5h-61l-23 76h81q40 0 40 49q0 39 -46 39q-30 0 -50 -11t-36 -41l-82 36q52 101 172 101q78 0 115 -33.5t37 -87.5q0 -57 -48 -85q56 -28 56 -93z" />
    <glyph glyph-name="four.numerator" unicode="&#xf665;" horiz-adv-x="384" 
d="M369 400h-44v-95h-109v95h-195v80l210 244h94v-235h44v-89zM216 489v88l-75 -88h75z" />
    <glyph glyph-name="five.numerator" unicode="&#xf666;" horiz-adv-x="387" 
d="M354 447q0 -69 -41.5 -110t-122.5 -41q-118 0 -171 105l81 36q20 -32 39.5 -44t49.5 -12q54 0 54 63q0 58 -63 58q-55 0 -98 -16l-36 34l24 204h283l-25 -90h-171l-7 -51q21 3 43 3q161 0 161 -139z" />
    <glyph glyph-name="six.numerator" unicode="&#xf667;" horiz-adv-x="390" 
d="M354 455q0 -73 -38.5 -116t-122.5 -43q-161 0 -161 159v64q0 35 2.5 60.5t12 56.5t27 50.5t49.5 33t77 13.5q98 0 153 -71l-67 -57q-39 41 -86 41q-54 0 -60 -63q29 12 56 12q77 0 117.5 -36.5t40.5 -103.5zM243 455q0 59 -50 59q-53 0 -53 -59q0 -40 13 -57t40 -17
q26 0 38 17t12 57z" />
    <glyph glyph-name="seven.numerator" unicode="&#xf668;" horiz-adv-x="390" 
d="M360 649l-196 -344h-124l190 330h-94v-42h-97v131h321v-75z" />
    <glyph glyph-name="eight.numerator" unicode="&#xf669;" horiz-adv-x="389" 
d="M359 437q0 -141 -163 -141q-162 0 -162 141q0 55 48 88q-41 31 -41 88q0 120 156 120q155 0 155 -120q0 -57 -41 -88q48 -32 48 -88zM249 437q0 47 -40 47h-27q-38 0 -38 -47q0 -30 12.5 -43t39.5 -13q28 0 40.5 13t12.5 43zM245 606q0 42 -49 42q-48 0 -48 -42
q0 -41 32 -41h31q34 0 34 41z" />
    <glyph glyph-name="nine.numerator" unicode="&#xf66a;" horiz-adv-x="390" 
d="M354 511q0 -35 -2.5 -60.5t-12 -57t-26.5 -51t-49.5 -33t-77.5 -13.5q-96 0 -151 72l64 55q40 -42 87 -42q54 0 60 64q-23 -10 -56 -10q-78 0 -118 36t-40 104q0 73 38.5 115.5t122.5 42.5q161 0 161 -158v-64zM246 575q0 39 -13 56t-40 17t-38.5 -17t-11.5 -56
q0 -31 11.5 -45t38.5 -14q53 0 53 59z" />
    <glyph glyph-name="commaaccent" unicode="&#xf6c3;" horiz-adv-x="311" 
d="M177 -323l-68 45q25 33 25 88h-57q-10 0 -10 9v125q0 15 11 15h156q11 0 11 -15v-95q0 -106 -68 -172z" />
    <glyph glyph-name="one.fitted" unicode="&#xf6dc;" horiz-adv-x="562" 
d="M521 0h-478v140h151v406q0 7 8 23l-159 -31v137l327 63v-598h151v-140z" />
    <glyph glyph-name="a.superior" unicode="&#xf6e9;" horiz-adv-x="356" 
d="M329 305h-86l-8 21q-37 -30 -87 -30q-65 0 -99.5 30t-34.5 85q0 104 131 104q33 0 66 -5v23q0 25 -39 25t-60 -25l-77 44q48 64 144 64q72 0 111 -29t39 -79v-228zM211 391v55q-18 2 -34 2q-46 0 -46 -34q0 -35 35 -35q21 0 45 12z" />
    <glyph glyph-name="b.superior" unicode="&#xf6ea;" horiz-adv-x="373" 
d="M359 471q0 -92 -44 -133.5t-130 -41.5q-83 0 -157 35v444h116v-130q0 -7 -3 -15q25 11 53 11q165 0 165 -170zM241 471q0 49 -13 69t-41 20q-15 0 -43 -10v-167q20 -5 42 -5q31 0 43 21.5t12 71.5z" />
    <glyph glyph-name="d.superior" unicode="&#xf6eb;" horiz-adv-x="376" 
d="M346 305h-88l-7 19q-35 -28 -78 -28q-72 0 -115.5 42t-43.5 133q0 84 45 127t124 43q27 0 49 -10q-2 6 -2 14v130h116v-470zM230 391v160q-19 9 -38 9q-32 0 -46 -20.5t-14 -68.5q0 -93 55 -93q21 0 43 13z" />
    <glyph glyph-name="e.superior" unicode="&#xf6ec;" horiz-adv-x="364" 
d="M350 438h-220q3 -57 59 -57q41 0 64 35l92 -30q-51 -90 -156 -90q-175 0 -175 173q0 84 44.5 128t128.5 44q163 0 163 -180v-23zM187 558q-46 0 -55 -47h104q-5 47 -49 47z" />
    <glyph glyph-name="i.superior" unicode="&#xf6ed;" horiz-adv-x="170" 
d="M143 305h-116v327h116v-327zM135 671h-100q-10 0 -10 11v82q0 11 10 11h100q10 0 10 -11v-82q0 -11 -10 -11z" />
    <glyph glyph-name="l.superior" unicode="&#xf6ee;" horiz-adv-x="191" 
d="M183 300h-62q-46 0 -70 25.5t-24 73.5v376h116v-376q0 -12 8 -12h32v-87z" />
    <glyph glyph-name="m.superior" unicode="&#xf6ef;" horiz-adv-x="550" 
d="M523 305h-116v205q0 47 -26 47q-25 0 -48 -20q2 -18 2 -27v-205h-116v205q0 26 -5.5 36.5t-19.5 10.5q-20 0 -48 -20v-232h-116v327h97l9 -24q38 34 85 34q55 0 89 -41q44 41 98 41q115 0 115 -132v-205z" />
    <glyph glyph-name="o.superior" unicode="&#xf6f0;" horiz-adv-x="374" 
d="M360 470q0 -174 -173 -174t-173 173t173 173t173 -172zM241 470q0 49 -12.5 66.5t-41.5 17.5t-42 -17.5t-13 -67.5q0 -49 13 -67t42 -18q28 0 41 18.5t13 67.5z" />
    <glyph glyph-name="r.superior" unicode="&#xf6f1;" horiz-adv-x="259" 
d="M248 638v-92q-27 3 -44 3q-37 0 -60 -13v-231h-116v327h97l8 -22q30 32 77 32q22 0 38 -4z" />
    <glyph glyph-name="s.superior" unicode="&#xf6f2;" horiz-adv-x="329" 
d="M317 412q0 -56 -41.5 -86t-111.5 -30q-112 0 -155 84l85 31q22 -35 70 -35q41 0 41 22q0 10 -6.5 16t-29.5 10l-43 7q-108 16 -108 109q0 53 41 77.5t107 24.5q96 0 146 -69l-78 -42q-28 30 -68 30q-37 0 -37 -19q0 -15 29 -20l40 -7q60 -10 89.5 -33.5t29.5 -69.5z" />
    <glyph glyph-name="t.superior" unicode="&#xf6f3;" horiz-adv-x="296" 
d="M239 405l62 -63q-49 -46 -119 -46q-55 0 -90 26.5t-35 81.5v123q0 10 5 19h-54v86h49v101l117 31v-132h115l-28 -86h-87v-142q0 -18 20 -18q23 0 45 19z" />
    <glyph glyph-name="zero.oldstyle" unicode="&#xf730;" 
d="M602 301q0 -316 -272 -316t-272 316t272 316t272 -316zM425 301q0 100 -20.5 141t-74.5 41t-74.5 -41t-20.5 -141t20.5 -141t74.5 -41t74.5 41t20.5 141z" />
    <glyph glyph-name="one.oldstyle" unicode="&#xf731;" horiz-adv-x="578" 
d="M528 0h-478v140h151v286q0 7 8 23l-159 -31v137l327 63v-478h151v-140z" />
    <glyph glyph-name="two.oldstyle" unicode="&#xf732;" 
d="M589 0h-534q0 144 67.5 227.5t182.5 125.5q39 14 61.5 25t31 22t9.5 16.5t1 18.5q0 51 -75 51q-59 0 -89.5 -18t-33.5 -73h-153q2 109 75 165.5t201 56.5q72 0 124 -16t79 -43t39 -57t12 -64q0 -79 -33 -120t-144 -83q-73 -28 -100 -48t-42 -50h168v49h153v-185z" />
    <glyph glyph-name="three.oldstyle" unicode="&#xf733;" 
d="M609 100q0 -112 -81 -173.5t-201 -61.5q-205 0 -289 169l130 59q33 -56 67.5 -76t90.5 -20q107 0 107 102q0 41 -23 67t-66 26h-96l-39 126h131q40 0 59.5 25t19.5 64q0 79 -90 79q-55 0 -91.5 -19.5t-63.5 -69.5l-129 57q32 63 80.5 100.5t98 50t111.5 12.5
q134 0 197 -56.5t63 -147.5q0 -50 -25.5 -91.5t-65.5 -60.5q49 -21 77 -64t28 -97z" />
    <glyph glyph-name="four.oldstyle" unicode="&#xf734;" 
d="M631 47h-76v-166h-175v166h-343v128l364 427h154v-414h76v-141zM390 372l-160 -184h150v149q0 15 10 35z" />
    <glyph glyph-name="five.oldstyle" unicode="&#xf735;" 
d="M605 123q0 -117 -70.5 -187t-209.5 -70q-207 0 -291 169l130 59q33 -55 68 -75.5t91 -20.5q105 0 105 120q0 56 -28 83.5t-93 27.5q-100 0 -170 -27l-57 53l42 347h478l-39 -140h-302l-14 -110q43 8 86 8q130 0 202 -57.5t72 -179.5z" />
    <glyph glyph-name="six.oldstyle" unicode="&#xf736;" 
d="M601 255q0 -124 -65.5 -197t-208.5 -73q-144 0 -209.5 73t-65.5 197v114q0 60 4 104t21 97t46.5 87t84.5 57t132 23q170 0 256 -114l-105 -91q-35 37 -68 53.5t-83 16.5q-109 0 -115 -134q50 26 108 26q133 0 200.5 -62t67.5 -177zM425 255q0 59 -22.5 86t-75.5 27
q-102 0 -102 -113q0 -75 25 -106.5t77 -31.5q53 0 75.5 31.5t22.5 106.5z" />
    <glyph glyph-name="seven.oldstyle" unicode="&#xf737;" 
d="M611 480l-339 -599h-202l322 558q9 14 27 25h-204v-76h-153v214h549v-122z" />
    <glyph glyph-name="eight.oldstyle" unicode="&#xf738;" 
d="M610 224q0 -239 -277 -239t-277 239q0 97 91 156q-33 19 -56.5 57t-23.5 85q0 215 267 215q265 0 265 -215q0 -47 -23.5 -85t-56.5 -57q91 -59 91 -156zM427 522q0 84 -94 84t-94 -84q0 -80 58 -80h71q59 0 59 80zM434 224q0 41 -17.5 66.5t-51.5 25.5h-64q-34 0 -52 -26
t-18 -66q0 -59 23.5 -83t78.5 -24t78 24t23 83z" />
    <glyph glyph-name="nine.oldstyle" unicode="&#xf739;" 
d="M602 234q0 -42 -2 -74t-9 -72t-18.5 -70t-33.5 -60t-51.5 -49.5t-74 -31.5t-99.5 -12q-167 0 -254 116l101 87q35 -37 69 -54t84 -17q110 0 116 136q-46 -24 -108 -24q-133 0 -201 61.5t-68 176.5q0 124 65.5 197t208.5 73q144 0 209.5 -73t65.5 -197v-113zM430 347
q0 75 -25.5 106.5t-77.5 31.5q-53 0 -75 -31.5t-22 -106.5q0 -60 22 -86t75 -26q103 0 103 112z" />
    </font>
</defs>
</svg>
