<?xml version="1.0" standalone="no"?>
<!DOCTYPE svg PUBLIC "-//W3C//DTD SVG 1.1//EN" "http://www.w3.org/Graphics/SVG/1.1/DTD/svg11.dtd" >
<svg xmlns="http://www.w3.org/2000/svg" xmlns:xlink="http://www.w3.org/1999/xlink" version="1.1">
<metadata>
Created by FontForge 20150824 at Sun Jan 24 16:43:46 2016
 By Everything Fonts
Digitised data (c) 2002 Monotype Imaging, Inc. All Rights Reserved.
</metadata>
<defs>
<font id="SceneProMedium" horiz-adv-x="608" >
  <font-face 
    font-family="SceneProMedium"
    font-weight="500"
    font-stretch="normal"
    units-per-em="1000"
    panose-1="2 11 7 4 3 5 4 2 2 4"
    ascent="800"
    descent="-200"
    x-height="537"
    cap-height="721"
    bbox="-78 -273 1293 1004"
    underline-thickness="20"
    underline-position="-153"
    unicode-range="U+0020-FB04"
  />
<missing-glyph horiz-adv-x="500" 
d="M12 0v665h475v-665h-475zM88 618l162 -243l161 243h-323zM60 575v-484l40 61l80 120l41 61zM440 575l-162 -242l162 -243v485zM411 48l-161 242l-162 -242h323z" />
    <glyph glyph-name="f_b" unicode="fb" horiz-adv-x="970" 
d="M928 268q0 -148 -63 -215.5t-193 -67.5q-123 0 -223 45v664h-156q-44 0 -67.5 -24t-23.5 -82v-51h169l-20 -87h-149v-450h-105v410q0 24 12 40h-90v87h79v51q0 191 197 191h259v-226q0 -19 -9 -42q71 41 140 41q122 0 182.5 -69.5t60.5 -214.5zM822 268q0 107 -32 152.5
t-108 45.5q-56 0 -128 -36v-349q49 -17 118 -17q87 0 118.5 49.5t31.5 154.5z" />
    <glyph glyph-name="f_f_b" unicode="ffb" horiz-adv-x="1322" 
d="M1280 268q0 -148 -63 -215.5t-193 -67.5q-123 0 -223 45v664h-156q-44 0 -67.5 -24t-23.5 -82v-51h169l-20 -87h-149v-450h-105v410q0 24 12 40h-259v-450h-105v413q0 9 10 37h-88v87h78v51q0 191 199 191q29 0 126 -19l-19 -83q-63 17 -108 17q-93 0 -93 -106v-51h248
v51q0 191 197 191h259v-226q0 -19 -9 -42q71 41 140 41q122 0 182.5 -69.5t60.5 -214.5zM1174 268q0 107 -32 152.5t-108 45.5q-56 0 -128 -36v-349q49 -17 118 -17q87 0 118.5 49.5t31.5 154.5z" />
    <glyph glyph-name="f_f_h" unicode="ffh" horiz-adv-x="1320" 
d="M1262 0h-105v341q0 126 -93 126q-54 0 -112 -37l-44 -28v-402h-105v694h-157q-44 0 -67.5 -24t-23.5 -82v-51h169l-20 -87h-149v-450h-105v410q0 24 12 40h-260v-450h-105v413q0 9 10 37h-88v87h78v51q0 191 199 191q29 0 126 -19l-19 -83q-63 17 -108 17q-93 0 -93 -106
v-51h249v51q0 191 197 191h260v-249q0 -25 -10 -52l45 31q63 43 134 43q81 0 133 -52.5t52 -158.5v-341z" />
    <glyph glyph-name="f_f_j" unicode="ffj" horiz-adv-x="961" 
d="M462 450h-260v-450h-105v413q0 9 10 37h-88v87h78v51q0 191 199 191q29 0 126 -19l-19 -83q-63 17 -108 17q-93 0 -93 -106v-51h249v51q0 191 191 191q53 0 108 -12l-20 -84q-40 11 -90 11q-85 0 -85 -106v-51h352v-636q0 -65 -38.5 -104t-118.5 -39h-57v85h57
q29 0 40.5 14t11.5 44v549h-247v-450h-105v414q0 9 12 36zM785 769v-101q0 -10 8 -10h107q8 0 8 10v101q0 10 -8 10h-107q-8 0 -8 -10z" />
    <glyph glyph-name="f_f_k" unicode="ffk" horiz-adv-x="1302" 
d="M461 450h-259v-450h-105v413q0 9 10 37h-88v87h78v51q0 191 199 191q29 0 126 -19l-19 -83q-63 17 -108 17q-93 0 -93 -106v-51h248v51q0 191 197 191h260v-418l222 176h160l-257 -201l261 -336h-134l-192 245q-4 5 -12 30l-48 -36v-239h-105v694h-157q-44 0 -67.5 -24
t-23.5 -82v-51h169l-20 -87h-149v-450h-105v410q0 24 12 40z" />
    <glyph glyph-name="f_h" unicode="fh" horiz-adv-x="967" 
d="M909 0h-105v341q0 126 -93 126q-54 0 -112 -37l-44 -28v-402h-105v694h-157q-44 0 -67.5 -24t-23.5 -82v-51h169l-20 -87h-149v-450h-105v410q0 24 12 40h-90v87h79v51q0 191 197 191h260v-249q0 -25 -10 -52l45 31q63 43 134 43q81 0 133 -52.5t52 -158.5v-341z" />
    <glyph glyph-name="f_j" unicode="fj" 
d="M19 450v87h79v51q0 191 191 191q53 0 108 -12l-20 -84q-40 11 -90 11q-85 0 -85 -106v-51h352v-636q0 -65 -38.5 -104t-118.5 -39h-57v85h57q29 0 40.5 14t11.5 44v549h-247v-450h-105v414q0 11 11 36h-89zM432 769v-101q0 -10 8 -10h107q8 0 8 10v101q0 10 -8 10h-107
q-8 0 -8 -10z" />
    <glyph glyph-name="f_k" unicode="fk" horiz-adv-x="950" 
d="M941 0h-134l-192 245q-4 5 -12 30l-48 -36v-239h-105v694h-157q-44 0 -67.5 -24t-23.5 -82v-51h169l-20 -87h-149v-450h-105v410q0 24 12 40h-90v87h79v51q0 191 197 191h260v-418l222 176h160l-257 -201z" />
    <glyph glyph-name="f_f" unicode="ff" horiz-adv-x="748" 
d="M774 760l-19 -83q-63 17 -108 17q-93 0 -93 -106v-51h170l-20 -87h-150v-450h-105v413q0 9 10 37h-257v-450h-105v413q0 9 10 37h-88v87h78v51q0 191 199 191q29 0 126 -19l-19 -83q-63 17 -108 17q-93 0 -93 -106v-51h247v51q0 191 199 191q29 0 126 -19z" />
    <glyph glyph-name="fi" unicode="fi" 
d="M554 0h-104v417q0 13 11 33h-259v-450h-105v414q0 11 11 36h-89v87h79v51q0 191 191 191q53 0 108 -12l-20 -84q-40 11 -90 11q-85 0 -85 -106v-51h352v-537zM432 769v-101q0 -10 8 -10h107q8 0 8 10v101q0 10 -8 10h-107q-8 0 -8 -10z" />
    <glyph glyph-name="fl" unicode="fl" horiz-adv-x="658" 
d="M633 -8h-63q-62 0 -91 30t-29 101v571h-157q-44 0 -67.5 -24t-23.5 -82v-51h169l-20 -87h-149v-450h-105v410q0 24 12 40h-90v87h79v51q0 191 197 191h259v-656q0 -25 7 -33t21 -8h51v-90z" />
    <glyph glyph-name="f_f_i" unicode="ffi" horiz-adv-x="961" 
d="M907 0h-104v417q0 13 11 33h-259v-450h-105v414q0 11 11 36h-259v-450h-105v413q0 9 10 37h-88v87h78v51q0 191 199 191q29 0 126 -19l-19 -83q-63 17 -108 17q-93 0 -93 -106v-51h249v51q0 191 191 191q53 0 108 -12l-20 -84q-40 11 -90 11q-85 0 -85 -106v-51h352v-537
zM785 769v-101q0 -10 8 -10h107q8 0 8 10v101q0 10 -8 10h-107q-8 0 -8 -10z" />
    <glyph glyph-name="f_f_l" unicode="ffl" horiz-adv-x="1010" 
d="M985 -8h-63q-62 0 -91 30t-29 101v571h-157q-44 0 -67.5 -24t-23.5 -82v-51h169l-20 -87h-149v-450h-105v410q0 24 12 40h-259v-450h-105v413q0 9 10 37h-88v87h78v51q0 191 199 191q29 0 126 -19l-19 -83q-63 17 -108 17q-93 0 -93 -106v-51h248v51q0 191 197 191h259
v-656q0 -25 7 -33t21 -8h51v-90z" />
    <glyph glyph-name=".notdef" horiz-adv-x="500" 
d="M12 0v665h475v-665h-475zM88 618l162 -243l161 243h-323zM60 575v-484l40 61l80 120l41 61zM440 575l-162 -242l162 -243v485zM411 48l-161 242l-162 -242h323z" />
    <glyph glyph-name=".null" horiz-adv-x="0" 
 />
    <glyph glyph-name="nonmarkingreturn" horiz-adv-x="333" 
 />
    <glyph glyph-name="space" unicode=" " horiz-adv-x="248" 
 />
    <glyph glyph-name="exclam" unicode="!" horiz-adv-x="261" 
d="M185 389l-16 -208h-77l-15 208v390h108v-390zM196 11q0 -8 -2 -9.5t-8 -1.5h-111q-7 0 -8.5 1.5t-1.5 9.5v108q0 12 10 12h111q8 0 9 -1.5t1 -10.5v-108z" />
    <glyph glyph-name="quotedbl" unicode="&#x22;" horiz-adv-x="407" 
d="M352 721l-35 -229q-3 -19 -12 -19h-50q-12 0 -12 19v229h109zM192 721l-35 -229q-3 -19 -12 -19h-50q-12 0 -12 19v229h109z" />
    <glyph glyph-name="numbersign" unicode="#" horiz-adv-x="572" 
d="M538 228h-140l-26 -189h-76l26 189h-124l-26 -189h-76l25 189h-87v73h98l18 124h-116v73h125l27 188h76l-26 -188h124l26 188h76l-26 -188h102v-73h-111l-18 -124h129v-73zM350 425h-123l-19 -124h124z" />
    <glyph glyph-name="dollar" unicode="$" 
d="M529 246q0 -68 -48.5 -118.5t-137.5 -64.5v-133h-82v131q-182 15 -182 180h98q0 -48 25 -73.5t91 -25.5q70 0 101.5 30.5t31.5 73.5q0 37 -13 57t-45 24l-145 21q-135 19 -135 164q0 61 43 107.5t130 56.5v107h82v-107q168 -19 168 -179h-97q0 49 -23.5 72.5t-88.5 23.5
q-64 0 -88.5 -21t-24.5 -60q0 -34 13 -49t42 -19l144 -21q141 -21 141 -177z" />
    <glyph glyph-name="percent" unicode="%" horiz-adv-x="932" 
d="M750 737l-490 -752h-83l490 752h83zM359 520q0 -41 -3 -71t-12 -60.5t-24.5 -49.5t-42.5 -31t-65 -12t-65 12t-42.5 31t-24.5 49.5t-12 60.5t-3 71q0 49 6 84.5t21 67t45 47.5t75 16q85 0 116 -56.5t31 -158.5zM282 520q0 81 -13 114.5t-57 33.5t-57.5 -33.5
t-13.5 -114.5q0 -85 13.5 -121t57.5 -36t57 36t13 121zM867 208q0 -41 -3 -71t-12 -60.5t-24.5 -49.5t-42.5 -31t-65 -12t-65 12t-42.5 31t-24.5 49.5t-12 60.5t-3 71q0 49 6 84.5t21 67t45 47.5t75 16q85 0 116 -56.5t31 -158.5zM790 208q0 81 -13 114.5t-57 33.5
t-57.5 -33.5t-13.5 -114.5q0 -85 13.5 -121t57.5 -36t57 36t13 121z" />
    <glyph glyph-name="ampersand" unicode="&#x26;" horiz-adv-x="654" 
d="M667 9l-116 -24l-80 82q-80 -82 -191 -82q-50 0 -93.5 11t-81 34.5t-59.5 65.5t-22 99v28q0 122 123 179l-9 10q-51 56 -51 138v17q0 83 57.5 126.5t139.5 43.5t138.5 -44t56.5 -126v-17q0 -107 -109 -156l-54 -24l143 -147q16 42 16 107v52h97v-52q0 -101 -43 -180z
M380 550v17q0 38 -19.5 58.5t-76.5 20.5q-58 0 -78 -20.5t-20 -58.5v-17q0 -45 31 -78l27 -29l75 33q61 27 61 74zM406 133l-189 194q-49 -23 -67.5 -43t-18.5 -61v-28q0 -117 149 -117q76 0 126 55z" />
    <glyph glyph-name="quotesingle" unicode="'" horiz-adv-x="214" 
d="M160 721l-39 -234q-2 -14 -16 -14h-35q-8 0 -10 2.5t-2 11.5v234h102z" />
    <glyph glyph-name="parenleft" unicode="(" horiz-adv-x="319" 
d="M303 -164q-52 0 -92 20t-64.5 58t-40.5 80.5t-23 101t-9.5 104t-2.5 104.5t2.5 104.5t9.5 104t23 101t40.5 80.5t64.5 58t92 20v-90q-51 0 -77 -29t-38 -88q-5 -24 -8.5 -49t-4.5 -57t-1.5 -48.5t0 -56.5t0.5 -50t-0.5 -50t0 -56.5t1.5 -48.5t4.5 -57t8.5 -49
q12 -59 38 -88t77 -29v-90z" />
    <glyph glyph-name="parenright" unicode=")" horiz-adv-x="319" 
d="M248 304q0 -59 -2.5 -104.5t-9.5 -104t-23 -101t-40.5 -80.5t-64.5 -58t-92 -20v90q51 0 77 29t38 88q5 24 8.5 49t4.5 57t1.5 48.5t0 56.5t-0.5 50t0.5 50t0 56.5t-1.5 48.5t-4.5 57t-8.5 49q-12 59 -38 88t-77 29v90q52 0 92 -20t64.5 -58t40.5 -80.5t23 -101t9.5 -104
t2.5 -104.5z" />
    <glyph glyph-name="asterisk" unicode="*" horiz-adv-x="363" 
d="M340 578q5 -13 -5 -14l-117 -22l83 -88q6 -8 -4 -15l-50 -36q-5 -4 -7.5 -4.5t-4 0.5t-3.5 5l-57 103l-58 -105q-5 -9 -16 -1l-49 36q-10 7 -4 15l81 86l-118 23q-11 3 -6 15l19 58q4 12 13 8l107 -50l-15 119q-1 6 1 8t11 2h61q9 0 11 -2t1 -8l-14 -117l108 51
q8 4 13 -9z" />
    <glyph glyph-name="plus" unicode="+" 
d="M587 314h-236v-237h-93v237h-237v92h237v237h93v-237h236v-92z" />
    <glyph glyph-name="comma" unicode="," horiz-adv-x="238" 
d="M183 12q0 -50 -30 -98t-82 -86l-42 39q39 38 52.5 65t13.5 69h-33q-8 0 -9 1.5t-1 9.5v107q0 12 10 12h111q7 0 8.5 -1.5t1.5 -10.5v-107z" />
    <glyph glyph-name="hyphen" unicode="-" horiz-adv-x="334" 
d="M308 247h-282v96h282v-96z" />
    <glyph glyph-name="period" unicode="." horiz-adv-x="238" 
d="M185 11q0 -8 -1.5 -9.5t-8.5 -1.5h-111q-8 0 -9 1.5t-1 9.5v108q0 9 1 10.5t8 1.5h111q8 0 9.5 -1.5t1.5 -10.5v-108z" />
    <glyph glyph-name="slash" unicode="/" horiz-adv-x="459" 
d="M438 737l-334 -752h-83l334 752h83z" />
    <glyph glyph-name="zero" unicode="0" 
d="M551 369q0 -70 -4.5 -121t-20 -103.5t-41.5 -85.5t-72 -53.5t-109 -20.5t-109 20.5t-72 53.5t-41.5 85.5t-20 103.5t-4.5 121q0 66 5.5 117t21.5 100t43 80.5t71.5 51t105.5 19.5t105.5 -19.5t71.5 -51t43 -80.5t21.5 -100t5.5 -117zM444 369q0 152 -26.5 214t-113.5 62
t-113.5 -62t-26.5 -214q0 -63 2.5 -105t11 -80.5t23.5 -60.5t40.5 -34.5t62.5 -12.5t62.5 12.5t40.5 34.5t23.5 60.5t11 80.5t2.5 105z" />
    <glyph glyph-name="one" unicode="1" 
d="M500 0h-390v95h142v490q0 23 7 37l-150 -29v93l248 50v-641h143v-95z" />
    <glyph glyph-name="two" unicode="2" 
d="M541 528q0 -60 -31.5 -110.5t-79 -87t-97 -70t-94 -76t-60.5 -89.5h261v103h99v-198h-480q0 67 20.5 124t54 95.5t73.5 71.5t80 60t73.5 52.5t54 57t20.5 67.5q0 57 -30.5 87t-84.5 30q-80 0 -112.5 -31.5t-41.5 -90.5h-98q3 41 16.5 76.5t41 68t77.5 51t117 18.5
q96 0 158.5 -56t62.5 -153z" />
    <glyph glyph-name="three" unicode="3" 
d="M557 216q0 -113 -69.5 -172t-185.5 -59q-98 0 -161 34t-104 112l82 39q31 -57 71.5 -78t111.5 -21q74 0 111.5 38t37.5 107q0 56 -34 88.5t-95 32.5h-116l-26 90h142q52 0 83.5 29.5t31.5 85.5q0 106 -125 106q-72 0 -112.5 -20t-70.5 -76l-82 39q41 78 104.5 112
t161.5 34q121 0 176 -54.5t55 -140.5q0 -102 -86 -155q47 -21 73 -67t26 -104z" />
    <glyph glyph-name="four" unicode="4" 
d="M586 186h-77v-186h-105v186h-365v91l367 444h103v-438h77v-97zM412 569l-237 -286h229v246q0 18 8 40z" />
    <glyph glyph-name="five" unicode="5" 
d="M560 227q0 -111 -63.5 -176.5t-189.5 -65.5q-98 0 -161 34t-104 112l82 39q31 -57 71.5 -77.5t111.5 -20.5q147 0 147 155q0 86 -44 118t-119 32q-101 0 -179 -25l-37 30l39 339h429l-26 -91h-318l-22 -180q42 12 128 12q118 0 186.5 -56t68.5 -179z" />
    <glyph glyph-name="six" unicode="6" 
d="M555 243q0 -258 -250 -258t-250 258q0 20 -0.5 64.5t-0.5 68.5t1.5 66t6 66.5t13 59.5t21.5 56t33.5 45t47 37t62.5 22t80 9q152 0 221 -101l-70 -64q-32 36 -65 54.5t-86 18.5q-81 0 -117 -44.5t-39 -164.5q58 47 142 47q250 0 250 -240zM449 243q0 81 -33 115.5
t-111 34.5q-144 0 -144 -150q0 -92 33 -129.5t111 -37.5q77 0 110.5 38t33.5 129z" />
    <glyph glyph-name="seven" unicode="7" 
d="M559 636l-336 -636h-121l315 593q9 16 27 33h-279v-103h-99v198h493v-85z" />
    <glyph glyph-name="eight" unicode="8" 
d="M560 216q0 -231 -249 -231q-250 0 -250 231q0 115 88 166q-78 45 -78 151q0 99 60.5 151.5t178.5 52.5t179 -52.5t61 -151.5q0 -106 -78 -151q88 -51 88 -166zM445 533q0 65 -33.5 88.5t-101.5 23.5q-67 0 -100.5 -23.5t-33.5 -88.5q0 -54 26.5 -80.5t62.5 -26.5h91
q36 0 62.5 26.5t26.5 80.5zM454 216q0 51 -27.5 85.5t-75.5 34.5h-81q-48 0 -75.5 -34.5t-27.5 -85.5q0 -78 33 -109t110 -31t110.5 31t33.5 109z" />
    <glyph glyph-name="nine" unicode="9" 
d="M552 479q0 -20 0.5 -64.5t0.5 -68.5t-1.5 -66t-6 -66.5t-13 -59.5t-21.5 -56t-33.5 -45t-47 -37t-62.5 -22t-80 -9q-152 0 -221 101l69 63q32 -36 65 -54.5t87 -18.5q81 0 117 45t39 165q-58 -47 -142 -47q-250 0 -250 240q0 258 250 258t250 -258zM446 479
q0 91 -33 128.5t-111 37.5q-77 0 -110.5 -37.5t-33.5 -128.5q0 -81 33 -115.5t111 -34.5q144 0 144 150z" />
    <glyph glyph-name="colon" unicode=":" horiz-adv-x="238" 
d="M185 417q0 -8 -1.5 -9.5t-8.5 -1.5h-111q-8 0 -9 1.5t-1 9.5v108q0 9 1 10.5t8 1.5h111q8 0 9.5 -1.5t1.5 -10.5v-108zM185 11q0 -8 -1.5 -9.5t-8.5 -1.5h-111q-8 0 -9 1.5t-1 9.5v108q0 9 1 10.5t8 1.5h111q8 0 9.5 -1.5t1.5 -10.5v-108z" />
    <glyph glyph-name="semicolon" unicode=";" horiz-adv-x="238" 
d="M182 417q0 -8 -2 -9.5t-8 -1.5h-111q-7 0 -8.5 1.5t-1.5 9.5v108q0 9 1 10.5t9 1.5h111q8 0 9 -1.5t1 -10.5v-108zM182 14q0 -49 -32 -95.5t-83 -74.5l-38 31q34 33 50.5 61t16.5 64h-37q-6 0 -7 1t-1 8v112q0 7 1 8.5t7 1.5h115q8 0 8 -10v-107z" />
    <glyph glyph-name="less" unicode="&#x3c;" 
d="M502 80h-122l-282 280l282 280h122l-282 -280z" />
    <glyph glyph-name="equal" unicode="=" 
d="M552 433h-496v96h496v-96zM552 193h-496v96h496v-96z" />
    <glyph glyph-name="greater" unicode="&#x3e;" 
d="M510 360l-282 -280h-122l282 280l-282 280h122z" />
    <glyph glyph-name="question" unicode="?" horiz-adv-x="525" 
d="M486 572q0 -34 -8 -61.5t-25.5 -50t-31 -35.5t-37.5 -33q-21 -17 -28 -22.5t-23.5 -22t-22.5 -27.5t-12 -29t-6 -37v-69h-106v69q0 46 16.5 84t35 58t49.5 46q3 3 20.5 17t23 19t18 18t17.5 22.5t9.5 24t4.5 29.5q0 65 -23 98t-84 33q-74 0 -103.5 -32t-30.5 -97h-100
q0 46 9 81.5t32.5 69.5t72 52.5t120.5 18.5q213 0 213 -224zM304 11q0 -8 -2 -9.5t-8 -1.5h-111q-7 0 -8.5 1.5t-1.5 9.5v108q0 12 10 12h111q8 0 9 -1.5t1 -10.5v-108z" />
    <glyph glyph-name="at" unicode="@" horiz-adv-x="937" 
d="M874 314q0 -117 -63.5 -201.5t-170.5 -84.5h-84l-9 70q-95 -83 -179 -83q-60 0 -96 40.5t-36 128.5q0 154 76.5 232.5t204.5 78.5q66 0 133 -19q15 -31 15 -94q0 -22 -2 -33l-34 -245h20q68 0 106 61t38 149q0 133 -85 205.5t-214 72.5q-91 0 -169 -37t-130 -118.5
t-52 -194.5q0 -64 17.5 -121.5t52 -104.5t92 -74.5t130.5 -27.5q104 0 199 51l37 -55q-129 -59 -236 -59q-90 0 -163 33t-117.5 89t-68 124.5t-23.5 144.5q0 130 59.5 227t156 145t215.5 48q168 0 274 -91.5t106 -256.5zM572 382q0 19 -2 32q-37 5 -57 5q-95 0 -136.5 -60
t-41.5 -175q0 -88 52 -88q29 0 61 15t51 29.5t49 40.5l23 176q1 8 1 25z" />
    <glyph glyph-name="A" unicode="A" horiz-adv-x="668" 
d="M658 0h-111l-80 213h-269l-80 -213h-108l269 721h111zM433 306l-89 242q-4 10 -11 49q-6 -35 -11 -48l-89 -243h200z" />
    <glyph glyph-name="B" unicode="B" horiz-adv-x="630" 
d="M596 220q0 -111 -70 -165.5t-198 -54.5h-259v721h259q235 0 235 -193q0 -51 -22.5 -88t-61.5 -53q49 -14 83 -57t34 -110zM457 528q0 58 -32 80t-97 22h-154v-205h165q53 0 85.5 24.5t32.5 78.5zM491 220q0 33 -14 56.5t-38 35t-48.5 16.5t-51.5 5h-165v-242h154
q91 0 127 31.5t36 97.5z" />
    <glyph glyph-name="C" unicode="C" horiz-adv-x="631" 
d="M596 144q-70 -160 -256 -160q-72 0 -125.5 20t-86.5 53.5t-53.5 83t-28 102.5t-7.5 118q0 184 66.5 280t227.5 96q125 0 186.5 -61.5t67.5 -152.5h-98q-16 122 -157 122q-49 0 -83 -13.5t-54 -36t-31 -61t-14.5 -77.5t-3.5 -96q0 -52 3.5 -90t15.5 -77t32.5 -63
t56.5 -39.5t86 -15.5q62 0 103 28t69 91z" />
    <glyph glyph-name="D" unicode="D" horiz-adv-x="664" 
d="M625 369q0 -79 -19.5 -144t-60 -116.5t-110.5 -80t-164 -28.5h-212v721h212q181 0 267.5 -95.5t86.5 -256.5zM518 369q0 132 -60.5 196.5t-186.5 64.5h-107v-539h107q247 0 247 278z" />
    <glyph glyph-name="E" unicode="E" horiz-adv-x="569" 
d="M530 0h-471v721h470v-95h-365v-198h330l-27 -97h-310q7 -19 7 -31v-205h366v-95z" />
    <glyph glyph-name="F" unicode="F" horiz-adv-x="563" 
d="M523 721l-27 -95h-332v-207h294v-97h-300q6 -15 6 -28v-294h-105v721h464z" />
    <glyph glyph-name="G" unicode="G" horiz-adv-x="666" 
d="M607 85q-60 -49 -116.5 -74.5t-139.5 -25.5q-163 0 -237.5 96t-74.5 280q0 376 311 376q125 0 187.5 -61.5t68.5 -152.5h-98q-16 122 -158 122q-117 0 -160.5 -70.5t-43.5 -213.5q0 -53 5 -93t18.5 -77.5t36 -61.5t59.5 -38.5t86 -14.5q83 0 151 45v145q0 4 5 21h-157
l-27 96h284v-298z" />
    <glyph glyph-name="H" unicode="H" horiz-adv-x="695" 
d="M636 0h-105v332h-367v-332h-105v721h105v-292h367v292h105v-721z" />
    <glyph glyph-name="I" unicode="I" horiz-adv-x="222" 
d="M163 0h-104v721h104v-721z" />
    <glyph glyph-name="J" unicode="J" horiz-adv-x="428" 
d="M369 213q0 -122 -54.5 -175t-154.5 -53q-85 0 -152 56l50 72q50 -40 101 -40q59 0 82 31t23 109v508h105v-508z" />
    <glyph glyph-name="K" unicode="K" horiz-adv-x="642" 
d="M645 721l-330 -312l322 -409h-133l-254 320q-5 6 -9 19l-77 -76v-263h-105v721h105v-321l335 321h146z" />
    <glyph glyph-name="L" unicode="L" horiz-adv-x="511" 
d="M477 0h-418v721h105v-626h313v-95z" />
    <glyph glyph-name="M" unicode="M" horiz-adv-x="810" 
d="M757 0h-101l-36 472q-1 7 -1 22q0 5 0.5 14t1.5 22l-169 -365h-94l-170 367q0 -6 1.5 -17t1.5 -21v-20l-37 -474h-101l53 721h99l188 -406q8 -17 12 -49q0 1 4 21t8 29l188 405h99z" />
    <glyph glyph-name="N" unicode="N" horiz-adv-x="707" 
d="M648 0h-94l-396 543q6 -30 6 -41v-502h-105v721h94l396 -543q0 3 -2 11t-3 16.5t-1 16.5v499h105v-721z" />
    <glyph glyph-name="O" unicode="O" horiz-adv-x="683" 
d="M644 369q0 -88 -13.5 -154t-46.5 -120t-94 -82t-150 -28t-149.5 28t-93 82.5t-45.5 120t-13 153.5q0 63 7.5 114.5t28 100t53.5 81.5t87 52.5t125 19.5t125 -19.5t87.5 -52.5t54.5 -81.5t29 -100t8 -114.5zM537 369q0 142 -43 209t-154 67q-110 0 -152 -66.5t-42 -209.5
q0 -156 41.5 -224.5t152.5 -68.5t154 69t43 224z" />
    <glyph glyph-name="P" unicode="P" horiz-adv-x="599" 
d="M560 491q0 -101 -65 -164.5t-197 -63.5h-140q6 -12 6 -25v-238h-105v721h239q131 0 196.5 -64t65.5 -166zM453 491q0 69 -40 104t-115 35h-134v-276h134q77 0 116 33t39 104z" />
    <glyph glyph-name="Q" unicode="Q" horiz-adv-x="674" 
d="M647 -57l-42 -89l-367 133q-60 22 -100 57.5t-61 86t-29.5 106t-8.5 130.5q0 81 13.5 143t45 115.5t93 82.5t149.5 29q71 0 125 -20t87.5 -53t54.5 -81.5t29 -100.5t8 -115q0 -67 -7.5 -120.5t-26 -103.5t-53.5 -86.5t-85 -56.5q20 0 43 -9zM537 367q0 143 -43 210.5
t-154 67.5q-110 0 -152 -67t-42 -211q0 -157 41.5 -225.5t152.5 -68.5t154 69t43 225z" />
    <glyph glyph-name="R" unicode="R" horiz-adv-x="609" 
d="M582 0h-127l-169 259q-9 12 -12 35h-110v-294h-105v721h232q132 0 196.5 -58.5t64.5 -157.5q0 -161 -167 -202zM445 505q0 125 -153 125h-128v-244h127q80 0 117 27t37 92z" />
    <glyph glyph-name="S" unicode="S" horiz-adv-x="607" 
d="M572 208q0 -100 -69 -162t-206 -62q-192 0 -260 145l88 45q53 -97 172 -97q88 0 127.5 36t39.5 95q0 93 -98 109l-152 26q-164 28 -164 196q0 87 60 142.5t192 55.5q176 0 247 -124l-89 -45q-48 77 -158 77q-80 0 -113 -27t-33 -79q0 -45 18 -66.5t64 -28.5l150 -25
q184 -31 184 -211z" />
    <glyph glyph-name="T" unicode="T" horiz-adv-x="596" 
d="M567 630h-216v-630h-105v630h-217v91h538v-91z" />
    <glyph glyph-name="U" unicode="U" horiz-adv-x="692" 
d="M638 298q0 -161 -78.5 -237t-214.5 -76t-213.5 76t-77.5 237v423h105v-423q0 -117 46 -169.5t140 -52.5t141 52.5t47 169.5v423h105v-423z" />
    <glyph glyph-name="V" unicode="V" horiz-adv-x="674" 
d="M661 721l-269 -721h-111l-268 721h111l198 -534q13 -35 17 -64q6 39 15 64l199 534h108z" />
    <glyph glyph-name="W" unicode="W" horiz-adv-x="870" 
d="M855 721l-171 -721h-118l-132 501l-131 -501h-117l-171 721h108l117 -492q6 -24 10 -77q5 56 11 77l123 470h102l124 -481q6 -24 9 -72q2 39 9 72l119 503h108z" />
    <glyph glyph-name="X" unicode="X" horiz-adv-x="656" 
d="M650 0h-128l-177 262q-9 13 -14 35q-5 -21 -15 -36l-183 -261h-128l265 374l-233 347h128l157 -237q9 -13 14 -34q11 29 14 34l164 237h130l-244 -349z" />
    <glyph glyph-name="Y" unicode="Y" horiz-adv-x="641" 
d="M633 721l-259 -430v-291h-105v291l-261 430h117l184 -304q8 -12 12 -38q7 30 13 40l183 302h116z" />
    <glyph glyph-name="Z" unicode="Z" horiz-adv-x="576" 
d="M537 636l-348 -515q-10 -16 -27 -26h367v-95h-490v84l347 514q10 15 28 28h-347l-28 95h498v-85z" />
    <glyph glyph-name="bracketleft" unicode="[" horiz-adv-x="325" 
d="M306 -163h-222v934h222v-71l-122 -9v-773l122 -9v-72z" />
    <glyph glyph-name="backslash" unicode="\" horiz-adv-x="459" 
d="M438 -15h-83l-334 752h83z" />
    <glyph glyph-name="bracketright" unicode="]" horiz-adv-x="325" 
d="M241 -163h-222v72l122 9v773l-122 9v71h222v-934z" />
    <glyph glyph-name="asciicircum" unicode="^" 
d="M500 506l-55 -48l-141 167l-141 -167l-55 48l159 211q16 20 37 20t37 -20z" />
    <glyph glyph-name="underscore" unicode="_" horiz-adv-x="508" 
d="M524 -142h-540v77h540v-77z" />
    <glyph glyph-name="grave" unicode="`" horiz-adv-x="347" 
d="M59 729l72 70l152 -159q7 -7 0 -14l-31 -28q-7 -7 -19 2z" />
    <glyph glyph-name="a" unicode="a" horiz-adv-x="551" 
d="M487 0h-86l-11 39q-81 -54 -169 -54q-95 0 -142.5 49t-47.5 132q0 172 205 172q71 0 146 -17v69q0 39 -23 58t-76 19q-100 0 -145 -65l-79 46q61 104 226 104q62 0 104 -14t62 -39t28 -51t8 -59v-389zM382 123v120q-84 13 -125 13q-120 0 -120 -90q0 -94 84 -94
q82 0 161 51z" />
    <glyph glyph-name="b" unicode="b" horiz-adv-x="585" 
d="M543 268q0 -148 -63 -215.5t-193 -67.5q-123 0 -223 45v749h105v-226q0 -19 -9 -42q71 41 140 41q122 0 182.5 -69.5t60.5 -214.5zM437 268q0 107 -32 152.5t-108 45.5q-56 0 -128 -36v-349q49 -17 118 -17q87 0 118.5 49.5t31.5 154.5z" />
    <glyph glyph-name="c" unicode="c" horiz-adv-x="538" 
d="M512 97q-42 -60 -90 -86t-119 -26q-137 0 -196 72t-59 211t59 211.5t196 72.5q136 0 209 -113l-82 -42q-17 22 -29.5 34t-38 23t-59.5 11q-80 0 -114.5 -43.5t-34.5 -153.5t34 -153t115 -43q71 0 123 68z" />
    <glyph glyph-name="d" unicode="d" horiz-adv-x="586" 
d="M522 0h-73l-15 39q-71 -54 -150 -54q-242 0 -242 283q0 284 242 284q82 0 142 -40q-9 31 -9 42v225h105v-779zM417 115v317q-57 33 -133 33q-72 0 -104.5 -43t-32.5 -154q0 -97 28.5 -148t108.5 -51q65 0 133 46z" />
    <glyph glyph-name="e" unicode="e" horiz-adv-x="576" 
d="M534 236h-387q2 -87 35 -125.5t113 -38.5q104 0 144 78l89 -34q-33 -68 -88.5 -99.5t-144.5 -31.5q-131 0 -192 68.5t-61 215.5q0 140 57.5 211.5t195.5 71.5q239 0 239 -283v-33zM423 321q-2 66 -33 105t-95 39q-74 0 -108 -31.5t-39 -112.5h275z" />
    <glyph glyph-name="f" unicode="f" horiz-adv-x="396" 
d="M422 760l-19 -83q-63 17 -108 17q-93 0 -93 -106v-51h170l-20 -87h-150v-450h-105v413q0 9 10 37h-88v87h78v51q0 191 199 191q29 0 126 -19z" />
    <glyph glyph-name="g" unicode="g" horiz-adv-x="593" 
d="M579 552l-18 -97h-27q-24 0 -56 16q39 -50 39 -112q0 -189 -226 -189q-25 0 -75 8q-20 4 -31 4q-33 0 -33 -31q0 -16 9.5 -22t28.5 -10l213 -38q86 -16 118 -52.5t32 -99.5q0 -171 -264 -171q-40 0 -71.5 3t-69.5 14.5t-63 31t-42 55t-17 84.5q0 81 73 140q-28 22 -28 65
q0 47 46 68q-53 58 -53 140q0 99 64.5 146t162.5 47q82 0 137 -28l77 28h74zM410 359q0 110 -119 110q-120 0 -120 -110q0 -105 120 -105q65 0 92 22t27 83zM447 -71q0 63 -59 75l-218 40q-38 -27 -38 -98q0 -56 37 -82.5t120 -26.5q86 0 122 23t36 69z" />
    <glyph glyph-name="h" unicode="h" horiz-adv-x="580" 
d="M522 0h-105v341q0 126 -93 126q-54 0 -112 -37l-44 -28v-402h-105v779h105v-249q0 -25 -10 -52l45 31q63 43 121 43q90 0 144 -52t54 -159v-341z" />
    <glyph glyph-name="i" unicode="i" horiz-adv-x="230" 
d="M54 769v-101q0 -10 8 -10h107q8 0 8 10v101q0 10 -8 10h-107q-8 0 -8 -10zM167 0h-104v537h104v-537z" />
    <glyph glyph-name="j" unicode="j" horiz-adv-x="230" 
d="M167 -99q0 -66 -38 -104.5t-118 -38.5h-57v85h57q29 0 40.5 14t11.5 44v636h104v-636zM54 769v-101q0 -10 8 -10h107q8 0 8 10v101q0 10 -8 10h-107q-8 0 -8 -10z" />
    <glyph glyph-name="k" unicode="k" horiz-adv-x="564" 
d="M555 0h-134l-192 245q-4 5 -12 30l-48 -36v-239h-105v779h105v-418l222 176h160l-257 -201z" />
    <glyph glyph-name="l" unicode="l" horiz-adv-x="283" 
d="M258 -9h-75q-120 0 -120 135v653h105v-653q0 -26 6.5 -34t20.5 -8h63v-93z" />
    <glyph glyph-name="m" unicode="m" horiz-adv-x="873" 
d="M815 0h-105v350q0 59 -16.5 88t-54.5 29q-41 0 -74 -16t-76 -48q3 -22 3 -53v-350h-105v350q0 117 -72 117q-12 0 -23 -1.5t-23.5 -6t-20 -7t-21 -10.5t-18.5 -11t-21 -13t-19 -12v-406h-105v537h83l18 -53q91 68 153 68q57 0 94.5 -16t64.5 -62q49 41 84.5 59.5
t84.5 18.5q90 0 129.5 -47t39.5 -155v-350z" />
    <glyph glyph-name="n" unicode="n" horiz-adv-x="580" 
d="M522 0h-105v341q0 126 -93 126q-54 0 -112 -37l-44 -28v-402h-105v537h86l15 -54l39 26q64 43 121 43q90 0 144 -52t54 -159v-341z" />
    <glyph glyph-name="o" unicode="o" horiz-adv-x="577" 
d="M535 269q0 -138 -58 -211t-189 -73t-188.5 72.5t-57.5 211.5q0 138 57.5 210.5t188.5 72.5t189 -72.5t58 -210.5zM428 269q0 110 -32 154t-108 44t-108.5 -44t-32.5 -154t32.5 -154.5t108.5 -44.5t108 44.5t32 154.5z" />
    <glyph glyph-name="p" unicode="p" horiz-adv-x="585" 
d="M544 277q0 -145 -57.5 -218.5t-199.5 -73.5q-66 0 -119 32v-259h-105v779h72l22 -46q74 61 149 61q122 0 180 -73.5t58 -201.5zM437 277q0 97 -31 143.5t-100 46.5q-67 0 -138 -51v-315q54 -37 119 -37q85 0 117.5 50t32.5 163z" />
    <glyph glyph-name="q" unicode="q" horiz-adv-x="586" 
d="M522 -242h-105v257q-52 -30 -123 -30q-252 0 -252 277q0 85 19 143.5t55 89.5t78 44t98 13q99 0 230 -35v-759zM417 96v357q-65 15 -125 15q-74 0 -109 -43t-35 -163q0 -106 35.5 -150.5t110.5 -44.5q60 0 123 29z" />
    <glyph glyph-name="r" unicode="r" horiz-adv-x="371" 
d="M356 456q-42 6 -67 6q-55 0 -85 -25l-35 -29v-408h-105v537h86l13 -51l37 31q41 35 106 35q16 0 50 -4v-92z" />
    <glyph glyph-name="s" unicode="s" horiz-adv-x="518" 
d="M474 162q0 -91 -63.5 -134t-161.5 -43q-73 0 -129.5 29t-83.5 88l89 32q35 -65 124 -65q120 0 120 84q0 57 -60 67l-131 23q-131 22 -131 152q0 74 55.5 115.5t154.5 41.5q148 0 203 -99l-81 -41q-37 55 -121 55q-108 0 -108 -72q0 -50 53 -59l126 -21q65 -11 105 -48
t40 -105z" />
    <glyph glyph-name="t" unicode="t" horiz-adv-x="431" 
d="M426 43q-63 -58 -156 -58q-73 0 -120 35t-47 117v279q0 16 10 34h-98v87h88v182l105 31v-213h189l-28 -87h-161v-313q0 -33 19.5 -49t49.5 -16q41 0 88 32z" />
    <glyph glyph-name="u" unicode="u" horiz-adv-x="580" 
d="M517 0h-86l-15 54l-39 -26q-64 -43 -121 -43q-90 0 -144 52t-54 159v341h105v-341q0 -126 93 -126q54 0 112 37l44 28v402h105v-537z" />
    <glyph glyph-name="v" unicode="v" horiz-adv-x="550" 
d="M535 537l-206 -537h-109l-205 537h111l131 -346q5 -14 18 -79q11 55 20 78l130 347h110z" />
    <glyph glyph-name="w" unicode="w" horiz-adv-x="804" 
d="M786 537l-172 -537h-95l-102 310q-13 37 -15 66q-2 -25 -16 -66l-102 -310h-95l-172 537h103l101 -316q9 -26 15 -96q8 65 18 94l102 318h91l102 -318q10 -29 18 -94q6 70 15 96l101 316h103z" />
    <glyph glyph-name="x" unicode="x" horiz-adv-x="553" 
d="M545 0h-125l-124 171q-12 16 -22 40q-14 -29 -20 -39l-121 -172h-125l202 278l-188 259h124l118 -161q7 -10 17 -37q13 33 16 37l109 161h125l-188 -263z" />
    <glyph glyph-name="y" unicode="y" horiz-adv-x="549" 
d="M534 537l-253 -672q-22 -59 -61.5 -83t-109.5 -24h-80v93h80q35 0 48 9.5t28 46.5l34 86l-205 544h111l128 -343q16 -43 21 -84q8 50 22 84l128 343h109z" />
    <glyph glyph-name="z" unicode="z" horiz-adv-x="512" 
d="M467 0h-419v90l251 314q25 31 45 43h-272l-29 90h421v-90l-248 -310q-3 -4 -8.5 -11.5t-8.5 -11t-8 -8.5t-10.5 -8.5t-13.5 -7.5h300v-90z" />
    <glyph glyph-name="braceleft" unicode="{" horiz-adv-x="347" 
d="M337 702h-63q-33 0 -43 -9.5t-10 -39.5v-239q0 -21 -5.5 -42t-26.5 -42.5t-54 -24.5q26 -2 44 -14.5t26 -31t11 -34t3 -30.5v-239q0 -30 10 -39.5t43 -9.5h63v-70h-83q-131 0 -131 118v240q0 77 -66 77v65q68 0 68 77v240q0 118 131 118h83v-70z" />
    <glyph glyph-name="bar" unicode="|" horiz-adv-x="288" 
d="M187 -163h-86v934h86v-934z" />
    <glyph glyph-name="braceright" unicode="}" horiz-adv-x="347" 
d="M292 272q-66 0 -66 -77v-240q0 -118 -131 -118h-83v70h63q33 0 43 9.5t10 39.5v239q0 15 3 30.5t11 34t26 31t44 14.5q-33 3 -54 24.5t-26.5 42.5t-5.5 42v239q0 30 -10 39.5t-43 9.5h-63v70h83q131 0 131 -118v-240q0 -77 68 -77v-65z" />
    <glyph glyph-name="asciitilde" unicode="~" 
d="M547 385q-48 -69 -134 -69q-40 0 -78 21.5t-73 43t-67 21.5q-86 0 -134 -69v106q48 69 134 69q35 0 67.5 -13.5t53 -29.5t46.5 -29.5t51 -13.5q86 0 134 69v-106z" />
    <glyph glyph-name="uni00A0" unicode="&#xa0;" horiz-adv-x="248" 
 />
    <glyph glyph-name="exclamdown" unicode="&#xa1;" horiz-adv-x="261" 
d="M196 434q0 -9 -1 -10.5t-9 -1.5h-111q-7 0 -8.5 1.5t-1.5 10.5v108q0 8 1.5 9.5t8.5 1.5h111q8 0 9 -1.5t1 -9.5v-108zM185 -226h-108v390l15 208h77l16 -208v-390z" />
    <glyph glyph-name="cent" unicode="&#xa2;" 
d="M527 200q-37 -54 -77.5 -79t-95.5 -30v-141h-82v145q-182 30 -182 262q0 116 42 183.5t140 81.5v141h82v-140q145 -18 164 -172h-96q-13 86 -108 86q-67 0 -93.5 -45.5t-26.5 -134.5q0 -87 28 -133.5t99 -46.5q50 0 75.5 15.5t49.5 48.5z" />
    <glyph glyph-name="sterling" unicode="&#xa3;" 
d="M552 0h-447v80q29 36 29 75v160h-77v95h77v133q0 90 45.5 142t165.5 52q132 0 202 -79l-68 -60q-29 28 -56 40t-78 12q-64 0 -86.5 -24t-22.5 -83v-133h186v-95h-186v-160q0 -35 -21 -60h337v-95z" />
    <glyph glyph-name="currency" unicode="&#xa4;" horiz-adv-x="605" 
d="M548 574q0 -8 -7 -15l-82 -82q33 -47 33 -104q0 -59 -34 -106l82 -82q7 -7 7 -15q0 -7 -5 -12l-27 -27q-5 -5 -11 -5q-8 0 -15 7l-84 84q-47 -33 -102 -33q-58 0 -104 33l-82 -82q-8 -8 -16 -8q-5 0 -10 5l-27 28q-5 7 -5 11q0 8 7 15l81 81q-34 46 -34 106q0 58 32 103
l-81 81q-7 7 -7 15t5 12l28 27q5 5 11 5q7 0 15 -8l80 -80q47 34 106 34q58 0 106 -34l82 82q7 7 15 7q6 0 11 -5l27 -27q5 -5 5 -11zM421 373q0 49 -35 84t-85 35t-85 -35t-35 -84t35.5 -84.5t84.5 -35.5t84.5 35.5t35.5 84.5z" />
    <glyph glyph-name="yen" unicode="&#xa5;" 
d="M597 721l-115 -207h96v-73h-136l-44 -79h180v-73h-220v-289h-105v289h-225v73h185l-45 80h-140v72h100l-116 207h113l164 -304q11 -22 16 -42q6 23 17 44l163 302h112z" />
    <glyph glyph-name="brokenbar" unicode="&#xa6;" horiz-adv-x="288" 
d="M195 433h-102v317h102v-317zM195 0h-102v317h102v-317z" />
    <glyph glyph-name="section" unicode="&#xa7;" horiz-adv-x="598" 
d="M510 89q0 -201 -219 -201h-194v180h94v-94h100q67 0 94.5 24.5t27.5 78.5q0 33 -14 49.5t-51 26.5l-133 34q-133 34 -133 215v108q0 211 205 211h204v-155h-90v69h-114q-57 0 -83 -21t-26 -72q0 -56 65 -73l133 -34q74 -19 104 -67.5t30 -125.5v-153zM413 221v28
q0 41 -13.5 61t-49.5 30l-132 34q-30 7 -42 24q0 -53 14.5 -78.5t50.5 -35.5l132 -35q25 -6 40 -28z" />
    <glyph glyph-name="dieresis" unicode="&#xa8;" horiz-adv-x="444" 
d="M55 758v-98q0 -8 7 -8h97q7 0 7 8v98q0 8 -7 8h-97q-7 0 -7 -8zM278 758v-98q0 -8 7 -8h97q7 0 7 8v98q0 8 -7 8h-97q-7 0 -7 -8z" />
    <glyph glyph-name="copyright" unicode="&#xa9;" horiz-adv-x="852" 
d="M803 361q0 -156 -110.5 -266t-266.5 -110t-266.5 110t-110.5 266t110.5 266t266.5 110t266.5 -110t110.5 -266zM733 361q0 127 -89.5 217t-217.5 90t-217.5 -90t-89.5 -217t89.5 -217t217.5 -90t217.5 90t89.5 217zM601 224q-23 -49 -61 -77.5t-109 -28.5q-49 0 -85 13
t-57 34t-34 53.5t-17.5 65t-4.5 74.5q0 118 41.5 178.5t150.5 60.5q84 0 124 -39.5t45 -103.5h-73q-5 36 -25.5 55t-70.5 19q-74 0 -95 -39.5t-21 -130.5q0 -85 23.5 -128t98.5 -43q40 0 63.5 17t43.5 58z" />
    <glyph glyph-name="ordfeminine" unicode="&#xaa;" horiz-adv-x="325" 
d="M279 455h-45l-7 15q-36 -24 -80 -24q-42 0 -71.5 25t-29.5 72q0 89 107 89q28 0 63 -7v26q0 10 -2 16t-11.5 11.5t-28.5 5.5q-36 0 -63 -26l-46 29q21 29 46 39.5t63 10.5q105 0 105 -86v-196zM216 517v59q-35 5 -54 5q-52 0 -52 -38q0 -44 40 -44q38 0 66 18z" />
    <glyph glyph-name="guillemotleft" unicode="&#xab;" horiz-adv-x="548" 
d="M499 124l-56 -47l-179 192l179 192l56 -48l-122 -144zM283 124l-56 -47l-178 192l178 192l56 -48l-123 -144z" />
    <glyph glyph-name="logicalnot" unicode="&#xac;" 
d="M552 203h-92v225h-404v91h496v-316z" />
    <glyph glyph-name="uni00AD" unicode="&#xad;" horiz-adv-x="334" 
d="M308 247h-282v96h282v-96z" />
    <glyph glyph-name="registered" unicode="&#xae;" horiz-adv-x="852" 
d="M803 361q0 -156 -110.5 -266t-266.5 -110t-266.5 110t-110.5 266t110.5 266t266.5 110t266.5 -110t110.5 -266zM733 361q0 127 -89.5 217t-217.5 90t-217.5 -90t-89.5 -217t89.5 -217t217.5 -90t217.5 90t89.5 217zM619 131h-90l-103 160q-6 8 -6 22h-90v-182h-74v464
h173q84 0 125.5 -38t41.5 -103q0 -104 -100 -133zM521 454q0 37 -22 54t-69 17h-100v-140h99q49 0 70.5 15.5t21.5 53.5z" />
    <glyph glyph-name="macron" unicode="&#xaf;" horiz-adv-x="458" 
d="M400 659h-342v82h342v-82z" />
    <glyph glyph-name="degree" unicode="&#xb0;" horiz-adv-x="334" 
d="M300 608q0 -53 -39 -90.5t-94 -37.5t-94 37.5t-39 90.5t39 90.5t94 37.5t94 -37.5t39 -90.5zM223 608q0 23 -16.5 39t-39.5 16t-39.5 -16t-16.5 -39q0 -22 16.5 -38t39.5 -16t39.5 16t16.5 38z" />
    <glyph glyph-name="plusminus" unicode="&#xb1;" 
d="M567 351h-216v-218h-93v218h-217v93h217v218h93v-218h216v-93zM567 0h-526v95h526v-95z" />
    <glyph glyph-name="two.superior" unicode="&#xb2;" horiz-adv-x="365" 
d="M323 610q0 -34 -18.5 -64.5t-36.5 -45t-54 -39.5q-69 -48 -90 -87h126v58h72v-127h-286q0 42 11 76t34.5 60t40.5 40.5t47 35.5q38 27 58 48t20 45q0 58 -56 58q-41 0 -58 -18t-22 -51h-70q4 57 39 96.5t111 39.5q58 0 95 -33t37 -92z" />
    <glyph glyph-name="three.superior" unicode="&#xb3;" horiz-adv-x="359" 
d="M328 434q0 -67 -41.5 -102.5t-109.5 -35.5q-58 0 -96 22t-65 73l60 28q19 -34 41 -46t60 -12q75 0 75 73q0 29 -16.5 44.5t-47.5 15.5h-72l-19 67h91q25 0 40.5 14.5t15.5 42.5q0 52 -62 52q-38 0 -59.5 -12t-40.5 -46l-60 28q27 51 65 73t96 22q72 0 105 -32.5t33 -84.5
q0 -55 -41 -86q48 -33 48 -98z" />
    <glyph glyph-name="acute" unicode="&#xb4;" horiz-adv-x="347" 
d="M282 729l-174 -129q-10 -8 -17 -2l-32 28q-7 6 0 13l153 160z" />
    <glyph glyph-name="mu" unicode="&#xb5;" horiz-adv-x="580" 
d="M517 0h-86l-15 54l-39 -26q-64 -43 -121 -43q-52 0 -93 18v-245h-105v779h105v-341q0 -126 93 -126q54 0 112 37l44 28v402h105v-537z" />
    <glyph glyph-name="paragraph" unicode="&#xb6;" horiz-adv-x="527" 
d="M459 0h-66v658h-54v-658h-66v353h-26q-107 0 -158 51.5t-51 133.5q0 81 51.5 132t157.5 51h212v-721z" />
    <glyph glyph-name="periodcentered" unicode="&#xb7;" horiz-adv-x="247" 
d="M188 373q0 -8 -2 -9.5t-8 -1.5h-111q-7 0 -8.5 1.5t-1.5 9.5v108q0 9 1 10.5t9 1.5h111q8 0 9 -1.5t1 -10.5v-108z" />
    <glyph glyph-name="cedilla" unicode="&#xb8;" horiz-adv-x="298" 
d="M259 -121q0 -85 -113 -85q-59 0 -104 20l16 37q42 -13 78 -13q57 0 57 41q0 32 -41 32h-57l-29 46l38 47h61l-38 -45h25q55 0 81 -18t26 -62z" />
    <glyph glyph-name="one.superior" unicode="&#xb9;" horiz-adv-x="283" 
d="M260 305h-235v69h79v267q0 7 1 12l-41 -9q-13 -3 -39 -8v69l155 31v-362h80v-69z" />
    <glyph glyph-name="ordmasculine" unicode="&#xba;" horiz-adv-x="344" 
d="M298 592q0 -145 -126 -145q-125 0 -125 145t125 145q126 0 126 -145zM234 592q0 52 -14 71.5t-48 19.5t-48 -19.5t-14 -71.5q0 -53 14 -72.5t48 -19.5t48 19.5t14 72.5z" />
    <glyph glyph-name="guillemotright" unicode="&#xbb;" horiz-adv-x="548" 
d="M499 269l-178 -192l-57 47l123 145l-123 144l57 48zM283 269l-178 -192l-56 47l121 145l-121 144l56 48z" />
    <glyph glyph-name="onequarter" unicode="&#xbc;" horiz-adv-x="864" 
d="M300 305h-235v69h79v267q0 7 1 12l-41 -9q-13 -3 -39 -8v69l155 31v-362h80v-69zM732 737l-484 -752h-83l484 752h83zM799 104h-44v-104h-75v104h-206v63l212 254h69v-246h44v-71zM577 175h103v126z" />
    <glyph glyph-name="onehalf" unicode="&#xbd;" horiz-adv-x="905" 
d="M300 305h-235v69h79v267q0 7 1 12l-41 -9q-13 -3 -39 -8v69l155 31v-362h80v-69zM732 737l-484 -752h-83l484 752h83zM840 305q0 -34 -18.5 -64.5t-36.5 -45t-54 -39.5q-69 -48 -90 -87h126v58h72v-127h-286q0 42 11 76t34.5 60t40.5 40.5t47 35.5q38 27 58 48t20 45
q0 58 -56 58q-41 0 -58 -18t-22 -51h-70q4 57 39 96.5t111 39.5q58 0 95 -33t37 -92z" />
    <glyph glyph-name="threequarters" unicode="&#xbe;" horiz-adv-x="901" 
d="M769 737l-484 -752h-83l484 752h83zM836 104h-44v-104h-75v104h-206v63l212 254h69v-246h44v-71zM614 175h103v126zM377 434q0 -67 -41.5 -102.5t-109.5 -35.5q-58 0 -96 22t-65 73l60 28q19 -34 41 -46t60 -12q75 0 75 73q0 29 -16.5 44.5t-47.5 15.5h-72l-19 67h91
q25 0 40.5 14.5t15.5 42.5q0 52 -62 52q-38 0 -59.5 -12t-40.5 -46l-60 28q27 51 65 73t96 22q72 0 105 -32.5t33 -84.5q0 -55 -41 -86q48 -33 48 -98z" />
    <glyph glyph-name="questiondown" unicode="&#xbf;" horiz-adv-x="525" 
d="M361 433q0 -12 -10 -12h-111q-8 0 -9 1.5t-1 10.5v108q0 8 2 9.5t8 1.5h111q7 0 8.5 -1.5t1.5 -9.5v-108zM495 -22q0 -46 -9 -81.5t-32.5 -69.5t-72 -52.5t-120.5 -18.5q-213 0 -213 224q0 34 8 61.5t25.5 50t31 35.5t37.5 33q21 17 28 22.5t23.5 22t22.5 27.5t12 29
t6 37v69h106v-69q0 -46 -16.5 -84t-35 -58t-49.5 -46q-3 -3 -20.5 -17t-23 -19t-18 -18t-17.5 -22.5t-9.5 -24t-4.5 -29.5q0 -65 23 -98t84 -33q74 0 103.5 32t30.5 97h100z" />
    <glyph glyph-name="Agrave" unicode="&#xc0;" horiz-adv-x="668" 
d="M658 0h-111l-80 213h-269l-80 -213h-108l269 721h111zM433 306l-89 242q-4 10 -11 49q-6 -35 -11 -48l-89 -243h200zM190 907l72 70l152 -159q7 -7 0 -14l-31 -28q-7 -7 -19 2z" />
    <glyph glyph-name="Aacute" unicode="&#xc1;" horiz-adv-x="668" 
d="M658 0h-111l-80 213h-269l-80 -213h-108l269 721h111zM433 306l-89 242q-4 10 -11 49q-6 -35 -11 -48l-89 -243h200zM477 905l-174 -129q-10 -8 -17 -2l-32 28q-6 6 0 13l153 160z" />
    <glyph glyph-name="Acircumflex" unicode="&#xc2;" horiz-adv-x="668" 
d="M658 0h-111l-80 213h-269l-80 -213h-108l269 721h111zM433 306l-89 242q-4 10 -11 49q-6 -35 -11 -48l-89 -243h200zM503 813l-44 -43l-125 107l-125 -107l-45 43l143 149q12 14 26 14t28 -14z" />
    <glyph glyph-name="Atilde" unicode="&#xc3;" horiz-adv-x="668" 
d="M658 0h-111l-80 213h-269l-80 -213h-108l269 721h111zM433 306l-89 242q-4 10 -11 49q-6 -35 -11 -48l-89 -243h200zM523 888l-72 -90q-21 -26 -45 -26q-18 0 -40 12l-86 43q-9 4 -16 4q-8 0 -15 -7l-49 -53l-55 37l68 89q20 27 43 27q17 0 41 -12l87 -43q14 -7 19 -7
t12 7l51 56z" />
    <glyph glyph-name="Adieresis" unicode="&#xc4;" horiz-adv-x="668" 
d="M658 0h-111l-80 213h-269l-80 -213h-108l269 721h111zM433 306l-89 242q-4 10 -11 49q-6 -35 -11 -48l-89 -243h200zM167 905v-98q0 -8 7 -8h97q7 0 7 8v98q0 8 -7 8h-97q-7 0 -7 -8zM390 905v-98q0 -8 7 -8h97q7 0 7 8v98q0 8 -7 8h-97q-7 0 -7 -8z" />
    <glyph glyph-name="Aring" unicode="&#xc5;" horiz-adv-x="668" 
d="M658 0h-111l-80 213h-269l-80 -213h-108l269 721h111zM433 306l-89 242q-4 10 -11 49q-6 -35 -11 -48l-89 -243h200zM447 855q0 -47 -33.5 -80t-79.5 -33t-79.5 33t-33.5 80t33.5 80t79.5 33t79.5 -33t33.5 -80zM385 855q0 20 -15.5 34.5t-35.5 14.5t-35 -14.5t-15 -34.5
t15 -35t35 -15t35.5 15t15.5 35z" />
    <glyph glyph-name="AE" unicode="&#xc6;" horiz-adv-x="1028" 
d="M989 0h-481v215h-236l-135 -215h-124l448 721h527v-95h-374v-198h339l-28 -97h-314q3 -21 3 -24v-212h375v-95zM508 314v278l-174 -278h174z" />
    <glyph glyph-name="Ccedilla" unicode="&#xc7;" horiz-adv-x="631" 
d="M596 144q-70 -160 -256 -160h-7l-18 -21h16q50 0 74.5 -17t24.5 -58q0 -79 -105 -79q-52 0 -97 20l17 39q39 -12 71 -12q49 0 49 32q0 26 -34 26h-53l-28 45l24 30q-69 10 -116.5 43.5t-72.5 85.5t-35.5 110.5t-10.5 132.5q0 184 66.5 280t227.5 96q125 0 186.5 -61.5
t67.5 -152.5h-98q-16 122 -157 122q-49 0 -83 -13.5t-54 -36t-31 -61t-14.5 -77.5t-3.5 -96q0 -52 3.5 -90t15.5 -77t32.5 -63t56.5 -39.5t86 -15.5q62 0 103 28t69 91z" />
    <glyph glyph-name="Egrave" unicode="&#xc8;" horiz-adv-x="569" 
d="M530 0h-471v721h470v-95h-365v-198h330l-27 -97h-310q7 -19 7 -31v-205h366v-95zM141 907l72 70l152 -159q7 -7 0 -14l-31 -28q-7 -7 -19 2z" />
    <glyph glyph-name="Eacute" unicode="&#xc9;" horiz-adv-x="569" 
d="M530 0h-471v721h470v-95h-365v-198h330l-27 -97h-310q7 -19 7 -31v-205h366v-95zM447 906l-174 -129q-10 -8 -17 -2l-32 28q-6 7 0 13l153 160z" />
    <glyph glyph-name="Ecircumflex" unicode="&#xca;" horiz-adv-x="569" 
d="M530 0h-471v721h470v-95h-365v-198h330l-27 -97h-310q7 -19 7 -31v-205h366v-95zM454 814l-44 -43l-125 107l-125 -107l-45 43l143 149q12 14 26 14t28 -14z" />
    <glyph glyph-name="Edieresis" unicode="&#xcb;" horiz-adv-x="569" 
d="M530 0h-471v721h470v-95h-365v-198h330l-27 -97h-310q7 -19 7 -31v-205h366v-95zM127 905v-98q0 -8 7 -8h97q7 0 7 8v98q0 8 -7 8h-97q-7 0 -7 -8zM350 905v-98q0 -8 7 -8h97q7 0 7 8v98q0 8 -7 8h-97q-7 0 -7 -8z" />
    <glyph glyph-name="Igrave" unicode="&#xcc;" horiz-adv-x="222" 
d="M163 0h-104v721h104v-721zM-32 907l72 70l152 -159q7 -7 0 -14l-31 -28q-7 -7 -19 2z" />
    <glyph glyph-name="Iacute" unicode="&#xcd;" horiz-adv-x="222" 
d="M163 0h-104v721h104v-721zM254 906l-174 -129q-10 -8 -17 -2l-32 28q-7 7 0 13l153 160z" />
    <glyph glyph-name="Icircumflex" unicode="&#xce;" horiz-adv-x="222" 
d="M163 0h-104v721h104v-721zM281 815l-44 -43l-125 107l-125 -107l-45 43l143 149q12 14 26 14t28 -14z" />
    <glyph glyph-name="Idieresis" unicode="&#xcf;" horiz-adv-x="222" 
d="M163 0h-104v721h104v-721zM-56 904v-98q0 -8 7 -8h97q7 0 7 8v98q0 8 -7 8h-97q-7 0 -7 -8zM167 904v-98q0 -8 7 -8h97q7 0 7 8v98q0 8 -7 8h-97q-7 0 -7 -8z" />
    <glyph glyph-name="Eth" unicode="&#xd0;" horiz-adv-x="664" 
d="M625 369q0 -79 -19.5 -144t-60 -116.5t-110.5 -80t-164 -28.5h-212v334h-83v88h83v299h212q181 0 267.5 -95.5t86.5 -256.5zM518 369q0 132 -60.5 196.5t-186.5 64.5h-107v-208h128l-26 -88h-102v-243h107q247 0 247 278z" />
    <glyph glyph-name="Ntilde" unicode="&#xd1;" horiz-adv-x="707" 
d="M648 0h-94l-396 543q6 -30 6 -41v-502h-105v721h94l396 -543q0 3 -2 11t-3 16.5t-1 16.5v499h105v-721zM549 888l-72 -90q-21 -26 -45 -26q-18 0 -40 12l-86 43q-9 4 -16 4q-8 0 -15 -7l-49 -53l-55 37l68 89q20 27 43 27q17 0 41 -12l87 -43q14 -7 19 -7t12 7l51 56z
" />
    <glyph glyph-name="Ograve" unicode="&#xd2;" horiz-adv-x="683" 
d="M644 369q0 -88 -13.5 -154t-46.5 -120t-94 -82t-150 -28t-149.5 28t-93 82.5t-45.5 120t-13 153.5q0 63 7.5 114.5t28 100t53.5 81.5t87 52.5t125 19.5t125 -19.5t87.5 -52.5t54.5 -81.5t29 -100t8 -114.5zM537 369q0 142 -43 209t-154 67q-110 0 -152 -66.5t-42 -209.5
q0 -156 41.5 -224.5t152.5 -68.5t154 69t43 224zM198 905l72 70l152 -159q7 -7 0 -14l-31 -28q-7 -7 -19 2z" />
    <glyph glyph-name="Oacute" unicode="&#xd3;" horiz-adv-x="683" 
d="M644 369q0 -88 -13.5 -154t-46.5 -120t-94 -82t-150 -28t-149.5 28t-93 82.5t-45.5 120t-13 153.5q0 63 7.5 114.5t28 100t53.5 81.5t87 52.5t125 19.5t125 -19.5t87.5 -52.5t54.5 -81.5t29 -100t8 -114.5zM537 369q0 142 -43 209t-154 67q-110 0 -152 -66.5t-42 -209.5
q0 -156 41.5 -224.5t152.5 -68.5t154 69t43 224zM494 906l-174 -129q-10 -8 -17 -2l-32 28q-7 7 0 13l153 160z" />
    <glyph glyph-name="Ocircumflex" unicode="&#xd4;" horiz-adv-x="683" 
d="M644 369q0 -88 -13.5 -154t-46.5 -120t-94 -82t-150 -28t-149.5 28t-93 82.5t-45.5 120t-13 153.5q0 63 7.5 114.5t28 100t53.5 81.5t87 52.5t125 19.5t125 -19.5t87.5 -52.5t54.5 -81.5t29 -100t8 -114.5zM537 369q0 142 -43 209t-154 67q-110 0 -152 -66.5t-42 -209.5
q0 -156 41.5 -224.5t152.5 -68.5t154 69t43 224zM511 814l-44 -43l-125 107l-125 -107l-45 43l143 149q12 14 26 14t28 -14z" />
    <glyph glyph-name="Otilde" unicode="&#xd5;" horiz-adv-x="683" 
d="M644 369q0 -88 -13.5 -154t-46.5 -120t-94 -82t-150 -28t-149.5 28t-93 82.5t-45.5 120t-13 153.5q0 63 7.5 114.5t28 100t53.5 81.5t87 52.5t125 19.5t125 -19.5t87.5 -52.5t54.5 -81.5t29 -100t8 -114.5zM537 369q0 142 -43 209t-154 67q-110 0 -152 -66.5t-42 -209.5
q0 -156 41.5 -224.5t152.5 -68.5t154 69t43 224zM530 888l-72 -90q-21 -26 -45 -26q-17 0 -40 12l-86 43q-9 4 -16 4q-8 0 -15 -7l-49 -53l-55 37l68 89q20 27 43 27q17 0 41 -12l87 -43q14 -7 19 -7t12 7l51 56z" />
    <glyph glyph-name="Odieresis" unicode="&#xd6;" horiz-adv-x="683" 
d="M644 369q0 -88 -13.5 -154t-46.5 -120t-94 -82t-150 -28t-149.5 28t-93 82.5t-45.5 120t-13 153.5q0 63 7.5 114.5t28 100t53.5 81.5t87 52.5t125 19.5t125 -19.5t87.5 -52.5t54.5 -81.5t29 -100t8 -114.5zM537 369q0 142 -43 209t-154 67q-110 0 -152 -66.5t-42 -209.5
q0 -156 41.5 -224.5t152.5 -68.5t154 69t43 224zM174 905v-98q0 -8 7 -8h97q7 0 7 8v98q0 8 -7 8h-97q-7 0 -7 -8zM397 905v-98q0 -8 7 -8h97q7 0 7 8v98q0 8 -7 8h-97q-7 0 -7 -8z" />
    <glyph glyph-name="multiply" unicode="&#xd7;" 
d="M535 211l-64 -62l-166 167l-167 -167l-64 62l167 168l-166 168l63 63l166 -167l167 167l64 -62l-167 -169z" />
    <glyph glyph-name="Oslash" unicode="&#xd8;" horiz-adv-x="683" 
d="M697 746l-104 -135q51 -89 51 -242q0 -88 -13.5 -154t-46.5 -120t-94 -82t-150 -28q-120 0 -189 52l-48 -62h-97l92 119q-59 90 -59 275q0 63 7.5 114.5t28 100t53.5 81.5t87 52.5t125 19.5q131 0 204 -65l57 74h96zM482 592q-47 53 -142 53q-110 0 -152 -66.5
t-42 -209.5q0 -121 22 -184zM537 369q0 90 -16 148l-309 -401q44 -40 128 -40q111 0 154 69t43 224z" />
    <glyph glyph-name="Ugrave" unicode="&#xd9;" horiz-adv-x="692" 
d="M638 298q0 -161 -78.5 -237t-214.5 -76t-213.5 76t-77.5 237v423h105v-423q0 -117 46 -169.5t140 -52.5t141 52.5t47 169.5v423h105v-423zM202 905l72 70l152 -159q7 -7 0 -14l-31 -28q-7 -7 -19 2z" />
    <glyph glyph-name="Uacute" unicode="&#xda;" horiz-adv-x="692" 
d="M638 298q0 -161 -78.5 -237t-214.5 -76t-213.5 76t-77.5 237v423h105v-423q0 -117 46 -169.5t140 -52.5t141 52.5t47 169.5v423h105v-423zM499 906l-174 -129q-10 -8 -17 -2l-32 28q-6 7 0 13l153 160z" />
    <glyph glyph-name="Ucircumflex" unicode="&#xdb;" horiz-adv-x="692" 
d="M638 298q0 -161 -78.5 -237t-214.5 -76t-213.5 76t-77.5 237v423h105v-423q0 -117 46 -169.5t140 -52.5t141 52.5t47 169.5v423h105v-423zM515 814l-44 -43l-125 107l-125 -107l-45 43l143 149q12 14 26 14t28 -14z" />
    <glyph glyph-name="Udieresis" unicode="&#xdc;" horiz-adv-x="692" 
d="M638 298q0 -161 -78.5 -237t-214.5 -76t-213.5 76t-77.5 237v423h105v-423q0 -117 46 -169.5t140 -52.5t141 52.5t47 169.5v423h105v-423zM179 905v-98q0 -8 7 -8h97q7 0 7 8v98q0 8 -7 8h-97q-7 0 -7 -8zM402 905v-98q0 -8 7 -8h97q7 0 7 8v98q0 8 -7 8h-97q-7 0 -7 -8z
" />
    <glyph glyph-name="Yacute" unicode="&#xdd;" horiz-adv-x="641" 
d="M633 721l-259 -430v-291h-105v291l-261 430h117l184 -304q8 -12 12 -38q7 30 13 40l183 302h116zM483 905l-174 -129q-10 -8 -17 -2l-32 28q-6 6 0 13l153 160z" />
    <glyph glyph-name="Thorn" unicode="&#xde;" horiz-adv-x="599" 
d="M560 381q0 -102 -65 -165.5t-197 -63.5h-141q6 -12 6 -25v-127h-104v721h104v-108h135q131 0 196.5 -65t65.5 -167zM454 381q0 69 -40.5 105t-115.5 36h-135v-279h135q156 0 156 138z" />
    <glyph glyph-name="germandbls" unicode="&#xdf;" horiz-adv-x="609" 
d="M562 220q0 -233 -299 -235v88q110 1 151 34.5t41 112.5q0 37 -16 64t-42.5 40.5t-53.5 19.5t-56 6h-49v87h49q55 0 94 35.5t39 98.5q0 62 -29.5 90.5t-89.5 28.5q-68 0 -98 -28t-30 -91v-571h-104v571q0 101 60.5 154.5t171.5 53.5q119 0 172 -60t53 -148
q0 -111 -100 -168q63 -24 99.5 -71.5t36.5 -111.5z" />
    <glyph glyph-name="agrave" unicode="&#xe0;" horiz-adv-x="551" 
d="M487 0h-86l-11 39q-81 -54 -169 -54q-95 0 -142.5 49t-47.5 132q0 172 205 172q71 0 146 -17v69q0 39 -23 58t-76 19q-100 0 -145 -65l-79 46q61 104 226 104q62 0 104 -14t62 -39t28 -51t8 -59v-389zM382 123v120q-84 13 -125 13q-120 0 -120 -90q0 -94 84 -94
q82 0 161 51zM138 729l72 70l152 -159q7 -7 0 -14l-31 -28q-7 -7 -19 2z" />
    <glyph glyph-name="aacute" unicode="&#xe1;" horiz-adv-x="551" 
d="M487 0h-86l-11 39q-81 -54 -169 -54q-95 0 -142.5 49t-47.5 132q0 172 205 172q71 0 146 -17v69q0 39 -23 58t-76 19q-100 0 -145 -65l-79 46q61 104 226 104q62 0 104 -14t62 -39t28 -51t8 -59v-389zM382 123v120q-84 13 -125 13q-120 0 -120 -90q0 -94 84 -94
q82 0 161 51zM447 729l-174 -129q-10 -8 -17 -2l-32 28q-6 6 0 13l153 160z" />
    <glyph glyph-name="acircumflex" unicode="&#xe2;" horiz-adv-x="551" 
d="M487 0h-86l-11 39q-81 -54 -169 -54q-95 0 -142.5 49t-47.5 132q0 172 205 172q71 0 146 -17v69q0 39 -23 58t-76 19q-100 0 -145 -65l-79 46q61 104 226 104q62 0 104 -14t62 -39t28 -51t8 -59v-389zM382 123v120q-84 13 -125 13q-120 0 -120 -90q0 -94 84 -94
q82 0 161 51zM445 638l-44 -43l-125 107l-125 -107l-45 43l143 149q12 14 26 14t28 -14z" />
    <glyph glyph-name="atilde" unicode="&#xe3;" horiz-adv-x="551" 
d="M487 0h-86l-11 39q-81 -54 -169 -54q-95 0 -142.5 49t-47.5 132q0 172 205 172q71 0 146 -17v69q0 39 -23 58t-76 19q-100 0 -145 -65l-79 46q61 104 226 104q62 0 104 -14t62 -39t28 -51t8 -59v-389zM382 123v120q-84 13 -125 13q-120 0 -120 -90q0 -94 84 -94
q82 0 161 51zM464 735l-72 -90q-21 -26 -45 -26q-17 0 -40 12l-86 43q-9 4 -16 4q-8 0 -15 -7l-49 -53l-55 37l68 89q20 27 43 27q17 0 41 -12l87 -43q14 -7 19 -7t12 7l51 56z" />
    <glyph glyph-name="adieresis" unicode="&#xe4;" horiz-adv-x="551" 
d="M487 0h-86l-11 39q-81 -54 -169 -54q-95 0 -142.5 49t-47.5 132q0 172 205 172q71 0 146 -17v69q0 39 -23 58t-76 19q-100 0 -145 -65l-79 46q61 104 226 104q62 0 104 -14t62 -39t28 -51t8 -59v-389zM382 123v120q-84 13 -125 13q-120 0 -120 -90q0 -94 84 -94
q82 0 161 51zM108 758v-98q0 -8 7 -8h97q7 0 7 8v98q0 8 -7 8h-97q-7 0 -7 -8zM331 758v-98q0 -8 7 -8h97q7 0 7 8v98q0 8 -7 8h-97q-7 0 -7 -8z" />
    <glyph glyph-name="aring" unicode="&#xe5;" horiz-adv-x="551" 
d="M487 0h-86l-11 39q-81 -54 -169 -54q-95 0 -142.5 49t-47.5 132q0 172 205 172q71 0 146 -17v69q0 39 -23 58t-76 19q-100 0 -145 -65l-79 46q61 104 226 104q62 0 104 -14t62 -39t28 -51t8 -59v-389zM382 123v120q-84 13 -125 13q-120 0 -120 -90q0 -94 84 -94
q82 0 161 51zM388 709q0 -47 -33 -80t-80 -33t-80 33t-33 80t33 80t80 33t80 -33t33 -80zM326 709q0 20 -15.5 34.5t-35.5 14.5t-35 -14.5t-15 -34.5t15 -35t35 -15t35.5 15t15.5 35z" />
    <glyph glyph-name="ae" unicode="&#xe6;" horiz-adv-x="910" 
d="M868 236h-377q2 -82 35 -123.5t110 -41.5q53 0 86 18.5t54 60.5l89 -34q-34 -69 -87 -100t-142 -31q-136 0 -192 89q-53 -36 -73.5 -48.5t-62.5 -26.5t-88 -14q-95 0 -142 49t-47 132q0 172 203 172q72 0 147 -17v69q0 39 -23 57.5t-76 18.5q-101 0 -145 -64l-78 46
q61 104 225 104q128 0 176 -66q57 66 177 66q59 0 102.5 -16.5t67.5 -42t38.5 -65t18.5 -75.5t4 -84v-33zM761 321q-2 72 -31.5 109t-94.5 37q-67 0 -100.5 -33.5t-41.5 -112.5h268zM381 126v117q-82 13 -125 13q-120 0 -120 -90q0 -95 84 -95q78 0 161 55z" />
    <glyph glyph-name="ccedilla" unicode="&#xe7;" horiz-adv-x="538" 
d="M512 99q-41 -60 -88 -86.5t-116 -27.5l-25 -29h23q54 0 79 -17.5t25 -61.5q0 -83 -111 -83q-58 0 -103 20l17 38q39 -13 75 -13q56 0 56 38q0 31 -38 31h-58l-28 46l28 35q-107 16 -153.5 86.5t-46.5 193.5q0 139 59 211.5t196 72.5q135 0 209 -114l-83 -43
q-17 23 -29 34.5t-37.5 22.5t-59.5 11q-79 0 -113 -43t-34 -152t33.5 -152t113.5 -43q43 0 70 18.5t52 50.5z" />
    <glyph glyph-name="egrave" unicode="&#xe8;" horiz-adv-x="576" 
d="M534 236h-387q2 -87 35 -125.5t113 -38.5q104 0 144 78l89 -34q-33 -68 -88.5 -99.5t-144.5 -31.5q-131 0 -192 68.5t-61 215.5q0 140 57.5 211.5t195.5 71.5q239 0 239 -283v-33zM423 321q-2 66 -33 105t-95 39q-74 0 -108 -31.5t-39 -112.5h275zM141 729l72 70
l152 -159q7 -7 0 -14l-31 -28q-7 -7 -19 2z" />
    <glyph glyph-name="eacute" unicode="&#xe9;" horiz-adv-x="576" 
d="M534 236h-387q2 -87 35 -125.5t113 -38.5q104 0 144 78l89 -34q-33 -68 -88.5 -99.5t-144.5 -31.5q-131 0 -192 68.5t-61 215.5q0 140 57.5 211.5t195.5 71.5q239 0 239 -283v-33zM423 321q-2 66 -33 105t-95 39q-74 0 -108 -31.5t-39 -112.5h275zM451 729l-174 -129
q-10 -8 -17 -2l-32 28q-6 6 0 13l153 160z" />
    <glyph glyph-name="ecircumflex" unicode="&#xea;" horiz-adv-x="576" 
d="M534 236h-387q2 -87 35 -125.5t113 -38.5q104 0 144 78l89 -34q-33 -68 -88.5 -99.5t-144.5 -31.5q-131 0 -192 68.5t-61 215.5q0 140 57.5 211.5t195.5 71.5q239 0 239 -283v-33zM423 321q-2 66 -33 105t-95 39q-74 0 -108 -31.5t-39 -112.5h275zM457 638l-44 -43
l-125 107l-125 -107l-45 43l143 149q12 14 26 14t28 -14z" />
    <glyph glyph-name="edieresis" unicode="&#xeb;" horiz-adv-x="576" 
d="M534 236h-387q2 -87 35 -125.5t113 -38.5q104 0 144 78l89 -34q-33 -68 -88.5 -99.5t-144.5 -31.5q-131 0 -192 68.5t-61 215.5q0 140 57.5 211.5t195.5 71.5q239 0 239 -283v-33zM423 321q-2 66 -33 105t-95 39q-74 0 -108 -31.5t-39 -112.5h275zM121 758v-98q0 -8 7 -8
h97q7 0 7 8v98q0 8 -7 8h-97q-7 0 -7 -8zM344 758v-98q0 -8 7 -8h97q7 0 7 8v98q0 8 -7 8h-97q-7 0 -7 -8z" />
    <glyph glyph-name="igrave" unicode="&#xec;" horiz-adv-x="230" 
d="M167 0h-104v537h104v-537zM-19 729l72 70l152 -159q7 -7 0 -14l-31 -28q-7 -7 -19 2z" />
    <glyph glyph-name="iacute" unicode="&#xed;" horiz-adv-x="230" 
d="M167 0h-104v537h104v-537zM258 729l-174 -129q-10 -8 -17 -2l-32 28q-7 6 0 13l153 160z" />
    <glyph glyph-name="icircumflex" unicode="&#xee;" horiz-adv-x="230" 
d="M167 0h-104v537h104v-537zM285 638l-44 -43l-125 107l-125 -107l-45 43l143 149q12 14 26 14t28 -14z" />
    <glyph glyph-name="idieresis" unicode="&#xef;" horiz-adv-x="230" 
d="M167 0h-104v537h104v-537zM-52 758v-98q0 -8 7 -8h97q7 0 7 8v98q0 8 -7 8h-97q-7 0 -7 -8zM171 758v-98q0 -8 7 -8h97q7 0 7 8v98q0 8 -7 8h-97q-7 0 -7 -8z" />
    <glyph glyph-name="eth" unicode="&#xf0;" horiz-adv-x="577" 
d="M535 265q0 -139 -58 -210t-189 -71t-188.5 71t-57.5 210q0 140 57.5 212.5t188.5 72.5q30 0 79 -11q-37 58 -101 103l-56 -44l-60 49l46 36q-49 26 -91 42l47 78q67 -24 124 -56l79 61l59 -49l-70 -55q191 -148 191 -439zM428 265q0 51 -3.5 81t-17 60t-43 43.5
t-76.5 13.5q-77 0 -109 -43.5t-32 -154.5t32 -152t109 -41t108.5 41t31.5 152z" />
    <glyph glyph-name="ntilde" unicode="&#xf1;" horiz-adv-x="580" 
d="M522 0h-105v341q0 126 -93 126q-54 0 -112 -37l-44 -28v-402h-105v537h86l15 -54l39 26q64 43 121 43q90 0 144 -52t54 -159v-341zM479 735l-72 -90q-21 -26 -45 -26q-18 0 -40 12l-86 43q-9 4 -16 4q-8 0 -15 -7l-49 -53l-55 37l68 89q20 27 43 27q17 0 41 -12l87 -43
q14 -7 19 -7t12 7l51 56z" />
    <glyph glyph-name="ograve" unicode="&#xf2;" horiz-adv-x="577" 
d="M535 269q0 -138 -58 -211t-189 -73t-188.5 72.5t-57.5 211.5q0 138 57.5 210.5t188.5 72.5t189 -72.5t58 -210.5zM428 269q0 110 -32 154t-108 44t-108.5 -44t-32.5 -154t32.5 -154.5t108.5 -44.5t108 44.5t32 154.5zM154 729l72 70l152 -159q7 -7 0 -14l-31 -28
q-7 -7 -19 2z" />
    <glyph glyph-name="oacute" unicode="&#xf3;" horiz-adv-x="577" 
d="M535 269q0 -138 -58 -211t-189 -73t-188.5 72.5t-57.5 211.5q0 138 57.5 210.5t188.5 72.5t189 -72.5t58 -210.5zM428 269q0 110 -32 154t-108 44t-108.5 -44t-32.5 -154t32.5 -154.5t108.5 -44.5t108 44.5t32 154.5zM441 729l-174 -129q-10 -8 -17 -2l-32 28q-6 6 0 13
l153 160z" />
    <glyph glyph-name="ocircumflex" unicode="&#xf4;" horiz-adv-x="577" 
d="M535 269q0 -138 -58 -211t-189 -73t-188.5 72.5t-57.5 211.5q0 138 57.5 210.5t188.5 72.5t189 -72.5t58 -210.5zM428 269q0 110 -32 154t-108 44t-108.5 -44t-32.5 -154t32.5 -154.5t108.5 -44.5t108 44.5t32 154.5zM458 638l-44 -43l-125 107l-125 -107l-45 43l143 149
q12 14 26 14t28 -14z" />
    <glyph glyph-name="otilde" unicode="&#xf5;" horiz-adv-x="577" 
d="M535 269q0 -138 -58 -211t-189 -73t-188.5 72.5t-57.5 211.5q0 138 57.5 210.5t188.5 72.5t189 -72.5t58 -210.5zM428 269q0 110 -32 154t-108 44t-108.5 -44t-32.5 -154t32.5 -154.5t108.5 -44.5t108 44.5t32 154.5zM477 735l-72 -90q-21 -26 -45 -26q-18 0 -40 12
l-86 43q-9 4 -16 4q-8 0 -15 -7l-49 -53l-55 37l68 89q20 27 43 27q17 0 41 -12l87 -43q14 -7 19 -7t12 7l51 56z" />
    <glyph glyph-name="odieresis" unicode="&#xf6;" horiz-adv-x="577" 
d="M535 269q0 -138 -58 -211t-189 -73t-188.5 72.5t-57.5 211.5q0 138 57.5 210.5t188.5 72.5t189 -72.5t58 -210.5zM428 269q0 110 -32 154t-108 44t-108.5 -44t-32.5 -154t32.5 -154.5t108.5 -44.5t108 44.5t32 154.5zM121 758v-98q0 -8 7 -8h97q7 0 7 8v98q0 8 -7 8h-97
q-7 0 -7 -8zM344 758v-98q0 -8 7 -8h97q7 0 7 8v98q0 8 -7 8h-97q-7 0 -7 -8z" />
    <glyph glyph-name="divide" unicode="&#xf7;" 
d="M365 663v-106q0 -7 -8 -7h-105q-6 0 -7 1.5t-1 7.5v104q0 5 1.5 6.5t6.5 1.5h105q5 0 6.5 -1.5t1.5 -6.5zM547 315h-486v90h486v-90zM365 163v-106q0 -7 -8 -7h-105q-6 0 -7 1.5t-1 7.5v104q0 5 1.5 6.5t6.5 1.5h105q5 0 6.5 -1.5t1.5 -6.5z" />
    <glyph glyph-name="oslash" unicode="&#xf8;" horiz-adv-x="577" 
d="M585 552l-88 -104q37 -71 37 -179q0 -138 -58 -211t-188 -73q-93 0 -148 35l-31 -35h-94l74 87q-47 73 -47 197q0 138 58 210.5t188 72.5q104 0 164 -47l40 47h93zM389 432q-31 33 -101 33q-76 0 -108.5 -43t-32.5 -153q0 -60 14 -113zM427 269q0 46 -7 88l-220 -264
q31 -21 88 -21q76 0 107.5 43.5t31.5 153.5z" />
    <glyph glyph-name="ugrave" unicode="&#xf9;" horiz-adv-x="580" 
d="M517 0h-86l-15 54l-39 -26q-64 -43 -121 -43q-90 0 -144 52t-54 159v341h105v-341q0 -126 93 -126q54 0 112 37l44 28v402h105v-537zM146 729l72 70l152 -159q7 -7 0 -14l-31 -28q-7 -7 -19 2z" />
    <glyph glyph-name="uacute" unicode="&#xfa;" horiz-adv-x="580" 
d="M517 0h-86l-15 54l-39 -26q-64 -43 -121 -43q-90 0 -144 52t-54 159v341h105v-341q0 -126 93 -126q54 0 112 37l44 28v402h105v-537zM453 729l-174 -129q-10 -8 -17 -2l-32 28q-6 6 0 13l153 160z" />
    <glyph glyph-name="ucircumflex" unicode="&#xfb;" horiz-adv-x="580" 
d="M517 0h-86l-15 54l-39 -26q-64 -43 -121 -43q-90 0 -144 52t-54 159v341h105v-341q0 -126 93 -126q54 0 112 37l44 28v402h105v-537zM459 638l-44 -43l-125 107l-125 -107l-45 43l143 149q12 14 26 14t28 -14z" />
    <glyph glyph-name="udieresis" unicode="&#xfc;" horiz-adv-x="580" 
d="M517 0h-86l-15 54l-39 -26q-64 -43 -121 -43q-90 0 -144 52t-54 159v341h105v-341q0 -126 93 -126q54 0 112 37l44 28v402h105v-537zM123 758v-98q0 -8 7 -8h97q7 0 7 8v98q0 8 -7 8h-97q-7 0 -7 -8zM346 758v-98q0 -8 7 -8h97q7 0 7 8v98q0 8 -7 8h-97q-7 0 -7 -8z" />
    <glyph glyph-name="yacute" unicode="&#xfd;" horiz-adv-x="549" 
d="M534 537l-253 -672q-22 -59 -61.5 -83t-109.5 -24h-80v93h80q35 0 48 9.5t28 46.5l34 86l-205 544h111l128 -343q16 -43 21 -84q8 50 22 84l128 343h109zM437 729l-174 -129q-10 -8 -17 -2l-32 28q-6 6 0 13l153 160z" />
    <glyph glyph-name="thorn" unicode="&#xfe;" horiz-adv-x="585" 
d="M542 276q0 -140 -62.5 -215.5t-193.5 -75.5q-66 0 -119 32v-259h-104v1021h104v-281q72 54 138 54q120 0 178.5 -74.5t58.5 -201.5zM436 276q0 189 -131 189q-66 0 -138 -52v-311q54 -37 119 -37q77 0 113.5 51.5t36.5 159.5z" />
    <glyph glyph-name="ydieresis" unicode="&#xff;" horiz-adv-x="549" 
d="M534 537l-253 -672q-22 -59 -61.5 -83t-109.5 -24h-80v93h80q35 0 48 9.5t28 46.5l34 86l-205 544h111l128 -343q16 -43 21 -84q8 50 22 84l128 343h109zM107 758v-98q0 -8 7 -8h97q7 0 7 8v98q0 8 -7 8h-97q-7 0 -7 -8zM330 758v-98q0 -8 7 -8h97q7 0 7 8v98q0 8 -7 8
h-97q-7 0 -7 -8z" />
    <glyph glyph-name="Amacron" unicode="&#x100;" horiz-adv-x="668" 
d="M658 0h-111l-80 213h-269l-80 -213h-108l269 721h111zM433 306l-89 242q-4 10 -11 49q-6 -35 -11 -48l-89 -243h200zM505 799h-342v82h342v-82z" />
    <glyph glyph-name="amacron" unicode="&#x101;" horiz-adv-x="551" 
d="M487 0h-86l-11 39q-81 -54 -169 -54q-95 0 -142.5 49t-47.5 132q0 172 205 172q71 0 146 -17v69q0 39 -23 58t-76 19q-100 0 -145 -65l-79 46q61 104 226 104q62 0 104 -14t62 -39t28 -51t8 -59v-389zM382 123v120q-84 13 -125 13q-120 0 -120 -90q0 -94 84 -94
q82 0 161 51zM446 659h-342v82h342v-82z" />
    <glyph glyph-name="Abreve" unicode="&#x102;" horiz-adv-x="668" 
d="M658 0h-111l-80 213h-269l-80 -213h-108l269 721h111zM433 306l-89 242q-4 10 -11 49q-6 -35 -11 -48l-89 -243h200zM505 896q-31 -62 -70 -93t-101 -31t-101.5 31t-70.5 93l59 38q31 -47 54.5 -63.5t57.5 -16.5t58 16.5t55 63.5z" />
    <glyph glyph-name="abreve" unicode="&#x103;" horiz-adv-x="551" 
d="M487 0h-86l-11 39q-81 -54 -169 -54q-95 0 -142.5 49t-47.5 132q0 172 205 172q71 0 146 -17v69q0 39 -23 58t-76 19q-100 0 -145 -65l-79 46q61 104 226 104q62 0 104 -14t62 -39t28 -51t8 -59v-389zM382 123v120q-84 13 -125 13q-120 0 -120 -90q0 -94 84 -94
q82 0 161 51zM447 746q-31 -62 -70 -93t-101 -31t-101.5 31t-70.5 93l59 38q31 -47 54.5 -63.5t57.5 -16.5t58 16.5t55 63.5z" />
    <glyph glyph-name="Aogonek" unicode="&#x104;" horiz-adv-x="668" 
d="M658 0q-88 -51 -112.5 -73.5t-24.5 -40.5q0 -40 53 -40q33 0 77 13l16 -39q-51 -22 -107 -22q-48 0 -79 21t-31 67q0 61 97 114l-80 213h-269l-80 -213h-108l269 721h111zM433 306l-89 242q-4 10 -11 49q-6 -35 -11 -48l-89 -243h200z" />
    <glyph glyph-name="aogonek" unicode="&#x105;" horiz-adv-x="551" 
d="M487 0l-92 -62q-43 -28 -43 -52q0 -40 53 -40q33 0 77 13l16 -39q-51 -22 -107 -22q-48 0 -79 21t-31 67q0 41 38 67l80 54l-9 32q-81 -54 -169 -54q-95 0 -142.5 49t-47.5 132q0 172 205 172q71 0 146 -17v69q0 39 -23 58t-76 19q-100 0 -145 -65l-79 46q61 104 226 104
q62 0 104 -14t62 -39t28 -51t8 -59v-389zM382 123v120q-84 13 -125 13q-120 0 -120 -90q0 -94 84 -94q82 0 161 51z" />
    <glyph glyph-name="Cacute" unicode="&#x106;" horiz-adv-x="631" 
d="M596 144q-70 -160 -256 -160q-72 0 -125.5 20t-86.5 53.5t-53.5 83t-28 102.5t-7.5 118q0 184 66.5 280t227.5 96q125 0 186.5 -61.5t67.5 -152.5h-98q-16 122 -157 122q-49 0 -83 -13.5t-54 -36t-31 -61t-14.5 -77.5t-3.5 -96q0 -52 3.5 -90t15.5 -77t32.5 -63
t56.5 -39.5t86 -15.5q62 0 103 28t69 91zM498 908l-174 -129q-10 -8 -17 -2l-32 28q-7 7 0 13l153 160z" />
    <glyph glyph-name="cacute" unicode="&#x107;" horiz-adv-x="538" 
d="M512 97q-42 -60 -90 -86t-119 -26q-137 0 -196 72t-59 211t59 211.5t196 72.5q136 0 209 -113l-82 -42q-17 22 -29.5 34t-38 23t-59.5 11q-80 0 -114.5 -43.5t-34.5 -153.5t34 -153t115 -43q71 0 123 68zM460 729l-174 -129q-10 -8 -17 -2l-32 28q-7 6 0 13l153 160z" />
    <glyph glyph-name="Ccircumflex" unicode="&#x108;" horiz-adv-x="631" 
d="M596 144q-70 -160 -256 -160q-72 0 -125.5 20t-86.5 53.5t-53.5 83t-28 102.5t-7.5 118q0 184 66.5 280t227.5 96q125 0 186.5 -61.5t67.5 -152.5h-98q-16 122 -157 122q-49 0 -83 -13.5t-54 -36t-31 -61t-14.5 -77.5t-3.5 -96q0 -52 3.5 -90t15.5 -77t32.5 -63
t56.5 -39.5t86 -15.5q62 0 103 28t69 91zM505 815l-44 -43l-125 107l-125 -107l-45 43l143 149q12 14 26 14t28 -14z" />
    <glyph glyph-name="ccircumflex" unicode="&#x109;" horiz-adv-x="538" 
d="M512 97q-42 -60 -90 -86t-119 -26q-137 0 -196 72t-59 211t59 211.5t196 72.5q136 0 209 -113l-82 -42q-17 22 -29.5 34t-38 23t-59.5 11q-80 0 -114.5 -43.5t-34.5 -153.5t34 -153t115 -43q71 0 123 68zM466 638l-44 -43l-125 107l-125 -107l-45 43l143 149q12 14 26 14
t28 -14z" />
    <glyph glyph-name="Cdotaccent" unicode="&#x10a;" horiz-adv-x="631" 
d="M596 144q-70 -160 -256 -160q-72 0 -125.5 20t-86.5 53.5t-53.5 83t-28 102.5t-7.5 118q0 184 66.5 280t227.5 96q125 0 186.5 -61.5t67.5 -152.5h-98q-16 122 -157 122q-49 0 -83 -13.5t-54 -36t-31 -61t-14.5 -77.5t-3.5 -96q0 -52 3.5 -90t15.5 -77t32.5 -63
t56.5 -39.5t86 -15.5q62 0 103 28t69 91zM267 919v-111q0 -10 8 -10h115q8 0 8 10v111q0 10 -8 10h-115q-8 0 -8 -10z" />
    <glyph glyph-name="cdotaccent" unicode="&#x10b;" horiz-adv-x="538" 
d="M512 97q-42 -60 -90 -86t-119 -26q-137 0 -196 72t-59 211t59 211.5t196 72.5q136 0 209 -113l-82 -42q-17 22 -29.5 34t-38 23t-59.5 11q-80 0 -114.5 -43.5t-34.5 -153.5t34 -153t115 -43q71 0 123 68zM228 741v-111q0 -10 8 -10h115q8 0 8 10v111q0 10 -8 10h-115
q-8 0 -8 -10z" />
    <glyph glyph-name="Ccaron" unicode="&#x10c;" horiz-adv-x="631" 
d="M596 144q-70 -160 -256 -160q-72 0 -125.5 20t-86.5 53.5t-53.5 83t-28 102.5t-7.5 118q0 184 66.5 280t227.5 96q125 0 186.5 -61.5t67.5 -152.5h-98q-16 122 -157 122q-49 0 -83 -13.5t-54 -36t-31 -61t-14.5 -77.5t-3.5 -96q0 -52 3.5 -90t15.5 -77t32.5 -63
t56.5 -39.5t86 -15.5q62 0 103 28t69 91zM495 935l-142 -149q-12 -14 -26 -14q-15 0 -29 14l-142 149l45 43l125 -107l125 107z" />
    <glyph glyph-name="ccaron" unicode="&#x10d;" horiz-adv-x="538" 
d="M512 97q-42 -60 -90 -86t-119 -26q-137 0 -196 72t-59 211t59 211.5t196 72.5q136 0 209 -113l-82 -42q-17 22 -29.5 34t-38 23t-59.5 11q-80 0 -114.5 -43.5t-34.5 -153.5t34 -153t115 -43q71 0 123 68zM469 758l-142 -149q-12 -14 -26 -14q-15 0 -29 14l-142 149l45 43
l125 -107l125 107z" />
    <glyph glyph-name="Dcaron" unicode="&#x10e;" horiz-adv-x="664" 
d="M625 369q0 -79 -19.5 -144t-60 -116.5t-110.5 -80t-164 -28.5h-212v721h212q181 0 267.5 -95.5t86.5 -256.5zM518 369q0 132 -60.5 196.5t-186.5 64.5h-107v-539h107q247 0 247 278zM481 935l-142 -149q-12 -14 -26 -14q-15 0 -29 14l-142 149l45 43l125 -107l125 107z
" />
    <glyph glyph-name="dcaron" unicode="&#x10f;" horiz-adv-x="656" 
d="M522 0h-73l-15 39q-71 -54 -150 -54q-242 0 -242 283q0 284 242 284q82 0 142 -40q-9 31 -9 42v225h105v-779zM417 115v317q-57 33 -133 33q-72 0 -104.5 -43t-32.5 -154q0 -97 28.5 -148t108.5 -51q65 0 133 46zM746 779l-69 -234q-2 -14 -16 -14h-35q-8 0 -10 2.5
t-2 11.5l30 234h102z" />
    <glyph glyph-name="Dcroat" unicode="&#x110;" horiz-adv-x="664" 
d="M625 369q0 -79 -19.5 -144t-60 -116.5t-110.5 -80t-164 -28.5h-212v334h-83v88h83v299h212q181 0 267.5 -95.5t86.5 -256.5zM518 369q0 132 -60.5 196.5t-186.5 64.5h-107v-208h128l-26 -88h-102v-243h107q247 0 247 278z" />
    <glyph glyph-name="dcroat" unicode="&#x111;" horiz-adv-x="586" 
d="M522 0h-73l-15 39q-71 -54 -150 -54q-242 0 -242 283q0 284 242 284q82 0 142 -40q-9 31 -9 42v51h-200v87h200v87h105v-87h64v-87h-64v-605zM417 115v317q-57 33 -133 33q-72 0 -104.5 -43t-32.5 -154q0 -97 28.5 -148t108.5 -51q65 0 133 46z" />
    <glyph glyph-name="Emacron" unicode="&#x112;" horiz-adv-x="569" 
d="M530 0h-471v721h470v-95h-365v-198h330l-27 -97h-310q7 -19 7 -31v-205h366v-95zM464 799h-342v82h342v-82z" />
    <glyph glyph-name="emacron" unicode="&#x113;" horiz-adv-x="576" 
d="M534 236h-387q2 -87 35 -125.5t113 -38.5q104 0 144 78l89 -34q-33 -68 -88.5 -99.5t-144.5 -31.5q-131 0 -192 68.5t-61 215.5q0 140 57.5 211.5t195.5 71.5q239 0 239 -283v-33zM423 321q-2 66 -33 105t-95 39q-74 0 -108 -31.5t-39 -112.5h275zM459 659h-342v82h342
v-82z" />
    <glyph glyph-name="Ebreve" unicode="&#x114;" horiz-adv-x="569" 
d="M530 0h-471v721h470v-95h-365v-198h330l-27 -97h-310q7 -19 7 -31v-205h366v-95zM456 896q-31 -62 -70 -93t-101 -31t-101.5 31t-70.5 93l59 38q31 -47 54.5 -63.5t57.5 -16.5t58 16.5t55 63.5z" />
    <glyph glyph-name="ebreve" unicode="&#x115;" horiz-adv-x="576" 
d="M534 236h-387q2 -87 35 -125.5t113 -38.5q104 0 144 78l89 -34q-33 -68 -88.5 -99.5t-144.5 -31.5q-131 0 -192 68.5t-61 215.5q0 140 57.5 211.5t195.5 71.5q239 0 239 -283v-33zM423 321q-2 66 -33 105t-95 39q-74 0 -108 -31.5t-39 -112.5h275zM459 746
q-31 -62 -70 -93t-101 -31t-101.5 31t-70.5 93l59 38q31 -47 54.5 -63.5t57.5 -16.5t58 16.5t55 63.5z" />
    <glyph glyph-name="Edotaccent" unicode="&#x116;" horiz-adv-x="569" 
d="M530 0h-471v721h470v-95h-365v-198h330l-27 -97h-310q7 -19 7 -31v-205h366v-95zM226 920v-111q0 -10 8 -10h115q8 0 8 10v111q0 10 -8 10h-115q-8 0 -8 -10z" />
    <glyph glyph-name="edotaccent" unicode="&#x117;" horiz-adv-x="576" 
d="M534 236h-387q2 -87 35 -125.5t113 -38.5q104 0 144 78l89 -34q-33 -68 -88.5 -99.5t-144.5 -31.5q-131 0 -192 68.5t-61 215.5q0 140 57.5 211.5t195.5 71.5q239 0 239 -283v-33zM423 321q-2 66 -33 105t-95 39q-74 0 -108 -31.5t-39 -112.5h275zM222 741v-111
q0 -10 8 -10h115q8 0 8 10v111q0 10 -8 10h-115q-8 0 -8 -10z" />
    <glyph glyph-name="Eogonek" unicode="&#x118;" horiz-adv-x="569" 
d="M530 0h-47l-83 -82q-13 -13 -13 -32q0 -40 53 -40q33 0 77 13l16 -39q-51 -22 -107 -22q-48 0 -79 21t-31 67q0 34 38 67l51 47h-346v721h470v-95h-365v-198h330l-27 -97h-310q7 -19 7 -31v-205h366v-95z" />
    <glyph glyph-name="eogonek" unicode="&#x119;" horiz-adv-x="576" 
d="M534 236h-387q2 -87 35 -125.5t113 -38.5q104 0 144 78l89 -34q-39 -77 -102 -107l-92 -91q-13 -13 -13 -32q0 -40 53 -40q33 0 77 13l16 -39q-51 -22 -107 -22q-48 0 -79 21t-31 67q0 34 38 67l36 33q-10 -1 -29 -1q-131 0 -192 68.5t-61 215.5q0 140 57.5 211.5
t195.5 71.5q239 0 239 -283v-33zM423 321q-2 66 -33 105t-95 39q-74 0 -108 -31.5t-39 -112.5h275z" />
    <glyph glyph-name="Ecaron" unicode="&#x11a;" horiz-adv-x="569" 
d="M530 0h-471v721h470v-95h-365v-198h330l-27 -97h-310q7 -19 7 -31v-205h366v-95zM464 935l-142 -149q-12 -14 -26 -14q-15 0 -29 14l-142 149l45 43l125 -107l125 107z" />
    <glyph glyph-name="ecaron" unicode="&#x11b;" horiz-adv-x="576" 
d="M534 236h-387q2 -87 35 -125.5t113 -38.5q104 0 144 78l89 -34q-33 -68 -88.5 -99.5t-144.5 -31.5q-131 0 -192 68.5t-61 215.5q0 140 57.5 211.5t195.5 71.5q239 0 239 -283v-33zM423 321q-2 66 -33 105t-95 39q-74 0 -108 -31.5t-39 -112.5h275zM457 758l-142 -149
q-12 -14 -26 -14q-15 0 -29 14l-142 149l45 43l125 -107l125 107z" />
    <glyph glyph-name="Gcircumflex" unicode="&#x11c;" horiz-adv-x="666" 
d="M607 85q-60 -49 -116.5 -74.5t-139.5 -25.5q-163 0 -237.5 96t-74.5 280q0 376 311 376q125 0 187.5 -61.5t68.5 -152.5h-98q-16 122 -158 122q-117 0 -160.5 -70.5t-43.5 -213.5q0 -53 5 -93t18.5 -77.5t36 -61.5t59.5 -38.5t86 -14.5q83 0 151 45v145q0 4 5 21h-157
l-27 96h284v-298zM522 814l-44 -43l-125 107l-125 -107l-45 43l143 149q12 14 26 14t28 -14z" />
    <glyph glyph-name="gcircumflex" unicode="&#x11d;" horiz-adv-x="593" 
d="M579 552l-18 -97h-27q-24 0 -56 16q39 -50 39 -112q0 -189 -226 -189q-25 0 -75 8q-20 4 -31 4q-33 0 -33 -31q0 -16 9.5 -22t28.5 -10l213 -38q86 -16 118 -52.5t32 -99.5q0 -171 -264 -171q-40 0 -71.5 3t-69.5 14.5t-63 31t-42 55t-17 84.5q0 81 73 140q-28 22 -28 65
q0 47 46 68q-53 58 -53 140q0 99 64.5 146t162.5 47q82 0 137 -28l77 28h74zM410 359q0 110 -119 110q-120 0 -120 -110q0 -105 120 -105q65 0 92 22t27 83zM447 -71q0 63 -59 75l-218 40q-38 -27 -38 -98q0 -56 37 -82.5t120 -26.5q86 0 122 23t36 69zM466 638l-44 -43
l-125 107l-125 -107l-45 43l143 149q12 14 26 14t28 -14z" />
    <glyph glyph-name="Gbreve" unicode="&#x11e;" horiz-adv-x="666" 
d="M607 85q-60 -49 -116.5 -74.5t-139.5 -25.5q-163 0 -237.5 96t-74.5 280q0 376 311 376q125 0 187.5 -61.5t68.5 -152.5h-98q-16 122 -158 122q-117 0 -160.5 -70.5t-43.5 -213.5q0 -53 5 -93t18.5 -77.5t36 -61.5t59.5 -38.5t86 -14.5q83 0 151 45v145q0 4 5 21h-157
l-27 96h284v-298zM504 896q-31 -62 -70 -93t-101 -31t-101.5 31t-70.5 93l59 38q31 -47 54.5 -63.5t57.5 -16.5t58 16.5t55 63.5z" />
    <glyph glyph-name="gbreve" unicode="&#x11f;" horiz-adv-x="593" 
d="M579 552l-18 -97h-27q-24 0 -56 16q39 -50 39 -112q0 -189 -226 -189q-25 0 -75 8q-20 4 -31 4q-33 0 -33 -31q0 -16 9.5 -22t28.5 -10l213 -38q86 -16 118 -52.5t32 -99.5q0 -171 -264 -171q-40 0 -71.5 3t-69.5 14.5t-63 31t-42 55t-17 84.5q0 81 73 140q-28 22 -28 65
q0 47 46 68q-53 58 -53 140q0 99 64.5 146t162.5 47q82 0 137 -28l77 28h74zM410 359q0 110 -119 110q-120 0 -120 -110q0 -105 120 -105q65 0 92 22t27 83zM447 -71q0 63 -59 75l-218 40q-38 -27 -38 -98q0 -56 37 -82.5t120 -26.5q86 0 122 23t36 69zM468 746
q-31 -62 -70 -93t-101 -31t-101.5 31t-70.5 93l59 38q31 -47 54.5 -63.5t57.5 -16.5t58 16.5t55 63.5z" />
    <glyph glyph-name="Gdotaccent" unicode="&#x120;" horiz-adv-x="666" 
d="M607 85q-60 -49 -116.5 -74.5t-139.5 -25.5q-163 0 -237.5 96t-74.5 280q0 376 311 376q125 0 187.5 -61.5t68.5 -152.5h-98q-16 122 -158 122q-117 0 -160.5 -70.5t-43.5 -213.5q0 -53 5 -93t18.5 -77.5t36 -61.5t59.5 -38.5t86 -14.5q83 0 151 45v145q0 4 5 21h-157
l-27 96h284v-298zM277 920v-111q0 -10 8 -10h115q8 0 8 10v111q0 10 -8 10h-115q-8 0 -8 -10z" />
    <glyph glyph-name="gdotaccent" unicode="&#x121;" horiz-adv-x="593" 
d="M579 552l-18 -97h-27q-24 0 -56 16q39 -50 39 -112q0 -189 -226 -189q-25 0 -75 8q-20 4 -31 4q-33 0 -33 -31q0 -16 9.5 -22t28.5 -10l213 -38q86 -16 118 -52.5t32 -99.5q0 -171 -264 -171q-40 0 -71.5 3t-69.5 14.5t-63 31t-42 55t-17 84.5q0 81 73 140q-28 22 -28 65
q0 47 46 68q-53 58 -53 140q0 99 64.5 146t162.5 47q82 0 137 -28l77 28h74zM410 359q0 110 -119 110q-120 0 -120 -110q0 -105 120 -105q65 0 92 22t27 83zM447 -71q0 63 -59 75l-218 40q-38 -27 -38 -98q0 -56 37 -82.5t120 -26.5q86 0 122 23t36 69zM231 741v-111
q0 -10 8 -10h115q8 0 8 10v111q0 10 -8 10h-115q-8 0 -8 -10z" />
    <glyph glyph-name="Gcommaaccent" unicode="&#x122;" horiz-adv-x="666" 
d="M607 85q-60 -49 -116.5 -74.5t-139.5 -25.5q-163 0 -237.5 96t-74.5 280q0 376 311 376q125 0 187.5 -61.5t68.5 -152.5h-98q-16 122 -158 122q-117 0 -160.5 -70.5t-43.5 -213.5q0 -53 5 -93t18.5 -77.5t36 -61.5t59.5 -38.5t86 -14.5q83 0 151 45v145q0 4 5 21h-157
l-27 96h284v-298zM361 -273l-45 31q25 34 25 85h-51q-7 0 -8.5 2t-1.5 9v92q0 12 10 12h111q10 0 10 -12v-68q0 -47 -10 -82t-40 -69z" />
    <glyph glyph-name="gcommaaccent" unicode="&#x123;" horiz-adv-x="593" 
d="M579 552l-18 -97h-27q-24 0 -56 16q39 -50 39 -112q0 -189 -226 -189q-25 0 -75 8q-20 4 -31 4q-33 0 -33 -31q0 -16 9.5 -22t28.5 -10l213 -38q86 -16 118 -52.5t32 -99.5q0 -171 -264 -171q-40 0 -71.5 3t-69.5 14.5t-63 31t-42 55t-17 84.5q0 81 73 140q-28 22 -28 65
q0 47 46 68q-53 58 -53 140q0 99 64.5 146t162.5 47q82 0 137 -28l77 28h74zM410 359q0 110 -119 110q-120 0 -120 -110q0 -105 120 -105q65 0 92 22t27 83zM447 -71q0 63 -59 75l-218 40q-38 -27 -38 -98q0 -56 37 -82.5t120 -26.5q86 0 122 23t36 69zM280 843l45 -31
q-25 -34 -25 -85h51q7 0 8.5 -2t1.5 -9v-92q0 -12 -10 -12h-111q-10 0 -10 12v68q0 47 10 82t40 69z" />
    <glyph glyph-name="Hcircumflex" unicode="&#x124;" horiz-adv-x="695" 
d="M636 0h-105v332h-367v-332h-105v721h105v-292h367v292h105v-721zM522 815l-44 -43l-125 107l-125 -107l-45 43l143 149q12 14 26 14t28 -14z" />
    <glyph glyph-name="hcircumflex" unicode="&#x125;" horiz-adv-x="580" 
d="M522 0h-105v341q0 126 -93 126q-54 0 -112 -37l-44 -28v-402h-105v779h105v-249q0 -25 -10 -52l45 31q63 43 121 43q90 0 144 -52t54 -159v-341zM459 841l-44 -43l-125 107l-125 -107l-45 43l143 149q12 14 26 14t28 -14z" />
    <glyph glyph-name="Hbar" unicode="&#x126;" horiz-adv-x="695" 
d="M0 528v93h59v100h105v-100h367v100h105v-100h59v-93h-59v-528h-105v332h-367v-332h-105v528h-59zM164 429h367v99h-367v-99z" />
    <glyph glyph-name="hbar" unicode="&#x127;" horiz-adv-x="580" 
d="M368 605h-200v-75q0 -25 -10 -52l45 31q63 43 121 43q90 0 144 -52t54 -159v-341h-105v341q0 126 -93 126q-54 0 -112 -37l-44 -28v-402h-105v605h-64v87h64v87h105v-87h200v-87z" />
    <glyph glyph-name="Itilde" unicode="&#x128;" horiz-adv-x="222" 
d="M163 0h-104v721h104v-721zM300 890l-72 -90q-21 -26 -45 -26q-17 0 -40 12l-86 43q-9 4 -16 4q-8 0 -15 -7l-49 -53l-55 37l68 89q20 27 43 27q17 0 41 -12l87 -43q14 -7 19 -7t12 7l51 56z" />
    <glyph glyph-name="itilde" unicode="&#x129;" horiz-adv-x="230" 
d="M167 0h-104v537h104v-537zM304 735l-72 -90q-21 -26 -45 -26q-17 0 -40 12l-86 43q-9 4 -16 4q-8 0 -15 -7l-49 -53l-55 37l68 89q20 27 43 27q17 0 41 -12l87 -43q14 -7 19 -7t12 7l51 56z" />
    <glyph glyph-name="Imacron" unicode="&#x12a;" horiz-adv-x="222" 
d="M163 0h-104v721h104v-721zM282 799h-342v82h342v-82z" />
    <glyph glyph-name="imacron" unicode="&#x12b;" horiz-adv-x="230" 
d="M167 0h-104v537h104v-537zM286 659h-342v82h342v-82z" />
    <glyph glyph-name="Ibreve" unicode="&#x12c;" horiz-adv-x="222" 
d="M163 0h-104v721h104v-721zM283 896q-31 -62 -70 -93t-101 -31t-101.5 31t-70.5 93l59 38q31 -47 54.5 -63.5t57.5 -16.5t58 16.5t55 63.5z" />
    <glyph glyph-name="ibreve" unicode="&#x12d;" horiz-adv-x="230" 
d="M167 0h-104v537h104v-537zM287 746q-31 -62 -70 -93t-101 -31t-101.5 31t-70.5 93l59 38q31 -47 54.5 -63.5t57.5 -16.5t58 16.5t55 63.5z" />
    <glyph glyph-name="Iogonek" unicode="&#x12e;" horiz-adv-x="222" 
d="M163 0q-49 -41 -69.5 -65.5t-20.5 -46.5q0 -42 54 -42q33 0 77 13l15 -39q-50 -22 -106 -22q-112 0 -112 90q0 30 12 53.5t46 58.5v721h104v-721z" />
    <glyph glyph-name="iogonek" unicode="&#x12f;" horiz-adv-x="230" 
d="M167 0h-1l-65 -70q-23 -25 -23 -46q0 -38 53 -38q33 0 77 13l16 -39q-51 -22 -107 -22q-47 0 -79 27.5t-32 79.5q0 44 43 82l14 13v537h104v-537zM54 769v-101q0 -10 8 -10h107q8 0 8 10v101q0 10 -8 10h-107q-8 0 -8 -10z" />
    <glyph glyph-name="Idotaccent" unicode="&#x130;" horiz-adv-x="222" 
d="M163 0h-104v721h104v-721zM46 919v-111q0 -10 8 -10h115q8 0 8 10v111q0 10 -8 10h-115q-8 0 -8 -10z" />
    <glyph glyph-name="dotlessi" unicode="&#x131;" horiz-adv-x="230" 
d="M167 0h-104v537h104v-537z" />
    <glyph glyph-name="IJ" unicode="&#x132;" horiz-adv-x="650" 
d="M163 0h-104v721h104v-721zM591 213q0 -122 -54.5 -175t-154.5 -53q-85 0 -152 56l50 72q50 -40 101 -40q59 0 82 31t23 109v508h105v-508z" />
    <glyph glyph-name="ij" unicode="&#x133;" horiz-adv-x="460" 
d="M54 769v-101q0 -10 8 -10h107q8 0 8 10v101q0 10 -8 10h-107q-8 0 -8 -10zM167 0h-104v537h104v-537zM397 -99q0 -66 -38 -104.5t-118 -38.5h-57v85h57q29 0 40.5 14t11.5 44v636h104v-636zM284 769v-101q0 -10 8 -10h107q8 0 8 10v101q0 10 -8 10h-107q-8 0 -8 -10z" />
    <glyph glyph-name="Jcircumflex" unicode="&#x134;" horiz-adv-x="428" 
d="M369 213q0 -122 -54.5 -175t-154.5 -53q-85 0 -152 56l50 72q50 -40 101 -40q59 0 82 31t23 109v508h105v-508zM486 813l-44 -43l-125 107l-125 -107l-45 43l143 149q12 14 26 14t28 -14z" />
    <glyph glyph-name="jcircumflex" unicode="&#x135;" horiz-adv-x="230" 
d="M167 -99q0 -66 -38 -104.5t-118 -38.5h-57v85h57q29 0 40.5 14t11.5 44v636h104v-636zM285 638l-44 -43l-125 107l-125 -107l-45 43l143 149q12 14 26 14t28 -14z" />
    <glyph glyph-name="Kcommaaccent" unicode="&#x136;" horiz-adv-x="642" 
d="M645 721l-330 -312l322 -409h-133l-254 320q-5 6 -9 19l-77 -76v-263h-105v721h105v-321l335 321h146zM336 -273l-45 31q25 34 25 85h-51q-7 0 -8.5 2t-1.5 9v92q0 12 10 12h111q10 0 10 -12v-68q0 -47 -10 -82t-40 -69z" />
    <glyph glyph-name="kcommaaccent" unicode="&#x137;" horiz-adv-x="564" 
d="M555 0h-134l-192 245q-4 5 -12 30l-48 -36v-239h-105v779h105v-418l222 176h160l-257 -201zM297 -273l-45 31q25 34 25 85h-51q-7 0 -8.5 2t-1.5 9v92q0 12 10 12h111q10 0 10 -12v-68q0 -47 -10 -82t-40 -69z" />
    <glyph glyph-name="kgreenlandic" unicode="&#x138;" horiz-adv-x="564" 
d="M555 0h-134l-192 245q-4 5 -12 30l-48 -36v-239h-105v537h105v-176l222 176h160l-257 -201z" />
    <glyph glyph-name="Lacute" unicode="&#x139;" horiz-adv-x="511" 
d="M477 0h-418v721h105v-626h313v-95zM408 905l-174 -129q-10 -8 -17 -2l-32 28q-7 6 0 13l153 160z" />
    <glyph glyph-name="lacute" unicode="&#x13a;" horiz-adv-x="283" 
d="M258 -9h-75q-120 0 -120 135v653h105v-653q0 -26 6.5 -34t20.5 -8h63v-93zM266 932l-174 -129q-10 -8 -17 -2l-32 28q-7 7 0 13l153 160z" />
    <glyph glyph-name="Lcommaaccent" unicode="&#x13b;" horiz-adv-x="511" 
d="M477 0h-418v721h105v-626h313v-95zM281 -273l-45 31q25 34 25 85h-51q-7 0 -8.5 2t-1.5 9v92q0 12 10 12h111q10 0 10 -12v-68q0 -47 -10 -82t-40 -69z" />
    <glyph glyph-name="lcommaaccent" unicode="&#x13c;" horiz-adv-x="283" 
d="M258 -9h-75q-120 0 -120 135v653h105v-653q0 -26 6.5 -34t20.5 -8h63v-93zM157 -273l-45 31q25 34 25 85h-51q-7 0 -8.5 2t-1.5 9v92q0 12 10 12h111q10 0 10 -12v-68q0 -47 -10 -82t-40 -69z" />
    <glyph glyph-name="Lcaron" unicode="&#x13d;" horiz-adv-x="511" 
d="M477 0h-418v721h105v-626h313v-95zM444 771l-69 -234q-2 -14 -16 -14h-35q-8 0 -10 2.5t-2 11.5l30 234h102z" />
    <glyph glyph-name="lcaron" unicode="&#x13e;" horiz-adv-x="292" 
d="M258 -9h-75q-120 0 -120 135v653h105v-653q0 -26 6.5 -34t20.5 -8h63v-93zM382 779l-69 -234q-2 -14 -16 -14h-35q-8 0 -10 2.5t-2 11.5l30 234h102z" />
    <glyph glyph-name="Ldot" unicode="&#x13f;" horiz-adv-x="511" 
d="M477 0h-418v721h105v-626h313v-95zM280 439v-111q0 -10 8 -10h115q8 0 8 10v111q0 10 -8 10h-115q-8 0 -8 -10z" />
    <glyph glyph-name="ldot" unicode="&#x140;" horiz-adv-x="442" 
d="M258 -9h-75q-120 0 -120 135v653h105v-653q0 -26 6.5 -34t20.5 -8h63v-93zM274 464v-111q0 -10 8 -10h115q8 0 8 10v111q0 10 -8 10h-115q-8 0 -8 -10z" />
    <glyph glyph-name="Lslash" unicode="&#x141;" horiz-adv-x="511" 
d="M477 0h-418v298l-58 -35v105l58 35v318h104v-257l123 74v-104l-123 -74v-265h314v-95z" />
    <glyph glyph-name="lslash" unicode="&#x142;" horiz-adv-x="283" 
d="M258 -9h-75q-120 0 -120 135v239l-66 -41v108l66 41v306h105v-242l65 40v-108l-65 -40v-303q0 -26 6.5 -34t20.5 -8h63v-93z" />
    <glyph glyph-name="Nacute" unicode="&#x143;" horiz-adv-x="707" 
d="M648 0h-94l-396 543q6 -30 6 -41v-502h-105v721h94l396 -543q0 3 -2 11t-3 16.5t-1 16.5v499h105v-721zM520 907l-174 -129q-10 -8 -17 -2l-32 28q-7 6 0 13l153 160z" />
    <glyph glyph-name="nacute" unicode="&#x144;" horiz-adv-x="580" 
d="M522 0h-105v341q0 126 -93 126q-54 0 -112 -37l-44 -28v-402h-105v537h86l15 -54l39 26q64 43 121 43q90 0 144 -52t54 -159v-341zM433 729l-174 -129q-10 -8 -17 -2l-32 28q-6 6 0 13l153 160z" />
    <glyph glyph-name="Ncommaaccent" unicode="&#x145;" horiz-adv-x="707" 
d="M648 0h-94l-396 543q6 -30 6 -41v-502h-105v721h94l396 -543q0 3 -2 11t-3 16.5t-1 16.5v499h105v-721zM369 -273l-45 31q25 34 25 85h-51q-7 0 -8.5 2t-1.5 9v92q0 12 10 12h111q10 0 10 -12v-68q0 -47 -10 -82t-40 -69z" />
    <glyph glyph-name="ncommaaccent" unicode="&#x146;" horiz-adv-x="580" 
d="M522 0h-105v341q0 126 -93 126q-54 0 -112 -37l-44 -28v-402h-105v537h86l15 -54l39 26q64 43 121 43q90 0 144 -52t54 -159v-341zM305 -273l-45 31q25 34 25 85h-51q-7 0 -8.5 2t-1.5 9v92q0 12 10 12h111q10 0 10 -12v-68q0 -47 -10 -82t-40 -69z" />
    <glyph glyph-name="Ncaron" unicode="&#x147;" horiz-adv-x="707" 
d="M648 0h-94l-396 543q6 -30 6 -41v-502h-105v721h94l396 -543q0 3 -2 11t-3 16.5t-1 16.5v499h105v-721zM523 936l-142 -149q-12 -14 -26 -14q-15 0 -29 14l-142 149l45 43l125 -107l125 107z" />
    <glyph glyph-name="ncaron" unicode="&#x148;" horiz-adv-x="580" 
d="M522 0h-105v341q0 126 -93 126q-54 0 -112 -37l-44 -28v-402h-105v537h86l15 -54l39 26q64 43 121 43q90 0 144 -52t54 -159v-341zM459 758l-142 -149q-12 -14 -26 -14q-15 0 -29 14l-142 149l45 43l125 -107l125 107z" />
    <glyph glyph-name="napostrophe" unicode="&#x149;" horiz-adv-x="794" 
d="M166 611q0 -95 -103 -170l-39 37q35 34 47.5 59t12.5 63h-29q-7 0 -8.5 1.5t-1.5 9.5v98q0 12 10 12h101q8 0 9 -1.5t1 -10.5v-98zM736 0h-105v341q0 126 -93 126q-54 0 -112 -37l-44 -28v-402h-105v537h86l15 -54l39 26q64 43 121 43q90 0 144 -52t54 -159v-341z" />
    <glyph glyph-name="Eng" unicode="&#x14a;" horiz-adv-x="707" 
d="M648 -25q0 -122 -54.5 -175t-154.5 -53q-85 0 -152 56l50 72q50 -40 101 -40q59 0 82 31t23 109v40l-385 528q6 -30 6 -41v-502h-105v721h94l390 -535v535h105v-746z" />
    <glyph glyph-name="eng" unicode="&#x14b;" horiz-adv-x="580" 
d="M522 -99q0 -66 -38 -104.5t-118 -38.5h-57v85h57q29 0 40 14t11 44v440q0 126 -93 126q-54 0 -112 -37l-44 -28v-402h-105v537h86l15 -54l39 26q64 43 121 43q90 0 144 -52t54 -159v-440z" />
    <glyph glyph-name="Omacron" unicode="&#x14c;" horiz-adv-x="683" 
d="M644 369q0 -88 -13.5 -154t-46.5 -120t-94 -82t-150 -28t-149.5 28t-93 82.5t-45.5 120t-13 153.5q0 63 7.5 114.5t28 100t53.5 81.5t87 52.5t125 19.5t125 -19.5t87.5 -52.5t54.5 -81.5t29 -100t8 -114.5zM537 369q0 142 -43 209t-154 67q-110 0 -152 -66.5t-42 -209.5
q0 -156 41.5 -224.5t152.5 -68.5t154 69t43 224zM512 799h-342v82h342v-82z" />
    <glyph glyph-name="omacron" unicode="&#x14d;" horiz-adv-x="577" 
d="M535 269q0 -138 -58 -211t-189 -73t-188.5 72.5t-57.5 211.5q0 138 57.5 210.5t188.5 72.5t189 -72.5t58 -210.5zM428 269q0 110 -32 154t-108 44t-108.5 -44t-32.5 -154t32.5 -154.5t108.5 -44.5t108 44.5t32 154.5zM459 659h-342v82h342v-82z" />
    <glyph glyph-name="Obreve" unicode="&#x14e;" horiz-adv-x="683" 
d="M644 369q0 -88 -13.5 -154t-46.5 -120t-94 -82t-150 -28t-149.5 28t-93 82.5t-45.5 120t-13 153.5q0 63 7.5 114.5t28 100t53.5 81.5t87 52.5t125 19.5t125 -19.5t87.5 -52.5t54.5 -81.5t29 -100t8 -114.5zM537 369q0 142 -43 209t-154 67q-110 0 -152 -66.5t-42 -209.5
q0 -156 41.5 -224.5t152.5 -68.5t154 69t43 224zM513 895q-31 -62 -70 -93t-101 -31t-101.5 31t-70.5 93l59 38q31 -47 54.5 -63.5t57.5 -16.5t58 16.5t55 63.5z" />
    <glyph glyph-name="obreve" unicode="&#x14f;" horiz-adv-x="577" 
d="M535 269q0 -138 -58 -211t-189 -73t-188.5 72.5t-57.5 211.5q0 138 57.5 210.5t188.5 72.5t189 -72.5t58 -210.5zM428 269q0 110 -32 154t-108 44t-108.5 -44t-32.5 -154t32.5 -154.5t108.5 -44.5t108 44.5t32 154.5zM460 746q-31 -62 -70 -93t-101 -31t-101.5 31
t-70.5 93l59 38q31 -47 54.5 -63.5t57.5 -16.5t58 16.5t55 63.5z" />
    <glyph glyph-name="Ohungarumlaut" unicode="&#x150;" horiz-adv-x="683" 
d="M644 369q0 -88 -13.5 -154t-46.5 -120t-94 -82t-150 -28t-149.5 28t-93 82.5t-45.5 120t-13 153.5q0 63 7.5 114.5t28 100t53.5 81.5t87 52.5t125 19.5t125 -19.5t87.5 -52.5t54.5 -81.5t29 -100t8 -114.5zM537 369q0 142 -43 209t-154 67q-110 0 -152 -66.5t-42 -209.5
q0 -156 41.5 -224.5t152.5 -68.5t154 69t43 224zM623 904l-174 -129q-10 -8 -17 -2l-32 28q-6 7 0 13l153 160zM390 904l-174 -129q-10 -8 -17 -2l-32 28q-7 7 0 13l153 160z" />
    <glyph glyph-name="ohungarumlaut" unicode="&#x151;" horiz-adv-x="577" 
d="M535 269q0 -138 -58 -211t-189 -73t-188.5 72.5t-57.5 211.5q0 138 57.5 210.5t188.5 72.5t189 -72.5t58 -210.5zM428 269q0 110 -32 154t-108 44t-108.5 -44t-32.5 -154t32.5 -154.5t108.5 -44.5t108 44.5t32 154.5zM570 729l-174 -129q-10 -8 -17 -2l-32 28q-7 6 0 13
l153 160zM337 729l-174 -129q-10 -8 -17 -2l-32 28q-6 6 0 13l153 160z" />
    <glyph glyph-name="OE" unicode="&#x152;" horiz-adv-x="1051" 
d="M1012 0h-471v52q-39 -33 -84 -50t-117 -17q-89 0 -149.5 28t-93 82.5t-45.5 120t-13 153.5q0 63 7.5 114.5t28 100t53.5 81.5t87 52.5t125 19.5q128 0 201 -70v54h470v-95h-366v-198h331l-27 -97h-304v-236h367v-95zM537 369q0 142 -43 209t-154 67q-110 0 -152 -66.5
t-42 -209.5q0 -156 41.5 -224.5t152.5 -68.5t154 69t43 224z" />
    <glyph glyph-name="oe" unicode="&#x153;" horiz-adv-x="962" 
d="M920 236h-387q2 -87 35 -125.5t113 -38.5q104 0 144 78l89 -34q-33 -68 -88.5 -99.5t-144.5 -31.5q-141 0 -200 81q-59 -81 -193 -81q-131 0 -188.5 72.5t-57.5 211.5q0 138 57.5 210.5t188.5 72.5q135 0 193 -80q58 80 200 80q239 0 239 -283v-33zM809 321
q-2 66 -33 105t-95 39q-74 0 -108 -31.5t-39 -112.5h275zM428 269q0 110 -32 154t-108 44t-108.5 -44t-32.5 -154t32.5 -154.5t108.5 -44.5t108 44.5t32 154.5z" />
    <glyph glyph-name="Racute" unicode="&#x154;" horiz-adv-x="609" 
d="M582 0h-127l-169 259q-9 12 -12 35h-110v-294h-105v721h232q132 0 196.5 -58.5t64.5 -157.5q0 -161 -167 -202zM445 505q0 125 -153 125h-128v-244h127q80 0 117 27t37 92zM453 906l-174 -129q-10 -8 -17 -2l-32 28q-6 7 0 13l153 160z" />
    <glyph glyph-name="racute" unicode="&#x155;" horiz-adv-x="371" 
d="M356 456q-42 6 -67 6q-55 0 -85 -25l-35 -29v-408h-105v537h86l13 -51l37 31q41 35 106 35q16 0 50 -4v-92zM348 729l-174 -129q-10 -8 -17 -2l-32 28q-7 6 0 13l153 160z" />
    <glyph glyph-name="Rcommaaccent" unicode="&#x156;" horiz-adv-x="609" 
d="M582 0h-127l-169 259q-9 12 -12 35h-110v-294h-105v721h232q132 0 196.5 -58.5t64.5 -157.5q0 -161 -167 -202zM445 505q0 125 -153 125h-128v-244h127q80 0 117 27t37 92zM320 -273l-45 31q25 34 25 85h-51q-7 0 -8.5 2t-1.5 9v92q0 12 10 12h111q10 0 10 -12v-68
q0 -47 -10 -82t-40 -69z" />
    <glyph glyph-name="rcommaaccent" unicode="&#x157;" horiz-adv-x="371" 
d="M356 456q-42 6 -67 6q-55 0 -85 -25l-35 -29v-408h-105v537h86l13 -51l37 31q41 35 106 35q16 0 50 -4v-92zM201 -273l-45 31q25 34 25 85h-51q-7 0 -8.5 2t-1.5 9v92q0 12 10 12h111q10 0 10 -12v-68q0 -47 -10 -82t-40 -69z" />
    <glyph glyph-name="Rcaron" unicode="&#x158;" horiz-adv-x="609" 
d="M582 0h-127l-169 259q-9 12 -12 35h-110v-294h-105v721h232q132 0 196.5 -58.5t64.5 -157.5q0 -161 -167 -202zM445 505q0 125 -153 125h-128v-244h127q80 0 117 27t37 92zM474 934l-142 -149q-12 -14 -26 -14q-15 0 -29 14l-142 149l45 43l125 -107l125 107z" />
    <glyph glyph-name="rcaron" unicode="&#x159;" horiz-adv-x="371" 
d="M356 456q-42 6 -67 6q-55 0 -85 -25l-35 -29v-408h-105v537h86l13 -51l37 31q41 35 106 35q16 0 50 -4v-92zM355 758l-142 -149q-12 -14 -26 -14q-15 0 -29 14l-142 149l45 43l125 -107l125 107z" />
    <glyph glyph-name="Sacute" unicode="&#x15a;" horiz-adv-x="607" 
d="M572 208q0 -100 -69 -162t-206 -62q-192 0 -260 145l88 45q53 -97 172 -97q88 0 127.5 36t39.5 95q0 93 -98 109l-152 26q-164 28 -164 196q0 87 60 142.5t192 55.5q176 0 247 -124l-89 -45q-48 77 -158 77q-80 0 -113 -27t-33 -79q0 -45 18 -66.5t64 -28.5l150 -25
q184 -31 184 -211zM456 906l-174 -129q-10 -8 -17 -2l-32 28q-7 7 0 13l153 160z" />
    <glyph glyph-name="sacute" unicode="&#x15b;" horiz-adv-x="518" 
d="M474 162q0 -91 -63.5 -134t-161.5 -43q-73 0 -129.5 29t-83.5 88l89 32q35 -65 124 -65q120 0 120 84q0 57 -60 67l-131 23q-131 22 -131 152q0 74 55.5 115.5t154.5 41.5q148 0 203 -99l-81 -41q-37 55 -121 55q-108 0 -108 -72q0 -50 53 -59l126 -21q65 -11 105 -48
t40 -105zM412 729l-174 -129q-10 -8 -17 -2l-32 28q-7 6 0 13l153 160z" />
    <glyph glyph-name="Scircumflex" unicode="&#x15c;" horiz-adv-x="607" 
d="M572 208q0 -100 -69 -162t-206 -62q-192 0 -260 145l88 45q53 -97 172 -97q88 0 127.5 36t39.5 95q0 93 -98 109l-152 26q-164 28 -164 196q0 87 60 142.5t192 55.5q176 0 247 -124l-89 -45q-48 77 -158 77q-80 0 -113 -27t-33 -79q0 -45 18 -66.5t64 -28.5l150 -25
q184 -31 184 -211zM473 814l-44 -43l-125 107l-125 -107l-45 43l143 149q12 14 26 14t28 -14z" />
    <glyph glyph-name="scircumflex" unicode="&#x15d;" horiz-adv-x="518" 
d="M474 162q0 -91 -63.5 -134t-161.5 -43q-73 0 -129.5 29t-83.5 88l89 32q35 -65 124 -65q120 0 120 84q0 57 -60 67l-131 23q-131 22 -131 152q0 74 55.5 115.5t154.5 41.5q148 0 203 -99l-81 -41q-37 55 -121 55q-108 0 -108 -72q0 -50 53 -59l126 -21q65 -11 105 -48
t40 -105zM428 638l-44 -43l-125 107l-125 -107l-45 43l143 149q12 14 26 14t28 -14z" />
    <glyph glyph-name="uni015E" unicode="&#x15e;" horiz-adv-x="607" 
d="M572 208q0 -99 -68 -161t-203 -63l-21 -25h25q55 0 81 -18t26 -62q0 -85 -113 -85q-59 0 -104 20l16 37q42 -13 78 -13q57 0 57 41q0 32 -41 32h-57l-29 46l24 31q-149 19 -206 141l88 45q53 -97 172 -97q88 0 127.5 36t39.5 95q0 93 -98 109l-152 26q-164 28 -164 196
q0 87 60 142.5t192 55.5q176 0 247 -124l-89 -45q-48 77 -158 77q-80 0 -113 -27t-33 -79q0 -45 18 -66.5t64 -28.5l150 -25q184 -31 184 -211z" />
    <glyph glyph-name="uni015F" unicode="&#x15f;" horiz-adv-x="518" 
d="M367 -121q0 -85 -113 -85q-59 0 -104 20l16 37q42 -13 78 -13q57 0 57 41q0 32 -41 32h-57l-29 46l25 32q-119 18 -163 113l89 32q35 -65 124 -65q120 0 120 84q0 57 -60 67l-131 23q-131 22 -131 152q0 74 55.5 115.5t154.5 41.5q148 0 203 -99l-81 -41q-37 55 -121 55
q-108 0 -108 -72q0 -50 53 -59l126 -21q65 -11 105 -48t40 -105q0 -89 -61 -132t-156 -45l-22 -26h25q55 0 81 -18t26 -62z" />
    <glyph glyph-name="Scaron" unicode="&#x160;" horiz-adv-x="607" 
d="M572 208q0 -100 -69 -162t-206 -62q-192 0 -260 145l88 45q53 -97 172 -97q88 0 127.5 36t39.5 95q0 93 -98 109l-152 26q-164 28 -164 196q0 87 60 142.5t192 55.5q176 0 247 -124l-89 -45q-48 77 -158 77q-80 0 -113 -27t-33 -79q0 -45 18 -66.5t64 -28.5l150 -25
q184 -31 184 -211zM473 934l-142 -149q-12 -14 -26 -14q-15 0 -29 14l-142 149l45 43l125 -107l125 107z" />
    <glyph glyph-name="scaron" unicode="&#x161;" horiz-adv-x="518" 
d="M474 162q0 -91 -63.5 -134t-161.5 -43q-73 0 -129.5 29t-83.5 88l89 32q35 -65 124 -65q120 0 120 84q0 57 -60 67l-131 23q-131 22 -131 152q0 74 55.5 115.5t154.5 41.5q148 0 203 -99l-81 -41q-37 55 -121 55q-108 0 -108 -72q0 -50 53 -59l126 -21q65 -11 105 -48
t40 -105zM428 758l-142 -149q-12 -14 -26 -14q-15 0 -29 14l-142 149l45 43l125 -107l125 107z" />
    <glyph glyph-name="Tcommaaccent" unicode="&#x162;" horiz-adv-x="596" 
d="M567 630h-216v-630h-105v630h-217v91h538v-91zM313 -273l-45 31q25 34 25 85h-51q-7 0 -8.5 2t-1.5 9v92q0 12 10 12h111q10 0 10 -12v-68q0 -47 -10 -82t-40 -69z" />
    <glyph glyph-name="tcommaaccent" unicode="&#x163;" horiz-adv-x="431" 
d="M426 43q-63 -58 -156 -58q-73 0 -120 35t-47 117v279q0 16 10 34h-98v87h88v182l105 31v-213h189l-28 -87h-161v-313q0 -33 19.5 -49t49.5 -16q41 0 88 32zM231 -273l-45 31q25 34 25 85h-51q-7 0 -8.5 2t-1.5 9v92q0 12 10 12h111q10 0 10 -12v-68q0 -47 -10 -82
t-40 -69z" />
    <glyph glyph-name="Tcaron" unicode="&#x164;" horiz-adv-x="596" 
d="M567 630h-216v-630h-105v630h-217v91h538v-91zM467 934l-142 -149q-12 -14 -26 -14q-15 0 -29 14l-142 149l45 43l125 -107l125 107z" />
    <glyph glyph-name="tcaron" unicode="&#x165;" horiz-adv-x="501" 
d="M426 43q-63 -58 -156 -58q-73 0 -120 35t-47 117v279q0 16 10 34h-98v87h88v182l105 31v-213h189l-28 -87h-161v-313q0 -33 19.5 -49t49.5 -16q41 0 88 32zM591 779l-69 -234q-2 -14 -16 -14h-35q-8 0 -10 2.5t-2 11.5l30 234h102z" />
    <glyph glyph-name="Tbar" unicode="&#x166;" horiz-adv-x="596" 
d="M567 400h-216v-400h-105v400h-217v91h217v139h-217v91h538v-91h-216v-139h216v-91z" />
    <glyph glyph-name="tbar" unicode="&#x167;" horiz-adv-x="431" 
d="M208 270v-133q0 -33 19.5 -49t49.5 -16q41 0 88 32l61 -61q-63 -58 -156 -58q-73 0 -120 35t-47 117v133h-88v87h88v59q0 16 10 34h-98v87h88v182l105 31v-213h189l-28 -87h-161v-93h189l-28 -87h-161z" />
    <glyph glyph-name="Utilde" unicode="&#x168;" horiz-adv-x="692" 
d="M638 298q0 -161 -78.5 -237t-214.5 -76t-213.5 76t-77.5 237v423h105v-423q0 -117 46 -169.5t140 -52.5t141 52.5t47 169.5v423h105v-423zM535 890l-72 -90q-21 -26 -45 -26q-18 0 -40 12l-86 43q-9 4 -16 4q-8 0 -15 -7l-49 -53l-55 37l68 89q20 27 43 27q17 0 41 -12
l87 -43q14 -7 19 -7t12 7l51 56z" />
    <glyph glyph-name="utilde" unicode="&#x169;" horiz-adv-x="580" 
d="M517 0h-86l-15 54l-39 -26q-64 -43 -121 -43q-90 0 -144 52t-54 159v341h105v-341q0 -126 93 -126q54 0 112 37l44 28v402h105v-537zM479 735l-72 -90q-21 -26 -45 -26q-18 0 -40 12l-86 43q-9 4 -16 4q-8 0 -15 -7l-49 -53l-55 37l68 89q20 27 43 27q17 0 41 -12l87 -43
q14 -7 19 -7t12 7l51 56z" />
    <glyph glyph-name="Umacron" unicode="&#x16a;" horiz-adv-x="692" 
d="M638 298q0 -161 -78.5 -237t-214.5 -76t-213.5 76t-77.5 237v423h105v-423q0 -117 46 -169.5t140 -52.5t141 52.5t47 169.5v423h105v-423zM517 799h-342v82h342v-82z" />
    <glyph glyph-name="umacron" unicode="&#x16b;" horiz-adv-x="580" 
d="M517 0h-86l-15 54l-39 -26q-64 -43 -121 -43q-90 0 -144 52t-54 159v341h105v-341q0 -126 93 -126q54 0 112 37l44 28v402h105v-537zM461 659h-342v82h342v-82z" />
    <glyph glyph-name="Ubreve" unicode="&#x16c;" horiz-adv-x="692" 
d="M638 298q0 -161 -78.5 -237t-214.5 -76t-213.5 76t-77.5 237v423h105v-423q0 -117 46 -169.5t140 -52.5t141 52.5t47 169.5v423h105v-423zM517 895q-31 -62 -70 -93t-101 -31t-101.5 31t-70.5 93l59 38q31 -47 54.5 -63.5t57.5 -16.5t58 16.5t55 63.5z" />
    <glyph glyph-name="ubreve" unicode="&#x16d;" horiz-adv-x="580" 
d="M517 0h-86l-15 54l-39 -26q-64 -43 -121 -43q-90 0 -144 52t-54 159v341h105v-341q0 -126 93 -126q54 0 112 37l44 28v402h105v-537zM461 746q-31 -62 -70 -93t-101 -31t-101.5 31t-70.5 93l59 38q31 -47 54.5 -63.5t57.5 -16.5t58 16.5t55 63.5z" />
    <glyph glyph-name="Uring" unicode="&#x16e;" horiz-adv-x="692" 
d="M638 298q0 -161 -78.5 -237t-214.5 -76t-213.5 76t-77.5 237v423h105v-423q0 -117 46 -169.5t140 -52.5t141 52.5t47 169.5v423h105v-423zM459 877q0 -47 -33.5 -80t-79.5 -33t-79.5 33t-33.5 80t33.5 80t79.5 33t79.5 -33t33.5 -80zM397 877q0 20 -15.5 34.5t-35.5 14.5
t-35 -14.5t-15 -34.5t15 -35t35 -15t35.5 15t15.5 35z" />
    <glyph glyph-name="uring" unicode="&#x16f;" horiz-adv-x="580" 
d="M517 0h-86l-15 54l-39 -26q-64 -43 -121 -43q-90 0 -144 52t-54 159v341h105v-341q0 -126 93 -126q54 0 112 37l44 28v402h105v-537zM403 709q0 -47 -33.5 -80t-79.5 -33t-79.5 33t-33.5 80t33.5 80t79.5 33t79.5 -33t33.5 -80zM341 709q0 20 -15.5 34.5t-35.5 14.5
t-35 -14.5t-15 -34.5t15 -35t35 -15t35.5 15t15.5 35z" />
    <glyph glyph-name="Uhungarumlaut" unicode="&#x170;" horiz-adv-x="692" 
d="M638 298q0 -161 -78.5 -237t-214.5 -76t-213.5 76t-77.5 237v423h105v-423q0 -117 46 -169.5t140 -52.5t141 52.5t47 169.5v423h105v-423zM617 903l-174 -129q-10 -8 -17 -2l-32 28q-6 6 0 13l153 160zM384 903l-174 -129q-10 -8 -17 -2l-32 28q-7 6 0 13l153 160z" />
    <glyph glyph-name="uhungarumlaut" unicode="&#x171;" horiz-adv-x="580" 
d="M517 0h-86l-15 54l-39 -26q-64 -43 -121 -43q-90 0 -144 52t-54 159v341h105v-341q0 -126 93 -126q54 0 112 37l44 28v402h105v-537zM571 729l-174 -129q-10 -8 -17 -2l-32 28q-6 6 0 13l153 160zM338 729l-174 -129q-10 -8 -17 -2l-32 28q-7 6 0 13l153 160z" />
    <glyph glyph-name="Uogonek" unicode="&#x172;" horiz-adv-x="692" 
d="M638 298q0 -197 -122 -271h1l-117 -109q-13 -13 -13 -32q0 -40 53 -40q33 0 77 13l16 -39q-51 -22 -107 -22q-48 0 -79 21t-31 67q0 34 38 67l37 34q-30 -2 -46 -2q-136 0 -213.5 76t-77.5 237v423h105v-423q0 -117 46 -169.5t140 -52.5t141 52.5t47 169.5v423h105v-423z
" />
    <glyph glyph-name="uogonek" unicode="&#x173;" horiz-adv-x="580" 
d="M517 0l-87 -61q-28 -19 -35.5 -29.5t-7.5 -23.5q0 -40 53 -40q33 0 77 13l16 -39q-51 -22 -107 -22q-48 0 -79 21t-31 67q0 45 51 83l60 44l-11 41l-39 -26q-64 -43 -121 -43q-90 0 -144 52t-54 159v341h105v-341q0 -126 93 -126q54 0 112 37l44 28v402h105v-537z" />
    <glyph glyph-name="Wcircumflex" unicode="&#x174;" horiz-adv-x="870" 
d="M855 721l-171 -721h-118l-132 501l-131 -501h-117l-171 721h108l117 -492q6 -24 10 -77q5 56 11 77l123 470h102l124 -481q6 -24 9 -72q2 39 9 72l119 503h108zM604 814l-44 -43l-125 107l-125 -107l-45 43l143 149q12 14 26 14t28 -14z" />
    <glyph glyph-name="wcircumflex" unicode="&#x175;" horiz-adv-x="804" 
d="M786 537l-172 -537h-95l-102 310q-13 37 -15 66q-2 -25 -16 -66l-102 -310h-95l-172 537h103l101 -316q9 -26 15 -96q8 65 18 94l102 318h91l102 -318q10 -29 18 -94q6 70 15 96l101 316h103zM571 638l-44 -43l-125 107l-125 -107l-45 43l143 149q12 14 26 14t28 -14z
" />
    <glyph glyph-name="Ycircumflex" unicode="&#x176;" horiz-adv-x="641" 
d="M633 721l-259 -430v-291h-105v291l-261 430h117l184 -304q8 -12 12 -38q7 30 13 40l183 302h116zM490 814l-44 -43l-125 107l-125 -107l-45 43l143 149q12 14 26 14t28 -14z" />
    <glyph glyph-name="ycircumflex" unicode="&#x177;" horiz-adv-x="549" 
d="M534 537l-253 -672q-22 -59 -61.5 -83t-109.5 -24h-80v93h80q35 0 48 9.5t28 46.5l34 86l-205 544h111l128 -343q16 -43 21 -84q8 50 22 84l128 343h109zM444 638l-44 -43l-125 107l-125 -107l-45 43l143 149q12 14 26 14t28 -14z" />
    <glyph glyph-name="Ydieresis" unicode="&#x178;" horiz-adv-x="641" 
d="M633 721l-259 -430v-291h-105v291l-261 430h117l184 -304q8 -12 12 -38q7 30 13 40l183 302h116zM153 904v-98q0 -8 7 -8h97q7 0 7 8v98q0 8 -7 8h-97q-7 0 -7 -8zM376 904v-98q0 -8 7 -8h97q7 0 7 8v98q0 8 -7 8h-97q-7 0 -7 -8z" />
    <glyph glyph-name="Zacute" unicode="&#x179;" horiz-adv-x="576" 
d="M537 636l-348 -515q-10 -16 -27 -26h367v-95h-490v84l347 514q10 15 28 28h-347l-28 95h498v-85zM451 905l-174 -129q-10 -8 -17 -2l-32 28q-6 6 0 13l153 160z" />
    <glyph glyph-name="zacute" unicode="&#x17a;" horiz-adv-x="512" 
d="M467 0h-419v90l251 314q25 31 45 43h-272l-29 90h421v-90l-248 -310q-3 -4 -8.5 -11.5t-8.5 -11t-8 -8.5t-10.5 -8.5t-13.5 -7.5h300v-90zM414 729l-174 -129q-10 -8 -17 -2l-32 28q-7 6 0 13l153 160z" />
    <glyph glyph-name="Zdotaccent" unicode="&#x17b;" horiz-adv-x="576" 
d="M537 636l-348 -515q-10 -16 -27 -26h367v-95h-490v84l347 514q10 15 28 28h-347l-28 95h498v-85zM222 920v-111q0 -10 8 -10h115q8 0 8 10v111q0 10 -8 10h-115q-8 0 -8 -10z" />
    <glyph glyph-name="zdotaccent" unicode="&#x17c;" horiz-adv-x="512" 
d="M467 0h-419v90l251 314q25 31 45 43h-272l-29 90h421v-90l-248 -310q-3 -4 -8.5 -11.5t-8.5 -11t-8 -8.5t-10.5 -8.5t-13.5 -7.5h300v-90zM190 741v-111q0 -10 8 -10h115q8 0 8 10v111q0 10 -8 10h-115q-8 0 -8 -10z" />
    <glyph glyph-name="Zcaron" unicode="&#x17d;" horiz-adv-x="576" 
d="M537 636l-348 -515q-10 -16 -27 -26h367v-95h-490v84l347 514q10 15 28 28h-347l-28 95h498v-85zM467 934l-142 -149q-12 -14 -26 -14q-15 0 -29 14l-142 149l45 43l125 -107l125 107z" />
    <glyph glyph-name="zcaron" unicode="&#x17e;" horiz-adv-x="512" 
d="M467 0h-419v90l251 314q25 31 45 43h-272l-29 90h421v-90l-248 -310q-3 -4 -8.5 -11.5t-8.5 -11t-8 -8.5t-10.5 -8.5t-13.5 -7.5h300v-90zM425 758l-142 -149q-12 -14 -26 -14q-15 0 -29 14l-142 149l45 43l125 -107l125 107z" />
    <glyph glyph-name="florin" unicode="&#x192;" 
d="M560 706l-26 -77q-44 11 -78 11q-33 0 -49.5 -22t-23.5 -77l-13 -108h166l-29 -87h-146l-33 -283q-21 -175 -177 -175q-55 0 -103 13l27 79q45 -10 74 -10q38 0 53.5 20t22.5 76l31 260q0 10 9 20h-133l29 87h107l12 111q18 177 168 177q57 0 112 -15z" />
    <glyph glyph-name="AEacute" unicode="&#x1fc;" horiz-adv-x="1028" 
d="M989 0h-481v215h-236l-135 -215h-124l448 721h527v-95h-374v-198h339l-28 -97h-314q3 -21 3 -24v-212h375v-95zM508 314v278l-174 -278h174zM771 907l-174 -129q-10 -8 -17 -2l-32 28q-6 6 0 13l153 160z" />
    <glyph glyph-name="aeacute" unicode="&#x1fd;" horiz-adv-x="910" 
d="M868 236h-377q2 -82 35 -123.5t110 -41.5q53 0 86 18.5t54 60.5l89 -34q-34 -69 -87 -100t-142 -31q-136 0 -192 89q-53 -36 -73.5 -48.5t-62.5 -26.5t-88 -14q-95 0 -142 49t-47 132q0 172 203 172q72 0 147 -17v69q0 39 -23 57.5t-76 18.5q-101 0 -145 -64l-78 46
q61 104 225 104q128 0 176 -66q57 66 177 66q59 0 102.5 -16.5t67.5 -42t38.5 -65t18.5 -75.5t4 -84v-33zM761 321q-2 72 -31.5 109t-94.5 37q-67 0 -100.5 -33.5t-41.5 -112.5h268zM381 126v117q-82 13 -125 13q-120 0 -120 -90q0 -95 84 -95q78 0 161 55zM660 729
l-174 -129q-10 -8 -17 -2l-32 28q-7 6 0 13l153 160z" />
    <glyph glyph-name="Oslashacute" unicode="&#x1fe;" horiz-adv-x="683" 
d="M697 746l-104 -135q51 -89 51 -242q0 -88 -13.5 -154t-46.5 -120t-94 -82t-150 -28q-120 0 -189 52l-48 -62h-97l92 119q-59 90 -59 275q0 63 7.5 114.5t28 100t53.5 81.5t87 52.5t125 19.5q131 0 204 -65l57 74h96zM482 592q-47 53 -142 53q-110 0 -152 -66.5
t-42 -209.5q0 -121 22 -184zM537 369q0 90 -16 148l-309 -401q44 -40 128 -40q111 0 154 69t43 224zM502 907l-174 -129q-10 -8 -17 -2l-32 28q-7 6 0 13l153 160z" />
    <glyph glyph-name="oslashacute" unicode="&#x1ff;" horiz-adv-x="577" 
d="M585 552l-88 -104q37 -71 37 -179q0 -138 -58 -211t-188 -73q-93 0 -148 35l-31 -35h-94l74 87q-47 73 -47 197q0 138 58 210.5t188 72.5q104 0 164 -47l40 47h93zM389 432q-31 33 -101 33q-76 0 -108.5 -43t-32.5 -153q0 -60 14 -113zM427 269q0 46 -7 88l-220 -264
q31 -21 88 -21q76 0 107.5 43.5t31.5 153.5zM441 729l-174 -129q-10 -8 -17 -2l-32 28q-6 6 0 13l153 160z" />
    <glyph glyph-name="uni0218" unicode="&#x218;" horiz-adv-x="607" 
d="M572 208q0 -100 -69 -162t-206 -62q-192 0 -260 145l88 45q53 -97 172 -97q88 0 127.5 36t39.5 95q0 93 -98 109l-152 26q-164 28 -164 196q0 87 60 142.5t192 55.5q176 0 247 -124l-89 -45q-48 77 -158 77q-80 0 -113 -27t-33 -79q0 -45 18 -66.5t64 -28.5l150 -25
q184 -31 184 -211zM319 -273l-45 31q25 34 25 85h-51q-7 0 -8.5 2t-1.5 9v92q0 12 10 12h111q10 0 10 -12v-68q0 -47 -10 -82t-40 -69z" />
    <glyph glyph-name="uni0219" unicode="&#x219;" horiz-adv-x="518" 
d="M474 162q0 -91 -63.5 -134t-161.5 -43q-73 0 -129.5 29t-83.5 88l89 32q35 -65 124 -65q120 0 120 84q0 57 -60 67l-131 23q-131 22 -131 152q0 74 55.5 115.5t154.5 41.5q148 0 203 -99l-81 -41q-37 55 -121 55q-108 0 -108 -72q0 -50 53 -59l126 -21q65 -11 105 -48
t40 -105zM274 -273l-45 31q25 34 25 85h-51q-7 0 -8.5 2t-1.5 9v92q0 12 10 12h111q10 0 10 -12v-68q0 -47 -10 -82t-40 -69z" />
    <glyph glyph-name="circumflex" unicode="&#x2c6;" horiz-adv-x="451" 
d="M395 638l-44 -43l-125 107l-125 -107l-45 43l143 149q12 14 26 14t28 -14z" />
    <glyph glyph-name="caron" unicode="&#x2c7;" horiz-adv-x="451" 
d="M394 758l-142 -149q-12 -14 -26 -14q-15 0 -29 14l-142 149l45 43l125 -107l125 107z" />
    <glyph glyph-name="uni02C9" unicode="&#x2c9;" horiz-adv-x="458" 
d="M400 659h-342v82h342v-82z" />
    <glyph glyph-name="breve" unicode="&#x2d8;" horiz-adv-x="451" 
d="M398 746q-31 -62 -70 -93t-101 -31t-101.5 31t-70.5 93l59 38q31 -47 54.5 -63.5t57.5 -16.5t58 16.5t55 63.5z" />
    <glyph glyph-name="dotaccent" unicode="&#x2d9;" horiz-adv-x="247" 
d="M58 741v-111q0 -10 8 -10h115q8 0 8 10v111q0 10 -8 10h-115q-8 0 -8 -10z" />
    <glyph glyph-name="ring" unicode="&#x2da;" horiz-adv-x="324" 
d="M275 709q0 -47 -33.5 -80t-79.5 -33t-79.5 33t-33.5 80t33.5 80t79.5 33t79.5 -33t33.5 -80zM213 709q0 20 -15.5 34.5t-35.5 14.5t-35 -14.5t-15 -34.5t15 -35t35 -15t35.5 15t15.5 35z" />
    <glyph glyph-name="ogonek" unicode="&#x2db;" horiz-adv-x="289" 
d="M268 -180q-51 -22 -107 -22q-48 0 -79 21t-31 67q0 34 38 67l66 60h76l-96 -95q-13 -13 -13 -32q0 -40 53 -40q33 0 77 13z" />
    <glyph glyph-name="tilde" unicode="&#x2dc;" horiz-adv-x="468" 
d="M428 735l-72 -90q-21 -26 -45 -26q-17 0 -40 12l-86 43q-9 4 -16 4q-8 0 -15 -7l-49 -53l-55 37l68 89q20 27 43 27q17 0 41 -12l87 -43q14 -7 19 -7t12 7l51 56z" />
    <glyph glyph-name="hungarumlaut" unicode="&#x2dd;" horiz-adv-x="347" 
d="M515 729l-174 -129q-10 -8 -17 -2l-32 28q-6 6 0 13l153 160zM282 729l-174 -129q-10 -8 -17 -2l-32 28q-7 6 0 13l153 160z" />
    <glyph glyph-name="uni03A9" unicode="&#x3a9;" horiz-adv-x="720" 
d="M626 421q0 -249 -192 -283v-63h168v-75h-232v191q84 5 117 59t33 162q0 113 -45.5 176t-154.5 63t-154.5 -62.5t-45.5 -174.5q0 -110 32.5 -164t117.5 -59v-191h-233v75h169v63q-192 34 -192 284q0 65 15 118.5t48.5 99t95.5 71.5t147 26t146.5 -26t95 -71.5t49 -99.5
t15.5 -119z" />
    <glyph glyph-name="uni03BC" unicode="&#x3bc;" horiz-adv-x="580" 
d="M517 0h-86l-15 54l-39 -26q-64 -43 -121 -43q-52 0 -93 18v-245h-105v779h105v-341q0 -126 93 -126q54 0 112 37l44 28v402h105v-537z" />
    <glyph glyph-name="pi" unicode="&#x3c0;" horiz-adv-x="720" 
d="M623 -8h-63q-126 0 -126 139v323h-236v-454h-104v453h-76v91h595v-91h-75v-322q0 -32 10.5 -45t34.5 -13h40v-81z" />
    <glyph glyph-name="Wgrave" unicode="&#x1e80;" horiz-adv-x="870" 
d="M855 721l-171 -721h-118l-132 501l-131 -501h-117l-171 721h108l117 -492q6 -24 10 -77q5 56 11 77l123 470h102l124 -481q6 -24 9 -72q2 39 9 72l119 503h108zM281 905l72 70l152 -159q7 -7 0 -14l-31 -28q-7 -7 -19 2z" />
    <glyph glyph-name="wgrave" unicode="&#x1e81;" horiz-adv-x="804" 
d="M786 537l-172 -537h-95l-102 310q-13 37 -15 66q-2 -25 -16 -66l-102 -310h-95l-172 537h103l101 -316q9 -26 15 -96q8 65 18 94l102 318h91l102 -318q10 -29 18 -94q6 70 15 96l101 316h103zM248 729l72 70l152 -159q7 -7 0 -14l-31 -28q-7 -7 -19 2z" />
    <glyph glyph-name="Wacute" unicode="&#x1e82;" horiz-adv-x="870" 
d="M855 721l-171 -721h-118l-132 501l-131 -501h-117l-171 721h108l117 -492q6 -24 10 -77q5 56 11 77l123 470h102l124 -481q6 -24 9 -72q2 39 9 72l119 503h108zM598 906l-174 -129q-10 -8 -17 -2l-32 28q-7 7 0 13l153 160z" />
    <glyph glyph-name="wacute" unicode="&#x1e83;" horiz-adv-x="804" 
d="M786 537l-172 -537h-95l-102 310q-13 37 -15 66q-2 -25 -16 -66l-102 -310h-95l-172 537h103l101 -316q9 -26 15 -96q8 65 18 94l102 318h91l102 -318q10 -29 18 -94q6 70 15 96l101 316h103zM555 729l-174 -129q-10 -8 -17 -2l-32 28q-6 6 0 13l153 160z" />
    <glyph glyph-name="Wdieresis" unicode="&#x1e84;" horiz-adv-x="870" 
d="M855 721l-171 -721h-118l-132 501l-131 -501h-117l-171 721h108l117 -492q6 -24 10 -77q5 56 11 77l123 470h102l124 -481q6 -24 9 -72q2 39 9 72l119 503h108zM268 904v-98q0 -8 7 -8h97q7 0 7 8v98q0 8 -7 8h-97q-7 0 -7 -8zM491 904v-98q0 -8 7 -8h97q7 0 7 8v98
q0 8 -7 8h-97q-7 0 -7 -8z" />
    <glyph glyph-name="wdieresis" unicode="&#x1e85;" horiz-adv-x="804" 
d="M786 537l-172 -537h-95l-102 310q-13 37 -15 66q-2 -25 -16 -66l-102 -310h-95l-172 537h103l101 -316q9 -26 15 -96q8 65 18 94l102 318h91l102 -318q10 -29 18 -94q6 70 15 96l101 316h103zM235 758v-98q0 -8 7 -8h97q7 0 7 8v98q0 8 -7 8h-97q-7 0 -7 -8zM458 758v-98
q0 -8 7 -8h97q7 0 7 8v98q0 8 -7 8h-97q-7 0 -7 -8z" />
    <glyph glyph-name="Ygrave" unicode="&#x1ef2;" horiz-adv-x="641" 
d="M633 721l-259 -430v-291h-105v291l-261 430h117l184 -304q8 -12 12 -38q7 30 13 40l183 302h116zM177 906l72 70l152 -159q7 -7 0 -14l-31 -28q-7 -7 -19 2z" />
    <glyph glyph-name="ygrave" unicode="&#x1ef3;" horiz-adv-x="549" 
d="M534 537l-253 -672q-22 -59 -61.5 -83t-109.5 -24h-80v93h80q35 0 48 9.5t28 46.5l34 86l-205 544h111l128 -343q16 -43 21 -84q8 50 22 84l128 343h109zM121 729l72 70l152 -159q7 -7 0 -14l-31 -28q-7 -7 -19 2z" />
    <glyph glyph-name="endash" unicode="&#x2013;" horiz-adv-x="457" 
d="M431 247h-405v96h405v-96z" />
    <glyph glyph-name="emdash" unicode="&#x2014;" horiz-adv-x="909" 
d="M883 247h-857v96h857v-96z" />
    <glyph glyph-name="quoteleft" unicode="&#x2018;" horiz-adv-x="214" 
d="M190 755q-35 -34 -47.5 -59t-12.5 -63h29q7 0 8.5 -1.5t1.5 -9.5v-98q0 -12 -10 -12h-101q-8 0 -9 1.5t-1 10.5v98q0 95 103 170z" />
    <glyph glyph-name="quoteright" unicode="&#x2019;" horiz-adv-x="214" 
d="M166 611q0 -95 -103 -170l-39 37q35 34 47.5 59t12.5 63h-29q-7 0 -8.5 1.5t-1.5 9.5v98q0 12 10 12h101q8 0 9 -1.5t1 -10.5v-98z" />
    <glyph glyph-name="quotesinglbase" unicode="&#x201a;" horiz-adv-x="214" 
d="M170 12q0 -50 -30 -98t-82 -86l-42 39q39 38 52.5 65t13.5 69h-33q-7 0 -8.5 1.5t-1.5 9.5v107q0 12 10 12h111q8 0 9 -1.5t1 -10.5v-107z" />
    <glyph glyph-name="quotedblleft" unicode="&#x201c;" horiz-adv-x="407" 
d="M383 756q-35 -34 -47.5 -59t-12.5 -63h29q8 0 9 -1.5t1 -9.5v-98q0 -9 -1 -10.5t-9 -1.5h-101q-7 0 -8.5 1.5t-1.5 10.5v98q0 95 103 170zM173 756q-35 -34 -47.5 -59t-12.5 -63h29q8 0 9 -1.5t1 -9.5v-98q0 -9 -1 -10.5t-9 -1.5h-101q-7 0 -8.5 1.5t-1.5 10.5v98
q0 95 103 170z" />
    <glyph glyph-name="quotedblright" unicode="&#x201d;" horiz-adv-x="407" 
d="M376 611q0 -95 -103 -170l-39 37q35 34 47.5 59t12.5 63h-29q-7 0 -8.5 1.5t-1.5 9.5v98q0 12 10 12h101q8 0 9 -1.5t1 -10.5v-98zM166 611q0 -95 -103 -170l-39 37q35 34 47.5 59t12.5 63h-29q-7 0 -8.5 1.5t-1.5 9.5v98q0 12 10 12h101q8 0 9 -1.5t1 -10.5v-98z" />
    <glyph glyph-name="quotedblbase" unicode="&#x201e;" horiz-adv-x="407" 
d="M382 12q0 -50 -30 -98t-82 -86l-42 39q39 38 52.5 65t13.5 69h-33q-7 0 -8.5 1.5t-1.5 9.5v107q0 12 10 12h111q8 0 9 -1.5t1 -10.5v-107zM151 12q0 -50 -30 -98t-82 -86l-42 39q39 38 52.5 65t13.5 69h-33q-8 0 -9 1.5t-1 9.5v107q0 9 1 10.5t9 1.5h111q7 0 8.5 -1.5
t1.5 -10.5v-107z" />
    <glyph glyph-name="dagger" unicode="&#x2020;" horiz-adv-x="545" 
d="M518 423h-177l-21 7l5 -24v-406h-103v406l7 24l-25 -7h-177v101h177l25 -6l-7 24v237h103v-237l-5 -24l21 6h177v-101z" />
    <glyph glyph-name="daggerdbl" unicode="&#x2021;" horiz-adv-x="545" 
d="M518 244h-177l-21 7l5 -22v-229h-103v228l7 23l-25 -7h-177v101h177l25 -6l-7 24v63l7 23l-25 -6h-177v100h177l25 -5l-7 24v217h103v-217l-5 -24l21 5h177v-100h-177l-21 6l5 -23v-63l-5 -24l21 6h177v-101z" />
    <glyph glyph-name="bullet" unicode="&#x2022;" horiz-adv-x="454" 
d="M406 288q0 -74 -52.5 -126.5t-126.5 -52.5t-126.5 52.5t-52.5 126.5t52.5 127t126.5 53t126.5 -53t52.5 -127z" />
    <glyph glyph-name="ellipsis" unicode="&#x2026;" horiz-adv-x="676" 
d="M629 10q0 -7 -1.5 -8.5t-7.5 -1.5h-109q-9 0 -9 10v110q0 8 1.5 9.5t7.5 1.5h109q6 0 7.5 -1.5t1.5 -9.5v-110zM409 3l-1 -2q-1 -1 -2 -1h-5h-109q-9 0 -9 10v110q0 8 1.5 9.5t7.5 1.5h109h5l2 -1q1 -1 1 -10v-110v-7zM174 10q0 -7 -1.5 -8.5t-7.5 -1.5h-109h-5l-2 1
q-1 1 -1 9v110q0 9 1 10t2 1h5h109q6 0 7.5 -1.5t1.5 -9.5v-110z" />
    <glyph glyph-name="perthousand" unicode="&#x2030;" horiz-adv-x="1289" 
d="M750 737l-490 -752h-83l490 752h83zM359 520q0 -41 -3 -71t-12 -60.5t-24.5 -49.5t-42.5 -31t-65 -12t-65 12t-42.5 31t-24.5 49.5t-12 60.5t-3 71q0 49 6 84.5t21 67t45 47.5t75 16q85 0 116 -56.5t31 -158.5zM282 520q0 81 -13 114.5t-57 33.5t-57.5 -33.5
t-13.5 -114.5q0 -85 13.5 -121t57.5 -36t57 36t13 121zM867 208q0 -41 -3 -71t-12 -60.5t-24.5 -49.5t-42.5 -31t-65 -12t-65 12t-42.5 31t-24.5 49.5t-12 60.5t-3 71q0 49 6 84.5t21 67t45 47.5t75 16q85 0 116 -56.5t31 -158.5zM790 208q0 81 -13 114.5t-57 33.5
t-57.5 -33.5t-13.5 -114.5q0 -85 13.5 -121t57.5 -36t57 36t13 121zM1224 208q0 -41 -3 -71t-12 -60.5t-24.5 -49.5t-42.5 -31t-65 -12t-65 12t-42.5 31t-24.5 49.5t-12 60.5t-3 71q0 49 6 84.5t21 67t45 47.5t75 16q85 0 116 -56.5t31 -158.5zM1147 208q0 81 -13 114.5
t-57 33.5t-57.5 -33.5t-13.5 -114.5q0 -85 13.5 -121t57.5 -36t57 36t13 121z" />
    <glyph glyph-name="guilsinglleft" unicode="&#x2039;" horiz-adv-x="334" 
d="M285 123l-56 -46l-180 192l180 192l56 -47l-124 -145z" />
    <glyph glyph-name="guilsinglright" unicode="&#x203a;" horiz-adv-x="334" 
d="M285 269l-180 -192l-56 46l123 146l-123 145l56 47z" />
    <glyph glyph-name="fraction" unicode="&#x2044;" horiz-adv-x="390" 
d="M540 737l-484 -752h-83l484 752h83z" />
    <glyph glyph-name="n.superior" unicode="&#x207f;" horiz-adv-x="364" 
d="M324 305h-72v207q0 69 -50 69q-31 0 -87 -36v-240h-72v327h59l8 -28q49 37 106 37q46 0 77 -32t31 -97v-207z" />
    <glyph glyph-name="Euro" unicode="&#x20ac;" 
d="M576 145q-14 -34 -30 -59t-41.5 -50t-65 -38t-90.5 -13q-67 0 -116 20.5t-78.5 58.5t-45.5 82.5t-23 102.5h-86l27 73h54q0 6 -0.5 19t-0.5 20v27h-70l28 72h46q5 61 18.5 107t41.5 86.5t78.5 62t120.5 21.5q60 0 104 -18t68.5 -50t36.5 -67.5t15 -78.5h-92
q-8 59 -36.5 90.5t-96.5 31.5q-45 0 -76 -14.5t-47 -42.5t-23.5 -58t-9.5 -70h305l-26 -72h-280v-27v-39h260l-27 -73h-228q10 -79 45.5 -126t113.5 -47q54 0 85.5 24.5t56.5 87.5z" />
    <glyph glyph-name="afii61289" unicode="&#x2113;" horiz-adv-x="392" 
d="M314 600q0 -72 -36.5 -148.5t-117.5 -140.5v-180q0 -32 11 -45t35 -13h40v-81h-64q-125 0 -125 139v125l-17 -8.5l-20 -10l-17 -8.5l-18 53q32 16 72 39v246q0 47 5 82t19 68t42.5 50.5t71.5 17.5q29 0 50 -7.5t33.5 -23.5t20.5 -31t11 -40.5t3.5 -40.5t0.5 -42zM252 600
q0 61 -7.5 85.5t-33.5 24.5q-30 0 -40.5 -36.5t-10.5 -111.5v-177q92 89 92 215z" />
    <glyph glyph-name="trademark" unicode="&#x2122;" horiz-adv-x="729" 
d="M680 381h-72l-15 192l-58 -120h-59l-57 120l-16 -192h-70l25 340h65l83 -172l83 172h65zM311 655h-100v-274h-72v274h-100v66h272v-66z" />
    <glyph glyph-name="Omega" unicode="&#x2126;" horiz-adv-x="720" 
d="M626 421q0 -249 -192 -283v-63h168v-75h-232v191q84 5 117 59t33 162q0 113 -45.5 176t-154.5 63t-154.5 -62.5t-45.5 -174.5q0 -110 32.5 -164t117.5 -59v-191h-233v75h169v63q-192 34 -192 284q0 65 15 118.5t48.5 99t95.5 71.5t147 26t146.5 -26t95 -71.5t49 -99.5
t15.5 -119z" />
    <glyph glyph-name="estimated" unicode="&#x212e;" horiz-adv-x="606" 
d="M577 282h-429v-193q66 -63 152 -63q76 0 123 33t87 94l31 -19q-44 -68 -99 -104.5t-142 -36.5q-119 0 -195 84.5t-76 205.5q0 123 75 206.5t200 83.5q124 0 198.5 -84.5t74.5 -206.5zM457 315v163q-68 62 -153 62q-96 0 -156 -62v-163h309z" />
    <glyph glyph-name="onethird" unicode="&#x2153;" horiz-adv-x="920" 
d="M300 305h-235v69h79v267q0 7 1 12l-41 -9q-13 -3 -39 -8v69l155 31v-362h80v-69zM732 737l-484 -752h-83l484 752h83zM855 129q0 -67 -41.5 -102.5t-109.5 -35.5q-58 0 -96 22t-65 73l60 28q19 -34 41 -46t60 -12q75 0 75 73q0 29 -16.5 44.5t-47.5 15.5h-72l-19 67h91
q25 0 40.5 14.5t15.5 42.5q0 52 -62 52q-38 0 -59.5 -12t-40.5 -46l-60 28q27 51 65 73t96 22q72 0 105 -32.5t33 -84.5q0 -55 -41 -86q48 -33 48 -98z" />
    <glyph glyph-name="twothirds" unicode="&#x2154;" horiz-adv-x="971" 
d="M783 737l-484 -752h-83l484 752h83zM906 129q0 -67 -41.5 -102.5t-109.5 -35.5q-58 0 -96 22t-65 73l60 28q19 -34 41 -46t60 -12q75 0 75 73q0 29 -16.5 44.5t-47.5 15.5h-72l-19 67h91q25 0 40.5 14.5t15.5 42.5q0 52 -62 52q-38 0 -59.5 -12t-40.5 -46l-60 28
q27 51 65 73t96 22q72 0 105 -32.5t33 -84.5q0 -55 -41 -86q48 -33 48 -98zM352 610q0 -34 -18.5 -64.5t-36.5 -45t-54 -39.5q-69 -48 -90 -87h126v58h72v-127h-286q0 42 11 76t34.5 60t40.5 40.5t47 35.5q38 27 58 48t20 45q0 58 -56 58q-41 0 -58 -18t-22 -51h-70
q4 57 39 96.5t111 39.5q58 0 95 -33t37 -92z" />
    <glyph glyph-name="oneeighth" unicode="&#x215b;" horiz-adv-x="929" 
d="M300 305h-235v69h79v267q0 7 1 12l-41 -9q-13 -3 -39 -8v69l155 31v-362h80v-69zM732 737l-484 -752h-83l484 752h83zM864 129q0 -138 -148 -138q-149 0 -149 138q0 63 44 94q-38 29 -38 84q0 123 142 123q143 0 143 -123q0 -55 -38 -84q44 -31 44 -94zM788 129
q0 25 -13 42t-36 17h-47q-23 0 -36 -17t-13 -42q0 -40 16.5 -55.5t55.5 -15.5q40 0 56.5 15.5t16.5 55.5zM783 307q0 32 -17 44t-51 12t-50.5 -12t-16.5 -44q0 -26 12 -39t29 -13h53q17 0 29 13t12 39z" />
    <glyph glyph-name="threeeighths" unicode="&#x215c;" horiz-adv-x="966" 
d="M769 737l-484 -752h-83l484 752h83zM901 129q0 -138 -148 -138q-149 0 -149 138q0 63 44 94q-38 29 -38 84q0 123 142 123q143 0 143 -123q0 -55 -38 -84q44 -31 44 -94zM825 129q0 25 -13 42t-36 17h-47q-23 0 -36 -17t-13 -42q0 -40 16.5 -55.5t55.5 -15.5
q40 0 56.5 15.5t16.5 55.5zM820 307q0 32 -17 44t-51 12t-50.5 -12t-16.5 -44q0 -26 12 -39t29 -13h53q17 0 29 13t12 39zM377 434q0 -67 -41.5 -102.5t-109.5 -35.5q-58 0 -96 22t-65 73l60 28q19 -34 41 -46t60 -12q75 0 75 73q0 29 -16.5 44.5t-47.5 15.5h-72l-19 67h91
q25 0 40.5 14.5t15.5 42.5q0 52 -62 52q-38 0 -59.5 -12t-40.5 -46l-60 28q27 51 65 73t96 22q72 0 105 -32.5t33 -84.5q0 -55 -41 -86q48 -33 48 -98z" />
    <glyph glyph-name="fiveeighths" unicode="&#x215d;" horiz-adv-x="965" 
d="M768 737l-484 -752h-83l484 752h83zM900 129q0 -138 -148 -138q-149 0 -149 138q0 63 44 94q-38 29 -38 84q0 123 142 123q143 0 143 -123q0 -55 -38 -84q44 -31 44 -94zM824 129q0 25 -13 42t-36 17h-47q-23 0 -36 -17t-13 -42q0 -40 16.5 -55.5t55.5 -15.5
q40 0 56.5 15.5t16.5 55.5zM819 307q0 32 -17 44t-51 12t-50.5 -12t-16.5 -44q0 -26 12 -39t29 -13h53q17 0 29 13t12 39zM376 441q0 -66 -38 -105.5t-112 -39.5q-58 0 -96 22t-65 73l60 28q18 -34 40.5 -46t60.5 -12q74 0 74 80q0 76 -84 76q-53 0 -101 -16l-28 24l23 201
h259l-20 -67h-179q-1 -7 -2 -21t-2 -21t-2 -19.5t-2 -20.5q20 4 62 4q152 0 152 -140z" />
    <glyph glyph-name="seveneighths" unicode="&#x215e;" horiz-adv-x="888" 
d="M691 737l-484 -752h-83l484 752h83zM823 129q0 -138 -148 -138q-149 0 -149 138q0 63 44 94q-38 29 -38 84q0 123 142 123q143 0 143 -123q0 -55 -38 -84q44 -31 44 -94zM747 129q0 25 -13 42t-36 17h-47q-23 0 -36 -17t-13 -42q0 -40 16.5 -55.5t55.5 -15.5
q40 0 56.5 15.5t16.5 55.5zM742 307q0 32 -17 44t-51 12t-50.5 -12t-16.5 -44q0 -26 12 -39t29 -13h53q17 0 29 13t12 39zM268 657h-131v-58h-72v127h293v-56l-193 -365h-84z" />
    <glyph glyph-name="partialdiff" unicode="&#x2202;" horiz-adv-x="720" 
d="M572 458q0 -96 -14 -176q-28 -154 -100 -226t-208 -72q-208 0 -208 198q0 45 9 96q24 138 92.5 206.5t192.5 68.5q75 0 126 -34q-2 197 -223 197q-30 0 -66 -3l5 70q43 5 76 5q173 0 245.5 -87t72.5 -243zM459 357q0 64 -28.5 92t-91.5 28q-80 0 -123 -47t-64 -161
q-9 -51 -9 -88q0 -64 29.5 -92.5t91.5 -28.5q80 0 123 48t63 161q9 51 9 88z" />
    <glyph glyph-name="Delta" unicode="&#x2206;" horiz-adv-x="720" 
d="M622 0h-642l271 721h102zM481 85l-183 522l-181 -522h364z" />
    <glyph glyph-name="product" unicode="&#x220f;" horiz-adv-x="720" 
d="M637 634h-82v-634h-103v634h-302v-634h-103v634h-83v87h673v-87z" />
    <glyph glyph-name="summation" unicode="&#x2211;" horiz-adv-x="720" 
d="M561 0h-478v84l198 292l-198 260v85h478v-87h-369l198 -258l-198 -289h369v-87z" />
    <glyph glyph-name="minus" unicode="&#x2212;" 
d="M552 315h-496v91h496v-91z" />
    <glyph glyph-name="uni2215" unicode="&#x2215;" horiz-adv-x="390" 
d="M540 737l-484 -752h-83l484 752h83z" />
    <glyph glyph-name="uni2219" unicode="&#x2219;" horiz-adv-x="247" 
d="M188 373q0 -8 -2 -9.5t-8 -1.5h-111q-7 0 -8.5 1.5t-1.5 9.5v108q0 9 1 10.5t9 1.5h111q8 0 9 -1.5t1 -10.5v-108z" />
    <glyph glyph-name="radical" unicode="&#x221a;" horiz-adv-x="720" 
d="M722 631h-162l-210 -631h-106l-128 397h-115v90h193l103 -361l184 595h241v-90z" />
    <glyph glyph-name="infinity" unicode="&#x221e;" horiz-adv-x="720" 
d="M608 377q0 -242 -166 -242q-81 0 -134 52q-40 -55 -104 -55q-41 0 -70.5 15t-46.5 38t-26.5 57t-12.5 65t-3 70q0 243 164 243q75 0 133 -54q43 55 109 55q41 0 70.5 -15t46 -37t26 -57t12 -65t2.5 -70zM524 377q0 81 -15 123.5t-58 42.5q-37 0 -53 -35t-31 -134
q-13 -84 -22 -117q44 -46 97 -46q82 0 82 166zM305 498q-41 44 -94 44q-81 0 -81 -167q0 -38 2.5 -63.5t9.5 -50.5t22.5 -37.5t39.5 -12.5q35 0 52 37.5t30 134.5q11 80 19 115z" />
    <glyph glyph-name="integral" unicode="&#x222b;" horiz-adv-x="720" 
d="M594 761l-20 -76q-66 14 -101 14q-50 0 -79 -23.5t-29 -85.5l-1 -605q0 -189 -197 -189q-71 0 -136 18l20 77q62 -15 101 -15q107 0 107 112v602q0 189 200 189q65 0 135 -18z" />
    <glyph glyph-name="approxequal" unicode="&#x2248;" 
d="M547 534q-48 -69 -134 -69q-40 0 -78 21.5t-73 43t-67 21.5q-86 0 -134 -69v106q48 69 134 69q35 0 67.5 -13.5t53 -29.5t46.5 -29.5t51 -13.5q86 0 134 69v-106zM547 284q-48 -69 -134 -69q-40 0 -78 21.5t-73 43t-67 21.5q-86 0 -134 -69v106q48 69 134 69
q35 0 67.5 -13.5t53 -29.5t46.5 -29.5t51 -13.5q86 0 134 69v-106z" />
    <glyph glyph-name="notequal" unicode="&#x2260;" 
d="M510 737l-93 -208h135v-96h-177l-64 -144h241v-96h-284l-92 -208h-83l92 208h-129v96h172l64 144h-236v96h278l93 208h83z" />
    <glyph glyph-name="lessequal" unicode="&#x2264;" 
d="M502 140h-122l-282 280l282 280h122l-282 -280zM567 0h-526v95h526v-95z" />
    <glyph glyph-name="greaterequal" unicode="&#x2265;" 
d="M510 420l-282 -280h-122l282 280l-282 280h122zM567 0h-526v95h526v-95z" />
    <glyph glyph-name="lozenge" unicode="&#x25ca;" horiz-adv-x="700" 
d="M594 368l-274 -330l-274 330l274 331zM482 368l-162 210l-164 -210l164 -210z" />
    <glyph glyph-name="I.alt" unicode="&#xe000;" horiz-adv-x="326" 
d="M290 0h-254v65h78v592h-78v64h254v-64h-72v-592h72v-65z" />
    <glyph glyph-name="IJ.alt" unicode="&#xe001;" horiz-adv-x="764" 
d="M705 213q0 -122 -54.5 -175t-154.5 -53q-85 0 -152 56l50 72q50 -40 101 -40q59 0 82 31t23 109v388q0 15 6 25h-178l-27 95h304v-508zM290 0h-254v65h78v592h-78v64h254v-64h-72v-592h72v-65z" />
    <glyph glyph-name="Iacute.alt" unicode="&#xe002;" horiz-adv-x="326" 
d="M284 906l-174 -129l-3 -3q-4 -2 -6 -2q-3 0 -8 3l-32 28q-3 3 -3 5q0 5 3 8l153 160zM290 0h-254v65h78v592h-78v64h254v-64h-72v-592h72v-65z" />
    <glyph glyph-name="Ibreve.alt" unicode="&#xe003;" horiz-adv-x="326" 
d="M333 880q-31 -62 -70 -93t-101 -31t-101.5 31t-70.5 93l59 38q31 -47 54.5 -63.5t57.5 -16.5t58 16.5t55 63.5zM290 0h-254v65h78v592h-78v64h254v-64h-72v-592h72v-65z" />
    <glyph glyph-name="Icircumflex.alt" unicode="&#xe004;" horiz-adv-x="326" 
d="M332 815l-44 -43l-125 107l-125 -107l-45 43l143 149q12 14 26 14t28 -14zM290 0h-254v65h78v592h-78v64h254v-64h-72v-592h72v-65z" />
    <glyph glyph-name="Idieresis.alt" unicode="&#xe005;" horiz-adv-x="326" 
d="M328 801l-1 -1h-2h-4h-97h-3h-3q-1 1 -1 6v100q0 6 1 7t6 1h97q5 0 6 -1t1 -7v-100v-5zM105 801l-1 -1h-3h-3h-97h-4h-2q-1 1 -1 6v100q0 6 1 7t6 1h97q5 0 6 -1t1 -7v-100v-5zM290 0h-254v65h78v592h-78v64h254v-64h-72v-592h72v-65z" />
    <glyph glyph-name="Idotaccent.alt" unicode="&#xe006;" horiz-adv-x="326" 
d="M97 908v-111q0 -10 8 -10h115q8 0 8 10v111q0 10 -8 10h-115q-8 0 -8 -10zM290 0h-254v65h78v592h-78v64h254v-64h-72v-592h72v-65z" />
    <glyph glyph-name="Igrave.alt" unicode="&#xe007;" horiz-adv-x="326" 
d="M272 809q0 -3 -3 -6l-31 -28q-3 -3 -9 -3q-5 0 -10 5l-174 129l72 70l152 -159q3 -5 3 -8zM290 0h-254v65h78v592h-78v64h254v-64h-72v-592h72v-65z" />
    <glyph glyph-name="Imacron.alt" unicode="&#xe008;" horiz-adv-x="326" 
d="M325 804h-342v82h342v-82zM284 0h-254v65h78v592h-78v64h254v-64h-72v-592h72v-65z" />
    <glyph glyph-name="Iogonek.alt" unicode="&#xe009;" horiz-adv-x="326" 
d="M250 -180q-51 -22 -107 -22q-48 0 -79 21t-31 67q0 34 38 67l51 47h-86v65h78v592h-78v64h254v-64h-72v-592h72v-65h-90l-83 -82q-13 -13 -13 -32q0 -40 53 -40q33 0 77 13z" />
    <glyph glyph-name="Itilde.alt" unicode="&#xe00a;" horiz-adv-x="326" 
d="M359 876l-72 -90q-21 -26 -45 -26q-18 0 -40 12l-86 43q-9 4 -16 4q-8 0 -15 -7l-49 -53l-55 37l68 89q20 27 43 27q17 0 41 -12l87 -43q14 -7 19 -7t12 7l51 56zM290 0h-254v65h78v592h-78v64h254v-64h-72v-592h72v-65z" />
    <glyph glyph-name="J.alt" unicode="&#xe00b;" horiz-adv-x="428" 
d="M369 213q0 -122 -54.5 -175t-154.5 -53q-85 0 -152 56l50 72q50 -40 101 -40q59 0 82 31t23 109v388q0 15 6 25h-178l-27 95h304v-508z" />
    <glyph glyph-name="Jcircumflex.alt" unicode="&#xe00c;" horiz-adv-x="428" 
d="M493 798l-44 -43l-125 107l-125 -107l-45 43l143 149q12 14 26 14t28 -14zM369 213q0 -122 -54.5 -175t-154.5 -53q-85 0 -152 56l50 72q50 -40 101 -40q59 0 82 31t23 109v388q0 15 6 25h-178l-27 95h304v-508z" />
    <glyph glyph-name="a.alt" unicode="&#xe00d;" horiz-adv-x="568" 
d="M553 0h-62q-69 0 -85 45q-83 -60 -181 -60q-95 0 -142.5 49t-47.5 132q0 172 205 172q71 0 146 -17v69q0 39 -23 58t-76 19q-100 0 -145 -65l-79 46q61 104 226 104q62 0 104 -14t62 -39t28 -51t8 -59v-259q0 -14 1.5 -20.5t8 -12t20.5 -5.5h32v-92zM386 123v120
q-85 13 -125 13q-120 0 -120 -90q0 -94 84 -94q82 0 161 51z" />
    <glyph glyph-name="aacute.alt" unicode="&#xe00e;" horiz-adv-x="568" 
d="M430 729l-174 -129l-3 -3q-4 -2 -6 -2q-5 0 -8 3l-32 28q-3 2 -3 5q0 5 3 8l153 160zM553 0h-62q-69 0 -85 45q-83 -60 -181 -60q-95 0 -142.5 49t-47.5 132q0 172 205 172q71 0 146 -17v69q0 39 -23 58t-76 19q-100 0 -145 -65l-79 46q61 104 226 104q62 0 104 -14
t62 -39t28 -51t8 -59v-259q0 -14 1.5 -20.5t8 -12t20.5 -5.5h32v-92zM386 123v120q-85 13 -125 13q-120 0 -120 -90q0 -94 84 -94q82 0 161 51z" />
    <glyph glyph-name="abreve.alt" unicode="&#xe00f;" horiz-adv-x="562" 
d="M452 723q-31 -62 -70 -93t-101 -31t-101.5 31t-70.5 93l59 38q31 -47 54.5 -63.5t57.5 -16.5t58 16.5t55 63.5zM553 0h-62q-69 0 -85 45q-83 -60 -181 -60q-95 0 -142.5 49t-47.5 132q0 172 205 172q71 0 146 -17v69q0 39 -23 58t-76 19q-100 0 -145 -65l-79 46
q61 104 226 104q62 0 104 -14t62 -39t28 -51t8 -59v-259q0 -14 1.5 -20.5t8 -12t20.5 -5.5h32v-92zM386 123v120q-85 13 -125 13q-120 0 -120 -90q0 -94 84 -94q82 0 161 51z" />
    <glyph glyph-name="acircumflex.alt" unicode="&#xe010;" horiz-adv-x="568" 
d="M447 638l-44 -43l-125 107l-125 -107l-45 43l143 149q12 14 26 14t28 -14zM553 0h-62q-69 0 -85 45q-83 -60 -181 -60q-95 0 -142.5 49t-47.5 132q0 172 205 172q71 0 146 -17v69q0 39 -23 58t-76 19q-100 0 -145 -65l-79 46q61 104 226 104q62 0 104 -14t62 -39t28 -51
t8 -59v-259q0 -14 1.5 -20.5t8 -12t20.5 -5.5h32v-92zM386 123v120q-85 13 -125 13q-120 0 -120 -90q0 -94 84 -94q82 0 161 51z" />
    <glyph glyph-name="adieresis.alt" unicode="&#xe011;" horiz-adv-x="568" 
d="M445 653l-1 -1h-2h-4h-97h-3h-3q-1 1 -1 6v100q0 6 1 7t6 1h97q5 0 6 -1t1 -7v-100v-5zM222 653l-1 -1h-3h-3h-97h-4h-2q-1 1 -1 6v100q0 6 1 7t6 1h97q5 0 6 -1t1 -7v-100v-5zM553 0h-62q-69 0 -85 45q-83 -60 -181 -60q-95 0 -142.5 49t-47.5 132q0 172 205 172
q71 0 146 -17v69q0 39 -23 58t-76 19q-100 0 -145 -65l-79 46q61 104 226 104q62 0 104 -14t62 -39t28 -51t8 -59v-259q0 -14 1.5 -20.5t8 -12t20.5 -5.5h32v-92zM386 123v120q-85 13 -125 13q-120 0 -120 -90q0 -94 84 -94q82 0 161 51z" />
    <glyph glyph-name="agrave.alt" unicode="&#xe012;" horiz-adv-x="568" 
d="M372 632q0 -4 -3 -6l-31 -28q-3 -3 -9 -3q-4 0 -10 5l-174 129l72 70l152 -159q3 -3 3 -8zM553 0h-62q-69 0 -85 45q-83 -60 -181 -60q-95 0 -142.5 49t-47.5 132q0 172 205 172q71 0 146 -17v69q0 39 -23 58t-76 19q-100 0 -145 -65l-79 46q61 104 226 104q62 0 104 -14
t62 -39t28 -51t8 -59v-259q0 -14 1.5 -20.5t8 -12t20.5 -5.5h32v-92zM386 123v120q-85 13 -125 13q-120 0 -120 -90q0 -94 84 -94q82 0 161 51z" />
    <glyph glyph-name="amacron.alt" unicode="&#xe013;" horiz-adv-x="568" 
d="M553 0h-62q-69 0 -85 45q-83 -60 -181 -60q-95 0 -142.5 49t-47.5 132q0 172 205 172q71 0 146 -17v69q0 39 -23 58t-76 19q-100 0 -145 -65l-79 46q61 104 226 104q62 0 104 -14t62 -39t28 -51t8 -59v-259q0 -14 1.5 -20.5t8 -12t20.5 -5.5h32v-92zM386 123v120
q-85 13 -125 13q-120 0 -120 -90q0 -94 84 -94q82 0 161 51zM446 659h-342v82h342v-82z" />
    <glyph glyph-name="aogonek.alt" unicode="&#xe014;" horiz-adv-x="568" 
d="M568 -180q-51 -22 -107 -22q-48 0 -79 21t-31 67q0 34 38 67l58 52q-31 11 -41 40q-83 -60 -181 -60q-95 0 -142.5 49t-47.5 132q0 172 205 172q71 0 146 -17v69q0 39 -23 58t-76 19q-100 0 -145 -65l-79 46q61 104 226 104q62 0 104 -14t62 -39t28 -51t8 -59v-259
q0 -14 1.5 -20.5t8 -12t20.5 -5.5h32v-92h-35l-83 -82q-13 -13 -13 -32q0 -40 53 -40q33 0 77 13zM386 123v120q-85 13 -125 13q-120 0 -120 -90q0 -94 84 -94q82 0 161 51z" />
    <glyph glyph-name="apple" unicode="&#xe015;" horiz-adv-x="790" 
d="M693 369q0 -90 -13.5 -156.5t-46 -120t-92.5 -81t-147 -27.5t-146.5 27.5t-92 81t-45.5 119.5t-13 157q0 82 13.5 144.5t45 115t91.5 80.5t146 28q87 0 147.5 -28t92.5 -80.5t46 -115t14 -144.5zM613 251q0 69 -37 116.5t-110 60.5l-110 20q-26 4 -33.5 12.5t-7.5 34.5
q0 18 3.5 27.5t21.5 17t54 7.5q38 0 59.5 -12t36.5 -40l26 -8l70 36l10 27q-59 116 -201 116q-105 0 -154 -47t-49 -124q0 -138 131 -165l116 -23q30 -6 40.5 -17.5t10.5 -38.5q0 -74 -97 -74q-42 0 -66 15.5t-42 56.5l-27 10l-69 -36l-11 -25q50 -139 214 -139
q105 0 162.5 54t57.5 138h1zM573 251q0 -66 -45.5 -109t-134.5 -43q-126 0 -171 97l35 18q43 -77 135 -77q71 0 104.5 32.5t33.5 81.5q0 78 -83 95l-116 22q-99 18 -99 127q0 131 162 131q108 0 157 -77l-36 -18q-40 56 -120 56q-66 0 -93 -23t-27 -69q0 -40 16 -60t56 -27
l110 -21q115 -21 115 -136h1z" />
    <glyph glyph-name="aring.alt" unicode="&#xe016;" horiz-adv-x="568" 
d="M395 708q0 -47 -33 -80t-80 -33q-46 0 -79.5 33.5t-33.5 79.5t33.5 79.5t79.5 33.5q47 0 80 -33t33 -80zM553 0h-62q-69 0 -85 45q-83 -60 -181 -60q-95 0 -142.5 49t-47.5 132q0 172 205 172q71 0 146 -17v69q0 39 -23 58t-76 19q-100 0 -145 -65l-79 46q61 104 226 104
q62 0 104 -14t62 -39t28 -51t8 -59v-259q0 -14 1.5 -20.5t8 -12t20.5 -5.5h32v-92zM333 708q0 20 -15 34.5t-36 14.5q-20 0 -35 -14.5t-15 -34.5t15 -35t35 -15q21 0 36 15t15 35zM386 123v120q-85 13 -125 13q-120 0 -120 -90q0 -94 84 -94q82 0 161 51z" />
    <glyph glyph-name="arrow" unicode="&#xe017;" horiz-adv-x="790" 
d="M737 365q0 -141 -100.5 -241t-241.5 -100q-142 0 -242 100t-100 241t100 241t241 100q142 0 242.5 -100t100.5 -241zM693 366l-243 240l-67 -64l127 -128h-386v-93h391l-131 -132l65 -65z" />
    <glyph glyph-name="atilde.alt" unicode="&#xe018;" horiz-adv-x="568" 
d="M469 735l-72 -90q-21 -26 -45 -26q-16 0 -40 12l-86 43q-8 4 -16 4t-15 -7l-49 -53l-55 37l68 89q20 27 43 27q17 0 41 -12l87 -43q16 -7 19 -7q7 0 12 7l51 56zM553 0h-62q-69 0 -85 45q-83 -60 -181 -60q-95 0 -142.5 49t-47.5 132q0 172 205 172q71 0 146 -17v69
q0 39 -23 58t-76 19q-100 0 -145 -65l-79 46q61 104 226 104q62 0 104 -14t62 -39t28 -51t8 -59v-259q0 -14 1.5 -20.5t8 -12t20.5 -5.5h32v-92zM386 123v120q-85 13 -125 13q-120 0 -120 -90q0 -94 84 -94q82 0 161 51z" />
    <glyph glyph-name="caronalt" unicode="&#xe019;" horiz-adv-x="200" 
d="M160 721l-69 -234q-2 -14 -16 -14h-35q-8 0 -10 2.5t-2 11.5l30 234h102z" />
    <glyph glyph-name="commaaccentalt" unicode="&#xe01a;" horiz-adv-x="200" 
d="M83 843l45 -31q-25 -34 -25 -85h51q7 0 8.5 -2t1.5 -9v-92q0 -12 -10 -12h-111q-10 0 -10 12v68q0 47 10 82t40 69z" />
    <glyph glyph-name="dotlessi.alt" unicode="&#xe01b;" horiz-adv-x="305" 
d="M286 -8h-63q-62 0 -91 30.5t-29 98.5v301q0 11 9 28h-95v87h190v-416q0 -26 6.5 -32.5t22.5 -6.5h50v-90z" />
    <glyph glyph-name="f_i.alt" unicode="&#xe022;" horiz-adv-x="652" 
d="M555 667q0 -7 -1 -8t-7 -1h-107q-6 0 -7 1t-1 8v102q0 7 1 8.5t7 1.5h107q8 0 8 -10v-102zM633 -8h-63q-61 0 -90.5 30t-29.5 97v298q0 13 11 33h-259v-450h-105v414q0 11 11 36h-89v87h79v51q0 191 191 191q53 0 108 -12l-20 -84q-40 11 -90 11q-85 0 -85 -106v-51h352
v-418q0 -17 4.5 -25.5t9.5 -10t16 -1.5h49v-90z" />
    <glyph glyph-name="i.alt" unicode="&#xe025;" horiz-adv-x="305" 
d="M208 667q0 -7 -1 -8t-7 -1h-107q-6 0 -7 1t-1 8v102q0 7 1 8.5t7 1.5h107q8 0 8 -10v-102zM286 -8h-63q-62 0 -91 30.5t-29 98.5v301q0 11 9 28h-95v87h190v-416q0 -26 6.5 -32.5t22.5 -6.5h50v-90z" />
    <glyph glyph-name="iacute.alt" unicode="&#xe026;" horiz-adv-x="305" 
d="M263 729l-174 -129l-3 -3q-4 -2 -6 -2q-4 0 -8 3l-32 28q-3 2 -3 5q0 5 3 8l153 160zM286 -8h-63q-62 0 -91 30.5t-29 98.5v301q0 11 9 28h-95v87h190v-416q0 -26 6.5 -32.5t22.5 -6.5h50v-90z" />
    <glyph glyph-name="ibreve.alt" unicode="&#xe027;" horiz-adv-x="305" 
d="M318 746q-31 -62 -70 -93t-101 -31t-101.5 31t-70.5 93l59 38q31 -47 54.5 -63.5t57.5 -16.5t58 16.5t55 63.5zM286 -8h-63q-62 0 -91 30.5t-29 98.5v301q0 11 9 28h-95v87h190v-416q0 -26 6.5 -32.5t22.5 -6.5h50v-90z" />
    <glyph glyph-name="icircumflex.alt" unicode="&#xe028;" horiz-adv-x="305" 
d="M316 638l-44 -43l-125 107l-125 -107l-45 43l143 149q14 14 26 14q16 0 28 -14zM286 -8h-63q-62 0 -91 30.5t-29 98.5v301q0 11 9 28h-95v87h190v-416q0 -26 6.5 -32.5t22.5 -6.5h50v-90z" />
    <glyph glyph-name="idieresis.alt" unicode="&#xe029;" horiz-adv-x="305" 
d="M322 653l-1 -1h-2h-4h-97h-3h-3q-1 1 -1 6v100q0 6 1 7t6 1h97q5 0 6 -1t1 -7v-100v-5zM99 653l-1 -1h-3h-3h-97h-4h-2q-1 1 -1 6v100q0 6 1 7t6 1h97q5 0 6 -1t1 -7v-100v-5zM286 -8h-63q-62 0 -91 30.5t-29 98.5v301q0 11 9 28h-95v87h190v-416q0 -26 6.5 -32.5
t22.5 -6.5h50v-90z" />
    <glyph glyph-name="igrave.alt" unicode="&#xe02a;" horiz-adv-x="305" 
d="M239 632q0 -3 -3 -6l-31 -28q-3 -3 -9 -3q-4 0 -10 5l-174 129l72 70l152 -159q3 -3 3 -8zM286 -8h-63q-62 0 -91 30.5t-29 98.5v301q0 11 9 28h-95v87h190v-416q0 -26 6.5 -32.5t22.5 -6.5h50v-90z" />
    <glyph glyph-name="ij.alt" unicode="&#xe02b;" horiz-adv-x="533" 
d="M208 667q0 -7 -1 -8t-7 -1h-107q-6 0 -7 1t-1 8v102q0 7 1 8.5t7 1.5h107q8 0 8 -10v-102zM286 -8h-63q-62 0 -91 30.5t-29 98.5v301q0 11 9 28h-95v87h190v-416q0 -26 6.5 -32.5t22.5 -6.5h50v-90zM492 667q0 -7 -1 -8t-7 -1h-108q-6 0 -7 1t-1 8v102q0 7 1 8.5t7 1.5
h108q8 0 8 -10v-102zM490 -99q0 -66 -38 -104.5t-118 -38.5h-57v85h57q29 0 40.5 14t11.5 44v523q0 8 9 26h-95v87h190v-636z" />
    <glyph glyph-name="imacron.alt" unicode="&#xe02c;" horiz-adv-x="305" 
d="M319 644h-342v82h342v-82zM286 -8h-63q-62 0 -91 30.5t-29 98.5v301q0 11 9 28h-95v87h190v-416q0 -26 6.5 -32.5t22.5 -6.5h50v-90z" />
    <glyph glyph-name="iogonek.alt" unicode="&#xe02d;" horiz-adv-x="305" 
d="M298 -180q-51 -22 -107 -22q-48 0 -79 21t-31 67q0 34 38 67l51 47q-67 20 -67 121v301q0 11 9 28h-95v87h190v-416q0 -26 6.5 -32.5t22.5 -6.5h50v-90h-46l-75 -74q-13 -13 -13 -32q0 -40 53 -40q33 0 77 13zM208 667q0 -7 -1 -8t-7 -1h-107q-6 0 -7 1t-1 8v102
q0 7 1 8.5t7 1.5h107q8 0 8 -10v-102z" />
    <glyph glyph-name="itilde.alt" unicode="&#xe02e;" horiz-adv-x="305" 
d="M332 721l-72 -90q-21 -26 -45 -26q-17 0 -40 12l-86 43q-9 4 -16 4q-8 0 -15 -7l-49 -53l-55 37l68 89q20 27 43 27q17 0 41 -12l87 -43q14 -7 19 -7t12 7l51 56zM286 -8h-63q-62 0 -91 30.5t-29 98.5v301q0 11 9 28h-95v87h190v-416q0 -26 6.5 -32.5t22.5 -6.5h50v-90z
" />
    <glyph glyph-name="j.alt" unicode="&#xe02f;" horiz-adv-x="273" 
d="M209 667q0 -7 -1 -8t-7 -1h-108q-6 0 -7 1t-1 8v102q0 7 1 8.5t7 1.5h108q8 0 8 -10v-102zM207 -99q0 -66 -38 -104.5t-118 -38.5h-57v85h57q29 0 40.5 14t11.5 44v523q0 8 9 26h-95v87h190v-636z" />
    <glyph glyph-name="j.dotless" unicode="&#xe030;" horiz-adv-x="230" 
d="M167 -99q0 -66 -38 -104.5t-118 -38.5h-57v85h57q29 0 40.5 14t11.5 44v636h104v-636z" />
    <glyph glyph-name="jcircumflex.alt" unicode="&#xe031;" horiz-adv-x="258" 
d="M207 -99q0 -66 -38 -104.5t-118 -38.5h-57v85h57q29 0 40.5 14t11.5 44v523q0 8 9 26h-95v87h190v-636zM316 638l-44 -43l-125 107l-125 -107l-45 43l143 149q12 14 26 14t28 -14z" />
    <glyph glyph-name="l.alt" unicode="&#xe032;" horiz-adv-x="290" 
d="M280 -9h-75q-120 0 -120 135v561h-95v92h200v-653q0 -26 6.5 -34t20.5 -8h63v-93z" />
    <glyph glyph-name="lacute.alt" unicode="&#xe033;" horiz-adv-x="274" 
d="M277 926l-174 -129q-10 -8 -17 -2l-32 28q-6 7 0 13l153 160zM280 -9h-75q-120 0 -120 135v561h-95v92h200v-653q0 -26 6.5 -34t20.5 -8h63v-93z" />
    <glyph glyph-name="lcaron.alt" unicode="&#xe034;" horiz-adv-x="295" 
d="M385 778l-69 -234q-2 -14 -16 -14h-35q-8 0 -10 2.5t-2 11.5l30 234h102zM280 -9h-75q-120 0 -120 135v561h-95v92h200v-653q0 -26 6.5 -34t20.5 -8h63v-93z" />
    <glyph glyph-name="lcommaaccent.alt" unicode="&#xe035;" horiz-adv-x="274" 
d="M280 -9h-75q-120 0 -120 135v561h-95v92h200v-653q0 -26 6.5 -34t20.5 -8h63v-93zM171 -273l-45 31q25 34 25 85h-51q-7 0 -8.5 2t-1.5 9v92q0 12 10 12h111q10 0 10 -12v-68q0 -47 -10 -82t-40 -69z" />
    <glyph glyph-name="ldot.alt" unicode="&#xe036;" horiz-adv-x="386" 
d="M238 467v-111q0 -10 8 -10h115q8 0 8 10v111q0 10 -8 10h-115q-8 0 -8 -10zM280 -9h-75q-120 0 -120 135v561h-95v92h200v-653q0 -26 6.5 -34t20.5 -8h63v-93z" />
    <glyph glyph-name="lslash.alt" unicode="&#xe037;" horiz-adv-x="290" 
d="M280 -9h-75q-120 0 -120 135v237l-64 -39v108l64 39v216h-95v92h200v-243l67 41v-108l-67 -41v-302q0 -26 6.5 -34t20.5 -8h63v-93z" />
    <glyph glyph-name="uni2014.alt" unicode="&#xe038;" horiz-adv-x="612" 
d="M586 247h-560v96h560v-96z" />
    <glyph glyph-name="h.superior" unicode="&#xf637;" horiz-adv-x="364" 
d="M324 305h-72v207q0 69 -50 69q-31 0 -87 -36v-240h-72v470h72v-168q45 34 101 34q46 0 77 -32t31 -97v-207z" />
    <glyph glyph-name="zero.fitted" unicode="&#xf639;" 
d="M551 369q0 -70 -4.5 -121t-20 -103.5t-41.5 -85.5t-72 -53.5t-109 -20.5t-109 20.5t-72 53.5t-41.5 85.5t-20 103.5t-4.5 121q0 66 5.5 117t21.5 100t43 80.5t71.5 51t105.5 19.5t105.5 -19.5t71.5 -51t43 -80.5t21.5 -100t5.5 -117zM444 369q0 152 -26.5 214t-113.5 62
t-113.5 -62t-26.5 -214q0 -63 2.5 -105t11 -80.5t23.5 -60.5t40.5 -34.5t62.5 -12.5t62.5 12.5t40.5 34.5t23.5 60.5t11 80.5t2.5 105z" />
    <glyph glyph-name="two.fitted" unicode="&#xf63a;" 
d="M541 528q0 -60 -31.5 -110.5t-79 -87t-97 -70t-94 -76t-60.5 -89.5h261v103h99v-198h-480q0 67 20.5 124t54 95.5t73.5 71.5t80 60t73.5 52.5t54 57t20.5 67.5q0 57 -30.5 87t-84.5 30q-80 0 -112.5 -31.5t-41.5 -90.5h-98q3 41 16.5 76.5t41 68t77.5 51t117 18.5
q96 0 158.5 -56t62.5 -153z" />
    <glyph glyph-name="three.fitted" unicode="&#xf63b;" 
d="M557 216q0 -113 -69.5 -172t-185.5 -59q-98 0 -161 34t-104 112l82 39q31 -57 71.5 -78t111.5 -21q74 0 111.5 38t37.5 107q0 56 -34 88.5t-95 32.5h-116l-26 90h142q52 0 83.5 29.5t31.5 85.5q0 106 -125 106q-72 0 -112.5 -20t-70.5 -76l-82 39q41 78 104.5 112
t161.5 34q121 0 176 -54.5t55 -140.5q0 -102 -86 -155q47 -21 73 -67t26 -104z" />
    <glyph glyph-name="four.fitted" unicode="&#xf63c;" 
d="M586 186h-77v-186h-105v186h-365v91l367 444h103v-438h77v-97zM412 569l-237 -286h229v246q0 18 8 40z" />
    <glyph glyph-name="five.fitted" unicode="&#xf63d;" 
d="M560 227q0 -111 -63.5 -176.5t-189.5 -65.5q-98 0 -161 34t-104 112l82 39q31 -57 71.5 -77.5t111.5 -20.5q147 0 147 155q0 86 -44 118t-119 32q-101 0 -179 -25l-37 30l39 339h429l-26 -91h-318l-22 -180q42 12 128 12q118 0 186.5 -56t68.5 -179z" />
    <glyph glyph-name="six.fitted" unicode="&#xf63e;" 
d="M555 243q0 -258 -250 -258t-250 258q0 20 -0.5 64.5t-0.5 68.5t1.5 66t6 66.5t13 59.5t21.5 56t33.5 45t47 37t62.5 22t80 9q152 0 221 -101l-70 -64q-32 36 -65 54.5t-86 18.5q-81 0 -117 -44.5t-39 -164.5q58 47 142 47q250 0 250 -240zM449 243q0 81 -33 115.5
t-111 34.5q-144 0 -144 -150q0 -92 33 -129.5t111 -37.5q77 0 110.5 38t33.5 129z" />
    <glyph glyph-name="seven.fitted" unicode="&#xf63f;" horiz-adv-x="568" 
d="M538 636l-336 -636h-121l315 593q9 16 27 33h-279v-103h-99v198h493v-85z" />
    <glyph glyph-name="eight.fitted" unicode="&#xf640;" 
d="M560 216q0 -231 -249 -231q-250 0 -250 231q0 115 88 166q-78 45 -78 151q0 99 60.5 151.5t178.5 52.5t179 -52.5t61 -151.5q0 -106 -78 -151q88 -51 88 -166zM445 533q0 65 -33.5 88.5t-101.5 23.5q-67 0 -100.5 -23.5t-33.5 -88.5q0 -54 26.5 -80.5t62.5 -26.5h91
q36 0 62.5 26.5t26.5 80.5zM454 216q0 51 -27.5 85.5t-75.5 34.5h-81q-48 0 -75.5 -34.5t-27.5 -85.5q0 -78 33 -109t110 -31t110.5 31t33.5 109z" />
    <glyph glyph-name="nine.fitted" unicode="&#xf641;" 
d="M552 479q0 -20 0.5 -64.5t0.5 -68.5t-1.5 -66t-6 -66.5t-13 -59.5t-21.5 -56t-33.5 -45t-47 -37t-62.5 -22t-80 -9q-152 0 -221 101l69 63q32 -36 65 -54.5t87 -18.5q81 0 117 45t39 165q-58 -47 -142 -47q-250 0 -250 240q0 258 250 258t250 -258zM446 479
q0 91 -33 128.5t-111 37.5q-77 0 -110.5 -37.5t-33.5 -128.5q0 -81 33 -115.5t111 -34.5q144 0 144 150z" />
    <glyph glyph-name="zero.taboldstyle" unicode="&#xf643;" 
d="M531 273q0 -62 -9.5 -109.5t-33 -90t-70 -65.5t-114.5 -23t-114.5 23t-70 65.5t-33 90t-9.5 109.5q0 279 227 279t227 -279zM426 273q0 100 -25 145t-97 45t-97 -45t-25 -145q0 -106 25 -154t97 -48t97 48t25 154z" />
    <glyph glyph-name="one.taboldstyle" unicode="&#xf644;" 
d="M499 0h-390v95h142v305q0 23 7 37l-150 -29v93l248 50v-456h143v-95z" />
    <glyph glyph-name="two.taboldstyle" unicode="&#xf645;" 
d="M540 0h-472q0 225 215 286q93 27 118 45t25 61q0 39 -26 57.5t-88 18.5q-72 0 -99 -26t-27 -82h-97q0 87 54 139.5t169 52.5q218 0 218 -160q0 -37 -11.5 -65t-27.5 -45.5t-48 -33.5t-55.5 -24t-67.5 -21q-57 -16 -88.5 -42t-49.5 -70h255v62h103v-153z" />
    <glyph glyph-name="three.taboldstyle" unicode="&#xf646;" 
d="M557 31q0 -113 -69.5 -172t-185.5 -59q-98 0 -161 34t-104 112l82 39q31 -57 71.5 -78t111.5 -21q74 0 111.5 38t37.5 107q0 56 -34 88.5t-95 32.5h-116l-26 90h142q52 0 83.5 29.5t31.5 85.5q0 106 -125 106q-72 0 -112.5 -20t-70.5 -76l-82 39q41 78 104.5 112
t161.5 34q121 0 176 -54.5t55 -140.5q0 -102 -86 -155q47 -21 73 -67t26 -104z" />
    <glyph glyph-name="four.taboldstyle" unicode="&#xf647;" 
d="M586 0h-77v-184h-105v184h-365v91l367 446h103v-440h77v-97zM412 385l-237 -288h229v248q0 18 8 40z" />
    <glyph glyph-name="five.taboldstyle" unicode="&#xf648;" 
d="M560 43q0 -111 -63.5 -176.5t-189.5 -65.5q-98 0 -161 34t-104 112l82 40q31 -57 71.5 -78t111.5 -21q147 0 147 155q0 86 -44 118t-119 32q-101 0 -179 -25l-37 30l39 339h429l-26 -91h-318l-22 -180q42 12 128 12q118 0 186.5 -56t68.5 -179z" />
    <glyph glyph-name="six.taboldstyle" unicode="&#xf649;" 
d="M555 243q0 -258 -250 -258t-250 258q0 20 -0.5 64.5t-0.5 68.5t1.5 66t6 66.5t13 59.5t21.5 56t33.5 45t47 37t62.5 22t80 9q152 0 221 -101l-70 -64q-32 36 -65 54.5t-86 18.5q-81 0 -117 -44.5t-39 -164.5q58 47 142 47q250 0 250 -240zM449 243q0 81 -33 115.5
t-111 34.5q-144 0 -144 -150q0 -92 33 -129.5t111 -37.5q77 0 110.5 38t33.5 129z" />
    <glyph glyph-name="seven.taboldstyle" unicode="&#xf64a;" 
d="M559 452l-336 -636h-121l315 593q9 16 27 33h-279v-103h-99v198h493v-85z" />
    <glyph glyph-name="eight.taboldstyle" unicode="&#xf64b;" horiz-adv-x="629" 
d="M564 216q0 -231 -249 -231q-250 0 -250 231q0 115 88 166q-78 45 -78 151q0 99 60.5 151.5t178.5 52.5t179 -52.5t61 -151.5q0 -106 -78 -151q88 -51 88 -166zM449 533q0 65 -33.5 88.5t-101.5 23.5q-67 0 -100.5 -23.5t-33.5 -88.5q0 -54 26.5 -80.5t62.5 -26.5h91
q36 0 62.5 26.5t26.5 80.5zM458 216q0 51 -27.5 85.5t-75.5 34.5h-81q-48 0 -75.5 -34.5t-27.5 -85.5q0 -78 33 -109t110 -31t110.5 31t33.5 109z" />
    <glyph glyph-name="nine.taboldstyle" unicode="&#xf64c;" horiz-adv-x="632" 
d="M565 294q0 -20 0.5 -64.5t0.5 -68.5t-1.5 -66t-6 -66.5t-13 -59.5t-21.5 -56t-33.5 -45t-47 -37t-62.5 -22t-80 -9q-152 0 -221 101l69 63q32 -36 65 -54.5t87 -18.5q81 0 117 45t39 165q-58 -47 -142 -47q-250 0 -250 240q0 258 250 258t250 -258zM459 294
q0 91 -33 128.5t-111 37.5q-77 0 -110.5 -37.5t-33.5 -128.5q0 -81 33 -115.5t111 -34.5q144 0 144 150z" />
    <glyph glyph-name="zero.denominator" unicode="&#xf655;" horiz-adv-x="364" 
d="M329 215q0 -41 -3 -71t-12 -60.5t-24.5 -49.5t-42.5 -31t-65 -12t-65 12t-42.5 31t-24.5 49.5t-12 60.5t-3 71q0 49 6 84.5t21 67t45 47.5t75 16q85 0 116 -56.5t31 -158.5zM252 215q0 81 -13 114.5t-57 33.5t-57.5 -33.5t-13.5 -114.5q0 -85 13.5 -121t57.5 -36t57 36
t13 121z" />
    <glyph glyph-name="one.denominator" unicode="&#xf656;" horiz-adv-x="283" 
d="M260 0h-235v69h79v267q0 7 1 12l-41 -9q-13 -3 -39 -8v69l155 31v-362h80v-69z" />
    <glyph glyph-name="two.denominator" unicode="&#xf657;" horiz-adv-x="365" 
d="M323 305q0 -34 -18.5 -64.5t-36.5 -45t-54 -39.5q-69 -48 -90 -87h126v58h72v-127h-286q0 42 11 76t34.5 60t40.5 40.5t47 35.5q38 27 58 48t20 45q0 58 -56 58q-41 0 -58 -18t-22 -51h-70q4 57 39 96.5t111 39.5q58 0 95 -33t37 -92z" />
    <glyph glyph-name="three.denominator" unicode="&#xf658;" horiz-adv-x="359" 
d="M328 129q0 -67 -41.5 -102.5t-109.5 -35.5q-58 0 -96 22t-65 73l60 28q19 -34 41 -46t60 -12q75 0 75 73q0 29 -16.5 44.5t-47.5 15.5h-72l-19 67h91q25 0 40.5 14.5t15.5 42.5q0 52 -62 52q-38 0 -59.5 -12t-40.5 -46l-60 28q27 51 65 73t96 22q72 0 105 -32.5t33 -84.5
q0 -55 -41 -86q48 -33 48 -98z" />
    <glyph glyph-name="four.denominator" unicode="&#xf659;" horiz-adv-x="356" 
d="M346 104h-44v-104h-75v104h-206v63l212 254h69v-246h44v-71zM124 175h103v126z" />
    <glyph glyph-name="five.denominator" unicode="&#xf65a;" horiz-adv-x="359" 
d="M331 136q0 -66 -38 -105.5t-112 -39.5q-58 0 -96 22t-65 73l60 28q18 -34 40.5 -46t60.5 -12q74 0 74 80q0 76 -84 76q-53 0 -101 -16l-28 24l23 201h259l-20 -67h-179q-1 -7 -2 -21t-2 -21q-1 -8 -2 -20t-2 -20q20 4 62 4q152 0 152 -140z" />
    <glyph glyph-name="six.denominator" unicode="&#xf65b;" horiz-adv-x="362" 
d="M330 145q0 -154 -149 -154q-148 0 -148 154v73q0 46 4.5 78t19.5 65.5t48 51t84 17.5q88 0 136 -65l-51 -47q-39 45 -85 45q-39 0 -57.5 -20t-21.5 -74q29 19 71 19q149 0 149 -143zM254 145q0 41 -16.5 58.5t-56.5 17.5q-72 0 -72 -76q0 -48 16.5 -67.5t55.5 -19.5
t56 19.5t17 67.5z" />
    <glyph glyph-name="seven.denominator" unicode="&#xf65c;" horiz-adv-x="335" 
d="M229 352h-131v-58h-72v127h293v-56l-193 -365h-84z" />
    <glyph glyph-name="eight.denominator" unicode="&#xf65d;" horiz-adv-x="362" 
d="M334 129q0 -138 -148 -138q-149 0 -149 138q0 63 44 94q-38 29 -38 84q0 123 142 123q143 0 143 -123q0 -55 -38 -84q44 -31 44 -94zM258 129q0 25 -13 42t-36 17h-47q-23 0 -36 -17t-13 -42q0 -40 16.5 -55.5t55.5 -15.5q40 0 56.5 15.5t16.5 55.5zM253 307q0 32 -17 44
t-51 12t-50.5 -12t-16.5 -44q0 -26 12 -39t29 -13h53q17 0 29 13t12 39z" />
    <glyph glyph-name="nine.denominator" unicode="&#xf65e;" horiz-adv-x="363" 
d="M328 277v-74q0 -46 -4.5 -78t-19.5 -65.5t-48 -51t-84 -17.5q-89 0 -135 66l49 46q41 -45 86 -45q39 0 57.5 20t21.5 75q-29 -19 -71 -19q-149 0 -149 143q0 153 149 153q148 0 148 -153zM252 277q0 47 -16.5 66.5t-55.5 19.5t-56 -19.5t-17 -66.5q0 -41 16.5 -59
t56.5 -18q72 0 72 77z" />
    <glyph glyph-name="zero.numerator" unicode="&#xf661;" horiz-adv-x="364" 
d="M329 520q0 -41 -3 -71t-12 -60.5t-24.5 -49.5t-42.5 -31t-65 -12t-65 12t-42.5 31t-24.5 49.5t-12 60.5t-3 71q0 49 6 84.5t21 67t45 47.5t75 16q85 0 116 -56.5t31 -158.5zM252 520q0 81 -13 114.5t-57 33.5t-57.5 -33.5t-13.5 -114.5q0 -85 13.5 -121t57.5 -36t57 36
t13 121z" />
    <glyph glyph-name="one.numerator" unicode="&#xf662;" horiz-adv-x="283" 
d="M260 305h-235v69h79v267q0 7 1 12l-41 -9q-13 -3 -39 -8v69l155 31v-362h80v-69z" />
    <glyph glyph-name="two.numerator" unicode="&#xf663;" horiz-adv-x="365" 
d="M323 610q0 -34 -18.5 -64.5t-36.5 -45t-54 -39.5q-69 -48 -90 -87h126v58h72v-127h-286q0 42 11 76t34.5 60t40.5 40.5t47 35.5q38 27 58 48t20 45q0 58 -56 58q-41 0 -58 -18t-22 -51h-70q4 57 39 96.5t111 39.5q58 0 95 -33t37 -92z" />
    <glyph glyph-name="three.numerator" unicode="&#xf664;" horiz-adv-x="359" 
d="M328 434q0 -67 -41.5 -102.5t-109.5 -35.5q-58 0 -96 22t-65 73l60 28q19 -34 41 -46t60 -12q75 0 75 73q0 29 -16.5 44.5t-47.5 15.5h-72l-19 67h91q25 0 40.5 14.5t15.5 42.5q0 52 -62 52q-38 0 -59.5 -12t-40.5 -46l-60 28q27 51 65 73t96 22q72 0 105 -32.5t33 -84.5
q0 -55 -41 -86q48 -33 48 -98z" />
    <glyph glyph-name="four.numerator" unicode="&#xf665;" horiz-adv-x="356" 
d="M346 409h-44v-104h-75v104h-206v63l212 254h69v-246h44v-71zM124 480h103v126z" />
    <glyph glyph-name="five.numerator" unicode="&#xf666;" horiz-adv-x="359" 
d="M331 441q0 -66 -38 -105.5t-112 -39.5q-58 0 -96 22t-65 73l60 28q18 -34 40.5 -46t60.5 -12q74 0 74 80q0 76 -84 76q-53 0 -101 -16l-28 24l23 201h259l-20 -67h-179q-1 -7 -2 -21t-2 -21t-2 -19.5t-2 -20.5q20 4 62 4q152 0 152 -140z" />
    <glyph glyph-name="six.numerator" unicode="&#xf667;" horiz-adv-x="362" 
d="M330 450q0 -154 -149 -154q-148 0 -148 154v73q0 46 4.5 78t19.5 65.5t48 51t84 17.5q88 0 136 -65l-51 -47q-39 45 -85 45q-39 0 -57.5 -20t-21.5 -74q29 19 71 19q149 0 149 -143zM254 450q0 41 -16.5 58.5t-56.5 17.5q-72 0 -72 -76q0 -48 16.5 -67.5t55.5 -19.5
t56 19.5t17 67.5z" />
    <glyph glyph-name="seven.numerator" unicode="&#xf668;" horiz-adv-x="335" 
d="M229 657h-131v-58h-72v127h293v-56l-193 -365h-84z" />
    <glyph glyph-name="eight.numerator" unicode="&#xf669;" horiz-adv-x="362" 
d="M334 434q0 -138 -148 -138q-149 0 -149 138q0 63 44 94q-38 29 -38 84q0 123 142 123q143 0 143 -123q0 -55 -38 -84q44 -31 44 -94zM258 434q0 25 -13 42t-36 17h-47q-23 0 -36 -17t-13 -42q0 -40 16.5 -55.5t55.5 -15.5q40 0 56.5 15.5t16.5 55.5zM253 612q0 32 -17 44
t-51 12t-50.5 -12t-16.5 -44q0 -26 12 -39t29 -13h53q17 0 29 13t12 39z" />
    <glyph glyph-name="nine.numerator" unicode="&#xf66a;" horiz-adv-x="363" 
d="M328 582v-74q0 -46 -4.5 -78t-19.5 -65.5t-48 -51t-84 -17.5q-89 0 -135 66l49 46q41 -45 86 -45q39 0 57.5 20t21.5 75q-29 -19 -71 -19q-149 0 -149 143q0 153 149 153q148 0 148 -153zM252 582q0 47 -16.5 66.5t-55.5 19.5t-56 -19.5t-17 -66.5q0 -41 16.5 -59
t56.5 -18q72 0 72 77z" />
    <glyph glyph-name="commaaccent" unicode="&#xf6c3;" horiz-adv-x="311" 
d="M171 -273l-45 31q25 34 25 85h-51q-7 0 -8.5 2t-1.5 9v92q0 12 10 12h111q10 0 10 -12v-68q0 -47 -10 -82t-40 -69z" />
    <glyph glyph-name="one.fitted" unicode="&#xf6dc;" horiz-adv-x="477" 
d="M434 0h-390v95h142v490q0 23 7 37l-150 -29v93l248 50v-641h143v-95z" />
    <glyph glyph-name="a.superior" unicode="&#xf6e9;" horiz-adv-x="344" 
d="M299 305h-59l-6 20q-45 -29 -97 -29q-117 0 -117 113q0 106 126 106q43 0 81 -8v34q0 40 -53 40q-56 0 -84 -39l-56 32q39 67 141 67q124 0 124 -101v-235zM227 386v64h-6.5t-6.5 1q-36 6 -56 6q-66 0 -66 -48q0 -52 45 -52q46 0 90 29z" />
    <glyph glyph-name="b.superior" unicode="&#xf6ea;" horiz-adv-x="364" 
d="M337 469q0 -91 -38.5 -132t-118.5 -41q-73 0 -137 28v451h72v-138q0 -12 -1 -15q38 19 74 19q149 0 149 -172zM264 469q0 61 -18 86.5t-60 25.5q-30 0 -71 -19v-200q30 -10 65 -10q48 0 66 28.5t18 88.5z" />
    <glyph glyph-name="d.superior" unicode="&#xf6eb;" horiz-adv-x="366" 
d="M321 305h-52l-7 20q-43 -29 -87 -29q-148 0 -148 173q0 172 148 172q40 0 76 -18l-2 4v148h72v-470zM249 381v181q-31 18 -74 18q-40 0 -58 -24.5t-18 -86.5q0 -55 16 -84.5t60 -29.5q34 0 74 26z" />
    <glyph glyph-name="e.superior" unicode="&#xf6ec;" horiz-adv-x="356" 
d="M328 445h-229q2 -45 21.5 -66.5t61.5 -21.5q60 0 83 48l62 -23q-44 -86 -145 -86q-80 0 -117.5 42t-37.5 131q0 85 35 128.5t120 43.5q146 0 146 -172v-24zM182 580q-41 0 -60 -16t-22 -59h153q-5 75 -71 75z" />
    <glyph glyph-name="i.superior" unicode="&#xf6ed;" horiz-adv-x="152" 
d="M111 305h-70v327h70v-327zM35 764v-59q0 -11 9 -11h64q9 0 9 11v59q0 11 -9 11h-64q-9 0 -9 -11z" />
    <glyph glyph-name="l.superior" unicode="&#xf6ee;" horiz-adv-x="180" 
d="M167 300h-49q-76 0 -76 85v390h72v-390q0 -21 11 -21h42v-64z" />
    <glyph glyph-name="m.superior" unicode="&#xf6ef;" horiz-adv-x="541" 
d="M500 305h-72v212q0 64 -38 64q-34 0 -83 -34q1 -9 1 -30v-212h-71v212q0 64 -38 64q-33 0 -82 -33v-243h-72v327h58l10 -27q53 36 101 36q54 0 82 -43q28 23 49.5 33t55.5 10q52 0 75.5 -28.5t23.5 -95.5v-212z" />
    <glyph glyph-name="o.superior" unicode="&#xf6f0;" horiz-adv-x="356" 
d="M329 469q0 -173 -151 -173t-151 173q0 84 35.5 128t115.5 44q151 0 151 -172zM256 469q0 62 -18 87t-60 25t-60.5 -25t-18.5 -87t18.5 -87.5t60.5 -25.5t60 25.5t18 87.5z" />
    <glyph glyph-name="r.superior" unicode="&#xf6f1;" horiz-adv-x="232" 
d="M226 639v-62q-29 0 -39 -0.5t-29.5 -7t-43.5 -20.5v-244h-72v327h60l7 -24q34 33 82 33q21 0 35 -2z" />
    <glyph glyph-name="s.superior" unicode="&#xf6f2;" horiz-adv-x="321" 
d="M291 406q0 -56 -38.5 -83t-99.5 -27q-96 0 -132 77l61 22q21 -40 71 -40q66 0 66 46q0 28 -31 34l-77 14q-82 14 -82 95q0 46 34 71.5t95 25.5q91 0 126 -65l-56 -28q-20 33 -69 33q-59 0 -59 -37q0 -25 27 -30l74 -13q90 -16 90 -95z" />
    <glyph glyph-name="t.superior" unicode="&#xf6f3;" horiz-adv-x="260" 
d="M220 378l38 -46q-38 -36 -95 -36q-104 0 -104 95v165q0 11 2 15h-54v61h52v107l72 21v-128h113l-19 -61h-94v-180q0 -34 36 -34q19 0 53 21z" />
    <glyph glyph-name="zero.oldstyle" unicode="&#xf730;" horiz-adv-x="554" 
d="M504 273q0 -62 -9.5 -109.5t-33 -90t-70 -65.5t-114.5 -23t-114.5 23t-70 65.5t-33 90t-9.5 109.5q0 279 227 279t227 -279zM399 273q0 100 -25 145t-97 45t-97 -45t-25 -145q0 -106 25 -154t97 -48t97 48t25 154z" />
    <glyph glyph-name="one.oldstyle" unicode="&#xf731;" horiz-adv-x="491" 
d="M441 0h-390v95h142v305q0 23 7 37l-150 -29v93l248 50v-456h143v-95z" />
    <glyph glyph-name="two.oldstyle" unicode="&#xf732;" horiz-adv-x="600" 
d="M533 0h-472q0 225 215 286q93 27 118 45t25 61q0 39 -26 57.5t-88 18.5q-72 0 -99 -26t-27 -82h-97q0 87 54 139.5t169 52.5q218 0 218 -160q0 -37 -11.5 -65t-27.5 -45.5t-48 -33.5t-55.5 -24t-67.5 -21q-57 -16 -88.5 -42t-49.5 -70h255v62h103v-153z" />
    <glyph glyph-name="three.oldstyle" unicode="&#xf733;" 
d="M557 31q0 -113 -69.5 -172t-185.5 -59q-98 0 -161 34t-104 112l82 39q31 -57 71.5 -78t111.5 -21q74 0 111.5 38t37.5 107q0 56 -34 88.5t-95 32.5h-116l-26 90h142q52 0 83.5 29.5t31.5 85.5q0 106 -125 106q-72 0 -112.5 -20t-70.5 -76l-82 39q41 78 104.5 112
t161.5 34q121 0 176 -54.5t55 -140.5q0 -102 -86 -155q47 -21 73 -67t26 -104z" />
    <glyph glyph-name="four.oldstyle" unicode="&#xf734;" 
d="M586 0h-77v-184h-105v184h-365v91l367 446h103v-440h77v-97zM412 385l-237 -288h229v248q0 18 8 40z" />
    <glyph glyph-name="five.oldstyle" unicode="&#xf735;" 
d="M560 43q0 -111 -63.5 -176.5t-189.5 -65.5q-98 0 -161 34t-104 112l82 40q31 -57 71.5 -78t111.5 -21q147 0 147 155q0 86 -44 118t-119 32q-101 0 -179 -25l-37 30l39 339h429l-26 -91h-318l-22 -180q42 12 128 12q118 0 186.5 -56t68.5 -179z" />
    <glyph glyph-name="six.oldstyle" unicode="&#xf736;" 
d="M555 243q0 -258 -250 -258t-250 258q0 20 -0.5 64.5t-0.5 68.5t1.5 66t6 66.5t13 59.5t21.5 56t33.5 45t47 37t62.5 22t80 9q152 0 221 -101l-70 -64q-32 36 -65 54.5t-86 18.5q-81 0 -117 -44.5t-39 -164.5q58 47 142 47q250 0 250 -240zM449 243q0 81 -33 115.5
t-111 34.5q-144 0 -144 -150q0 -92 33 -129.5t111 -37.5q77 0 110.5 38t33.5 129z" />
    <glyph glyph-name="seven.oldstyle" unicode="&#xf737;" 
d="M559 452l-336 -636h-121l315 593q9 16 27 33h-279v-103h-99v198h493v-85z" />
    <glyph glyph-name="eight.oldstyle" unicode="&#xf738;" 
d="M560 216q0 -231 -249 -231q-250 0 -250 231q0 115 88 166q-78 45 -78 151q0 99 60.5 151.5t178.5 52.5t179 -52.5t61 -151.5q0 -106 -78 -151q88 -51 88 -166zM445 533q0 65 -33.5 88.5t-101.5 23.5q-67 0 -100.5 -23.5t-33.5 -88.5q0 -54 26.5 -80.5t62.5 -26.5h91
q36 0 62.5 26.5t26.5 80.5zM454 216q0 51 -27.5 85.5t-75.5 34.5h-81q-48 0 -75.5 -34.5t-27.5 -85.5q0 -78 33 -109t110 -31t110.5 31t33.5 109z" />
    <glyph glyph-name="nine.oldstyle" unicode="&#xf739;" 
d="M552 294q0 -20 0.5 -64.5t0.5 -68.5t-1.5 -66t-6 -66.5t-13 -59.5t-21.5 -56t-33.5 -45t-47 -37t-62.5 -22t-80 -9q-152 0 -221 101l69 63q32 -36 65 -54.5t87 -18.5q81 0 117 45t39 165q-58 -47 -142 -47q-250 0 -250 240q0 258 250 258t250 -258zM446 294
q0 91 -33 128.5t-111 37.5q-77 0 -110.5 -37.5t-33.5 -128.5q0 -81 33 -115.5t111 -34.5q144 0 144 150z" />
    </font>
</defs>
</svg>
