<?xml version="1.0" standalone="no"?>
<!DOCTYPE svg PUBLIC "-//W3C//DTD SVG 1.1//EN" "http://www.w3.org/Graphics/SVG/1.1/DTD/svg11.dtd" >
<svg xmlns="http://www.w3.org/2000/svg" xmlns:xlink="http://www.w3.org/1999/xlink" version="1.1">
<metadata>
Created by FontForge 20150824 at Mon Jan 25 12:48:26 2016
 By Everything Fonts
Digitised data (c) 2002 Monotype Imaging, Inc. All Rights Reserved.
</metadata>
<defs>
<font id="SceneProLight" horiz-adv-x="590" >
  <font-face 
    font-family="SceneProLight"
    font-weight="300"
    font-stretch="normal"
    units-per-em="1000"
    panose-1="2 11 3 4 3 5 4 2 2 4"
    ascent="800"
    descent="-200"
    x-height="537"
    cap-height="721"
    bbox="-89 -259 1245 992"
    underline-thickness="20"
    underline-position="-153"
    unicode-range="U+0020-FB04"
  />
<missing-glyph horiz-adv-x="500" 
d="M12 0v665h475v-665h-475zM88 618l162 -243l161 243h-323zM60 575v-484l40 61l80 120l41 61zM440 575l-162 -242l162 -243v485zM411 48l-161 242l-162 -242h323z" />
    <glyph glyph-name="f_b" unicode="fb" horiz-adv-x="952" 
d="M903 271q0 -144 -65 -215.5t-171 -71.5q-99 0 -213 58v696h-169q-124 0 -124 -134v-67h186l-10 -42h-176v-495h-50v495h-84v42h84v67q0 93 50 134t132 41h213v-286q59 36 96 48.5t75 12.5q226 0 226 -283zM851 271q0 242 -174 242q-69 0 -171 -64v-382q82 -42 161 -42
q87 0 135.5 61.5t48.5 184.5z" />
    <glyph glyph-name="f_f_b" unicode="ffb" horiz-adv-x="1294" 
d="M394 767l-10 -41q-62 12 -96 12q-127 0 -127 -134v-67h292v67q0 93 50 134t132 41h213v-286q59 36 96 48.5t75 12.5q226 0 226 -283q0 -144 -65 -215.5t-171 -71.5q-99 0 -213 58v696h-169q-124 0 -124 -134v-67h186l-10 -42h-176v-495h-50v494h-292v-494h-50v494h-84v43
h84v67q0 93 49.5 134t127.5 41q55 0 106 -12zM1193 271q0 242 -174 242q-69 0 -171 -64v-382q82 -42 161 -42q87 0 135.5 61.5t48.5 184.5z" />
    <glyph glyph-name="f_f_h" unicode="ffh" horiz-adv-x="1278" 
d="M394 767l-10 -41q-62 12 -96 12q-127 0 -127 -134v-67h292v67q0 93 50 134t132 41h209v-320l63 44q43 30 70 40.5t62 10.5q83 0 131.5 -48.5t48.5 -153.5v-352h-50v352q0 88 -34.5 124t-95.5 36q-29 0 -56.5 -11.5t-79.5 -48.5l-59 -42v-410h-49v738h-168
q-125 0 -125 -134v-67h187l-10 -41h-177v-496h-49v495h-292v-495h-50v494h-84v43h84v67q0 93 49.5 134t127.5 41q55 0 106 -12z" />
    <glyph glyph-name="f_f_j" unicode="ffj" horiz-adv-x="907" 
d="M394 767l-10 -41q-62 12 -96 12q-127 0 -127 -134v-67h292v67q0 93 49 134t125 41q46 0 97 -12l-8 -42q-71 13 -89 13q-124 0 -124 -134v-67h342v-647q0 -132 -139 -132h-43v45h43q52 0 70.5 23t18.5 79v590h-292v-495h-50v495h-292v-495h-50v495h-84v42h84v67
q0 93 49.5 134t127.5 41q55 0 106 -12zM844 725q0 -9 -1.5 -10.5t-9.5 -1.5h-44q-8 0 -9.5 1.5t-1.5 10.5v41q0 9 1.5 11t9.5 2h44q6 0 7.5 -0.5t2.5 -3t1 -9.5v-41z" />
    <glyph glyph-name="f_f_k" unicode="ffk" horiz-adv-x="1244" 
d="M394 767l-10 -41q-62 12 -96 12q-127 0 -127 -134v-67h292v67q0 93 50 134t132 41h210v-482l303 240h75l-257 -201l258 -336h-67l-230 306l-82 -65v-241h-50v738h-168q-124 0 -124 -134v-67h186l-10 -42h-176v-495h-50v494h-292v-494h-50v493h-84v44h84v67q0 93 49.5 134
t127.5 41q55 0 106 -12z" />
    <glyph glyph-name="f_h" unicode="fh" horiz-adv-x="936" 
d="M877 0h-50v352q0 88 -34.5 124t-95.5 36q-29 0 -56.5 -11.5t-79.5 -48.5l-59 -42v-410h-49v738h-168q-124 0 -124 -134v-67h186l-10 -42h-176v-495h-50v495h-84v42h84v67q0 93 50 134t132 41h209v-320l63 44q43 30 70 40.5t62 10.5q83 0 131.5 -48.5t48.5 -153.5v-352z
" />
    <glyph glyph-name="f_j" unicode="fj" horiz-adv-x="564" 
d="M502 -110q0 -132 -138 -132h-43v45h43q52 0 70 23t18 79v590h-291v-495h-50v495h-84v42h84v67q0 93 49 134t125 41q46 0 97 -12l-8 -42q-72 13 -89 13q-124 0 -124 -134v-67h341v-647zM502 725q0 -9 -1.5 -10.5t-9.5 -1.5h-44q-8 0 -9.5 1.5t-1.5 10.5v41q0 9 1.5 11
t9.5 2h44q6 0 7.5 -0.5t2.5 -3t1 -9.5v-41z" />
    <glyph glyph-name="f_k" unicode="fk" horiz-adv-x="902" 
d="M882 0h-67l-230 306l-82 -65v-241h-50v738h-168q-124 0 -124 -134v-67h186l-10 -42h-176v-495h-50v495h-84v42h84v67q0 93 50 134t132 41h210v-482l303 240h75l-257 -201z" />
    <glyph glyph-name="f_f" unicode="ff" horiz-adv-x="716" 
d="M735 767l-10 -41q-62 12 -96 12q-127 0 -127 -134v-67h186l-10 -43h-176v-494h-50v494h-291v-494h-50v494h-84v43h84v67q0 93 49.5 134t127.5 41q55 0 106 -12l-10 -41q-62 12 -96 12q-127 0 -127 -134v-67h291v67q0 93 49.5 134t127.5 41q55 0 106 -12z" />
    <glyph glyph-name="fi" unicode="fi" horiz-adv-x="564" 
d="M502 725q0 -9 -1.5 -10.5t-9.5 -1.5h-44q-8 0 -9.5 1.5t-1.5 10.5v41q0 9 1.5 11t9.5 2h44q6 0 7.5 -0.5t2.5 -3t1 -9.5v-41zM502 0h-49v495h-292v-495h-50v495h-84v42h84v67q0 93 49 134t125 41q46 0 97 -12l-8 -42q-72 13 -89 13q-124 0 -124 -134v-67h341v-537z" />
    <glyph glyph-name="fl" unicode="fl" horiz-adv-x="625" 
d="M590 -8h-29q-55 0 -81 29t-26 92v625h-169q-124 0 -124 -134v-67h186l-10 -42h-176v-495h-50v495h-84v42h84v67q0 93 50 134t132 41h211v-666q0 -40 14 -57t43 -17h29v-47z" />
    <glyph glyph-name="f_f_i" unicode="ffi" horiz-adv-x="915" 
d="M394 767l-10 -41q-62 12 -96 12q-127 0 -127 -134v-67h291v67q0 93 49 134t125 41q46 0 97 -12l-8 -42q-71 13 -89 13q-124 0 -124 -134v-67h341v-537h-49v495h-292v-495h-50v494h-291v-494h-50v493h-84v44h84v67q0 93 49.5 134t127.5 41q55 0 106 -12zM853 725
q0 -9 -1.5 -10.5t-9.5 -1.5h-44q-8 0 -9.5 1.5t-1.5 10.5v41q0 9 1.5 11t9.5 2h44q6 0 7.5 -0.5t2.5 -3t1 -9.5v-41z" />
    <glyph glyph-name="f_f_l" unicode="ffl" horiz-adv-x="933" 
d="M394 767l-10 -41q-62 12 -96 12q-127 0 -127 -134v-67h292v67q0 93 50 134t132 41h209v-666q0 -40 13 -57t42 -17h29v-47h-29q-55 0 -81 29t-26 92v625h-165q-124 0 -124 -134v-67h186l-10 -42h-176v-495h-50v494h-292v-494h-50v493h-84v44h84v67q0 93 49.5 134t127.5 41
q55 0 106 -12z" />
    <glyph glyph-name=".notdef" horiz-adv-x="500" 
d="M12 0v665h475v-665h-475zM88 618l162 -243l161 243h-323zM60 575v-484l40 61l80 120l41 61zM440 575l-162 -242l162 -243v485zM411 48l-161 242l-162 -242h323z" />
    <glyph glyph-name=".null" horiz-adv-x="0" 
 />
    <glyph glyph-name="nonmarkingreturn" horiz-adv-x="333" 
 />
    <glyph glyph-name="space" unicode=" " horiz-adv-x="230" 
 />
    <glyph glyph-name="exclam" unicode="!" horiz-adv-x="253" 
d="M153 390l-13 -202h-28l-12 202v389h53v-389zM164 11q0 -8 -1 -9.5t-9 -1.5h-56q-8 0 -9 1.5t-1 9.5v53q0 9 1 10.5t9 1.5h56q8 0 9 -1.5t1 -10.5v-53z" />
    <glyph glyph-name="quotedbl" unicode="&#x22;" horiz-adv-x="332" 
d="M283 721l-30 -234q-1 -9 -3.5 -11.5t-8.5 -2.5h-5q-7 0 -9.5 3t-2.5 11v234h59zM116 721l-30 -234q-1 -9 -3.5 -11.5t-8.5 -2.5h-5q-7 0 -9.5 3t-2.5 11v234h59z" />
    <glyph glyph-name="numbersign" unicode="#" horiz-adv-x="574" 
d="M529 239h-143l-28 -200h-37l27 200h-170l-27 -200h-38l26 200h-94v37h99l25 174h-124v37h128l28 199h38l-27 -199h170l28 199h37l-27 -199h109v-37h-112l-25 -174h137v-37zM377 450h-169l-26 -174h170z" />
    <glyph glyph-name="dollar" unicode="$" 
d="M511 240q0 -67 -52 -120t-150 -57v-133h-39v132q-87 0 -136 40t-54 97h49q10 -96 160 -96q78 0 126 37t48 100q0 55 -19.5 79.5t-74.5 32.5l-158 24q-67 11 -93.5 46.5t-26.5 92.5q0 62 41.5 107.5t137.5 52.5v108h39v-107q90 -4 136.5 -44t51.5 -102h-47
q-9 104 -159 104q-79 0 -115.5 -32.5t-36.5 -86.5q0 -44 18 -65.5t67 -28.5l149 -23q68 -10 103 -47t35 -111z" />
    <glyph glyph-name="percent" unicode="%" horiz-adv-x="849" 
d="M326 530q0 -55 -5.5 -92.5t-19.5 -69t-42 -47t-71 -15.5q-82 0 -110.5 55.5t-28.5 168.5q0 107 29.5 161t109.5 54q79 0 108.5 -54t29.5 -161zM281 530q0 45 -2.5 71.5t-11.5 53t-28.5 38.5t-50.5 12q-25 0 -43 -9t-28 -22.5t-15 -38t-6.5 -47.5t-1.5 -58
q0 -37 1.5 -60.5t6.5 -49.5t15 -40.5t28 -24t43 -9.5t43 9.5t27.5 24t14.5 40.5t6.5 49.5t1.5 60.5zM685 737l-485 -753h-42l486 753h41zM800 215q0 -55 -5.5 -92.5t-19.5 -69t-42 -47t-71 -15.5q-82 0 -110.5 55.5t-28.5 168.5q0 107 29.5 161t109.5 54q79 0 108.5 -54
t29.5 -161zM755 215q0 45 -2.5 71.5t-11.5 53t-28.5 38.5t-50.5 12q-25 0 -43 -9t-28 -22.5t-15 -38t-6.5 -47.5t-1.5 -58q0 -37 1.5 -60.5t6.5 -49.5t15 -40.5t28 -24t43 -9.5t43 9.5t27.5 24t14.5 40.5t6.5 49.5t1.5 60.5z" />
    <glyph glyph-name="ampersand" unicode="&#x26;" horiz-adv-x="636" 
d="M639 -3l-54 -13l-94 99q-75 -99 -205 -99q-104 0 -171 47.5t-67 150.5v30q0 114 107 163l42 19l-33 34q-51 52 -51 137v18q0 79 48 116.5t127 37.5q78 0 127.5 -38t49.5 -116v-18q0 -53 -23.5 -86t-72.5 -56l-93 -43l209 -220q31 71 31 168v28h47v-28q0 -118 -45 -203z
M416 565v18q0 114 -128 114q-72 0 -99 -30.5t-27 -83.5v-18q0 -42 9 -62t38 -52l33 -36l96 44q46 21 62 41.5t16 64.5zM460 115l-231 244l-45 -20q-42 -18 -64.5 -46.5t-22.5 -80.5v-30q0 -157 189 -157q112 0 174 90z" />
    <glyph glyph-name="quotesingle" unicode="'" horiz-adv-x="160" 
d="M116 721l-30 -234q-2 -14 -13 -14h-5q-7 0 -9 2.5t-2 11.5v234h59z" />
    <glyph glyph-name="parenleft" unicode="(" horiz-adv-x="315" 
d="M290 -163q-43 3 -77 23t-55.5 55.5t-35.5 76.5t-21.5 96.5t-10 104.5t-2.5 111t2.5 111t10 104.5t21.5 96.5t35.5 76.5t55.5 55.5t77 23v-34q-22 -2 -40.5 -11t-32.5 -25.5t-25 -33.5t-18.5 -44.5t-13.5 -47.5t-9 -54t-5 -53t-3 -54t-1 -48v-44v-18v-18v-63t3 -71.5
t8 -79t16 -71.5t26 -64.5t39.5 -43.5t55.5 -22v-34z" />
    <glyph glyph-name="parenright" unicode=")" horiz-adv-x="315" 
d="M227 304q0 -62 -2.5 -111t-10 -104.5t-21.5 -96.5t-35.5 -76.5t-55.5 -55.5t-77 -23v34q31 3 55.5 22t39.5 43t26 65t16 71.5t8 79.5t3 70.5v63.5v18q0 178 -16 259q-32 164 -132 174v34q43 -3 77 -23t55.5 -55.5t35.5 -76.5t21.5 -96.5t10 -104.5t2.5 -111z" />
    <glyph glyph-name="asterisk" unicode="*" horiz-adv-x="395" 
d="M360 582q0 -3 -4 -3l-137 -26l95 -106q2 -2 2 -3t-5 -6l-34 -25q-4 -4 -7 -4l-2 2l-69 124l-69 -124q-1 -2 -3 -2q-3 0 -8 4l-35 24q-4 3 -4 5t2 4l95 104l-139 28q-3 0 -3 3t1 6l14 40q2 7 4 7h1l1 -1l127 -59l-14 142v2q0 3 7 3h43q7 0 7 -3v-2l-17 -141l129 59h1
q1 1 2 1q4 0 5 -7l12 -39q2 -6 2 -7z" />
    <glyph glyph-name="plus" unicode="+" 
d="M538 339h-220v-222h-44v222h-222v42h222v222h44v-222h220v-42z" />
    <glyph glyph-name="comma" unicode="," horiz-adv-x="220" 
d="M150 12q0 -95 -86 -158l-14 13q37 34 52 64t15 69h-33q-8 0 -9 1.5t-1 9.5v53q0 9 1 10.5t9 1.5h56q8 0 9 -1.5t1 -10.5v-52z" />
    <glyph glyph-name="hyphen" unicode="-" horiz-adv-x="353" 
d="M321 306h-289v47h289v-47z" />
    <glyph glyph-name="period" unicode="." horiz-adv-x="220" 
d="M148 11q0 -8 -1 -9.5t-9 -1.5h-56q-8 0 -9 1.5t-1 9.5v53q0 9 1 10.5t9 1.5h56q8 0 9 -1.5t1 -10.5v-53z" />
    <glyph glyph-name="slash" unicode="/" horiz-adv-x="502" 
d="M446 737l-342 -753h-48l342 753h48z" />
    <glyph glyph-name="zero" unicode="0" 
d="M527 369q0 -75 -5 -129.5t-19.5 -105t-40 -82t-67.5 -50t-100 -18.5t-100 18.5t-67.5 50t-40 82t-19.5 105t-5 129.5q0 71 6 124.5t21 101t41 77.5t67 47.5t97 17.5t97 -17.5t67 -47.5t41 -77.5t21 -101t6 -124.5zM475 369q0 66 -2.5 108t-13 87.5t-29.5 71t-52.5 42
t-82.5 16.5t-82.5 -16.5t-52.5 -42t-29.5 -71t-13 -87.5t-2.5 -108q0 -69 2.5 -113t13 -92t29 -75t52.5 -44.5t83 -17.5t83 17.5t52.5 44.5t29 75t13 92t2.5 113z" />
    <glyph glyph-name="one" unicode="1" 
d="M490 0h-389v42h169v636l-169 -38v43l221 50v-691h168v-42z" />
    <glyph glyph-name="two" unicode="2" 
d="M517 542q0 -46 -19 -85.5t-50 -69.5t-69 -57.5t-78.5 -56.5t-76 -60.5t-64 -75.5t-40.5 -95h351v110h44v-152h-450q2 61 25.5 113.5t59 89.5t78 70.5t84.5 62.5t76.5 59t56 67.5t21.5 79.5q0 152 -154 152q-165 0 -190 -126h-45q10 69 65 119t170 50q92 0 148.5 -50
t56.5 -145z" />
    <glyph glyph-name="three" unicode="3" 
d="M533 204q0 -108 -65 -164t-177 -56q-92 0 -148 31.5t-93 101.5l42 21q34 -61 77.5 -87.5t121.5 -26.5q92 0 141.5 46.5t49.5 133.5q0 75 -46 116t-118 41h-104l-12 46h116q64 0 107 36.5t43 113.5q0 140 -163 140q-140 0 -191 -101l-39 19q62 122 230 122q112 0 163 -50
t51 -130q0 -122 -116 -172q65 -23 97.5 -70.5t32.5 -110.5z" />
    <glyph glyph-name="four" unicode="4" 
d="M562 202h-82v-202h-48v202h-387v57l372 462h63v-476h82v-43zM432 245v423l-339 -423h339z" />
    <glyph glyph-name="five" unicode="5" 
d="M527 212q0 -103 -61.5 -165.5t-187.5 -62.5q-92 0 -148 31.5t-93 101.5l42 21q33 -60 76.5 -85.5t122.5 -25.5q98 0 147 48.5t49 136.5q0 105 -48 146.5t-148 41.5q-107 0 -183 -28l-28 23l38 326h393l-12 -42h-342l-30 -257q75 22 164 22q249 0 249 -232z" />
    <glyph glyph-name="six" unicode="6" 
d="M531 233q0 -122 -53.5 -185.5t-181.5 -63.5q-164 0 -210 111q-25 59 -25 200v20v19q0 159 14 222q32 145 159 173q35 8 77 8q134 0 194 -74l-31 -29q-60 60 -163 60q-105 0 -152 -62t-47 -219q0 -5 0.5 -15t0.5 -16q71 80 183 80q126 0 180.5 -56t54.5 -173zM480 233
q0 102 -43.5 144t-140.5 42q-83 0 -133.5 -48t-50.5 -138q0 -110 43.5 -158t140.5 -48t140.5 48t43.5 158z" />
    <glyph glyph-name="seven" unicode="7" 
d="M535 667l-346 -667h-59l357 679h-371v-111h-44v153h463v-54z" />
    <glyph glyph-name="eight" unicode="8" 
d="M535 204q0 -108 -55.5 -164t-178.5 -56t-178.5 56t-55.5 164q0 130 115 181q-105 47 -105 162q0 96 54.5 143t169.5 47t169.5 -47t54.5 -143q0 -115 -105 -162q115 -51 115 -181zM475 547q0 46 -14 77t-40.5 45.5t-54 19.5t-65.5 5t-65.5 -5t-54 -19.5t-40.5 -45.5
t-14 -77q0 -71 40.5 -106t90.5 -35h86q50 0 90.5 35t40.5 106zM484 204q0 65 -37 110.5t-103 45.5h-86q-66 0 -103 -45.5t-37 -110.5q0 -98 44.5 -137.5t138.5 -39.5t138.5 39.5t44.5 137.5z" />
    <glyph glyph-name="nine" unicode="9" 
d="M529 387q0 -159 -14 -222q-32 -145 -159 -173q-35 -8 -77 -8q-134 0 -194 74l31 29q60 -60 163 -60q105 0 152 62t47 219q0 5 -0.5 15t-0.5 16q-71 -80 -183 -80q-126 0 -180.5 56t-54.5 173q0 122 53.5 185.5t181.5 63.5q164 0 210 -111q25 -59 25 -200v-20v-19z
M478 488q0 110 -43.5 158t-140.5 48t-140.5 -48t-43.5 -158q0 -102 43.5 -144t140.5 -42q83 0 133.5 48t50.5 138z" />
    <glyph glyph-name="colon" unicode=":" horiz-adv-x="220" 
d="M148 472q0 -8 -1 -9.5t-9 -1.5h-56q-8 0 -9 1.5t-1 9.5v53q0 9 1 10.5t9 1.5h56q8 0 9 -1.5t1 -10.5v-53zM148 11q0 -8 -1 -9.5t-9 -1.5h-56q-8 0 -9 1.5t-1 9.5v53q0 9 1 10.5t9 1.5h56q8 0 9 -1.5t1 -10.5v-53z" />
    <glyph glyph-name="semicolon" unicode=";" horiz-adv-x="220" 
d="M147 472q0 -6 -0.5 -8t-2 -2.5t-7.5 -0.5h-56q-7 0 -8.5 1.5t-1.5 9.5v53q0 12 10 12h56q7 0 8.5 -1.5t1.5 -10.5v-53zM147 12q0 -95 -86 -158l-11 10q64 62 64 136h-33q-7 0 -8.5 1.5t-1.5 9.5v53q0 12 10 12h56q7 0 8.5 -1.5t1.5 -10.5v-52z" />
    <glyph glyph-name="less" unicode="&#x3c;" 
d="M468 80h-62l-281 280l281 280h58l-277 -280z" />
    <glyph glyph-name="equal" unicode="=" 
d="M533 478h-476v41h476v-41zM533 203h-476v43h476v-43z" />
    <glyph glyph-name="greater" unicode="&#x3e;" 
d="M466 360l-281 -280h-62l281 280l-277 280h58z" />
    <glyph glyph-name="question" unicode="?" horiz-adv-x="490" 
d="M453 586q0 -50 -24 -87.5t-72 -78.5q-68 -58 -83 -78q-28 -38 -28 -99v-64h-53v64q0 17 2 33t7.5 30.5t9 25t14.5 24t15 20t19 20t18.5 17t21 18t19.5 16.5q51 43 66 69.5t15 69.5v20q0 72 -34 108.5t-110 36.5q-88 0 -126.5 -31.5t-42.5 -101.5h-49q1 36 10.5 64
t31.5 55.5t66.5 43t109.5 15.5q95 0 146 -47t51 -143v-20zM259 11q0 -6 -0.5 -8t-2 -2.5t-7.5 -0.5h-56q-7 0 -8.5 1.5t-1.5 9.5v53q0 12 10 12h56q7 0 8.5 -1.5t1.5 -10.5v-53z" />
    <glyph glyph-name="at" unicode="@" horiz-adv-x="941" 
d="M865 322q0 -122 -62.5 -207t-164.5 -85h-88l12 78q-55 -48 -96 -69.5t-94 -21.5q-51 0 -83 39t-32 121q0 141 63.5 226.5t193.5 85.5q62 0 130 -15q12 -34 12 -72q0 -13 -4 -39l-42 -290h28q83 0 131.5 70.5t48.5 178.5q0 126 -80 208.5t-244 82.5q-90 0 -161.5 -31
t-116 -83.5t-67.5 -118.5t-23 -140q0 -67 20 -128.5t58 -110t98 -77.5t135 -29q106 0 200 51l23 -39q-115 -56 -223 -56q-114 0 -198 56.5t-123.5 143t-39.5 189.5q0 81 26.5 155t76.5 135t131.5 97t183.5 36q182 0 276.5 -95t94.5 -246zM605 402q0 18 -3 34q-53 10 -88 10
q-204 0 -204 -269q0 -114 69 -114q47 0 88 25t108 87l27 185q3 18 3 42z" />
    <glyph glyph-name="A" unicode="A" horiz-adv-x="644" 
d="M614 0h-51l-84 234h-318l-84 -234h-47l260 721h65zM463 279l-143 403l-143 -403h286z" />
    <glyph glyph-name="B" unicode="B" horiz-adv-x="602" 
d="M562 208q0 -208 -253 -208h-244v721h244q113 0 165.5 -44.5t52.5 -133.5q0 -57 -28.5 -100.5t-77.5 -59.5q63 -11 102 -58.5t39 -116.5zM476 543q0 42 -13 70.5t-38 42t-52 18.5t-64 5h-195v-277h206q66 0 111 33t45 108zM511 208q0 38 -14 66.5t-34 44t-47.5 25.5
t-50 12.5t-45.5 2.5h-206v-317h195q109 0 155.5 38t46.5 128z" />
    <glyph glyph-name="C" unicode="C" horiz-adv-x="599" 
d="M564 113q-67 -129 -231 -129q-84 0 -142 27.5t-89 80.5t-44 117.5t-13 151.5q0 192 63 284t217 92q111 0 168 -49t67 -120h-43q-27 126 -193 126q-59 0 -101.5 -18t-67 -46t-38 -73.5t-17.5 -89.5t-4 -106q0 -57 4 -99.5t18.5 -89t39 -76.5t69 -49.5t106.5 -19.5
q139 0 195 109z" />
    <glyph glyph-name="D" unicode="D" horiz-adv-x="636" 
d="M601 369q0 -169 -82.5 -269t-260.5 -100h-193v721h193q177 0 260 -94.5t83 -257.5zM550 369q0 310 -292 310h-144v-637h144q292 0 292 327z" />
    <glyph glyph-name="E" unicode="E" horiz-adv-x="546" 
d="M506 0h-441v721h440v-42h-391v-276h344l-12 -43h-332v-318h392v-42z" />
    <glyph glyph-name="F" unicode="F" horiz-adv-x="479" 
d="M449 721l-12 -42h-323v-287h275v-42h-275v-350h-49v721h384z" />
    <glyph glyph-name="G" unicode="G" horiz-adv-x="648" 
d="M583 79q-31 -27 -57.5 -45t-76 -34t-105.5 -16q-157 0 -228 94t-71 283q0 88 15 154.5t49 117.5t93 77.5t141 26.5q111 0 168.5 -49t67.5 -120h-43q-26 126 -193 126q-60 0 -104 -16.5t-71.5 -45t-44 -72t-22.5 -91t-6 -108.5q0 -58 6 -104t22.5 -90.5t43.5 -74t72 -47.5
t105 -18q62 0 103.5 17.5t86.5 51.5v217h-192l-11 41h252v-275z" />
    <glyph glyph-name="H" unicode="H" horiz-adv-x="677" 
d="M612 0h-49v358h-449v-358h-49v721h49v-315h449v315h49v-721z" />
    <glyph glyph-name="I" unicode="I" horiz-adv-x="179" 
d="M114 0h-49v721h49v-721z" />
    <glyph glyph-name="J" unicode="J" horiz-adv-x="410" 
d="M345 201q0 -118 -50.5 -167.5t-147.5 -49.5q-71 0 -122 37l23 33q44 -30 99 -30q81 0 115 41.5t34 135.5v520h49v-520z" />
    <glyph glyph-name="K" unicode="K" horiz-adv-x="602" 
d="M582 0h-61l-290 382l-117 -115v-267h-49v721h49v-394l401 394h61l-311 -306z" />
    <glyph glyph-name="L" unicode="L" horiz-adv-x="484" 
d="M454 0h-389v721h49v-679h340v-42z" />
    <glyph glyph-name="M" unicode="M" horiz-adv-x="788" 
d="M724 0h-48l-47 647l-209 -469h-52l-209 469l-47 -647h-48l51 721h60l219 -494l219 494h60z" />
    <glyph glyph-name="N" unicode="N" horiz-adv-x="689" 
d="M624 0h-52l-458 645v-645h-49v721h52l459 -646l-1 646h49v-721z" />
    <glyph glyph-name="O" unicode="O" horiz-adv-x="665" 
d="M620 369q0 -191 -63.5 -288t-225.5 -97q-84 0 -141 26t-88 79t-44 120t-13 160q0 84 13 147t44 115t88.5 79t140.5 27t141 -27t89.5 -79t45 -115t13.5 -147zM569 369q0 161 -52 243t-186 82t-184.5 -81.5t-50.5 -243.5q0 -176 50 -259t185 -83t186.5 83.5t51.5 258.5z
" />
    <glyph glyph-name="P" unicode="P" horiz-adv-x="571" 
d="M536 502q0 -98 -61 -158.5t-186 -60.5h-175v-283h-49v721h224q127 0 187 -60.5t60 -158.5zM486 502q0 177 -197 177h-175v-354h175q197 0 197 177z" />
    <glyph glyph-name="Q" unicode="Q" horiz-adv-x="656" 
d="M620 371q0 -61 -5 -109.5t-21 -101.5t-43.5 -88t-76.5 -59.5t-116 -26.5q37 -2 60 -10l197 -72l-21 -45l-360 133q-55 20 -84 44q-64 54 -84.5 138t-20.5 197q0 84 13 146.5t44 114t88.5 78.5t140.5 27t141 -27t89.5 -78.5t45 -114.5t13.5 -146zM569 371q0 160 -52 241.5
t-186 81.5t-184.5 -81t-50.5 -242q0 -175 50 -259.5t185 -84.5q136 0 187 84.5t51 259.5z" />
    <glyph glyph-name="R" unicode="R" horiz-adv-x="583" 
d="M533 0h-57l-200 316h-162v-316h-49v721h217q245 0 245 -204q0 -169 -196 -200zM476 517q0 89 -48.5 125.5t-145.5 36.5h-168v-320h167q195 0 195 158z" />
    <glyph glyph-name="S" unicode="S" horiz-adv-x="580" 
d="M540 198q0 -89 -64.5 -151.5t-191.5 -62.5q-85 0 -148.5 33t-91.5 97l41 21q56 -108 199 -108q105 0 154.5 49.5t49.5 121.5q0 63 -28 98.5t-94 47.5l-160 29q-147 27 -147 181q0 36 11 66.5t35.5 57.5t71.5 43t112 16q156 0 215 -104l-42 -21q-51 82 -173 82
q-180 0 -180 -140q0 -61 24.5 -92t85.5 -42l160 -28q161 -28 161 -194z" />
    <glyph glyph-name="T" unicode="T" horiz-adv-x="568" 
d="M538 679h-229v-679h-49v679h-230v42h508v-42z" />
    <glyph glyph-name="U" unicode="U" horiz-adv-x="674" 
d="M614 294q0 -310 -277 -310t-277 310v427h49v-427q0 -138 57.5 -202.5t170.5 -64.5t170.5 64.5t57.5 202.5v427h49v-427z" />
    <glyph glyph-name="V" unicode="V" horiz-adv-x="643" 
d="M613 721l-259 -721h-64l-260 721h51l241 -673l240 673h51z" />
    <glyph glyph-name="W" unicode="W" horiz-adv-x="853" 
d="M823 721l-163 -721h-74l-161 628l-158 -628h-74l-163 721h49l152 -685l165 661h60l166 -661l152 685h49z" />
    <glyph glyph-name="X" unicode="X" horiz-adv-x="625" 
d="M590 0h-57l-215 333l-226 -333h-57l257 373l-226 348h57l200 -310l205 310h56l-236 -348z" />
    <glyph glyph-name="Y" unicode="Y" horiz-adv-x="611" 
d="M581 721l-251 -428v-293h-49v293l-251 428h52l224 -384l224 384h51z" />
    <glyph glyph-name="Z" unicode="Z" horiz-adv-x="558" 
d="M513 672l-416 -630h408v-42h-460v48l416 631h-394l-12 42h458v-49z" />
    <glyph glyph-name="bracketleft" unicode="[" horiz-adv-x="330" 
d="M305 -163h-187v934h187v-37l-139 -10v-840l139 -10v-37z" />
    <glyph glyph-name="backslash" unicode="\" horiz-adv-x="502" 
d="M446 -16h-48l-342 753h48z" />
    <glyph glyph-name="bracketright" unicode="]" horiz-adv-x="330" 
d="M212 -163h-187v37l139 10v840l-139 10v37h187v-934z" />
    <glyph glyph-name="asciicircum" unicode="^" 
d="M440 543l-28 -21l-117 144l-117 -144l-28 21l128 180q10 14 17 14t17 -14z" />
    <glyph glyph-name="underscore" unicode="_" horiz-adv-x="490" 
d="M500 -112h-510v47h510v-47z" />
    <glyph glyph-name="grave" unicode="`" horiz-adv-x="327" 
d="M67 746l172 -142q6 -4 12 2l12 11q5 5 1 9l-150 169z" />
    <glyph glyph-name="a" unicode="a" horiz-adv-x="541" 
d="M471 0h-33l-12 61q-90 -77 -206 -77q-86 0 -128.5 46t-42.5 126q0 61 30 99.5t71 51.5t94 13q78 0 178 -31v113q0 49 -32 80t-106 31q-62 0 -98.5 -10.5t-61.5 -42.5l-34 23q51 71 194 71q55 0 94.5 -15t58 -39.5t26.5 -48.5t8 -49v-402zM422 102v150q-98 29 -178 29
q-144 0 -144 -125q0 -131 120 -131q57 0 100 16.5t102 60.5z" />
    <glyph glyph-name="b" unicode="b" horiz-adv-x="566" 
d="M517 271q0 -144 -65 -215.5t-171 -71.5q-97 0 -211 58v737h50v-286q59 36 96 48.5t75 12.5q226 0 226 -283zM465 271q0 242 -174 242q-69 0 -171 -64v-382q82 -42 161 -42q87 0 135.5 61.5t48.5 184.5z" />
    <glyph glyph-name="c" unicode="c" horiz-adv-x="513" 
d="M486 85q-27 -50 -72.5 -75.5t-124.5 -25.5q-128 0 -184 71t-56 214t56 214t184 71q78 0 124 -25.5t73 -76.5l-42 -17q-46 78 -153 78q-99 0 -145 -57.5t-46 -186.5t46 -186.5t145 -57.5q107 0 153 78z" />
    <glyph glyph-name="d" unicode="d" horiz-adv-x="565" 
d="M495 0h-24l-25 46q-76 -62 -160 -62q-103 0 -170 67t-67 217q0 286 226 286q88 0 170 -49v274h50v-779zM445 93v366q-54 32 -90 42.5t-80 10.5q-91 0 -133 -61t-42 -183q0 -243 186 -243q41 0 77 16.5t82 51.5z" />
    <glyph glyph-name="e" unicode="e" horiz-adv-x="554" 
d="M508 260h-410q3 -122 46 -178.5t144 -56.5q115 0 161 78l42 -18q-55 -101 -203 -101q-125 0 -182 67.5t-57 218.5q0 145 54.5 214.5t185.5 69.5q219 0 219 -279v-15zM456 301q0 210 -167 210q-97 0 -142 -46.5t-48 -163.5h357z" />
    <glyph glyph-name="f" unicode="f" horiz-adv-x="375" 
d="M394 767l-10 -41q-62 12 -96 12q-127 0 -127 -134v-67h186l-10 -43h-176v-494h-50v494h-84v43h84v67q0 93 49.5 134t127.5 41q55 0 106 -12z" />
    <glyph glyph-name="g" unicode="g" horiz-adv-x="573" 
d="M546 554l-11 -62h-87q41 -50 41 -119q0 -179 -208 -179q-28 0 -81 8q-6 1 -16 1q-28 0 -44.5 -15.5t-16.5 -37.5q0 -23 11.5 -31.5t35.5 -12.5l223 -41q75 -14 104 -51.5t29 -94.5q0 -160 -246 -160q-41 0 -73 3.5t-66.5 14t-57 29t-37 50.5t-14.5 76q0 91 84 146
q-39 23 -39 72q0 25 15.5 47t45.5 32q-66 51 -66 144q0 92 58 136.5t151 44.5q78 0 141 -36l89 36h35zM436 373q0 68 -39 104t-116 36q-156 0 -156 -140q0 -138 156 -138q79 0 117 28.5t38 109.5zM473 -81q0 46 -19 71t-65 33l-233 42q-71 -42 -71 -133q0 -76 48 -104
t147 -28q106 0 149.5 30.5t43.5 88.5z" />
    <glyph glyph-name="h" unicode="h" horiz-adv-x="554" 
d="M495 0h-50v352q0 88 -34.5 124t-95.5 36q-29 0 -56.5 -11.5t-79.5 -48.5l-59 -42v-410h-50v779h50v-320l63 44q43 30 70 40.5t62 10.5q83 0 131.5 -48.5t48.5 -153.5v-352z" />
    <glyph glyph-name="i" unicode="i" horiz-adv-x="190" 
d="M128 725q0 -9 -1.5 -10.5t-9.5 -1.5h-44q-8 0 -9.5 1.5t-1.5 10.5v41q0 9 1.5 11t9.5 2h44q6 0 7.5 -0.5t2.5 -3t1 -9.5v-41zM120 0h-50v537h50v-537z" />
    <glyph glyph-name="j" unicode="j" horiz-adv-x="190" 
d="M128 725q0 -9 -1.5 -10.5t-9.5 -1.5h-44q-8 0 -9.5 1.5t-1.5 10.5v41q0 9 1.5 11t9.5 2h44q6 0 7.5 -0.5t2.5 -3t1 -9.5v-41zM120 -110q0 -132 -138 -132h-43v45h43q52 0 69.5 23t17.5 79v632h51v-647z" />
    <glyph glyph-name="k" unicode="k" horiz-adv-x="519" 
d="M499 0h-67l-230 306l-82 -65v-241h-50v779h50v-482l303 240h75l-257 -201z" />
    <glyph glyph-name="l" unicode="l" horiz-adv-x="222" 
d="M217 -8h-40q-107 0 -107 121v666h50v-666q0 -41 13.5 -57.5t43.5 -16.5h40v-47z" />
    <glyph glyph-name="m" unicode="m" horiz-adv-x="854" 
d="M789 0h-49v345q0 84 -21.5 126t-82.5 42q-21 0 -47 -11t-44 -22t-51 -34l-44 -30q5 -38 5 -62v-354h-50v354q0 159 -104 159q-9 0 -21 -3.5t-20.5 -7.5t-23.5 -13.5t-21 -13.5t-23.5 -16.5t-20.5 -14.5l-51 -36v-408h-50v537h35l15 -79l58 41q28 20 39.5 27.5t36.5 17.5
t47 10q102 0 139 -97l54 38q44 30 75 44.5t67 14.5q80 0 116.5 -49t36.5 -158v-347z" />
    <glyph glyph-name="n" unicode="n" horiz-adv-x="559" 
d="M495 0h-50v351q0 88 -34.5 124.5t-95.5 36.5q-29 0 -56.5 -12t-79.5 -49l-59 -42v-409h-50v537h34l16 -79l63 44q43 30 70.5 41t61.5 11q83 0 131.5 -49t48.5 -154v-351z" />
    <glyph glyph-name="o" unicode="o" horiz-adv-x="558" 
d="M509 270q0 -143 -54 -214.5t-176 -71.5t-176 71.5t-54 214.5t53.5 213.5t176.5 70.5t176.5 -70.5t53.5 -213.5zM456 270q0 131 -40 187t-137 56q-96 0 -137.5 -56.5t-41.5 -186.5t41 -187.5t138 -57.5q96 0 136.5 57t40.5 188z" />
    <glyph glyph-name="p" unicode="p" horiz-adv-x="566" 
d="M517 280q0 -142 -59.5 -219t-181.5 -77q-80 0 -156 57v-282h-50v778h37l10 -66q53 43 92.5 63t86.5 20q111 0 166 -73t55 -201zM465 280q0 233 -169 233q-31 0 -66.5 -15.5t-52.5 -27.5t-57 -42v-338q87 -65 156 -65q189 0 189 255z" />
    <glyph glyph-name="q" unicode="q" horiz-adv-x="566" 
d="M496 -241h-50v274q-82 -49 -162 -49q-110 0 -172.5 63t-62.5 216q0 160 61.5 225.5t174.5 65.5q92 0 211 -31v-764zM446 77v414q-90 22 -161 22q-91 0 -138 -56t-47 -194q0 -132 48.5 -185t135.5 -53q68 0 162 52z" />
    <glyph glyph-name="r" unicode="r" horiz-adv-x="337" 
d="M314 504q-26 4 -36 4q-52 0 -116 -49l-46 -35v-424h-50v537h32l15 -66l34 25q79 58 136 58q20 0 31 -3v-47z" />
    <glyph glyph-name="s" unicode="s" horiz-adv-x="477" 
d="M440 150q0 -77 -56 -121.5t-146 -44.5q-155 0 -200 101l46 16q19 -38 60.5 -57t93.5 -19q65 0 108 32t43 93q0 84 -88 98l-137 23q-53 9 -83.5 42t-30.5 90q0 74 55.5 112.5t134.5 38.5q56 0 105 -20t73 -57l-40 -20q-41 56 -138 56q-62 0 -101.5 -27t-39.5 -83
q0 -75 78 -87l136 -22q58 -9 92.5 -46t34.5 -98z" />
    <glyph glyph-name="t" unicode="t" horiz-adv-x="393" 
d="M386 17q-55 -33 -134 -33q-60 0 -98 34t-38 105v372h-97v42h95v189l51 13v-202h190l-13 -42h-177v-372q0 -98 97 -98q51 0 95 27z" />
    <glyph glyph-name="u" unicode="u" horiz-adv-x="559" 
d="M489 0h-33l-16 80l-63 -44q-43 -30 -71 -41t-62 -11q-83 0 -131 48.5t-48 154.5v350h49v-350q0 -88 34.5 -124.5t95.5 -36.5q29 0 56 11.5t80 48.5l60 42v409h49v-537z" />
    <glyph glyph-name="v" unicode="v" horiz-adv-x="504" 
d="M481 537l-195 -537h-68l-194 537h51l178 -497l177 497h51z" />
    <glyph glyph-name="w" unicode="w" horiz-adv-x="766" 
d="M742 537l-161 -537h-59l-139 472l-139 -472h-59l-161 537h52l136 -481l142 481h57l142 -481l137 481h52z" />
    <glyph glyph-name="x" unicode="x" horiz-adv-x="515" 
d="M491 0h-60l-175 240l-172 -240h-58l196 273l-184 264h60l159 -227l160 227h57l-183 -259z" />
    <glyph glyph-name="y" unicode="y" horiz-adv-x="504" 
d="M481 537l-249 -684q-20 -54 -54.5 -74.5t-96.5 -20.5h-50v47h50q49 0 69.5 12.5t37.5 59.5l38 104l-202 556h51l178 -496l177 496h51z" />
    <glyph glyph-name="z" unicode="z" horiz-adv-x="484" 
d="M435 0h-386v59l334 435h-316l-13 43h379v-60l-337 -434h339v-43z" />
    <glyph glyph-name="braceleft" unicode="{" horiz-adv-x="340" 
d="M321 -163h-67q-114 0 -114 105v253q0 74 -65 87v45q65 13 65 87v252q0 105 114 105h67v-38h-67q-35 0 -50 -15t-15 -52v-252q0 -30 -20.5 -64.5t-56.5 -44.5q39 -12 58 -45t19 -65v-253q0 -37 15 -52t50 -15h67v-38z" />
    <glyph glyph-name="bar" unicode="|" horiz-adv-x="270" 
d="M159 -50h-47v821h47v-821z" />
    <glyph glyph-name="braceright" unicode="}" horiz-adv-x="340" 
d="M265 282q-65 -13 -65 -87v-253q0 -105 -114 -105h-67v38h67q35 0 50 15t15 52v253q0 32 18.5 65t56.5 44q-41 12 -58 44.5t-17 65.5v252q0 37 -15 52t-50 15h-67v38h67q114 0 114 -105v-252q0 -74 65 -87v-45z" />
    <glyph glyph-name="asciitilde" unicode="~" 
d="M538 420q-48 -69 -134 -69q-40 0 -78 21.5t-73 43t-67 21.5q-86 0 -134 -69v45q48 69 134 69q35 0 67.5 -13.5t53 -29.5t46.5 -29.5t51 -13.5q86 0 134 69v-45z" />
    <glyph glyph-name="uni00A0" unicode="&#xa0;" horiz-adv-x="230" 
 />
    <glyph glyph-name="exclamdown" unicode="&#xa1;" horiz-adv-x="253" 
d="M164 473q0 -9 -1 -10.5t-9 -1.5h-56q-8 0 -9 1.5t-1 10.5v53q0 8 1 9.5t9 1.5h56q8 0 9 -1.5t1 -9.5v-53zM153 -242h-53v389l13 202h28l12 -202v-389z" />
    <glyph glyph-name="cent" unicode="&#xa2;" 
d="M501 490h-42q-25 88 -138 88q-98 0 -136 -55.5t-38 -169.5q0 -118 38.5 -171.5t132.5 -53.5q91 0 137 58l35 -19q-30 -40 -64 -58t-86 -20v-139h-40v139q-110 5 -156.5 70.5t-46.5 193.5t46.5 193.5t156.5 70.5v146h40v-146q69 -4 110 -39t51 -88z" />
    <glyph glyph-name="sterling" unicode="&#xa3;" 
d="M532 680l-33 -30q-56 46 -154 46q-80 0 -115.5 -33.5t-35.5 -104.5v-172h216v-43h-216v-206q0 -61 -35 -94h372v-43h-417v43q32 41 32 94v206h-87v43h87v172q0 179 199 179q122 0 187 -57z" />
    <glyph glyph-name="currency" unicode="&#xa4;" horiz-adv-x="580" 
d="M525 161q0 -7 -5 -12l-7 -7q-5 -5 -11 -5q-8 0 -15 7l-81 82q-52 -41 -117 -41q-66 0 -116 40l-80 -80q-7 -7 -15 -7q-6 0 -11 5l-7 7q-5 5 -5 11q0 8 7 15l79 79q-42 53 -42 119q0 65 41 117l-78 78q-7 7 -7 15q0 7 5 12l7 7q4 4 10 4q9 0 16 -7l78 -78q52 41 117 41
q66 0 119 -42l80 80q7 7 15 7q6 0 11 -5l7 -7q5 -5 5 -11q0 -8 -7 -15l-80 -80q40 -50 40 -116q0 -65 -41 -117l81 -81q7 -7 7 -15zM437 374q0 61 -43.5 104t-104.5 43q-62 0 -105 -43t-43 -104q0 -62 43.5 -105t104.5 -43t104.5 43t43.5 105z" />
    <glyph glyph-name="yen" unicode="&#xa5;" 
d="M556 308h-226l-14 -29v-279h-50v279l-14 29h-225v38h205l-57 114h-148v38h129l-111 223h52l194 -399l194 399h52l-111 -223h130v-38h-149l-57 -114h206v-38z" />
    <glyph glyph-name="brokenbar" unicode="&#xa6;" horiz-adv-x="270" 
d="M160 469h-49v281h49v-281zM160 0h-49v281h49v-281z" />
    <glyph glyph-name="section" unicode="&#xa7;" horiz-adv-x="580" 
d="M486 75q0 -187 -204 -187h-195v145h43v-104h152q86 0 121.5 32.5t35.5 113.5q0 107 -91 131l-139 36q-67 17 -94 62t-27 120v109q0 98 48 143t142 45h208v-121h-43v79h-165q-81 0 -112.5 -34t-31.5 -115q0 -86 91 -108l139 -35q122 -31 122 -180v-132zM440 201
q0 69 -19 100t-71 44l-138 35q-49 13 -81 51q0 -63 19.5 -98.5t72.5 -49.5l138 -36q50 -14 79 -46z" />
    <glyph glyph-name="dieresis" unicode="&#xa8;" horiz-adv-x="424" 
d="M360 675q0 -9 -1.5 -10.5t-9.5 -1.5h-50q-8 0 -9.5 1.5t-1.5 10.5v47q0 9 1.5 10.5t9.5 1.5h50h6t3 -1t2 -3.5v-7.5v-47zM137 675q0 -9 -1.5 -10.5t-9.5 -1.5h-49q-8 0 -9.5 1.5t-1.5 10.5v47q0 9 1.5 10.5t9.5 1.5h49h6t3 -1t2 -3.5v-7.5v-47z" />
    <glyph glyph-name="copyright" unicode="&#xa9;" horiz-adv-x="864" 
d="M809 361q0 -156 -110.5 -266t-266.5 -110t-266.5 110t-110.5 266t110.5 266.5t266.5 110.5t266.5 -110.5t110.5 -266.5zM767 361q0 139 -98 237.5t-237 98.5t-237 -98.5t-98 -237.5t98 -237t237 -98t237 98t98 237zM595 207q-43 -85 -157 -85q-59 0 -98.5 17.5t-60 51.5
t-28 73t-7.5 94q0 120 41 177.5t147 57.5q144 0 160 -112h-39q-16 77 -121 77q-40 0 -67.5 -10.5t-43 -26.5t-24 -44.5t-10.5 -54t-2 -64.5q0 -45 4.5 -75.5t19 -61.5t47 -47t82.5 -16q89 0 125 68z" />
    <glyph glyph-name="ordfeminine" unicode="&#xaa;" horiz-adv-x="337" 
d="M282 455h-24l-12 26q-44 -34 -99 -34q-92 0 -92 90q0 85 99 85q46 0 91 -12v47q0 23 -13 36t-49 13q-56 0 -81 -31l-28 17q30 45 109 45q59 0 79 -22t20 -58v-202zM245 510v74q-48 8 -78 8q-73 0 -73 -55q0 -61 53 -61q45 0 98 34z" />
    <glyph glyph-name="guillemotleft" unicode="&#xab;" horiz-adv-x="548" 
d="M483 112l-33 -28l-170 185l170 185l33 -28l-132 -157zM266 112l-32 -28l-169 185l169 185l32 -28l-132 -157z" />
    <glyph glyph-name="logicalnot" unicode="&#xac;" 
d="M544 179h-41v325h-457v41h498v-366z" />
    <glyph glyph-name="uni00AD" unicode="&#xad;" horiz-adv-x="353" 
d="M321 306h-289v47h289v-47z" />
    <glyph glyph-name="registered" unicode="&#xae;" horiz-adv-x="864" 
d="M809 361q0 -156 -110.5 -266t-266.5 -110t-266.5 110t-110.5 266t110.5 266.5t266.5 110.5t266.5 -110.5t110.5 -266.5zM767 361q0 139 -98 237.5t-237 98.5t-237 -98.5t-98 -237.5t98 -237t237 -98t237 98t98 237zM603 135h-48l-109 168q-7 15 -10 27h-129v-195h-39v456
h167q160 0 160 -130q0 -104 -120 -129zM555 461q0 96 -119 96h-129v-191h128q58 0 89 21.5t31 73.5z" />
    <glyph glyph-name="macron" unicode="&#xaf;" horiz-adv-x="438" 
d="M374 665h-309v46h309v-46z" />
    <glyph glyph-name="degree" unicode="&#xb0;" horiz-adv-x="326" 
d="M291 608q0 -53 -37.5 -90.5t-90.5 -37.5t-90.5 37.5t-37.5 90.5t37.5 90.5t90.5 37.5t90.5 -37.5t37.5 -90.5zM249 608q0 36 -25 61.5t-61 25.5t-61 -25.5t-25 -61.5t25 -61t61 -25t61 25t25 61z" />
    <glyph glyph-name="plusminus" unicode="&#xb1;" 
d="M558 381h-240v-240h-44v240h-242v42h242v239h44v-239h240v-42zM558 -1h-526v42h526v-42z" />
    <glyph glyph-name="two.superior" unicode="&#xb2;" horiz-adv-x="339" 
d="M302 628q0 -45 -27.5 -77t-77.5 -67q-94 -65 -115 -130h179v62h40v-101h-269q2 49 25 89.5t44.5 59t62.5 48.5q32 22 48 35.5t31 35.5t15 45q0 77 -79 77q-86 0 -100 -70h-41q7 46 40 78t101 32q55 0 89 -30t34 -87z" />
    <glyph glyph-name="three.superior" unicode="&#xb3;" horiz-adv-x="339" 
d="M311 437q0 -64 -38.5 -97.5t-105.5 -33.5q-54 0 -88 20.5t-58 65.5l37 19q21 -36 44.5 -51.5t64.5 -15.5q48 0 74 24t26 69q0 39 -23.5 60t-60.5 21h-66l-11 41h77q32 0 54 19t22 58q0 71 -84 71q-73 0 -103 -59l-37 17q42 80 140 80q67 0 97.5 -30.5t30.5 -78.5
q0 -63 -54 -96q62 -32 62 -103z" />
    <glyph glyph-name="acute" unicode="&#xb4;" horiz-adv-x="327" 
d="M265 746l-172 -142q-6 -4 -12 2l-12 11q-5 5 -1 9l150 169z" />
    <glyph glyph-name="mu" unicode="&#xb5;" horiz-adv-x="553" 
d="M489 0h-34l-16 79l-63 -44q-74 -51 -133 -51q-84 0 -129 46v-234h-49v741h49v-351q0 -162 129 -162q28 0 56.5 13t79.5 49l60 43v408h50v-537z" />
    <glyph glyph-name="paragraph" unicode="&#xb6;" horiz-adv-x="497" 
d="M422 0h-39v682h-55v-682h-39v387h-68q-67 0 -114 49t-47 118t47 118t114 49h201v-721z" />
    <glyph glyph-name="periodcentered" unicode="&#xb7;" horiz-adv-x="228" 
d="M153 400q0 -12 -10 -12h-61q-8 0 -9.5 1.5t-1.5 10.5v57q0 9 1.5 11t9.5 2h61q7 0 8.5 -1.5t1.5 -11.5v-57z" />
    <glyph glyph-name="cedilla" unicode="&#xb8;" horiz-adv-x="302" 
d="M243 -108q0 -71 -100 -71q-26 0 -47 3l-36 5l4 27l35 -5q18 -2 34 -2q67 0 67 43q0 16 -11 24.5t-28 8.5h-64l-25 34l35 42l30 -2l-29 -44h53q82 0 82 -63z" />
    <glyph glyph-name="one.superior" unicode="&#xb9;" horiz-adv-x="339" 
d="M284 315h-235v39h95v340q-18 -4 -55 -12t-40 -9v41l140 30v-390h95v-39z" />
    <glyph glyph-name="ordmasculine" unicode="&#xba;" horiz-adv-x="356" 
d="M301 592q0 -72 -29 -108.5t-94 -36.5t-94 36.5t-29 108.5t29 108.5t94 36.5t94 -36.5t29 -108.5zM263 592q0 62 -19.5 88.5t-65.5 26.5t-65.5 -26.5t-19.5 -88.5t19.5 -88.5t65.5 -26.5t65.5 26.5t19.5 88.5z" />
    <glyph glyph-name="guillemotright" unicode="&#xbb;" horiz-adv-x="548" 
d="M483 269l-170 -185l-31 28l132 157l-132 157l31 28zM268 269l-171 -185l-32 28l132 157l-132 157l32 28z" />
    <glyph glyph-name="onequarter" unicode="&#xbc;" horiz-adv-x="783" 
d="M284 315h-235v39h95v340q-18 -4 -55 -12t-40 -9v41l140 30v-390h95v-39zM667 737l-485 -753h-42l486 753h41zM734 113h-45v-113h-43v113h-218v43l214 265h47v-268h45v-40zM646 153v209l-167 -209h167z" />
    <glyph glyph-name="onehalf" unicode="&#xbd;" horiz-adv-x="812" 
d="M284 315h-235v39h95v340q-18 -4 -55 -12t-40 -9v41l140 30v-390h95v-39zM667 737l-485 -753h-42l486 753h41zM763 313q0 -45 -27.5 -77t-77.5 -67q-94 -65 -115 -130h179v62h40v-101h-269q2 49 25 89.5t44.5 59t62.5 48.5q32 22 48 35.5t31 35.5t15 45q0 77 -79 77
q-86 0 -100 -70h-41q7 46 40 78t101 32q55 0 89 -30t34 -87z" />
    <glyph glyph-name="threequarters" unicode="&#xbe;" horiz-adv-x="811" 
d="M695 737l-485 -753h-42l486 753h41zM762 113h-45v-113h-43v113h-218v43l214 265h47v-268h45v-40zM674 153v209l-167 -209h167zM339 437q0 -64 -38.5 -97.5t-105.5 -33.5q-54 0 -88 20.5t-58 65.5l37 19q21 -36 44.5 -51.5t64.5 -15.5q48 0 74 24t26 69q0 39 -23.5 60
t-60.5 21h-66l-11 41h77q32 0 54 19t22 58q0 71 -84 71q-73 0 -103 -59l-37 17q42 80 140 80q67 0 97.5 -30.5t30.5 -78.5q0 -63 -54 -96q62 -32 62 -103z" />
    <glyph glyph-name="questiondown" unicode="&#xbf;" horiz-adv-x="490" 
d="M314 473q0 -9 -1 -10.5t-9 -1.5h-56q-8 0 -9 1.5t-1 10.5v53q0 8 1 9.5t9 1.5h56q8 0 9 -1.5t1 -9.5v-53zM459 -81q-1 -36 -10.5 -64t-31.5 -55.5t-66.5 -43t-109.5 -15.5q-95 0 -146 47t-51 143v20q0 50 24 87.5t72 78.5q68 58 83 78q28 37 28 99v64h53v-64
q0 -17 -2 -33t-7.5 -30.5t-9 -25t-14.5 -24t-15 -20t-19 -20t-18.5 -17t-21 -18t-19.5 -16.5q-51 -43 -66 -69.5t-15 -69.5v-20q0 -72 34 -108.5t110 -36.5q88 0 126.5 31.5t42.5 101.5h49z" />
    <glyph glyph-name="Agrave" unicode="&#xc0;" horiz-adv-x="644" 
d="M614 0h-51l-84 234h-318l-84 -234h-47l260 721h65zM463 279l-143 403l-143 -403h286zM181 913l172 -142q6 -4 12 2l12 11q5 5 1 9l-150 169z" />
    <glyph glyph-name="Aacute" unicode="&#xc1;" horiz-adv-x="644" 
d="M614 0h-51l-84 234h-318l-84 -234h-47l260 721h65zM463 279l-143 403l-143 -403h286zM461 913l-172 -142q-6 -4 -12 2l-12 11q-5 5 -1 9l150 169z" />
    <glyph glyph-name="Acircumflex" unicode="&#xc2;" horiz-adv-x="644" 
d="M614 0h-51l-84 234h-318l-84 -234h-47l260 721h65zM463 279l-143 403l-143 -403h286zM468 791l-23 -22l-123 115l-123 -115l-23 22l127 152q12 14 19 14t19 -14z" />
    <glyph glyph-name="Atilde" unicode="&#xc3;" horiz-adv-x="644" 
d="M614 0h-51l-84 234h-318l-84 -234h-47l260 721h65zM463 279l-143 403l-143 -403h286zM501 882l-64 -86q-17 -23 -40 -23q-20 0 -40 13l-89 54q-14 9 -21 9q-4 0 -7.5 -1.5t-5 -3t-6 -7t-6.5 -7.5l-55 -61l-24 19l63 87q16 22 40 22q20 0 40 -13l91 -55q11 -7 19 -7
q11 0 25 17l55 63z" />
    <glyph glyph-name="Adieresis" unicode="&#xc4;" horiz-adv-x="644" 
d="M614 0h-51l-84 234h-318l-84 -234h-47l260 721h65zM463 279l-143 403l-143 -403h286zM467 830q0 -9 -1.5 -10.5t-9.5 -1.5h-50q-8 0 -9.5 1.5t-1.5 10.5v47q0 9 1.5 10.5t9.5 1.5h50h6t3 -1t2 -3.5v-7.5v-47zM244 830q0 -9 -1.5 -10.5t-9.5 -1.5h-49q-8 0 -9.5 1.5
t-1.5 10.5v47q0 9 1.5 10.5t9.5 1.5h49h6t3 -1t2 -3.5v-7.5v-47z" />
    <glyph glyph-name="Aring" unicode="&#xc5;" horiz-adv-x="644" 
d="M614 0h-51l-84 234h-318l-84 -234h-47l260 721h65zM463 279l-143 403l-143 -403h286zM431 879q0 -45 -32.5 -77t-77.5 -32t-77 32t-32 77t32 77t77 32t77.5 -32t32.5 -77zM393 879q0 30 -21 50.5t-51 20.5t-50.5 -20.5t-20.5 -50.5t20.5 -51t50.5 -21t51 21t21 51z" />
    <glyph glyph-name="AE" unicode="&#xc6;" horiz-adv-x="981" 
d="M941 0h-441v234h-271l-143 -234h-53l439 721h468v-42h-391v-276h344l-12 -43h-332v-318h392v-42zM500 279v400l-244 -400h244z" />
    <glyph glyph-name="Ccedilla" unicode="&#xc7;" horiz-adv-x="599" 
d="M564 113q-62 -129 -231 -129h-16l-17 -26h49q76 0 76 -58q0 -66 -93 -66q-24 0 -43 3l-33 5l3 25l33 -5q18 -2 31 -2q62 0 62 40q0 14 -10.5 22.5t-25.5 8.5h-59l-23 31l20 24q-70 7 -118.5 37.5t-75 82.5t-37.5 113t-11 142q0 190 63.5 283t216.5 93q111 0 168 -49
t67 -120h-43q-27 126 -193 126q-60 0 -103 -18t-67 -45.5t-37.5 -74t-17 -89.5t-3.5 -106q0 -57 4 -99.5t18.5 -89t39 -76.5t69 -49.5t106.5 -19.5q139 0 195 109z" />
    <glyph glyph-name="Egrave" unicode="&#xc8;" horiz-adv-x="546" 
d="M506 0h-441v721h440v-42h-391v-276h344l-12 -43h-332v-318h392v-42zM133 913l172 -142q6 -4 12 2l12 11q5 5 1 9l-150 169z" />
    <glyph glyph-name="Eacute" unicode="&#xc9;" horiz-adv-x="546" 
d="M506 0h-441v721h440v-42h-391v-276h344l-12 -43h-332v-318h392v-42zM412 913l-172 -142q-6 -4 -12 2l-12 11q-5 5 -1 9l150 169z" />
    <glyph glyph-name="Ecircumflex" unicode="&#xca;" horiz-adv-x="546" 
d="M506 0h-441v721h440v-42h-391v-276h344l-12 -43h-332v-318h392v-42zM429 791l-23 -22l-123 115l-123 -115l-23 22l127 152q12 14 19 14t19 -14z" />
    <glyph glyph-name="Edieresis" unicode="&#xcb;" horiz-adv-x="546" 
d="M506 0h-441v721h440v-42h-391v-276h344l-12 -43h-332v-318h392v-42zM433 829q0 -9 -1.5 -10.5t-9.5 -1.5h-50q-8 0 -9.5 1.5t-1.5 10.5v47q0 9 1.5 10.5t9.5 1.5h50h6t3 -1t2 -3.5v-7.5v-47zM210 829q0 -9 -1.5 -10.5t-9.5 -1.5h-49q-8 0 -9.5 1.5t-1.5 10.5v47
q0 9 1.5 10.5t9.5 1.5h49h6t3 -1t2 -3.5v-7.5v-47z" />
    <glyph glyph-name="Igrave" unicode="&#xcc;" horiz-adv-x="179" 
d="M114 0h-49v721h49v-721zM-50 913l172 -142q6 -4 12 2l12 11q5 5 1 9l-150 169z" />
    <glyph glyph-name="Iacute" unicode="&#xcd;" horiz-adv-x="179" 
d="M114 0h-49v721h49v-721zM229 914l-172 -142q-6 -4 -12 2l-12 11q-5 5 -1 9l150 169z" />
    <glyph glyph-name="Icircumflex" unicode="&#xce;" horiz-adv-x="179" 
d="M114 0h-49v721h49v-721zM236 791l-23 -22l-123 115l-123 -115l-23 22l127 152q12 14 19 14t19 -14z" />
    <glyph glyph-name="Idieresis" unicode="&#xcf;" horiz-adv-x="179" 
d="M114 0h-49v721h49v-721zM237 829q0 -9 -1.5 -10.5t-9.5 -1.5h-50q-8 0 -9.5 1.5t-1.5 10.5v47q0 9 1.5 10.5t9.5 1.5h50h6t3 -1t2 -3.5v-7.5v-47zM14 829q0 -9 -1.5 -10.5t-9.5 -1.5h-49q-8 0 -9.5 1.5t-1.5 10.5v47q0 9 1.5 10.5t9.5 1.5h49h6t3 -1t2 -3.5v-7.5v-47z
" />
    <glyph glyph-name="Eth" unicode="&#xd0;" horiz-adv-x="636" 
d="M601 369q0 -169 -82.5 -269t-260.5 -100h-192v360h-87v40h87v321h192q177 0 260 -94.5t83 -257.5zM550 369q0 310 -292 310h-143v-279h124l-11 -40h-113v-318h143q292 0 292 327z" />
    <glyph glyph-name="Ntilde" unicode="&#xd1;" horiz-adv-x="689" 
d="M624 0h-52l-458 645v-645h-49v721h52l459 -646l-1 646h49v-721zM523 880l-64 -86q-17 -23 -40 -23q-20 0 -40 13l-89 54q-14 9 -21 9q-4 0 -7.5 -1.5t-5 -3t-6 -7t-6.5 -7.5l-55 -61l-24 19l63 87q16 22 40 22q20 0 40 -13l91 -55q11 -7 19 -7q11 0 25 17l55 63z" />
    <glyph glyph-name="Ograve" unicode="&#xd2;" horiz-adv-x="665" 
d="M620 369q0 -191 -63.5 -288t-225.5 -97q-84 0 -141 26t-88 79t-44 120t-13 160q0 84 13 147t44 115t88.5 79t140.5 27t141 -27t89.5 -79t45 -115t13.5 -147zM569 369q0 161 -52 243t-186 82t-184.5 -81.5t-50.5 -243.5q0 -176 50 -259t185 -83t186.5 83.5t51.5 258.5z
M202 913l172 -142q6 -4 12 2l12 11q5 5 1 9l-150 169z" />
    <glyph glyph-name="Oacute" unicode="&#xd3;" horiz-adv-x="665" 
d="M620 369q0 -191 -63.5 -288t-225.5 -97q-84 0 -141 26t-88 79t-44 120t-13 160q0 84 13 147t44 115t88.5 79t140.5 27t141 -27t89.5 -79t45 -115t13.5 -147zM569 369q0 161 -52 243t-186 82t-184.5 -81.5t-50.5 -243.5q0 -176 50 -259t185 -83t186.5 83.5t51.5 258.5z
M472 915l-172 -142q-6 -4 -12 2l-12 11q-5 5 -1 9l150 169z" />
    <glyph glyph-name="Ocircumflex" unicode="&#xd4;" horiz-adv-x="665" 
d="M620 369q0 -191 -63.5 -288t-225.5 -97q-84 0 -141 26t-88 79t-44 120t-13 160q0 84 13 147t44 115t88.5 79t140.5 27t141 -27t89.5 -79t45 -115t13.5 -147zM569 369q0 161 -52 243t-186 82t-184.5 -81.5t-50.5 -243.5q0 -176 50 -259t185 -83t186.5 83.5t51.5 258.5z
M478 792l-23 -22l-123 115l-123 -115l-23 22l127 152q12 14 19 14t19 -14z" />
    <glyph glyph-name="Otilde" unicode="&#xd5;" horiz-adv-x="665" 
d="M620 369q0 -191 -63.5 -288t-225.5 -97q-84 0 -141 26t-88 79t-44 120t-13 160q0 84 13 147t44 115t88.5 79t140.5 27t141 -27t89.5 -79t45 -115t13.5 -147zM569 369q0 161 -52 243t-186 82t-184.5 -81.5t-50.5 -243.5q0 -176 50 -259t185 -83t186.5 83.5t51.5 258.5z
M511 882l-64 -86q-17 -23 -40 -23q-20 0 -40 13l-89 54q-14 9 -21 9q-4 0 -7.5 -1.5t-5 -3t-6 -7t-6.5 -7.5l-55 -61l-24 19l63 87q16 22 40 22q20 0 40 -13l91 -55q11 -7 19 -7q11 0 25 17l55 63z" />
    <glyph glyph-name="Odieresis" unicode="&#xd6;" horiz-adv-x="665" 
d="M620 369q0 -191 -63.5 -288t-225.5 -97q-84 0 -141 26t-88 79t-44 120t-13 160q0 84 13 147t44 115t88.5 79t140.5 27t141 -27t89.5 -79t45 -115t13.5 -147zM569 369q0 161 -52 243t-186 82t-184.5 -81.5t-50.5 -243.5q0 -176 50 -259t185 -83t186.5 83.5t51.5 258.5z
M479 828q0 -9 -1.5 -10.5t-9.5 -1.5h-50q-8 0 -9.5 1.5t-1.5 10.5v47q0 9 1.5 10.5t9.5 1.5h50h6t3 -1t2 -3.5v-7.5v-47zM256 828q0 -9 -1.5 -10.5t-9.5 -1.5h-49q-8 0 -9.5 1.5t-1.5 10.5v47q0 9 1.5 10.5t9.5 1.5h49h6t3 -1t2 -3.5v-7.5v-47z" />
    <glyph glyph-name="multiply" unicode="&#xd7;" 
d="M511 544l-186 -185l184 -184l-29 -30l-184 184l-186 -185l-30 31l185 185l-185 186l29 29l185 -185l186 185z" />
    <glyph glyph-name="Oslash" unicode="&#xd8;" horiz-adv-x="665" 
d="M640 737l-79 -105q59 -89 59 -263q0 -191 -63.5 -288t-225.5 -97q-135 0 -203 71l-52 -71h-50l77 103q-58 90 -58 282q0 84 13 147t44 115t88.5 79t140.5 27q133 0 204 -73l55 73h50zM506 626q-57 68 -175 68q-134 0 -184.5 -81.5t-50.5 -243.5q0 -161 39 -239zM569 369
q0 148 -39 222l-372 -497q55 -67 173 -67q135 0 186.5 83.5t51.5 258.5z" />
    <glyph glyph-name="Ugrave" unicode="&#xd9;" horiz-adv-x="674" 
d="M614 294q0 -310 -277 -310t-277 310v427h49v-427q0 -138 57.5 -202.5t170.5 -64.5t170.5 64.5t57.5 202.5v427h49v-427zM197 913l172 -142q6 -4 12 2l12 11q5 5 1 9l-150 169z" />
    <glyph glyph-name="Uacute" unicode="&#xda;" horiz-adv-x="674" 
d="M614 294q0 -310 -277 -310t-277 310v427h49v-427q0 -138 57.5 -202.5t170.5 -64.5t170.5 64.5t57.5 202.5v427h49v-427zM478 913l-172 -142q-6 -4 -12 2l-12 11q-5 5 -1 9l150 169z" />
    <glyph glyph-name="Ucircumflex" unicode="&#xdb;" horiz-adv-x="674" 
d="M614 294q0 -310 -277 -310t-277 310v427h49v-427q0 -138 57.5 -202.5t170.5 -64.5t170.5 64.5t57.5 202.5v427h49v-427zM483 792l-23 -22l-123 115l-123 -115l-23 22l127 152q12 14 19 14t19 -14z" />
    <glyph glyph-name="Udieresis" unicode="&#xdc;" horiz-adv-x="674" 
d="M614 294q0 -310 -277 -310t-277 310v427h49v-427q0 -138 57.5 -202.5t170.5 -64.5t170.5 64.5t57.5 202.5v427h49v-427zM484 828q0 -9 -1.5 -10.5t-9.5 -1.5h-50q-8 0 -9.5 1.5t-1.5 10.5v47q0 9 1.5 10.5t9.5 1.5h50h6t3 -1t2 -3.5v-7.5v-47zM261 828q0 -9 -1.5 -10.5
t-9.5 -1.5h-49q-8 0 -9.5 1.5t-1.5 10.5v47q0 9 1.5 10.5t9.5 1.5h49h6t3 -1t2 -3.5v-7.5v-47z" />
    <glyph glyph-name="Yacute" unicode="&#xdd;" horiz-adv-x="611" 
d="M581 721l-251 -428v-293h-49v293l-251 428h52l224 -384l224 384h51zM445 915l-172 -142q-6 -4 -12 2l-12 11q-5 5 -1 9l150 169z" />
    <glyph glyph-name="Thorn" unicode="&#xde;" horiz-adv-x="571" 
d="M536 383q0 -98 -60 -158.5t-187 -60.5h-175v-164h-49v721h49v-119h175q127 0 187 -60.5t60 -158.5zM486 383q0 177 -197 177h-175v-354h175q197 0 197 177z" />
    <glyph glyph-name="germandbls" unicode="&#xdf;" horiz-adv-x="584" 
d="M530 208q0 -105 -64.5 -164.5t-191.5 -59.5v37q108 0 155.5 45.5t47.5 141.5q0 50 -21.5 85.5t-56 52t-66 23t-63.5 6.5h-22v39h22q69 0 121 48.5t52 127.5q0 80 -41.5 122t-116.5 42q-85 0 -124.5 -35.5t-39.5 -115.5v-603h-51v603q0 192 215 192q103 0 155 -58.5
t52 -146.5q0 -60 -35 -112.5t-100 -78.5q83 -12 128 -67t45 -124z" />
    <glyph glyph-name="agrave" unicode="&#xe0;" horiz-adv-x="541" 
d="M471 0h-33l-12 61q-90 -77 -206 -77q-86 0 -128.5 46t-42.5 126q0 61 30 99.5t71 51.5t94 13q78 0 178 -31v113q0 49 -32 80t-106 31q-62 0 -98.5 -10.5t-61.5 -42.5l-34 23q51 71 194 71q55 0 94.5 -15t58 -39.5t26.5 -48.5t8 -49v-402zM422 102v150q-98 29 -178 29
q-144 0 -144 -125q0 -131 120 -131q57 0 100 16.5t102 60.5zM133 746l172 -142q6 -4 12 2l12 11q5 5 1 9l-150 169z" />
    <glyph glyph-name="aacute" unicode="&#xe1;" horiz-adv-x="541" 
d="M471 0h-33l-12 61q-90 -77 -206 -77q-86 0 -128.5 46t-42.5 126q0 61 30 99.5t71 51.5t94 13q78 0 178 -31v113q0 49 -32 80t-106 31q-62 0 -98.5 -10.5t-61.5 -42.5l-34 23q51 71 194 71q55 0 94.5 -15t58 -39.5t26.5 -48.5t8 -49v-402zM422 102v150q-98 29 -178 29
q-144 0 -144 -125q0 -131 120 -131q57 0 100 16.5t102 60.5zM428 746l-172 -142q-6 -4 -12 2l-12 11q-5 5 -1 9l150 169z" />
    <glyph glyph-name="acircumflex" unicode="&#xe2;" horiz-adv-x="541" 
d="M471 0h-33l-12 61q-90 -77 -206 -77q-86 0 -128.5 46t-42.5 126q0 61 30 99.5t71 51.5t94 13q78 0 178 -31v113q0 49 -32 80t-106 31q-62 0 -98.5 -10.5t-61.5 -42.5l-34 23q51 71 194 71q55 0 94.5 -15t58 -39.5t26.5 -48.5t8 -49v-402zM422 102v150q-98 29 -178 29
q-144 0 -144 -125q0 -131 120 -131q57 0 100 16.5t102 60.5zM416 621l-23 -22l-123 115l-123 -115l-23 22l127 152q12 14 19 14t19 -14z" />
    <glyph glyph-name="atilde" unicode="&#xe3;" horiz-adv-x="541" 
d="M471 0h-33l-12 61q-90 -77 -206 -77q-86 0 -128.5 46t-42.5 126q0 61 30 99.5t71 51.5t94 13q78 0 178 -31v113q0 49 -32 80t-106 31q-62 0 -98.5 -10.5t-61.5 -42.5l-34 23q51 71 194 71q55 0 94.5 -15t58 -39.5t26.5 -48.5t8 -49v-402zM422 102v150q-98 29 -178 29
q-144 0 -144 -125q0 -131 120 -131q57 0 100 16.5t102 60.5zM449 732l-64 -86q-17 -23 -40 -23q-20 0 -40 13l-89 54q-14 9 -21 9q-4 0 -7.5 -1.5t-5 -3t-6 -7t-6.5 -7.5l-55 -61l-24 19l63 87q16 22 40 22q20 0 40 -13l91 -55q11 -7 19 -7q11 0 25 17l55 63z" />
    <glyph glyph-name="adieresis" unicode="&#xe4;" horiz-adv-x="541" 
d="M471 0h-33l-12 61q-90 -77 -206 -77q-86 0 -128.5 46t-42.5 126q0 61 30 99.5t71 51.5t94 13q78 0 178 -31v113q0 49 -32 80t-106 31q-62 0 -98.5 -10.5t-61.5 -42.5l-34 23q51 71 194 71q55 0 94.5 -15t58 -39.5t26.5 -48.5t8 -49v-402zM422 102v150q-98 29 -178 29
q-144 0 -144 -125q0 -131 120 -131q57 0 100 16.5t102 60.5zM417 675q0 -9 -1.5 -10.5t-9.5 -1.5h-50q-8 0 -9.5 1.5t-1.5 10.5v47q0 9 1.5 10.5t9.5 1.5h50h6t3 -1t2 -3.5v-7.5v-47zM194 675q0 -9 -1.5 -10.5t-9.5 -1.5h-49q-8 0 -9.5 1.5t-1.5 10.5v47q0 9 1.5 10.5
t9.5 1.5h49h6t3 -1t2 -3.5v-7.5v-47z" />
    <glyph glyph-name="aring" unicode="&#xe5;" horiz-adv-x="541" 
d="M471 0h-33l-12 61q-90 -77 -206 -77q-86 0 -128.5 46t-42.5 126q0 61 30 99.5t71 51.5t94 13q78 0 178 -31v113q0 49 -32 80t-106 31q-62 0 -98.5 -10.5t-61.5 -42.5l-34 23q51 71 194 71q55 0 94.5 -15t58 -39.5t26.5 -48.5t8 -49v-402zM422 102v150q-98 29 -178 29
q-144 0 -144 -125q0 -131 120 -131q57 0 100 16.5t102 60.5zM380 711q0 -45 -32.5 -77t-77.5 -32t-77 32t-32 77t32 77t77 32t77.5 -32t32.5 -77zM342 711q0 30 -21 50.5t-51 20.5t-50.5 -20.5t-20.5 -50.5t20.5 -51t50.5 -21t51 21t21 51z" />
    <glyph glyph-name="ae" unicode="&#xe6;" horiz-adv-x="910" 
d="M864 260h-394v-53q0 -183 179 -183q113 0 158 79l43 -18q-55 -101 -201 -101q-71 0 -117 21.5t-79 72.5q-64 -50 -113 -72t-122 -22q-87 0 -128 46t-41 127q0 167 199 167q79 0 170 -26v106q0 52 -28 80.5t-105 28.5q-112 0 -159 -58l-37 24q53 75 196 75q71 0 109.5 -20
t63.5 -66q55 86 192 86q55 0 94.5 -15t62.5 -39t36 -62.5t17 -76.5t4 -91v-10zM810 301q0 107 -33.5 159.5t-126.5 52.5q-180 0 -180 -184v-28h340zM418 100v159q-99 23 -160 23q-156 0 -156 -125q0 -69 32.5 -101t83.5 -32q22 0 40 1.5t35 6.5t26.5 7t26 12t21.5 13
t25.5 17.5t25.5 18.5z" />
    <glyph glyph-name="ccedilla" unicode="&#xe7;" horiz-adv-x="513" 
d="M486 85q-33 -60 -83 -80.5t-128 -20.5h-1l-18 -28q4 0 23 0.5t27 0t24 -2t24.5 -5.5t18.5 -11t14 -18.5t4 -26.5q0 -71 -100 -71q-27 0 -83 8l4 27q54 -7 69 -7q67 0 67 43q0 16 -11.5 24.5t-27.5 8.5h-64l-25 34l22 27q-57 7 -96.5 31.5t-59.5 64.5t-28.5 84.5
t-8.5 101.5q0 138 54 211.5t186 73.5q70 0 118 -23t79 -79l-42 -17q-46 78 -153 78q-57 0 -96 -18t-59 -53t-28 -76t-8 -97t8 -97t28 -76t59 -53t96 -18q107 0 153 78z" />
    <glyph glyph-name="egrave" unicode="&#xe8;" horiz-adv-x="554" 
d="M508 260h-410q3 -122 46 -178.5t144 -56.5q115 0 161 78l42 -18q-55 -101 -203 -101q-125 0 -182 67.5t-57 218.5q0 145 54.5 214.5t185.5 69.5q219 0 219 -279v-15zM456 301q0 210 -167 210q-97 0 -142 -46.5t-48 -163.5h357zM156 746l172 -142q6 -4 12 2l12 11q5 5 1 9
l-150 169z" />
    <glyph glyph-name="eacute" unicode="&#xe9;" horiz-adv-x="554" 
d="M508 260h-410q3 -122 46 -178.5t144 -56.5q115 0 161 78l42 -18q-55 -101 -203 -101q-125 0 -182 67.5t-57 218.5q0 145 54.5 214.5t185.5 69.5q219 0 219 -279v-15zM456 301q0 210 -167 210q-97 0 -142 -46.5t-48 -163.5h357zM437 746l-172 -142q-6 -4 -12 2l-12 11
q-5 5 -1 9l150 169z" />
    <glyph glyph-name="ecircumflex" unicode="&#xea;" horiz-adv-x="554" 
d="M508 260h-410q3 -122 46 -178.5t144 -56.5q115 0 161 78l42 -18q-55 -101 -203 -101q-125 0 -182 67.5t-57 218.5q0 145 54.5 214.5t185.5 69.5q219 0 219 -279v-15zM456 301q0 210 -167 210q-97 0 -142 -46.5t-48 -163.5h357zM423 621l-23 -22l-123 115l-123 -115
l-23 22l127 152q12 14 19 14t19 -14z" />
    <glyph glyph-name="edieresis" unicode="&#xeb;" horiz-adv-x="554" 
d="M508 260h-410q3 -122 46 -178.5t144 -56.5q115 0 161 78l42 -18q-55 -101 -203 -101q-125 0 -182 67.5t-57 218.5q0 145 54.5 214.5t185.5 69.5q219 0 219 -279v-15zM456 301q0 210 -167 210q-97 0 -142 -46.5t-48 -163.5h357zM424 675q0 -9 -1.5 -10.5t-9.5 -1.5h-50
q-8 0 -9.5 1.5t-1.5 10.5v47q0 9 1.5 10.5t9.5 1.5h50h6t3 -1t2 -3.5v-7.5v-47zM201 675q0 -9 -1.5 -10.5t-9.5 -1.5h-49q-8 0 -9.5 1.5t-1.5 10.5v47q0 9 1.5 10.5t9.5 1.5h49h6t3 -1t2 -3.5v-7.5v-47z" />
    <glyph glyph-name="igrave" unicode="&#xec;" horiz-adv-x="190" 
d="M120 0h-50v537h50v-537zM-34 746l172 -142q6 -4 12 2l12 11q5 5 1 9l-150 169z" />
    <glyph glyph-name="iacute" unicode="&#xed;" horiz-adv-x="190" 
d="M120 0h-50v537h50v-537zM225 746l-172 -142q-6 -4 -12 2l-12 11q-5 5 -1 9l150 169z" />
    <glyph glyph-name="icircumflex" unicode="&#xee;" horiz-adv-x="190" 
d="M120 0h-50v537h50v-537zM241 621l-23 -22l-123 115l-123 -115l-23 22l127 152q12 14 19 14t19 -14z" />
    <glyph glyph-name="idieresis" unicode="&#xef;" horiz-adv-x="190" 
d="M120 0h-50v537h50v-537zM242 675q0 -9 -1.5 -10.5t-9.5 -1.5h-50q-8 0 -9.5 1.5t-1.5 10.5v47q0 9 1.5 10.5t9.5 1.5h50h6t3 -1t2 -3.5v-7.5v-47zM19 675q0 -9 -1.5 -10.5t-9.5 -1.5h-49q-8 0 -9.5 1.5t-1.5 10.5v47q0 9 1.5 10.5t9.5 1.5h49h6t3 -1t2 -3.5v-7.5v-47z
" />
    <glyph glyph-name="eth" unicode="&#xf0;" horiz-adv-x="558" 
d="M509 270q0 -143 -54 -214.5t-176 -71.5t-176 71.5t-54 214.5t53.5 213.5t176.5 70.5q90 0 144 -40q-47 100 -144 170l-73 -58l-27 22l69 55q-59 36 -115 57l21 34q69 -26 129 -63l83 67l27 -24l-80 -63q114 -82 155 -185t41 -256zM456 270q0 131 -40 187t-137 56
q-96 0 -137.5 -56.5t-41.5 -186.5t41 -187.5t138 -57.5q96 0 136.5 57t40.5 188z" />
    <glyph glyph-name="ntilde" unicode="&#xf1;" horiz-adv-x="559" 
d="M495 0h-50v351q0 88 -34.5 124.5t-95.5 36.5q-29 0 -56.5 -12t-79.5 -49l-59 -42v-409h-50v537h34l16 -79l63 44q43 30 70.5 41t61.5 11q83 0 131.5 -49t48.5 -154v-351zM458 732l-64 -86q-17 -23 -40 -23q-20 0 -40 13l-89 54q-14 9 -21 9q-4 0 -7.5 -1.5t-5 -3t-6 -7
t-6.5 -7.5l-55 -61l-24 19l63 87q16 22 40 22q20 0 40 -13l91 -55q11 -7 19 -7q11 0 25 17l55 63z" />
    <glyph glyph-name="ograve" unicode="&#xf2;" horiz-adv-x="558" 
d="M509 270q0 -143 -54 -214.5t-176 -71.5t-176 71.5t-54 214.5t53.5 213.5t176.5 70.5t176.5 -70.5t53.5 -213.5zM456 270q0 131 -40 187t-137 56q-96 0 -137.5 -56.5t-41.5 -186.5t41 -187.5t138 -57.5q96 0 136.5 57t40.5 188zM149 746l172 -142q6 -4 12 2l12 11q5 5 1 9
l-150 169z" />
    <glyph glyph-name="oacute" unicode="&#xf3;" horiz-adv-x="558" 
d="M509 270q0 -143 -54 -214.5t-176 -71.5t-176 71.5t-54 214.5t53.5 213.5t176.5 70.5t176.5 -70.5t53.5 -213.5zM456 270q0 131 -40 187t-137 56q-96 0 -137.5 -56.5t-41.5 -186.5t41 -187.5t138 -57.5q96 0 136.5 57t40.5 188zM408 746l-172 -142q-6 -4 -12 2l-12 11
q-5 5 -1 9l150 169z" />
    <glyph glyph-name="ocircumflex" unicode="&#xf4;" horiz-adv-x="558" 
d="M509 270q0 -143 -54 -214.5t-176 -71.5t-176 71.5t-54 214.5t53.5 213.5t176.5 70.5t176.5 -70.5t53.5 -213.5zM456 270q0 131 -40 187t-137 56q-96 0 -137.5 -56.5t-41.5 -186.5t41 -187.5t138 -57.5q96 0 136.5 57t40.5 188zM425 621l-23 -22l-123 115l-123 -115
l-23 22l127 152q12 14 19 14t19 -14z" />
    <glyph glyph-name="otilde" unicode="&#xf5;" horiz-adv-x="558" 
d="M509 270q0 -143 -54 -214.5t-176 -71.5t-176 71.5t-54 214.5t53.5 213.5t176.5 70.5t176.5 -70.5t53.5 -213.5zM456 270q0 131 -40 187t-137 56q-96 0 -137.5 -56.5t-41.5 -186.5t41 -187.5t138 -57.5q96 0 136.5 57t40.5 188zM458 732l-64 -86q-17 -23 -40 -23
q-20 0 -40 13l-89 54q-14 9 -21 9q-4 0 -7.5 -1.5t-5 -3t-6 -7t-6.5 -7.5l-55 -61l-24 19l63 87q16 22 40 22q20 0 40 -13l91 -55q11 -7 19 -7q11 0 25 17l55 63z" />
    <glyph glyph-name="odieresis" unicode="&#xf6;" horiz-adv-x="558" 
d="M509 270q0 -143 -54 -214.5t-176 -71.5t-176 71.5t-54 214.5t53.5 213.5t176.5 70.5t176.5 -70.5t53.5 -213.5zM456 270q0 131 -40 187t-137 56q-96 0 -137.5 -56.5t-41.5 -186.5t41 -187.5t138 -57.5q96 0 136.5 57t40.5 188zM426 675q0 -9 -1.5 -10.5t-9.5 -1.5h-50
q-8 0 -9.5 1.5t-1.5 10.5v47q0 9 1.5 10.5t9.5 1.5h50h6t3 -1t2 -3.5v-7.5v-47zM203 675q0 -9 -1.5 -10.5t-9.5 -1.5h-49q-8 0 -9.5 1.5t-1.5 10.5v47q0 9 1.5 10.5t9.5 1.5h49h6t3 -1t2 -3.5v-7.5v-47z" />
    <glyph glyph-name="divide" unicode="&#xf7;" 
d="M328 662v-61q0 -7 -8 -7h-60q-6 0 -7 1.5t-1 7.5v59q0 5 1.5 6.5t6.5 1.5h60q5 0 6.5 -1.5t1.5 -6.5zM538 339h-486v42h486v-42zM328 118v-61q0 -7 -8 -7h-60q-6 0 -7 1.5t-1 7.5v59q0 5 1.5 6.5t6.5 1.5h60q5 0 6.5 -1.5t1.5 -6.5z" />
    <glyph glyph-name="oslash" unicode="&#xf8;" horiz-adv-x="558" 
d="M530 554l-66 -83q45 -68 45 -201q0 -143 -54 -214.5t-176 -71.5q-104 0 -159 52l-41 -52h-52l67 84q-45 70 -45 202q0 143 53.5 213.5t176.5 70.5q104 0 159 -52l42 52h50zM409 465q-41 48 -130 48q-96 0 -137.5 -56.5t-41.5 -186.5q0 -105 26 -161zM456 270
q0 103 -25 159l-282 -357q40 -47 130 -47q96 0 136.5 57t40.5 188z" />
    <glyph glyph-name="ugrave" unicode="&#xf9;" horiz-adv-x="559" 
d="M489 0h-33l-16 80l-63 -44q-43 -30 -71 -41t-62 -11q-83 0 -131 48.5t-48 154.5v350h49v-350q0 -88 34.5 -124.5t95.5 -36.5q29 0 56 11.5t80 48.5l60 42v409h49v-537zM149 746l172 -142q6 -4 12 2l12 11q5 5 1 9l-150 169z" />
    <glyph glyph-name="uacute" unicode="&#xfa;" horiz-adv-x="559" 
d="M489 0h-33l-16 80l-63 -44q-43 -30 -71 -41t-62 -11q-83 0 -131 48.5t-48 154.5v350h49v-350q0 -88 34.5 -124.5t95.5 -36.5q29 0 56 11.5t80 48.5l60 42v409h49v-537zM419 746l-172 -142q-6 -4 -12 2l-12 11q-5 5 -1 9l150 169z" />
    <glyph glyph-name="ucircumflex" unicode="&#xfb;" horiz-adv-x="559" 
d="M489 0h-33l-16 80l-63 -44q-43 -30 -71 -41t-62 -11q-83 0 -131 48.5t-48 154.5v350h49v-350q0 -88 34.5 -124.5t95.5 -36.5q29 0 56 11.5t80 48.5l60 42v409h49v-537zM425 621l-23 -22l-123 115l-123 -115l-23 22l127 152q12 14 19 14t19 -14z" />
    <glyph glyph-name="udieresis" unicode="&#xfc;" horiz-adv-x="559" 
d="M489 0h-33l-16 80l-63 -44q-43 -30 -71 -41t-62 -11q-83 0 -131 48.5t-48 154.5v350h49v-350q0 -88 34.5 -124.5t95.5 -36.5q29 0 56 11.5t80 48.5l60 42v409h49v-537zM426 675q0 -9 -1.5 -10.5t-9.5 -1.5h-50q-8 0 -9.5 1.5t-1.5 10.5v47q0 9 1.5 10.5t9.5 1.5h50h6
t3 -1t2 -3.5v-7.5v-47zM203 675q0 -9 -1.5 -10.5t-9.5 -1.5h-49q-8 0 -9.5 1.5t-1.5 10.5v47q0 9 1.5 10.5t9.5 1.5h49h6t3 -1t2 -3.5v-7.5v-47z" />
    <glyph glyph-name="yacute" unicode="&#xfd;" horiz-adv-x="504" 
d="M481 537l-249 -684q-20 -54 -54.5 -74.5t-96.5 -20.5h-50v47h50q49 0 69.5 12.5t37.5 59.5l38 104l-202 556h51l178 -496l177 496h51zM401 746l-172 -142q-6 -4 -12 2l-12 11q-5 5 -1 9l150 169z" />
    <glyph glyph-name="thorn" unicode="&#xfe;" horiz-adv-x="566" 
d="M517 280q0 -142 -59.5 -219t-181.5 -77q-80 0 -156 57v-282h-50v1021h50v-307q52 42 91 61.5t85 19.5q111 0 166 -73t55 -201zM465 280q0 233 -169 233q-29 0 -63.5 -14.5t-55.5 -29t-57 -41.5v-338q87 -65 156 -65q189 0 189 255z" />
    <glyph glyph-name="ydieresis" unicode="&#xff;" horiz-adv-x="504" 
d="M481 537l-249 -684q-20 -54 -54.5 -74.5t-96.5 -20.5h-50v47h50q49 0 69.5 12.5t37.5 59.5l38 104l-202 556h51l178 -496l177 496h51zM399 675q0 -9 -1.5 -10.5t-9.5 -1.5h-50q-8 0 -9.5 1.5t-1.5 10.5v47q0 9 1.5 10.5t9.5 1.5h50h6t3 -1t2 -3.5v-7.5v-47zM176 675
q0 -9 -1.5 -10.5t-9.5 -1.5h-49q-8 0 -9.5 1.5t-1.5 10.5v47q0 9 1.5 10.5t9.5 1.5h49h6t3 -1t2 -3.5v-7.5v-47z" />
    <glyph glyph-name="Amacron" unicode="&#x100;" horiz-adv-x="644" 
d="M614 0h-51l-84 234h-318l-84 -234h-47l260 721h65zM463 279l-143 403l-143 -403h286zM476 817h-309v46h309v-46z" />
    <glyph glyph-name="amacron" unicode="&#x101;" horiz-adv-x="541" 
d="M471 0h-33l-12 61q-90 -77 -206 -77q-86 0 -128.5 46t-42.5 126q0 61 30 99.5t71 51.5t94 13q78 0 178 -31v113q0 49 -32 80t-106 31q-62 0 -98.5 -10.5t-61.5 -42.5l-34 23q51 71 194 71q55 0 94.5 -15t58 -39.5t26.5 -48.5t8 -49v-402zM422 102v150q-98 29 -178 29
q-144 0 -144 -125q0 -131 120 -131q57 0 100 16.5t102 60.5zM425 665h-309v46h309v-46z" />
    <glyph glyph-name="Abreve" unicode="&#x102;" horiz-adv-x="644" 
d="M614 0h-51l-84 234h-318l-84 -234h-47l260 721h65zM463 279l-143 403l-143 -403h286zM472 900q-26 -65 -61 -98t-89 -33t-89 33t-61 98l30 19q31 -57 56 -80t64 -23t64 23t56 80z" />
    <glyph glyph-name="abreve" unicode="&#x103;" horiz-adv-x="541" 
d="M471 0h-33l-12 61q-90 -77 -206 -77q-86 0 -128.5 46t-42.5 126q0 61 30 99.5t71 51.5t94 13q78 0 178 -31v113q0 49 -32 80t-106 31q-62 0 -98.5 -10.5t-61.5 -42.5l-34 23q51 71 194 71q55 0 94.5 -15t58 -39.5t26.5 -48.5t8 -49v-402zM422 102v150q-98 29 -178 29
q-144 0 -144 -125q0 -131 120 -131q57 0 100 16.5t102 60.5zM420 757q-26 -65 -61 -98t-89 -33t-89 33t-61 98l30 19q31 -57 56 -80t64 -23t64 23t56 80z" />
    <glyph glyph-name="Aogonek" unicode="&#x104;" horiz-adv-x="644" 
d="M614 0l-75 -48q-32 -20 -32 -63q0 -39 52 -39q18 0 40 4l31 6l8 -28l-36 -8q-25 -5 -53 -5q-37 0 -61 18t-24 51q0 52 56 86l43 26l-84 234h-318l-84 -234h-47l260 721h65zM463 279l-143 403l-143 -403h286z" />
    <glyph glyph-name="aogonek" unicode="&#x105;" horiz-adv-x="541" 
d="M471 0l-82 -49q-40 -24 -40 -62q0 -39 52 -39q19 0 71 10l8 -28q-58 -13 -89 -13q-37 0 -61 18t-24 51q0 23 10.5 41.5t43.5 37.5l76 43l-10 51q-90 -77 -206 -77q-86 0 -128.5 46t-42.5 126q0 61 30 99.5t71 51.5t94 13q78 0 178 -31v113q0 49 -32 80t-106 31
q-62 0 -98.5 -10.5t-61.5 -42.5l-34 23q51 71 194 71q55 0 94.5 -15t58 -39.5t26.5 -48.5t8 -49v-402zM422 102v150q-98 29 -178 29q-144 0 -144 -125q0 -131 120 -131q57 0 100 16.5t102 60.5z" />
    <glyph glyph-name="Cacute" unicode="&#x106;" horiz-adv-x="599" 
d="M564 113q-67 -129 -231 -129q-84 0 -142 27.5t-89 80.5t-44 117.5t-13 151.5q0 192 63 284t217 92q111 0 168 -49t67 -120h-43q-27 126 -193 126q-59 0 -101.5 -18t-67 -46t-38 -73.5t-17.5 -89.5t-4 -106q0 -57 4 -99.5t18.5 -89t39 -76.5t69 -49.5t106.5 -19.5
q139 0 195 109zM461 914l-172 -142q-6 -4 -12 2l-12 11q-5 5 -1 9l150 169z" />
    <glyph glyph-name="cacute" unicode="&#x107;" horiz-adv-x="513" 
d="M486 85q-27 -50 -72.5 -75.5t-124.5 -25.5q-128 0 -184 71t-56 214t56 214t184 71q78 0 124 -25.5t73 -76.5l-42 -17q-46 78 -153 78q-99 0 -145 -57.5t-46 -186.5t46 -186.5t145 -57.5q107 0 153 78zM414 746l-172 -142q-6 -4 -12 2l-12 11q-5 5 -1 9l150 169z" />
    <glyph glyph-name="Ccircumflex" unicode="&#x108;" horiz-adv-x="599" 
d="M564 113q-67 -129 -231 -129q-84 0 -142 27.5t-89 80.5t-44 117.5t-13 151.5q0 192 63 284t217 92q111 0 168 -49t67 -120h-43q-27 126 -193 126q-59 0 -101.5 -18t-67 -46t-38 -73.5t-17.5 -89.5t-4 -106q0 -57 4 -99.5t18.5 -89t39 -76.5t69 -49.5t106.5 -19.5
q139 0 195 109zM465 791l-23 -22l-123 115l-123 -115l-23 22l127 152q12 14 19 14t19 -14z" />
    <glyph glyph-name="ccircumflex" unicode="&#x109;" horiz-adv-x="513" 
d="M486 85q-27 -50 -72.5 -75.5t-124.5 -25.5q-128 0 -184 71t-56 214t56 214t184 71q78 0 124 -25.5t73 -76.5l-42 -17q-46 78 -153 78q-99 0 -145 -57.5t-46 -186.5t46 -186.5t145 -57.5q107 0 153 78zM422 621l-23 -22l-123 115l-123 -115l-23 22l127 152q12 14 19 14
t19 -14z" />
    <glyph glyph-name="Cdotaccent" unicode="&#x10a;" horiz-adv-x="599" 
d="M564 113q-67 -129 -231 -129q-84 0 -142 27.5t-89 80.5t-44 117.5t-13 151.5q0 192 63 284t217 92q111 0 168 -49t67 -120h-43q-27 126 -193 126q-59 0 -101.5 -18t-67 -46t-38 -73.5t-17.5 -89.5t-4 -106q0 -57 4 -99.5t18.5 -89t39 -76.5t69 -49.5t106.5 -19.5
q139 0 195 109zM365 829q0 -9 -1.5 -10.5t-9.5 -1.5h-50q-8 0 -9.5 1.5t-1.5 10.5v46q0 9 1.5 11t9.5 2h50q6 0 7.5 -0.5t2.5 -3t1 -9.5v-46z" />
    <glyph glyph-name="cdotaccent" unicode="&#x10b;" horiz-adv-x="513" 
d="M486 85q-27 -50 -72.5 -75.5t-124.5 -25.5q-128 0 -184 71t-56 214t56 214t184 71q78 0 124 -25.5t73 -76.5l-42 -17q-46 78 -153 78q-99 0 -145 -57.5t-46 -186.5t46 -186.5t145 -57.5q107 0 153 78zM330 659q0 -9 -1.5 -10.5t-9.5 -1.5h-50q-8 0 -9.5 1.5t-1.5 10.5v46
q0 9 1.5 11t9.5 2h50q6 0 7.5 -0.5t2.5 -3t1 -9.5v-46z" />
    <glyph glyph-name="Ccaron" unicode="&#x10c;" horiz-adv-x="599" 
d="M564 113q-67 -129 -231 -129q-84 0 -142 27.5t-89 80.5t-44 117.5t-13 151.5q0 192 63 284t217 92q111 0 168 -49t67 -120h-43q-27 126 -193 126q-59 0 -101.5 -18t-67 -46t-38 -73.5t-17.5 -89.5t-4 -106q0 -57 4 -99.5t18.5 -89t39 -76.5t69 -49.5t106.5 -19.5
q139 0 195 109zM465 931l-126 -148q-12 -14 -20 -14q-7 0 -19 14l-126 148l22 22l123 -118l124 118z" />
    <glyph glyph-name="ccaron" unicode="&#x10d;" horiz-adv-x="513" 
d="M486 85q-27 -50 -72.5 -75.5t-124.5 -25.5q-128 0 -184 71t-56 214t56 214t184 71q78 0 124 -25.5t73 -76.5l-42 -17q-46 78 -153 78q-99 0 -145 -57.5t-46 -186.5t46 -186.5t145 -57.5q107 0 153 78zM430 762l-126 -148q-12 -14 -20 -14q-7 0 -19 14l-126 148l22 22
l123 -118l124 118z" />
    <glyph glyph-name="Dcaron" unicode="&#x10e;" horiz-adv-x="636" 
d="M601 369q0 -169 -82.5 -269t-260.5 -100h-193v721h193q177 0 260 -94.5t83 -257.5zM550 369q0 310 -292 310h-144v-637h144q292 0 292 327zM433 932l-126 -148q-12 -14 -20 -14q-7 0 -19 14l-126 148l22 22l123 -118l124 118z" />
    <glyph glyph-name="dcaron" unicode="&#x10f;" horiz-adv-x="591" 
d="M495 0h-24l-25 46q-76 -62 -160 -62q-103 0 -170 67t-67 217q0 286 226 286q88 0 170 -49v274h50v-779zM445 93v366q-54 32 -90 42.5t-80 10.5q-91 0 -133 -61t-42 -183q0 -243 186 -243q41 0 77 16.5t82 51.5zM676 781l-60 -234q-2 -14 -13 -14h-5q-7 0 -9 2.5t-2 11.5
l30 234h59z" />
    <glyph glyph-name="Dcroat" unicode="&#x110;" horiz-adv-x="636" 
d="M601 369q0 -169 -82.5 -269t-260.5 -100h-192v360h-87v40h87v321h192q177 0 260 -94.5t83 -257.5zM550 369q0 310 -292 310h-143v-279h124l-11 -40h-113v-318h143q292 0 292 327z" />
    <glyph glyph-name="dcroat" unicode="&#x111;" horiz-adv-x="565" 
d="M495 0h-24l-25 46q-76 -62 -160 -62q-103 0 -170 67t-67 217q0 286 226 286q88 0 170 -49v126h-226v42h226v106h50v-106h57v-42h-57v-631zM445 93v366q-54 32 -90 42.5t-80 10.5q-91 0 -133 -61t-42 -183q0 -243 186 -243q41 0 77 16.5t82 51.5z" />
    <glyph glyph-name="Emacron" unicode="&#x112;" horiz-adv-x="546" 
d="M506 0h-441v721h440v-42h-391v-276h344l-12 -43h-332v-318h392v-42zM437 817h-309v46h309v-46z" />
    <glyph glyph-name="emacron" unicode="&#x113;" horiz-adv-x="554" 
d="M508 260h-410q3 -122 46 -178.5t144 -56.5q115 0 161 78l42 -18q-55 -101 -203 -101q-125 0 -182 67.5t-57 218.5q0 145 54.5 214.5t185.5 69.5q219 0 219 -279v-15zM456 301q0 210 -167 210q-97 0 -142 -46.5t-48 -163.5h357zM431 665h-309v46h309v-46z" />
    <glyph glyph-name="Ebreve" unicode="&#x114;" horiz-adv-x="546" 
d="M506 0h-441v721h440v-42h-391v-276h344l-12 -43h-332v-318h392v-42zM431 901q-26 -65 -61 -98t-89 -33t-89 33t-61 98l30 19q31 -57 56 -80t64 -23t64 23t56 80z" />
    <glyph glyph-name="ebreve" unicode="&#x115;" horiz-adv-x="554" 
d="M508 260h-410q3 -122 46 -178.5t144 -56.5q115 0 161 78l42 -18q-55 -101 -203 -101q-125 0 -182 67.5t-57 218.5q0 145 54.5 214.5t185.5 69.5q219 0 219 -279v-15zM456 301q0 210 -167 210q-97 0 -142 -46.5t-48 -163.5h357zM427 757q-26 -65 -61 -98t-89 -33t-89 33
t-61 98l30 19q31 -57 56 -80t64 -23t64 23t56 80z" />
    <glyph glyph-name="Edotaccent" unicode="&#x116;" horiz-adv-x="546" 
d="M506 0h-441v721h440v-42h-391v-276h344l-12 -43h-332v-318h392v-42zM319 829q0 -9 -1.5 -10.5t-9.5 -1.5h-50q-8 0 -9.5 1.5t-1.5 10.5v46q0 9 1.5 11t9.5 2h50q6 0 7.5 -0.5t2.5 -3t1 -9.5v-46z" />
    <glyph glyph-name="edotaccent" unicode="&#x117;" horiz-adv-x="554" 
d="M508 260h-410q3 -122 46 -178.5t144 -56.5q115 0 161 78l42 -18q-55 -101 -203 -101q-125 0 -182 67.5t-57 218.5q0 145 54.5 214.5t185.5 69.5q219 0 219 -279v-15zM456 301q0 210 -167 210q-97 0 -142 -46.5t-48 -163.5h357zM313 659q0 -9 -1.5 -10.5t-9.5 -1.5h-50
q-8 0 -9.5 1.5t-1.5 10.5v46q0 9 1.5 11t9.5 2h50q6 0 7.5 -0.5t2.5 -3t1 -9.5v-46z" />
    <glyph glyph-name="Eogonek" unicode="&#x118;" horiz-adv-x="546" 
d="M506 0h-44l-58 -57q-27 -25 -27 -54q0 -39 52 -39q18 0 40 4l31 6l8 -28l-36 -8q-25 -5 -53 -5q-37 0 -61 18t-24 51q0 39 28 64l53 48h-350v721h440v-42h-391v-276h344l-12 -43h-332v-318h392v-42z" />
    <glyph glyph-name="eogonek" unicode="&#x119;" horiz-adv-x="554" 
d="M508 260h-410q3 -122 46 -178.5t144 -56.5q115 0 161 78l42 -18q-22 -38 -49 -59l-87 -83q-27 -25 -27 -54q0 -39 52 -39q18 0 40 4l31 6l8 -28l-36 -8q-25 -5 -53 -5q-37 0 -61 18t-24 51q0 39 28 64l41 38q-30 -6 -66 -6q-125 0 -182 67.5t-57 218.5q0 145 54.5 214.5
t185.5 69.5q219 0 219 -279v-15zM456 301q0 210 -167 210q-97 0 -142 -46.5t-48 -163.5h357z" />
    <glyph glyph-name="Ecaron" unicode="&#x11a;" horiz-adv-x="546" 
d="M506 0h-441v721h440v-42h-391v-276h344l-12 -43h-332v-318h392v-42zM438 932l-126 -148q-12 -14 -20 -14q-7 0 -19 14l-126 148l22 22l123 -118l124 118z" />
    <glyph glyph-name="ecaron" unicode="&#x11b;" horiz-adv-x="554" 
d="M508 260h-410q3 -122 46 -178.5t144 -56.5q115 0 161 78l42 -18q-55 -101 -203 -101q-125 0 -182 67.5t-57 218.5q0 145 54.5 214.5t185.5 69.5q219 0 219 -279v-15zM456 301q0 210 -167 210q-97 0 -142 -46.5t-48 -163.5h357zM422 772l-126 -148q-12 -14 -20 -14
q-7 0 -19 14l-126 148l22 22l123 -118l124 118z" />
    <glyph glyph-name="Gcircumflex" unicode="&#x11c;" horiz-adv-x="648" 
d="M583 79q-31 -27 -57.5 -45t-76 -34t-105.5 -16q-157 0 -228 94t-71 283q0 88 15 154.5t49 117.5t93 77.5t141 26.5q111 0 168.5 -49t67.5 -120h-43q-26 126 -193 126q-60 0 -104 -16.5t-71.5 -45t-44 -72t-22.5 -91t-6 -108.5q0 -58 6 -104t22.5 -90.5t43.5 -74t72 -47.5
t105 -18q62 0 103.5 17.5t86.5 51.5v217h-192l-11 41h252v-275zM485 792l-23 -22l-123 115l-123 -115l-23 22l127 152q12 14 19 14t19 -14z" />
    <glyph glyph-name="gcircumflex" unicode="&#x11d;" horiz-adv-x="573" 
d="M546 554l-11 -62h-87q41 -50 41 -119q0 -179 -208 -179q-28 0 -81 8q-6 1 -16 1q-28 0 -44.5 -15.5t-16.5 -37.5q0 -23 11.5 -31.5t35.5 -12.5l223 -41q75 -14 104 -51.5t29 -94.5q0 -160 -246 -160q-41 0 -73 3.5t-66.5 14t-57 29t-37 50.5t-14.5 76q0 91 84 146
q-39 23 -39 72q0 25 15.5 47t45.5 32q-66 51 -66 144q0 92 58 136.5t151 44.5q78 0 141 -36l89 36h35zM436 373q0 68 -39 104t-116 36q-156 0 -156 -140q0 -138 156 -138q79 0 117 28.5t38 109.5zM473 -81q0 46 -19 71t-65 33l-233 42q-71 -42 -71 -133q0 -76 48 -104
t147 -28q106 0 149.5 30.5t43.5 88.5zM432 621l-23 -22l-123 115l-123 -115l-23 22l127 152q12 14 19 14t19 -14z" />
    <glyph glyph-name="Gbreve" unicode="&#x11e;" horiz-adv-x="648" 
d="M583 79q-31 -27 -57.5 -45t-76 -34t-105.5 -16q-157 0 -228 94t-71 283q0 88 15 154.5t49 117.5t93 77.5t141 26.5q111 0 168.5 -49t67.5 -120h-43q-26 126 -193 126q-60 0 -104 -16.5t-71.5 -45t-44 -72t-22.5 -91t-6 -108.5q0 -58 6 -104t22.5 -90.5t43.5 -74t72 -47.5
t105 -18q62 0 103.5 17.5t86.5 51.5v217h-192l-11 41h252v-275zM474 901q-26 -65 -61 -98t-89 -33t-89 33t-61 98l30 19q31 -57 56 -80t64 -23t64 23t56 80z" />
    <glyph glyph-name="gbreve" unicode="&#x11f;" horiz-adv-x="573" 
d="M546 554l-11 -62h-87q41 -50 41 -119q0 -179 -208 -179q-28 0 -81 8q-6 1 -16 1q-28 0 -44.5 -15.5t-16.5 -37.5q0 -23 11.5 -31.5t35.5 -12.5l223 -41q75 -14 104 -51.5t29 -94.5q0 -160 -246 -160q-41 0 -73 3.5t-66.5 14t-57 29t-37 50.5t-14.5 76q0 91 84 146
q-39 23 -39 72q0 25 15.5 47t45.5 32q-66 51 -66 144q0 92 58 136.5t151 44.5q78 0 141 -36l89 36h35zM436 373q0 68 -39 104t-116 36q-156 0 -156 -140q0 -138 156 -138q79 0 117 28.5t38 109.5zM473 -81q0 46 -19 71t-65 33l-233 42q-71 -42 -71 -133q0 -76 48 -104
t147 -28q106 0 149.5 30.5t43.5 88.5zM436 757q-26 -65 -61 -98t-89 -33t-89 33t-61 98l30 19q31 -57 56 -80t64 -23t64 23t56 80z" />
    <glyph glyph-name="Gdotaccent" unicode="&#x120;" horiz-adv-x="648" 
d="M583 79q-31 -27 -57.5 -45t-76 -34t-105.5 -16q-157 0 -228 94t-71 283q0 88 15 154.5t49 117.5t93 77.5t141 26.5q111 0 168.5 -49t67.5 -120h-43q-26 126 -193 126q-60 0 -104 -16.5t-71.5 -45t-44 -72t-22.5 -91t-6 -108.5q0 -58 6 -104t22.5 -90.5t43.5 -74t72 -47.5
t105 -18q62 0 103.5 17.5t86.5 51.5v217h-192l-11 41h252v-275zM371 829q0 -9 -1.5 -10.5t-9.5 -1.5h-50q-8 0 -9.5 1.5t-1.5 10.5v46q0 9 1.5 11t9.5 2h50q6 0 7.5 -0.5t2.5 -3t1 -9.5v-46z" />
    <glyph glyph-name="gdotaccent" unicode="&#x121;" horiz-adv-x="573" 
d="M546 554l-11 -62h-87q41 -50 41 -119q0 -179 -208 -179q-28 0 -81 8q-6 1 -16 1q-28 0 -44.5 -15.5t-16.5 -37.5q0 -23 11.5 -31.5t35.5 -12.5l223 -41q75 -14 104 -51.5t29 -94.5q0 -160 -246 -160q-41 0 -73 3.5t-66.5 14t-57 29t-37 50.5t-14.5 76q0 91 84 146
q-39 23 -39 72q0 25 15.5 47t45.5 32q-66 51 -66 144q0 92 58 136.5t151 44.5q78 0 141 -36l89 36h35zM436 373q0 68 -39 104t-116 36q-156 0 -156 -140q0 -138 156 -138q79 0 117 28.5t38 109.5zM473 -81q0 46 -19 71t-65 33l-233 42q-71 -42 -71 -133q0 -76 48 -104
t147 -28q106 0 149.5 30.5t43.5 88.5zM322 659q0 -9 -1.5 -10.5t-9.5 -1.5h-50q-8 0 -9.5 1.5t-1.5 10.5v46q0 9 1.5 11t9.5 2h50q6 0 7.5 -0.5t2.5 -3t1 -9.5v-46z" />
    <glyph glyph-name="Gcommaaccent" unicode="&#x122;" horiz-adv-x="648" 
d="M583 79q-31 -27 -57.5 -45t-76 -34t-105.5 -16q-157 0 -228 94t-71 283q0 88 15 154.5t49 117.5t93 77.5t141 26.5q111 0 168.5 -49t67.5 -120h-43q-26 126 -193 126q-60 0 -104 -16.5t-71.5 -45t-44 -72t-22.5 -91t-6 -108.5q0 -58 6 -104t22.5 -90.5t43.5 -74t72 -47.5
t105 -18q62 0 103.5 17.5t86.5 51.5v217h-192l-11 41h252v-275zM306 -250l-19 12q42 48 42 108h-33q-7 0 -8.5 2t-1.5 9v53q0 8 2 10t8 2h56q7 0 8.5 -2t1.5 -10v-52q0 -76 -56 -132z" />
    <glyph glyph-name="gcommaaccent" unicode="&#x123;" horiz-adv-x="573" 
d="M546 554l-11 -62h-87q41 -50 41 -119q0 -179 -208 -179q-28 0 -81 8q-6 1 -16 1q-28 0 -44.5 -15.5t-16.5 -37.5q0 -23 11.5 -31.5t35.5 -12.5l223 -41q75 -14 104 -51.5t29 -94.5q0 -160 -246 -160q-41 0 -73 3.5t-66.5 14t-57 29t-37 50.5t-14.5 76q0 91 84 146
q-39 23 -39 72q0 25 15.5 47t45.5 32q-66 51 -66 144q0 92 58 136.5t151 44.5q78 0 141 -36l89 36h35zM436 373q0 68 -39 104t-116 36q-156 0 -156 -140q0 -138 156 -138q79 0 117 28.5t38 109.5zM473 -81q0 46 -19 71t-65 33l-233 42q-71 -42 -71 -133q0 -76 48 -104
t147 -28q106 0 149.5 30.5t43.5 88.5zM304 808l19 -12q-42 -48 -42 -108h33q7 0 8.5 -2t1.5 -9v-53q0 -8 -2 -10t-8 -2h-56q-7 0 -8.5 2t-1.5 10v52q0 76 56 132z" />
    <glyph glyph-name="Hcircumflex" unicode="&#x124;" horiz-adv-x="677" 
d="M612 0h-49v358h-449v-358h-49v721h49v-315h449v315h49v-721zM484 792l-23 -22l-123 115l-123 -115l-23 22l127 152q12 14 19 14t19 -14z" />
    <glyph glyph-name="hcircumflex" unicode="&#x125;" horiz-adv-x="554" 
d="M495 0h-50v352q0 88 -34.5 124t-95.5 36q-29 0 -56.5 -11.5t-79.5 -48.5l-59 -42v-410h-50v779h50v-320l63 44q43 30 70 40.5t62 10.5q83 0 131.5 -48.5t48.5 -153.5v-352zM443 789l-23 -22l-123 115l-123 -115l-23 22l127 152q12 14 19 14t19 -14z" />
    <glyph glyph-name="Hbar" unicode="&#x126;" horiz-adv-x="677" 
d="M0 538v48h65v135h49v-135h449v135h49v-135h55v-48h-55v-538h-49v358h-449v-358h-49v538h-65zM114 406h449v132h-449v-132z" />
    <glyph glyph-name="hbar" unicode="&#x127;" horiz-adv-x="554" 
d="M333 631h-213v-172l63 44q43 30 70 40.5t62 10.5q83 0 131.5 -48.5t48.5 -153.5v-352h-50v352q0 88 -34.5 124t-95.5 36q-29 0 -56.5 -11.5t-79.5 -48.5l-59 -42v-410h-50v631h-70v42h70v106h50v-106h213v-42z" />
    <glyph glyph-name="Itilde" unicode="&#x128;" horiz-adv-x="179" 
d="M114 0h-49v721h49v-721zM269 879l-64 -86q-17 -23 -40 -23q-20 0 -40 13l-89 54q-14 9 -21 9q-4 0 -7.5 -1.5t-5 -3t-6 -7t-6.5 -7.5l-55 -61l-24 19l63 87q16 22 40 22q20 0 40 -13l91 -55q11 -7 19 -7q11 0 25 17l55 63z" />
    <glyph glyph-name="itilde" unicode="&#x129;" horiz-adv-x="190" 
d="M120 0h-50v537h50v-537zM274 732l-64 -86q-17 -23 -40 -23q-20 0 -40 13l-89 54q-14 9 -21 9q-4 0 -7.5 -1.5t-5 -3t-6 -7t-6.5 -7.5l-55 -61l-24 19l63 87q16 22 40 22q20 0 40 -13l91 -55q11 -7 19 -7q11 0 25 17l55 63z" />
    <glyph glyph-name="Imacron" unicode="&#x12a;" horiz-adv-x="179" 
d="M114 0h-49v721h49v-721zM244 817h-309v46h309v-46z" />
    <glyph glyph-name="imacron" unicode="&#x12b;" horiz-adv-x="190" 
d="M120 0h-50v537h50v-537zM250 665h-309v46h309v-46z" />
    <glyph glyph-name="Ibreve" unicode="&#x12c;" horiz-adv-x="179" 
d="M114 0h-49v721h49v-721zM240 900q-26 -65 -61 -98t-89 -33t-89 33t-61 98l30 19q31 -57 56 -80t64 -23t64 23t56 80z" />
    <glyph glyph-name="ibreve" unicode="&#x12d;" horiz-adv-x="190" 
d="M120 0h-50v537h50v-537zM245 757q-26 -65 -61 -98t-89 -33t-89 33t-61 98l30 19q31 -57 56 -80t64 -23t64 23t56 80z" />
    <glyph glyph-name="Iogonek" unicode="&#x12e;" horiz-adv-x="179" 
d="M114 0q-40 -42 -54 -64t-14 -47q0 -39 52 -39q18 0 40 4l31 6l8 -28l-36 -8q-25 -5 -53 -5q-37 0 -61 18t-24 51q0 53 62 112v721h49v-721z" />
    <glyph glyph-name="iogonek" unicode="&#x12f;" horiz-adv-x="190" 
d="M120 0l-36 -34q-19 -18 -26 -31.5t-7 -35.5q0 -49 52 -49q25 0 71 10l8 -28q-42 -13 -84 -13q-90 0 -90 80q0 29 8.5 45t39.5 44l14 12v537h50v-537zM128 725q0 -9 -1.5 -10.5t-9.5 -1.5h-44q-8 0 -9.5 1.5t-1.5 10.5v41q0 9 1.5 11t9.5 2h44q6 0 7.5 -0.5t2.5 -3t1 -9.5
v-41z" />
    <glyph glyph-name="Idotaccent" unicode="&#x130;" horiz-adv-x="179" 
d="M114 0h-49v721h49v-721zM126 828q0 -9 -1.5 -10.5t-9.5 -1.5h-50q-8 0 -9.5 1.5t-1.5 10.5v46q0 9 1.5 11t9.5 2h50q6 0 7.5 -0.5t2.5 -3t1 -9.5v-46z" />
    <glyph glyph-name="dotlessi" unicode="&#x131;" horiz-adv-x="190" 
d="M120 0h-50v537h50v-537z" />
    <glyph glyph-name="IJ" unicode="&#x132;" horiz-adv-x="589" 
d="M114 0h-49v721h49v-721zM524 201q0 -118 -50.5 -167.5t-147.5 -49.5q-71 0 -122 37l23 33q44 -30 99 -30q81 0 115 41.5t34 135.5v520h49v-520z" />
    <glyph glyph-name="ij" unicode="&#x133;" horiz-adv-x="380" 
d="M128 725q0 -9 -1.5 -10.5t-9.5 -1.5h-44q-8 0 -9.5 1.5t-1.5 10.5v41q0 9 1.5 11t9.5 2h44q6 0 7.5 -0.5t2.5 -3t1 -9.5v-41zM120 0h-50v537h50v-537zM318 725q0 -9 -1.5 -10.5t-9.5 -1.5h-44q-8 0 -9.5 1.5t-1.5 10.5v41q0 9 1.5 11t9.5 2h44q6 0 7.5 -0.5t2.5 -3
t1 -9.5v-41zM310 -110q0 -132 -138 -132h-43v45h43q52 0 69.5 23t17.5 79v632h51v-647z" />
    <glyph glyph-name="Jcircumflex" unicode="&#x134;" horiz-adv-x="410" 
d="M345 201q0 -118 -50.5 -167.5t-147.5 -49.5q-71 0 -122 37l23 33q44 -30 99 -30q81 0 115 41.5t34 135.5v520h49v-520zM467 791l-23 -22l-123 115l-123 -115l-23 22l127 152q12 14 19 14t19 -14z" />
    <glyph glyph-name="jcircumflex" unicode="&#x135;" horiz-adv-x="190" 
d="M120 -110q0 -132 -138 -132h-43v45h43q52 0 69.5 23t17.5 79v632h51v-647zM241 621l-23 -22l-123 115l-123 -115l-23 22l127 152q12 14 19 14t19 -14z" />
    <glyph glyph-name="Kcommaaccent" unicode="&#x136;" horiz-adv-x="602" 
d="M582 0h-61l-290 382l-117 -115v-267h-49v721h49v-394l401 394h61l-311 -306zM283 -250l-19 12q42 48 42 108h-33q-7 0 -8.5 2t-1.5 9v53q0 8 1.5 10t8.5 2h56q7 0 8.5 -2t1.5 -10v-52q0 -76 -56 -132z" />
    <glyph glyph-name="kcommaaccent" unicode="&#x137;" horiz-adv-x="519" 
d="M499 0h-67l-230 306l-82 -65v-241h-50v779h50v-482l303 240h75l-257 -201zM241 -250l-19 12q42 48 42 108h-33q-7 0 -8.5 2t-1.5 9v53q0 8 1.5 10t8.5 2h56q7 0 8.5 -2t1.5 -10v-52q0 -76 -56 -132z" />
    <glyph glyph-name="kgreenlandic" unicode="&#x138;" horiz-adv-x="519" 
d="M499 0h-67l-230 306l-82 -65v-241h-50v537h50v-240l303 240h75l-257 -201z" />
    <glyph glyph-name="Lacute" unicode="&#x139;" horiz-adv-x="484" 
d="M454 0h-389v721h49v-679h340v-42zM407 912l-172 -142q-6 -4 -12 2l-12 11q-5 5 -1 9l150 169z" />
    <glyph glyph-name="lacute" unicode="&#x13a;" horiz-adv-x="222" 
d="M217 -8h-40q-107 0 -107 121v666h50v-666q0 -41 13.5 -57.5t43.5 -16.5h40v-47zM251 930l-172 -142q-6 -4 -12 2l-12 11q-5 5 -1 9l150 169z" />
    <glyph glyph-name="Lcommaaccent" unicode="&#x13b;" horiz-adv-x="484" 
d="M454 0h-389v721h49v-679h340v-42zM224 -250l-19 12q42 48 42 108h-33q-7 0 -8.5 2t-1.5 9v53q0 8 2 10t8 2h56q7 0 8.5 -2t1.5 -10v-52q0 -76 -56 -132z" />
    <glyph glyph-name="lcommaaccent" unicode="&#x13c;" horiz-adv-x="222" 
d="M217 -8h-40q-107 0 -107 121v666h50v-666q0 -41 13.5 -57.5t43.5 -16.5h40v-47zM93 -250l-19 12q42 48 42 108h-33q-7 0 -8.5 2t-1.5 9v53q0 8 1.5 10t8.5 2h56q7 0 8.5 -2t1.5 -10v-52q0 -76 -56 -132z" />
    <glyph glyph-name="Lcaron" unicode="&#x13d;" horiz-adv-x="484" 
d="M454 0h-389v721h49v-679h340v-42zM366 720l-60 -234q-2 -14 -13 -14h-5q-7 0 -9 2.5t-2 11.5l30 234h59z" />
    <glyph glyph-name="lcaron" unicode="&#x13e;" horiz-adv-x="242" 
d="M217 -8h-40q-107 0 -107 121v666h50v-666q0 -41 13.5 -57.5t43.5 -16.5h40v-47zM327 781l-60 -234q-2 -14 -13 -14h-5q-7 0 -9 2.5t-2 11.5l30 234h59z" />
    <glyph glyph-name="Ldot" unicode="&#x13f;" horiz-adv-x="484" 
d="M454 0h-389v721h49v-679h340v-42zM348 342q0 -9 -1.5 -10.5t-9.5 -1.5h-50q-8 0 -9.5 1.5t-1.5 10.5v46q0 9 1.5 11t9.5 2h50q6 0 7.5 -0.5t2.5 -3t1 -9.5v-46z" />
    <glyph glyph-name="ldot" unicode="&#x140;" horiz-adv-x="376" 
d="M217 -8h-40q-107 0 -107 121v666h50v-666q0 -41 13.5 -57.5t43.5 -16.5h40v-47zM317 379q0 -9 -1.5 -10.5t-9.5 -1.5h-50q-8 0 -9.5 1.5t-1.5 10.5v46q0 9 1.5 11t9.5 2h50q6 0 7.5 -0.5t2.5 -3t1 -9.5v-46z" />
    <glyph glyph-name="Lslash" unicode="&#x141;" horiz-adv-x="484" 
d="M454 0h-380v342l-61 -38v51l61 38v328h49v-299l131 80v-50l-131 -80v-330h331v-42z" />
    <glyph glyph-name="lslash" unicode="&#x142;" horiz-adv-x="237" 
d="M87 779h50v-286l84 49v-54l-84 -50v-325q0 -41 13.5 -57.5t43.5 -16.5h40v-47h-40q-107 0 -107 121v296l-70 -42v56l70 41v315z" />
    <glyph glyph-name="Nacute" unicode="&#x143;" horiz-adv-x="689" 
d="M624 0h-52l-458 645v-645h-49v721h52l459 -646l-1 646h49v-721zM494 912l-172 -142q-6 -4 -12 2l-12 11q-5 5 -1 9l150 169z" />
    <glyph glyph-name="nacute" unicode="&#x144;" horiz-adv-x="559" 
d="M495 0h-50v351q0 88 -34.5 124.5t-95.5 36.5q-29 0 -56.5 -12t-79.5 -49l-59 -42v-409h-50v537h34l16 -79l63 44q43 30 70.5 41t61.5 11q83 0 131.5 -49t48.5 -154v-351zM419 746l-172 -142q-6 -4 -12 2l-12 11q-5 5 -1 9l150 169z" />
    <glyph glyph-name="Ncommaaccent" unicode="&#x145;" horiz-adv-x="689" 
d="M624 0h-52l-458 645v-645h-49v721h52l459 -646l-1 646h49v-721zM326 -250l-19 12q42 48 42 108h-33q-7 0 -8.5 2t-1.5 9v53q0 8 2 10t8 2h56q7 0 8.5 -2t1.5 -10v-52q0 -76 -56 -132z" />
    <glyph glyph-name="ncommaaccent" unicode="&#x146;" horiz-adv-x="559" 
d="M495 0h-50v351q0 88 -34.5 124.5t-95.5 36.5q-29 0 -56.5 -12t-79.5 -49l-59 -42v-409h-50v537h34l16 -79l63 44q43 30 70.5 41t61.5 11q83 0 131.5 -49t48.5 -154v-351zM261 -250l-19 12q42 48 42 108h-33q-7 0 -8.5 2t-1.5 9v53q0 8 1.5 10t8.5 2h56q7 0 8.5 -2
t1.5 -10v-52q0 -76 -56 -132z" />
    <glyph glyph-name="Ncaron" unicode="&#x147;" horiz-adv-x="689" 
d="M624 0h-52l-458 645v-645h-49v721h52l459 -646l-1 646h49v-721zM490 931l-126 -148q-12 -14 -20 -14q-7 0 -19 14l-126 148l22 22l123 -118l124 118z" />
    <glyph glyph-name="ncaron" unicode="&#x148;" horiz-adv-x="559" 
d="M495 0h-50v351q0 88 -34.5 124.5t-95.5 36.5q-29 0 -56.5 -12t-79.5 -49l-59 -42v-409h-50v537h34l16 -79l63 44q43 30 70.5 41t61.5 11q83 0 131.5 -49t48.5 -154v-351zM425 772l-126 -148q-12 -14 -20 -14q-7 0 -19 14l-126 148l22 22l123 -118l124 118z" />
    <glyph glyph-name="napostrophe" unicode="&#x149;" horiz-adv-x="719" 
d="M120 657q0 -95 -86 -158l-14 13q37 34 52 64t15 69h-33q-8 0 -9 1.5t-1 9.5v53q0 9 1 10.5t9 1.5h56q8 0 9 -1.5t1 -10.5v-52zM598 0h-50v351q0 88 -34.5 124.5t-95.5 36.5q-29 0 -56.5 -12t-79.5 -49l-59 -42v-409h-50v537h34l16 -79l63 44q43 30 70.5 41t61.5 11
q83 0 131.5 -49t48.5 -154v-351z" />
    <glyph glyph-name="Eng" unicode="&#x14a;" horiz-adv-x="689" 
d="M624 -32q0 -118 -50.5 -167.5t-147.5 -49.5q-71 0 -122 37l23 33q44 -30 99 -30q81 0 115 41.5t34 135.5v32l-461 645v-645h-49v721h52l458 -642v642h49v-753z" />
    <glyph glyph-name="eng" unicode="&#x14b;" horiz-adv-x="559" 
d="M495 -110q0 -60 -30 -96t-107 -36h-43v45h43q52 0 69.5 23t17.5 79v446q0 88 -34.5 124.5t-95.5 36.5q-29 0 -56.5 -12t-79.5 -49l-59 -42v-409h-50v537h34l16 -79l63 44q43 30 70.5 41t61.5 11q83 0 131.5 -49t48.5 -154v-461z" />
    <glyph glyph-name="Omacron" unicode="&#x14c;" horiz-adv-x="665" 
d="M620 369q0 -191 -63.5 -288t-225.5 -97q-84 0 -141 26t-88 79t-44 120t-13 160q0 84 13 147t44 115t88.5 79t140.5 27t141 -27t89.5 -79t45 -115t13.5 -147zM569 369q0 161 -52 243t-186 82t-184.5 -81.5t-50.5 -243.5q0 -176 50 -259t185 -83t186.5 83.5t51.5 258.5z
M485 816h-309v46h309v-46z" />
    <glyph glyph-name="omacron" unicode="&#x14d;" horiz-adv-x="558" 
d="M509 270q0 -143 -54 -214.5t-176 -71.5t-176 71.5t-54 214.5t53.5 213.5t176.5 70.5t176.5 -70.5t53.5 -213.5zM456 270q0 131 -40 187t-137 56q-96 0 -137.5 -56.5t-41.5 -186.5t41 -187.5t138 -57.5q96 0 136.5 57t40.5 188zM433 665h-309v46h309v-46z" />
    <glyph glyph-name="Obreve" unicode="&#x14e;" horiz-adv-x="665" 
d="M620 369q0 -191 -63.5 -288t-225.5 -97q-84 0 -141 26t-88 79t-44 120t-13 160q0 84 13 147t44 115t88.5 79t140.5 27t141 -27t89.5 -79t45 -115t13.5 -147zM569 369q0 161 -52 243t-186 82t-184.5 -81.5t-50.5 -243.5q0 -176 50 -259t185 -83t186.5 83.5t51.5 258.5z
M482 903q-26 -65 -61 -98t-89 -33t-89 33t-61 98l30 19q31 -57 56 -80t64 -23t64 23t56 80z" />
    <glyph glyph-name="obreve" unicode="&#x14f;" horiz-adv-x="558" 
d="M509 270q0 -143 -54 -214.5t-176 -71.5t-176 71.5t-54 214.5t53.5 213.5t176.5 70.5t176.5 -70.5t53.5 -213.5zM456 270q0 131 -40 187t-137 56q-96 0 -137.5 -56.5t-41.5 -186.5t41 -187.5t138 -57.5q96 0 136.5 57t40.5 188zM429 757q-26 -65 -61 -98t-89 -33t-89 33
t-61 98l30 19q31 -57 56 -80t64 -23t64 23t56 80z" />
    <glyph glyph-name="Ohungarumlaut" unicode="&#x150;" horiz-adv-x="665" 
d="M620 369q0 -191 -63.5 -288t-225.5 -97q-84 0 -141 26t-88 79t-44 120t-13 160q0 84 13 147t44 115t88.5 79t140.5 27t141 -27t89.5 -79t45 -115t13.5 -147zM569 369q0 161 -52 243t-186 82t-184.5 -81.5t-50.5 -243.5q0 -176 50 -259t185 -83t186.5 83.5t51.5 258.5z
M367 913l-172 -142q-6 -4 -12 2l-12 11q-5 5 -1 9l150 169zM597 913l-172 -142q-6 -4 -12 2l-12 11q-5 5 -1 9l150 169z" />
    <glyph glyph-name="ohungarumlaut" unicode="&#x151;" horiz-adv-x="558" 
d="M509 270q0 -143 -54 -214.5t-176 -71.5t-176 71.5t-54 214.5t53.5 213.5t176.5 70.5t176.5 -70.5t53.5 -213.5zM456 270q0 131 -40 187t-137 56q-96 0 -137.5 -56.5t-41.5 -186.5t41 -187.5t138 -57.5q96 0 136.5 57t40.5 188zM314 746l-172 -142q-6 -4 -12 2l-12 11
q-5 5 -1 9l150 169zM544 746l-172 -142q-6 -4 -12 2l-12 11q-5 5 -1 9l150 169z" />
    <glyph glyph-name="OE" unicode="&#x152;" horiz-adv-x="1051" 
d="M1011 0h-441v103q-66 -119 -239 -119q-84 0 -141 26t-88 79t-44 120t-13 160q0 84 13 147t44 115t88.5 79t140.5 27q171 0 239 -119v103h440v-42h-391v-276h344l-12 -43h-332v-318h392v-42zM569 369q0 161 -52 243t-186 82t-184.5 -81.5t-50.5 -243.5q0 -176 50 -259
t185 -83t186.5 83.5t51.5 258.5z" />
    <glyph glyph-name="oe" unicode="&#x153;" horiz-adv-x="958" 
d="M912 260h-403q3 -123 44 -179t141 -56q114 0 160 78l43 -18q-55 -101 -203 -101q-162 0 -212 117q-50 -117 -203 -117q-122 0 -176 71.5t-54 214.5t53.5 213.5t176.5 70.5q152 0 203 -117q51 117 214 117q69 0 113.5 -21t66 -63t29 -87.5t7.5 -112.5v-10zM858 301
q0 107 -34 159.5t-128 52.5q-90 0 -135 -47.5t-52 -164.5h349zM455 270q0 44 -3 75.5t-13.5 65.5t-29 54.5t-51.5 34t-79 13.5q-96 0 -137.5 -56.5t-41.5 -186.5t41 -187.5t138 -57.5q46 0 79 13.5t51.5 35t29 55.5t13.5 65.5t3 75.5z" />
    <glyph glyph-name="Racute" unicode="&#x154;" horiz-adv-x="583" 
d="M533 0h-57l-200 316h-162v-316h-49v721h217q245 0 245 -204q0 -169 -196 -200zM476 517q0 89 -48.5 125.5t-145.5 36.5h-168v-320h167q195 0 195 158zM431 914l-172 -142q-6 -4 -12 2l-12 11q-5 5 -1 9l150 169z" />
    <glyph glyph-name="racute" unicode="&#x155;" horiz-adv-x="337" 
d="M314 504q-26 4 -36 4q-52 0 -116 -49l-46 -35v-424h-50v537h32l15 -66l34 25q79 58 136 58q20 0 31 -3v-47zM308 746l-172 -142q-6 -4 -12 2l-12 11q-5 5 -1 9l150 169z" />
    <glyph glyph-name="Rcommaaccent" unicode="&#x156;" horiz-adv-x="583" 
d="M533 0h-57l-200 316h-162v-316h-49v721h217q245 0 245 -204q0 -169 -196 -200zM476 517q0 89 -48.5 125.5t-145.5 36.5h-168v-320h167q195 0 195 158zM273 -250l-19 12q42 48 42 108h-33q-7 0 -8.5 2t-1.5 9v53q0 8 1.5 10t8.5 2h56q7 0 8.5 -2t1.5 -10v-52
q0 -76 -56 -132z" />
    <glyph glyph-name="rcommaaccent" unicode="&#x157;" horiz-adv-x="337" 
d="M314 504q-26 4 -36 4q-52 0 -116 -49l-46 -35v-424h-50v537h32l15 -66l34 25q79 58 136 58q20 0 31 -3v-47zM150 -250l-19 12q42 48 42 108h-33q-7 0 -8.5 2t-1.5 9v53q0 8 2 10t8 2h56q7 0 8.5 -2t1.5 -10v-52q0 -76 -56 -132z" />
    <glyph glyph-name="Rcaron" unicode="&#x158;" horiz-adv-x="583" 
d="M533 0h-57l-200 316h-162v-316h-49v721h217q245 0 245 -204q0 -169 -196 -200zM476 517q0 89 -48.5 125.5t-145.5 36.5h-168v-320h167q195 0 195 158zM427 933l-126 -148q-12 -14 -20 -14q-7 0 -19 14l-126 148l22 22l123 -118l124 118z" />
    <glyph glyph-name="rcaron" unicode="&#x159;" horiz-adv-x="337" 
d="M314 504q-26 4 -36 4q-52 0 -116 -49l-46 -35v-424h-50v537h32l15 -66l34 25q79 58 136 58q20 0 31 -3v-47zM314 772l-126 -148q-12 -14 -20 -14q-7 0 -19 14l-126 148l22 22l123 -118l124 118z" />
    <glyph glyph-name="Sacute" unicode="&#x15a;" horiz-adv-x="580" 
d="M540 198q0 -89 -64.5 -151.5t-191.5 -62.5q-85 0 -148.5 33t-91.5 97l41 21q56 -108 199 -108q105 0 154.5 49.5t49.5 121.5q0 63 -28 98.5t-94 47.5l-160 29q-147 27 -147 181q0 36 11 66.5t35.5 57.5t71.5 43t112 16q156 0 215 -104l-42 -21q-51 82 -173 82
q-180 0 -180 -140q0 -61 24.5 -92t85.5 -42l160 -28q161 -28 161 -194zM420 914l-172 -142q-6 -4 -12 2l-12 11q-5 5 -1 9l150 169z" />
    <glyph glyph-name="sacute" unicode="&#x15b;" horiz-adv-x="477" 
d="M440 150q0 -77 -56 -121.5t-146 -44.5q-155 0 -200 101l46 16q19 -38 60.5 -57t93.5 -19q65 0 108 32t43 93q0 84 -88 98l-137 23q-53 9 -83.5 42t-30.5 90q0 74 55.5 112.5t134.5 38.5q56 0 105 -20t73 -57l-40 -20q-41 56 -138 56q-62 0 -101.5 -27t-39.5 -83
q0 -75 78 -87l136 -22q58 -9 92.5 -46t34.5 -98zM368 746l-172 -142q-6 -4 -12 2l-12 11q-5 5 -1 9l150 169z" />
    <glyph glyph-name="Scircumflex" unicode="&#x15c;" horiz-adv-x="580" 
d="M540 198q0 -89 -64.5 -151.5t-191.5 -62.5q-85 0 -148.5 33t-91.5 97l41 21q56 -108 199 -108q105 0 154.5 49.5t49.5 121.5q0 63 -28 98.5t-94 47.5l-160 29q-147 27 -147 181q0 36 11 66.5t35.5 57.5t71.5 43t112 16q156 0 215 -104l-42 -21q-51 82 -173 82
q-180 0 -180 -140q0 -61 24.5 -92t85.5 -42l160 -28q161 -28 161 -194zM436 791l-23 -22l-123 115l-123 -115l-23 22l127 152q12 14 19 14t19 -14z" />
    <glyph glyph-name="scircumflex" unicode="&#x15d;" horiz-adv-x="477" 
d="M440 150q0 -77 -56 -121.5t-146 -44.5q-155 0 -200 101l46 16q19 -38 60.5 -57t93.5 -19q65 0 108 32t43 93q0 84 -88 98l-137 23q-53 9 -83.5 42t-30.5 90q0 74 55.5 112.5t134.5 38.5q56 0 105 -20t73 -57l-40 -20q-41 56 -138 56q-62 0 -101.5 -27t-39.5 -83
q0 -75 78 -87l136 -22q58 -9 92.5 -46t34.5 -98zM384 621l-23 -22l-123 115l-123 -115l-23 22l127 152q12 14 19 14t19 -14z" />
    <glyph glyph-name="uni015E" unicode="&#x15e;" horiz-adv-x="580" 
d="M381 -108q0 -71 -100 -71q-26 0 -47 3l-36 5l4 27l35 -5q18 -2 34 -2q67 0 67 43q0 16 -11 24.5t-28 8.5h-64l-25 34l23 29q-142 18 -189 126l41 21q56 -108 199 -108q105 0 154.5 49.5t49.5 121.5q0 63 -28 98.5t-94 47.5l-160 29q-147 27 -147 181q0 36 11 66.5
t35.5 57.5t71.5 43t112 16q156 0 215 -104l-42 -21q-51 82 -173 82q-180 0 -180 -140q0 -61 24.5 -92t85.5 -42l160 -28q161 -28 161 -194q0 -89 -64.5 -151.5t-191.5 -62.5q-13 0 -19 1l-19 -30h53q82 0 82 -63z" />
    <glyph glyph-name="uni015F" unicode="&#x15f;" horiz-adv-x="477" 
d="M330 -108q0 -71 -100 -71q-26 0 -47 3l-36 5l4 27l35 -5q18 -2 34 -2q67 0 67 43q0 16 -11 24.5t-28 8.5h-64l-25 34l24 29q-109 17 -145 97l46 16q19 -38 60.5 -57t93.5 -19q65 0 108 32t43 93q0 84 -88 98l-137 23q-53 9 -83.5 42t-30.5 90q0 74 55.5 112.5t134.5 38.5
q56 0 105 -20t73 -57l-40 -20q-41 56 -138 56q-62 0 -101.5 -27t-39.5 -83q0 -75 78 -87l136 -22q58 -9 92.5 -46t34.5 -98q0 -77 -56 -121.5t-146 -44.5q-16 0 -24 1l-19 -30h53q82 0 82 -63z" />
    <glyph glyph-name="Scaron" unicode="&#x160;" horiz-adv-x="580" 
d="M540 198q0 -89 -64.5 -151.5t-191.5 -62.5q-85 0 -148.5 33t-91.5 97l41 21q56 -108 199 -108q105 0 154.5 49.5t49.5 121.5q0 63 -28 98.5t-94 47.5l-160 29q-147 27 -147 181q0 36 11 66.5t35.5 57.5t71.5 43t112 16q156 0 215 -104l-42 -21q-51 82 -173 82
q-180 0 -180 -140q0 -61 24.5 -92t85.5 -42l160 -28q161 -28 161 -194zM435 932l-126 -148q-12 -14 -20 -14q-7 0 -19 14l-126 148l22 22l123 -118l124 118z" />
    <glyph glyph-name="scaron" unicode="&#x161;" horiz-adv-x="477" 
d="M440 150q0 -77 -56 -121.5t-146 -44.5q-155 0 -200 101l46 16q19 -38 60.5 -57t93.5 -19q65 0 108 32t43 93q0 84 -88 98l-137 23q-53 9 -83.5 42t-30.5 90q0 74 55.5 112.5t134.5 38.5q56 0 105 -20t73 -57l-40 -20q-41 56 -138 56q-62 0 -101.5 -27t-39.5 -83
q0 -75 78 -87l136 -22q58 -9 92.5 -46t34.5 -98zM384 772l-126 -148q-12 -14 -20 -14q-7 0 -19 14l-126 148l22 22l123 -118l124 118z" />
    <glyph glyph-name="Tcommaaccent" unicode="&#x162;" horiz-adv-x="568" 
d="M538 679h-229v-679h-49v679h-230v42h508v-42zM266 -250l-19 12q42 48 42 108h-33q-7 0 -8.5 2t-1.5 9v53q0 8 2 10t8 2h56q7 0 8.5 -2t1.5 -10v-52q0 -76 -56 -132z" />
    <glyph glyph-name="tcommaaccent" unicode="&#x163;" horiz-adv-x="393" 
d="M386 17q-55 -33 -134 -33q-60 0 -98 34t-38 105v372h-97v42h95v189l51 13v-202h190l-13 -42h-177v-372q0 -98 97 -98q51 0 95 27zM210 -250l-19 12q42 48 42 108h-33q-7 0 -8.5 2t-1.5 9v53q0 8 2 10t8 2h56q7 0 8.5 -2t1.5 -10v-52q0 -76 -56 -132z" />
    <glyph glyph-name="Tcaron" unicode="&#x164;" horiz-adv-x="568" 
d="M538 679h-229v-679h-49v679h-230v42h508v-42zM429 932l-126 -148q-12 -14 -20 -14q-7 0 -19 14l-126 148l22 22l123 -118l124 118z" />
    <glyph glyph-name="tcaron" unicode="&#x165;" horiz-adv-x="422" 
d="M386 17q-55 -33 -134 -33q-60 0 -98 34t-38 105v372h-97v42h95v189l51 13v-202h190l-13 -42h-177v-372q0 -98 97 -98q51 0 95 27zM507 780l-60 -234q-2 -14 -13 -14h-5q-7 0 -9 2.5t-2 11.5l30 234h59z" />
    <glyph glyph-name="Tbar" unicode="&#x166;" horiz-adv-x="568" 
d="M538 495h-229v-495h-49v495h-230v42h230v142h-230v42h508v-42h-229v-142h229v-42z" />
    <glyph glyph-name="tbar" unicode="&#x167;" horiz-adv-x="393" 
d="M342 325h-177v-202q0 -98 97 -98q51 0 95 27l29 -35q-55 -33 -134 -33q-60 0 -98 34t-38 105v202h-97v42h97v128h-97v42h95v189l51 13v-202h190l-13 -42h-177v-128h190z" />
    <glyph glyph-name="Utilde" unicode="&#x168;" horiz-adv-x="674" 
d="M614 294q0 -310 -277 -310t-277 310v427h49v-427q0 -138 57.5 -202.5t170.5 -64.5t170.5 64.5t57.5 202.5v427h49v-427zM516 881l-64 -86q-17 -23 -40 -23q-20 0 -40 13l-89 54q-14 9 -21 9q-4 0 -7.5 -1.5t-5 -3t-6 -7t-6.5 -7.5l-55 -61l-24 19l63 87q16 22 40 22
q20 0 40 -13l91 -55q11 -7 19 -7q11 0 25 17l55 63z" />
    <glyph glyph-name="utilde" unicode="&#x169;" horiz-adv-x="559" 
d="M489 0h-33l-16 80l-63 -44q-43 -30 -71 -41t-62 -11q-83 0 -131 48.5t-48 154.5v350h49v-350q0 -88 34.5 -124.5t95.5 -36.5q29 0 56 11.5t80 48.5l60 42v409h49v-537zM458 732l-64 -86q-17 -23 -40 -23q-20 0 -40 13l-89 54q-14 9 -21 9q-4 0 -7.5 -1.5t-5 -3t-6 -7
t-6.5 -7.5l-55 -61l-24 19l63 87q16 22 40 22q20 0 40 -13l91 -55q11 -7 19 -7q11 0 25 17l55 63z" />
    <glyph glyph-name="Umacron" unicode="&#x16a;" horiz-adv-x="674" 
d="M614 294q0 -310 -277 -310t-277 310v427h49v-427q0 -138 57.5 -202.5t170.5 -64.5t170.5 64.5t57.5 202.5v427h49v-427zM491 817h-309v46h309v-46z" />
    <glyph glyph-name="umacron" unicode="&#x16b;" horiz-adv-x="559" 
d="M489 0h-33l-16 80l-63 -44q-43 -30 -71 -41t-62 -11q-83 0 -131 48.5t-48 154.5v350h49v-350q0 -88 34.5 -124.5t95.5 -36.5q29 0 56 11.5t80 48.5l60 42v409h49v-537zM434 665h-309v46h309v-46z" />
    <glyph glyph-name="Ubreve" unicode="&#x16c;" horiz-adv-x="674" 
d="M614 294q0 -310 -277 -310t-277 310v427h49v-427q0 -138 57.5 -202.5t170.5 -64.5t170.5 64.5t57.5 202.5v427h49v-427zM487 899q-26 -65 -61 -98t-89 -33t-89 33t-61 98l30 19q31 -57 56 -80t64 -23t64 23t56 80z" />
    <glyph glyph-name="ubreve" unicode="&#x16d;" horiz-adv-x="559" 
d="M489 0h-33l-16 80l-63 -44q-43 -30 -71 -41t-62 -11q-83 0 -131 48.5t-48 154.5v350h49v-350q0 -88 34.5 -124.5t95.5 -36.5q29 0 56 11.5t80 48.5l60 42v409h49v-537zM429 757q-26 -65 -61 -98t-89 -33t-89 33t-61 98l30 19q31 -57 56 -80t64 -23t64 23t56 80z" />
    <glyph glyph-name="Uring" unicode="&#x16e;" horiz-adv-x="674" 
d="M614 294q0 -310 -277 -310t-277 310v427h49v-427q0 -138 57.5 -202.5t170.5 -64.5t170.5 64.5t57.5 202.5v427h49v-427zM446 879q0 -45 -32.5 -77t-77.5 -32t-77 32t-32 77t32 77t77 32t77.5 -32t32.5 -77zM408 879q0 30 -21 50.5t-51 20.5t-50.5 -20.5t-20.5 -50.5
t20.5 -51t50.5 -21t51 21t21 51z" />
    <glyph glyph-name="uring" unicode="&#x16f;" horiz-adv-x="559" 
d="M489 0h-33l-16 80l-63 -44q-43 -30 -71 -41t-62 -11q-83 0 -131 48.5t-48 154.5v350h49v-350q0 -88 34.5 -124.5t95.5 -36.5q29 0 56 11.5t80 48.5l60 42v409h49v-537zM389 711q0 -45 -32.5 -77t-77.5 -32t-77 32t-32 77t32 77t77 32t77.5 -32t32.5 -77zM351 711
q0 30 -21 50.5t-51 20.5t-50.5 -20.5t-20.5 -50.5t20.5 -51t50.5 -21t51 21t21 51z" />
    <glyph glyph-name="Uhungarumlaut" unicode="&#x170;" horiz-adv-x="674" 
d="M614 294q0 -310 -277 -310t-277 310v427h49v-427q0 -138 57.5 -202.5t170.5 -64.5t170.5 64.5t57.5 202.5v427h49v-427zM371 914l-172 -142q-6 -4 -12 2l-12 11q-5 5 -1 9l150 169zM601 914l-172 -142q-6 -4 -12 2l-12 11q-5 5 -1 9l150 169z" />
    <glyph glyph-name="uhungarumlaut" unicode="&#x171;" horiz-adv-x="559" 
d="M489 0h-33l-16 80l-63 -44q-43 -30 -71 -41t-62 -11q-83 0 -131 48.5t-48 154.5v350h49v-350q0 -88 34.5 -124.5t95.5 -36.5q29 0 56 11.5t80 48.5l60 42v409h49v-537zM314 746l-172 -142q-6 -4 -12 2l-12 11q-5 5 -1 9l150 169zM544 746l-172 -142q-6 -4 -12 2l-12 11
q-5 5 -1 9l150 169z" />
    <glyph glyph-name="Uogonek" unicode="&#x172;" horiz-adv-x="674" 
d="M614 294q0 -196 -112 -268l-89 -83q-27 -25 -27 -54q0 -39 52 -39q18 0 40 4l31 6l8 -28l-36 -8q-25 -5 -53 -5q-37 0 -61 18t-24 51q0 39 28 64l45 40q-40 -8 -79 -8q-277 0 -277 310v427h49v-427q0 -138 57.5 -202.5t170.5 -64.5t170.5 64.5t57.5 202.5v427h49v-427z
" />
    <glyph glyph-name="uogonek" unicode="&#x173;" horiz-adv-x="559" 
d="M489 0l-76 -52q-39 -26 -39 -59q0 -39 52 -39q27 0 71 10l8 -28q-47 -13 -89 -13q-37 0 -61 18t-24 51q0 47 56 84l66 44l-13 64l-63 -44q-43 -30 -71 -41t-62 -11q-83 0 -131 48.5t-48 154.5v350h49v-350q0 -88 34.5 -124.5t95.5 -36.5q29 0 56 11.5t80 48.5l60 42v409
h49v-537z" />
    <glyph glyph-name="Wcircumflex" unicode="&#x174;" horiz-adv-x="853" 
d="M823 721l-163 -721h-74l-161 628l-158 -628h-74l-163 721h49l152 -685l165 661h60l166 -661l152 685h49zM572 791l-23 -22l-123 115l-123 -115l-23 22l127 152q12 14 19 14t19 -14z" />
    <glyph glyph-name="wcircumflex" unicode="&#x175;" horiz-adv-x="766" 
d="M742 537l-161 -537h-59l-139 472l-139 -472h-59l-161 537h52l136 -481l142 481h57l142 -481l137 481h52zM529 621l-23 -22l-123 115l-123 -115l-23 22l127 152q12 14 19 14t19 -14z" />
    <glyph glyph-name="Ycircumflex" unicode="&#x176;" horiz-adv-x="611" 
d="M581 721l-251 -428v-293h-49v293l-251 428h52l224 -384l224 384h51zM451 791l-23 -22l-123 115l-123 -115l-23 22l127 152q12 14 19 14t19 -14z" />
    <glyph glyph-name="ycircumflex" unicode="&#x177;" horiz-adv-x="504" 
d="M481 537l-249 -684q-20 -54 -54.5 -74.5t-96.5 -20.5h-50v47h50q49 0 69.5 12.5t37.5 59.5l38 104l-202 556h51l178 -496l177 496h51zM398 621l-23 -22l-123 115l-123 -115l-23 22l127 152q12 14 19 14t19 -14z" />
    <glyph glyph-name="Ydieresis" unicode="&#x178;" horiz-adv-x="611" 
d="M581 721l-251 -428v-293h-49v293l-251 428h52l224 -384l224 384h51zM452 829q0 -9 -1.5 -10.5t-9.5 -1.5h-50q-8 0 -9.5 1.5t-1.5 10.5v47q0 9 1.5 10.5t9.5 1.5h50h6t3 -1t2 -3.5v-7.5v-47zM229 829q0 -9 -1.5 -10.5t-9.5 -1.5h-49q-8 0 -9.5 1.5t-1.5 10.5v47
q0 9 1.5 10.5t9.5 1.5h49h6t3 -1t2 -3.5v-7.5v-47z" />
    <glyph glyph-name="Zacute" unicode="&#x179;" horiz-adv-x="558" 
d="M513 672l-416 -630h408v-42h-460v48l416 631h-394l-12 42h458v-49zM444 913l-172 -142q-6 -4 -12 2l-12 11q-5 5 -1 9l150 169z" />
    <glyph glyph-name="zacute" unicode="&#x17a;" horiz-adv-x="484" 
d="M435 0h-386v59l334 435h-316l-13 43h379v-60l-337 -434h339v-43zM381 746l-172 -142q-6 -4 -12 2l-12 11q-5 5 -1 9l150 169z" />
    <glyph glyph-name="Zdotaccent" unicode="&#x17b;" horiz-adv-x="558" 
d="M513 672l-416 -630h408v-42h-460v48l416 631h-394l-12 42h458v-49zM325 829q0 -9 -1.5 -10.5t-9.5 -1.5h-50q-8 0 -9.5 1.5t-1.5 10.5v46q0 9 1.5 11t9.5 2h50q6 0 7.5 -0.5t2.5 -3t1 -9.5v-46z" />
    <glyph glyph-name="zdotaccent" unicode="&#x17c;" horiz-adv-x="484" 
d="M435 0h-386v59l334 435h-316l-13 43h379v-60l-337 -434h339v-43zM278 675q0 -9 -1.5 -10.5t-9.5 -1.5h-50q-8 0 -9.5 1.5t-1.5 10.5v46q0 9 1.5 11t9.5 2h50q6 0 7.5 -0.5t2.5 -3t1 -9.5v-46z" />
    <glyph glyph-name="Zcaron" unicode="&#x17d;" horiz-adv-x="558" 
d="M513 672l-416 -630h408v-42h-460v48l416 631h-394l-12 42h458v-49zM424 933l-126 -148q-12 -14 -20 -14q-7 0 -19 14l-126 148l22 22l123 -118l124 118z" />
    <glyph glyph-name="zcaron" unicode="&#x17e;" horiz-adv-x="484" 
d="M435 0h-386v59l334 435h-316l-13 43h379v-60l-337 -434h339v-43zM387 772l-126 -148q-12 -14 -20 -14q-7 0 -19 14l-126 148l22 22l123 -118l124 118z" />
    <glyph glyph-name="florin" unicode="&#x192;" 
d="M536 711l-14 -41q-40 10 -78 10q-44 0 -64 -23.5t-29 -95.5l-18 -148h178l-16 -41h-167l-38 -323q-10 -87 -49 -123t-107 -36q-34 0 -79 8l14 42q49 -9 71 -9q44 0 68.5 25.5t31.5 89.5l38 326h-136l17 41h124l17 145q11 91 45 127t99 36q48 0 92 -10z" />
    <glyph glyph-name="AEacute" unicode="&#x1fc;" horiz-adv-x="981" 
d="M941 0h-441v234h-271l-143 -234h-53l439 721h468v-42h-391v-276h344l-12 -43h-332v-318h392v-42zM500 279v400l-244 -400h244zM694 913l-172 -142q-6 -4 -12 2l-12 11q-5 5 -1 9l150 169z" />
    <glyph glyph-name="aeacute" unicode="&#x1fd;" horiz-adv-x="910" 
d="M864 260h-394v-53q0 -183 179 -183q113 0 158 79l43 -18q-55 -101 -201 -101q-71 0 -117 21.5t-79 72.5q-64 -50 -113 -72t-122 -22q-87 0 -128 46t-41 127q0 167 199 167q79 0 170 -26v106q0 52 -28 80.5t-105 28.5q-112 0 -159 -58l-37 24q53 75 196 75q71 0 109.5 -20
t63.5 -66q55 86 192 86q55 0 94.5 -15t62.5 -39t36 -62.5t17 -76.5t4 -91v-10zM810 301q0 107 -33.5 159.5t-126.5 52.5q-180 0 -180 -184v-28h340zM418 100v159q-99 23 -160 23q-156 0 -156 -125q0 -69 32.5 -101t83.5 -32q22 0 40 1.5t35 6.5t26.5 7t26 12t21.5 13
t25.5 17.5t25.5 18.5zM647 746l-172 -142q-6 -4 -12 2l-12 11q-5 5 -1 9l150 169z" />
    <glyph glyph-name="Oslashacute" unicode="&#x1fe;" horiz-adv-x="665" 
d="M640 737l-79 -105q59 -89 59 -263q0 -191 -63.5 -288t-225.5 -97q-135 0 -203 71l-52 -71h-50l77 103q-58 90 -58 282q0 84 13 147t44 115t88.5 79t140.5 27q133 0 204 -73l55 73h50zM506 626q-57 68 -175 68q-134 0 -184.5 -81.5t-50.5 -243.5q0 -161 39 -239zM569 369
q0 148 -39 222l-372 -497q55 -67 173 -67q135 0 186.5 83.5t51.5 258.5zM472 914l-172 -142q-6 -4 -12 2l-12 11q-5 5 -1 9l150 169z" />
    <glyph glyph-name="oslashacute" unicode="&#x1ff;" horiz-adv-x="558" 
d="M530 554l-66 -83q45 -68 45 -201q0 -143 -54 -214.5t-176 -71.5q-104 0 -159 52l-41 -52h-52l67 84q-45 70 -45 202q0 143 53.5 213.5t176.5 70.5q104 0 159 -52l42 52h50zM409 465q-41 48 -130 48q-96 0 -137.5 -56.5t-41.5 -186.5q0 -105 26 -161zM456 270
q0 103 -25 159l-282 -357q40 -47 130 -47q96 0 136.5 57t40.5 188zM408 746l-172 -142q-6 -4 -12 2l-12 11q-5 5 -1 9l150 169z" />
    <glyph glyph-name="uni0218" unicode="&#x218;" horiz-adv-x="580" 
d="M540 198q0 -89 -64.5 -151.5t-191.5 -62.5q-85 0 -148.5 33t-91.5 97l41 21q56 -108 199 -108q105 0 154.5 49.5t49.5 121.5q0 63 -28 98.5t-94 47.5l-160 29q-147 27 -147 181q0 36 11 66.5t35.5 57.5t71.5 43t112 16q156 0 215 -104l-42 -21q-51 82 -173 82
q-180 0 -180 -140q0 -61 24.5 -92t85.5 -42l160 -28q161 -28 161 -194zM272 -250l-19 12q42 48 42 108h-33q-7 0 -8.5 2t-1.5 9v53q0 8 2 10t8 2h56q7 0 8.5 -2t1.5 -10v-52q0 -76 -56 -132z" />
    <glyph glyph-name="uni0219" unicode="&#x219;" horiz-adv-x="477" 
d="M440 150q0 -77 -56 -121.5t-146 -44.5q-155 0 -200 101l46 16q19 -38 60.5 -57t93.5 -19q65 0 108 32t43 93q0 84 -88 98l-137 23q-53 9 -83.5 42t-30.5 90q0 74 55.5 112.5t134.5 38.5q56 0 105 -20t73 -57l-40 -20q-41 56 -138 56q-62 0 -101.5 -27t-39.5 -83
q0 -75 78 -87l136 -22q58 -9 92.5 -46t34.5 -98zM220 -250l-19 12q42 48 42 108h-33q-7 0 -8.5 2t-1.5 9v53q0 8 2 10t8 2h56q7 0 8.5 -2t1.5 -10v-52q0 -76 -56 -132z" />
    <glyph glyph-name="circumflex" unicode="&#x2c6;" horiz-adv-x="432" 
d="M362 621l-23 -22l-123 115l-123 -115l-23 22l127 152q12 14 19 14t19 -14z" />
    <glyph glyph-name="caron" unicode="&#x2c7;" horiz-adv-x="443" 
d="M367 772l-126 -148q-12 -14 -20 -14q-7 0 -19 14l-126 148l22 22l123 -118l124 118z" />
    <glyph glyph-name="uni02C9" unicode="&#x2c9;" horiz-adv-x="438" 
d="M374 665h-309v46h309v-46z" />
    <glyph glyph-name="breve" unicode="&#x2d8;" horiz-adv-x="432" 
d="M366 757q-26 -65 -61 -98t-89 -33t-89 33t-61 98l30 19q31 -57 56 -80t64 -23t64 23t56 80z" />
    <glyph glyph-name="dotaccent" unicode="&#x2d9;" horiz-adv-x="217" 
d="M145 659q0 -9 -1.5 -10.5t-9.5 -1.5h-50q-8 0 -9.5 1.5t-1.5 10.5v46q0 9 1.5 11t9.5 2h50q6 0 7.5 -0.5t2.5 -3t1 -9.5v-46z" />
    <glyph glyph-name="ring" unicode="&#x2da;" horiz-adv-x="337" 
d="M278 711q0 -45 -32.5 -77t-77.5 -32t-77 32t-32 77t32 77t77 32t77.5 -32t32.5 -77zM240 711q0 30 -21 50.5t-51 20.5t-50.5 -20.5t-20.5 -50.5t20.5 -51t50.5 -21t51 21t21 51z" />
    <glyph glyph-name="ogonek" unicode="&#x2db;" horiz-adv-x="302" 
d="M242 -168l-36 -8q-25 -5 -53 -5q-37 0 -61 18t-24 51q0 39 28 64l64 58h47l-69 -67q-27 -25 -27 -54q0 -39 52 -39q18 0 40 4l31 6z" />
    <glyph glyph-name="tilde" unicode="&#x2dc;" horiz-adv-x="481" 
d="M420 732l-64 -86q-17 -23 -40 -23q-20 0 -40 13l-89 54q-14 9 -21 9q-4 0 -7.5 -1.5t-5 -3t-6 -7t-6.5 -7.5l-55 -61l-24 19l63 87q16 22 40 22q20 0 40 -13l91 -55q11 -7 19 -7q11 0 25 17l55 63z" />
    <glyph glyph-name="hungarumlaut" unicode="&#x2dd;" horiz-adv-x="566" 
d="M265 746l-172 -142q-6 -4 -12 2l-12 11q-5 5 -1 9l150 169zM495 746l-172 -142q-6 -4 -12 2l-12 11q-5 5 -1 9l150 169z" />
    <glyph glyph-name="uni03A9" unicode="&#x3a9;" horiz-adv-x="662" 
d="M617 412q0 -124 -47 -202.5t-149 -92.5v-76h172v-41h-212v158q104 0 144.5 65.5t40.5 188.5q0 63 -10.5 110.5t-35.5 88t-72.5 62t-116.5 21.5t-116.5 -21.5t-72.5 -62t-35.5 -87.5t-10.5 -109q0 -60 8 -104t28 -79.5t57.5 -54t91.5 -18.5v-158h-212v41h172v76
q-196 26 -196 297q0 323 286 323t286 -325z" />
    <glyph glyph-name="uni03BC" unicode="&#x3bc;" horiz-adv-x="553" 
d="M489 0h-34l-16 79l-63 -44q-74 -51 -133 -51q-84 0 -129 46v-234h-49v741h49v-351q0 -162 129 -162q28 0 56.5 13t79.5 49l60 43v408h50v-537z" />
    <glyph glyph-name="pi" unicode="&#x3c0;" horiz-adv-x="658" 
d="M613 -8h-40q-107 0 -107 121v372h-290v-485h-49v485h-82v48h552v-48h-81v-372q0 -41 13.5 -57.5t43.5 -16.5h40v-47z" />
    <glyph glyph-name="Wgrave" unicode="&#x1e80;" horiz-adv-x="853" 
d="M823 721l-163 -721h-74l-161 628l-158 -628h-74l-163 721h49l152 -685l165 661h60l166 -661l152 685h49zM296 913l172 -142q6 -4 12 2l12 11q5 5 1 9l-150 169z" />
    <glyph glyph-name="wgrave" unicode="&#x1e81;" horiz-adv-x="766" 
d="M742 537l-161 -537h-59l-139 472l-139 -472h-59l-161 537h52l136 -481l142 481h57l142 -481l137 481h52zM253 746l172 -142q6 -4 12 2l12 11q5 5 1 9l-150 169z" />
    <glyph glyph-name="Wacute" unicode="&#x1e82;" horiz-adv-x="853" 
d="M823 721l-163 -721h-74l-161 628l-158 -628h-74l-163 721h49l152 -685l165 661h60l166 -661l152 685h49zM566 914l-172 -142q-6 -4 -12 2l-12 11q-5 5 -1 9l150 169z" />
    <glyph glyph-name="wacute" unicode="&#x1e83;" horiz-adv-x="766" 
d="M742 537l-161 -537h-59l-139 472l-139 -472h-59l-161 537h52l136 -481l142 481h57l142 -481l137 481h52zM512 746l-172 -142q-6 -4 -12 2l-12 11q-5 5 -1 9l150 169z" />
    <glyph glyph-name="Wdieresis" unicode="&#x1e84;" horiz-adv-x="853" 
d="M823 721l-163 -721h-74l-161 628l-158 -628h-74l-163 721h49l152 -685l165 661h60l166 -661l152 685h49zM573 829q0 -9 -1.5 -10.5t-9.5 -1.5h-50q-8 0 -9.5 1.5t-1.5 10.5v47q0 9 1.5 10.5t9.5 1.5h50h6t3 -1t2 -3.5v-7.5v-47zM350 829q0 -9 -1.5 -10.5t-9.5 -1.5h-49
q-8 0 -9.5 1.5t-1.5 10.5v47q0 9 1.5 10.5t9.5 1.5h49h6t3 -1t2 -3.5v-7.5v-47z" />
    <glyph glyph-name="wdieresis" unicode="&#x1e85;" horiz-adv-x="766" 
d="M742 537l-161 -537h-59l-139 472l-139 -472h-59l-161 537h52l136 -481l142 481h57l142 -481l137 481h52zM530 675q0 -9 -1.5 -10.5t-9.5 -1.5h-50q-8 0 -9.5 1.5t-1.5 10.5v47q0 9 1.5 10.5t9.5 1.5h50h6t3 -1t2 -3.5v-7.5v-47zM307 675q0 -9 -1.5 -10.5t-9.5 -1.5h-49
q-8 0 -9.5 1.5t-1.5 10.5v47q0 9 1.5 10.5t9.5 1.5h49h6t3 -1t2 -3.5v-7.5v-47z" />
    <glyph glyph-name="Ygrave" unicode="&#x1ef2;" horiz-adv-x="611" 
d="M581 721l-251 -428v-293h-49v293l-251 428h52l224 -384l224 384h51zM175 914l172 -142q6 -4 12 2l12 11q5 5 1 9l-150 169z" />
    <glyph glyph-name="ygrave" unicode="&#x1ef3;" horiz-adv-x="504" 
d="M481 537l-249 -684q-20 -54 -54.5 -74.5t-96.5 -20.5h-50v47h50q49 0 69.5 12.5t37.5 59.5l38 104l-202 556h51l178 -496l177 496h51zM112 746l172 -142q6 -4 12 2l12 11q5 5 1 9l-150 169z" />
    <glyph glyph-name="endash" unicode="&#x2013;" horiz-adv-x="437" 
d="M405 302h-373v54h373v-54z" />
    <glyph glyph-name="emdash" unicode="&#x2014;" horiz-adv-x="890" 
d="M858 302h-826v54h826v-54z" />
    <glyph glyph-name="quoteleft" unicode="&#x2018;" horiz-adv-x="160" 
d="M140 721q-37 -34 -52 -64t-15 -69h33q8 0 9 -1.5t1 -9.5v-53q0 -9 -1 -10.5t-9 -1.5h-56q-8 0 -9 1.5t-1 10.5v52q0 95 86 158z" />
    <glyph glyph-name="quoteright" unicode="&#x2019;" horiz-adv-x="160" 
d="M120 657q0 -95 -86 -158l-14 13q37 34 52 64t15 69h-33q-8 0 -9 1.5t-1 9.5v53q0 9 1 10.5t9 1.5h56q8 0 9 -1.5t1 -10.5v-52z" />
    <glyph glyph-name="quotesinglbase" unicode="&#x201a;" horiz-adv-x="160" 
d="M120 12q0 -95 -86 -158l-14 13q37 34 52 64t15 69h-33q-8 0 -9 1.5t-1 9.5v53q0 9 1 10.5t9 1.5h56q8 0 9 -1.5t1 -10.5v-52z" />
    <glyph glyph-name="quotedblleft" unicode="&#x201c;" horiz-adv-x="332" 
d="M312 721q-37 -34 -52 -64t-15 -69h33q8 0 9 -1.5t1 -9.5v-53q0 -9 -1 -10.5t-9 -1.5h-56q-8 0 -9 1.5t-1 10.5v52q0 95 86 158zM140 721q-37 -34 -52 -64t-15 -69h33q8 0 9 -1.5t1 -9.5v-53q0 -9 -1 -10.5t-9 -1.5h-56q-8 0 -9 1.5t-1 10.5v52q0 95 86 158z" />
    <glyph glyph-name="quotedblright" unicode="&#x201d;" horiz-adv-x="332" 
d="M292 657q0 -95 -86 -158l-14 13q37 34 52 64t15 69h-33q-8 0 -9 1.5t-1 9.5v53q0 9 1 10.5t9 1.5h56q8 0 9 -1.5t1 -10.5v-52zM120 657q0 -95 -86 -158l-14 13q37 34 52 64t15 69h-33q-8 0 -9 1.5t-1 9.5v53q0 9 1 10.5t9 1.5h56q8 0 9 -1.5t1 -10.5v-52z" />
    <glyph glyph-name="quotedblbase" unicode="&#x201e;" horiz-adv-x="332" 
d="M292 12q0 -95 -86 -158l-14 13q37 34 52 64t15 69h-33q-8 0 -9 1.5t-1 9.5v53q0 9 1 10.5t9 1.5h56q8 0 9 -1.5t1 -10.5v-52zM120 12q0 -95 -86 -158l-14 13q37 34 52 64t15 69h-33q-8 0 -9 1.5t-1 9.5v53q0 9 1 10.5t9 1.5h56q8 0 9 -1.5t1 -10.5v-52z" />
    <glyph glyph-name="dagger" unicode="&#x2020;" horiz-adv-x="595" 
d="M543 461h-186l-45 9l9 -49v-421h-45v420l13 50l-51 -9h-186v40h186l53 -11l-15 48v241h45v-242l-10 -48l48 12h184v-40z" />
    <glyph glyph-name="daggerdbl" unicode="&#x2021;" horiz-adv-x="595" 
d="M543 283h-186l-45 9l9 -49v-243h-45v242l13 50l-51 -9h-186v40h186l53 -11l-15 48v85l13 50l-51 -9h-186v40h186l53 -11l-15 48v216h45v-217l-10 -48l48 12h184v-40h-186l-45 9l9 -49v-87l-10 -48l48 12h184v-40z" />
    <glyph glyph-name="bullet" unicode="&#x2022;" horiz-adv-x="467" 
d="M386 288q0 -63 -45 -107.5t-108 -44.5t-107.5 44.5t-44.5 107.5t44.5 108t107.5 45t108 -45t45 -108z" />
    <glyph glyph-name="ellipsis" unicode="&#x2026;" horiz-adv-x="653" 
d="M581 11q0 -6 -0.5 -8t-2 -2.5t-7.5 -0.5h-56q-8 0 -9 1.5t-1 9.5v53q0 12 10 12h56q7 0 8.5 -1.5t1.5 -10.5v-53zM365 11q0 -6 -0.5 -8t-2 -2.5t-7.5 -0.5h-56q-7 0 -8.5 1.5t-1.5 9.5v53q0 12 10 12h56q7 0 8.5 -1.5t1.5 -10.5v-53zM148 11q0 -8 -1 -9.5t-9 -1.5h-56
q-8 0 -9 1.5t-1 9.5v53q0 9 1 10.5t9 1.5h56q8 0 9 -1.5t1 -10.5v-53z" />
    <glyph glyph-name="perthousand" unicode="&#x2030;" horiz-adv-x="1196" 
d="M326 530q0 -55 -5.5 -92.5t-19.5 -69t-42 -47t-71 -15.5q-82 0 -110.5 55.5t-28.5 168.5q0 107 29.5 161t109.5 54q79 0 108.5 -54t29.5 -161zM281 530q0 45 -2.5 71.5t-11.5 53t-28.5 38.5t-50.5 12q-25 0 -43 -9t-28 -22.5t-15 -38t-6.5 -47.5t-1.5 -58
q0 -37 1.5 -60.5t6.5 -49.5t15 -40.5t28 -24t43 -9.5t43 9.5t27.5 24t14.5 40.5t6.5 49.5t1.5 60.5zM685 737l-485 -753h-42l486 753h41zM800 215q0 -55 -5.5 -92.5t-19.5 -69t-42 -47t-71 -15.5q-82 0 -110.5 55.5t-28.5 168.5q0 107 29.5 161t109.5 54q79 0 108.5 -54
t29.5 -161zM755 215q0 45 -2.5 71.5t-11.5 53t-28.5 38.5t-50.5 12q-25 0 -43 -9t-28 -22.5t-15 -38t-6.5 -47.5t-1.5 -58q0 -37 1.5 -60.5t6.5 -49.5t15 -40.5t28 -24t43 -9.5t43 9.5t27.5 24t14.5 40.5t6.5 49.5t1.5 60.5zM1147 215q0 -55 -5.5 -92.5t-19.5 -69t-42 -47
t-71 -15.5q-82 0 -110.5 55.5t-28.5 168.5q0 107 29.5 161t109.5 54q79 0 108.5 -54t29.5 -161zM1102 215q0 45 -2.5 71.5t-11.5 53t-28.5 38.5t-50.5 12q-25 0 -43 -9t-28 -22.5t-15 -38t-6.5 -47.5t-1.5 -58q0 -37 1.5 -60.5t6.5 -49.5t15 -40.5t28 -24t43 -9.5t43 9.5
t27.5 24t14.5 40.5t6.5 49.5t1.5 60.5z" />
    <glyph glyph-name="guilsinglleft" unicode="&#x2039;" horiz-adv-x="340" 
d="M275 110l-31 -25l-179 184l179 184l31 -25l-142 -159z" />
    <glyph glyph-name="guilsinglright" unicode="&#x203a;" horiz-adv-x="340" 
d="M275 269l-179 -184l-31 25l142 159l-142 159l31 25z" />
    <glyph glyph-name="fraction" unicode="&#x2044;" horiz-adv-x="341" 
d="M490 737l-485 -753h-42l486 753h41z" />
    <glyph glyph-name="n.superior" unicode="&#x207f;" horiz-adv-x="352" 
d="M309 315h-39v213q0 90 -72 90q-43 0 -111 -59v-244h-39v327h28l10 -43q57 53 112 53q111 0 111 -124v-213z" />
    <glyph glyph-name="Euro" unicode="&#x20ac;" 
d="M548 112q-56 -128 -201 -128q-125 0 -181 73.5t-68 218.5h-61l11 39h48v21v14v11v34h-54l11 38h44q11 157 66.5 230.5t177.5 73.5q99 0 146.5 -48.5t56.5 -120.5h-40q-22 127 -164 127q-58 0 -96 -18t-58 -56.5t-28 -80.5t-11 -107h321l-9 -38h-313v-34v-11v-14v-21h287
l-10 -39h-276q4 -46 10 -80.5t20 -68t35 -54t55 -33.5t80 -13q64 0 101.5 24t62.5 80z" />
    <glyph glyph-name="afii61289" unicode="&#x2113;" horiz-adv-x="339" 
d="M238 604q0 -65 -32.5 -144t-113.5 -149v-198q0 -41 13.5 -57.5t43.5 -16.5h40v-47h-40q-107 0 -107 121v159q-24 -16 -51 -33l-20 40q42 26 71 50v227q0 51 2.5 82.5t12 66.5t32 52t57.5 17q26 0 44.5 -11t27.5 -25t14 -41t5.5 -44t0.5 -49zM188 604q0 37 -0.5 53.5
t-4.5 36t-13 27t-24 7.5q-35 0 -44.5 -42.5t-9.5 -136.5v-175q96 98 96 230z" />
    <glyph glyph-name="trademark" unicode="&#x2122;" horiz-adv-x="707" 
d="M651 381h-35l-21 277l-89 -196h-37l-89 196l-21 -277h-34l24 340h37l102 -223l101 223h38zM294 689h-106v-308h-36v308h-107v32h249v-32z" />
    <glyph glyph-name="Omega" unicode="&#x2126;" horiz-adv-x="662" 
d="M617 412q0 -124 -47 -202.5t-149 -92.5v-76h172v-41h-212v158q104 0 144.5 65.5t40.5 188.5q0 63 -10.5 110.5t-35.5 88t-72.5 62t-116.5 21.5t-116.5 -21.5t-72.5 -62t-35.5 -87.5t-10.5 -109q0 -60 8 -104t28 -79.5t57.5 -54t91.5 -18.5v-158h-212v41h172v76
q-196 26 -196 297q0 323 286 323t286 -325z" />
    <glyph glyph-name="estimated" unicode="&#x212e;" horiz-adv-x="606" 
d="M577 282h-429v-193q66 -63 152 -63q76 0 123 33t87 94l31 -19q-44 -68 -99 -104.5t-142 -36.5q-119 0 -195 84.5t-76 205.5q0 123 75 206.5t200 83.5q124 0 198.5 -84.5t74.5 -206.5zM457 315v163q-68 62 -153 62q-96 0 -156 -62v-163h309z" />
    <glyph glyph-name="onethird" unicode="&#x2153;" horiz-adv-x="821" 
d="M284 315h-235v39h95v340q-18 -4 -55 -12t-40 -9v41l140 30v-390h95v-39zM667 737l-485 -753h-42l486 753h41zM772 122q0 -64 -38.5 -97.5t-105.5 -33.5q-54 0 -88 20.5t-58 65.5l37 19q21 -36 44.5 -51.5t64.5 -15.5q48 0 74 24t26 69q0 39 -23.5 60t-60.5 21h-66l-11 41
h77q32 0 54 19t22 58q0 71 -84 71q-73 0 -103 -59l-37 17q42 80 140 80q67 0 97.5 -30.5t30.5 -78.5q0 -63 -54 -96q62 -32 62 -103z" />
    <glyph glyph-name="twothirds" unicode="&#x2154;" horiz-adv-x="838" 
d="M684 737l-485 -753h-42l486 753h41zM789 122q0 -64 -38.5 -97.5t-105.5 -33.5q-54 0 -88 20.5t-58 65.5l37 19q21 -36 44.5 -51.5t64.5 -15.5q48 0 74 24t26 69q0 39 -23.5 60t-60.5 21h-66l-11 41h77q32 0 54 19t22 58q0 71 -84 71q-73 0 -103 -59l-37 17q42 80 140 80
q67 0 97.5 -30.5t30.5 -78.5q0 -63 -54 -96q62 -32 62 -103zM319 628q0 -45 -27.5 -77t-77.5 -67q-94 -65 -115 -130h179v62h40v-101h-269q2 49 25 89.5t44.5 59t62.5 48.5q32 22 48 35.5t31 35.5t15 45q0 77 -79 77q-86 0 -100 -70h-41q7 46 40 78t101 32q55 0 89 -30
t34 -87z" />
    <glyph glyph-name="oneeighth" unicode="&#x215b;" horiz-adv-x="848" 
d="M284 315h-235v39h95v340q-18 -4 -55 -12t-40 -9v41l140 30v-390h95v-39zM667 737l-485 -753h-42l486 753h41zM799 118q0 -65 -33 -98t-107 -33t-106.5 33t-32.5 98q0 72 56 102q-51 29 -51 92q0 114 134 114t134 -114q0 -63 -51 -92q57 -34 57 -102zM754 118
q0 34 -18.5 57t-52.5 23h-48q-34 0 -52.5 -23t-18.5 -57q0 -50 23 -70.5t72 -20.5t72 20.5t23 70.5zM749 312q0 44 -24 59t-66 15t-66 -15t-24 -59q0 -36 20.5 -54.5t45.5 -18.5h48q25 0 45.5 18.5t20.5 54.5z" />
    <glyph glyph-name="threeeighths" unicode="&#x215c;" horiz-adv-x="876" 
d="M695 737l-485 -753h-42l486 753h41zM827 118q0 -65 -33 -98t-107 -33t-106.5 33t-32.5 98q0 72 56 102q-51 29 -51 92q0 114 134 114t134 -114q0 -63 -51 -92q57 -34 57 -102zM782 118q0 34 -18.5 57t-52.5 23h-48q-34 0 -52.5 -23t-18.5 -57q0 -50 23 -70.5t72 -20.5
t72 20.5t23 70.5zM777 312q0 44 -24 59t-66 15t-66 -15t-24 -59q0 -36 20.5 -54.5t45.5 -18.5h48q25 0 45.5 18.5t20.5 54.5zM339 437q0 -64 -38.5 -97.5t-105.5 -33.5q-54 0 -88 20.5t-58 65.5l37 19q21 -36 44.5 -51.5t64.5 -15.5q48 0 74 24t26 69q0 39 -23.5 60
t-60.5 21h-66l-11 41h77q32 0 54 19t22 58q0 71 -84 71q-73 0 -103 -59l-37 17q42 80 140 80q67 0 97.5 -30.5t30.5 -78.5q0 -63 -54 -96q62 -32 62 -103z" />
    <glyph glyph-name="fiveeighths" unicode="&#x215d;" horiz-adv-x="884" 
d="M703 737l-485 -753h-42l486 753h41zM835 118q0 -65 -33 -98t-107 -33t-106.5 33t-32.5 98q0 72 56 102q-51 29 -51 92q0 114 134 114t134 -114q0 -63 -51 -92q57 -34 57 -102zM790 118q0 34 -18.5 57t-52.5 23h-48q-34 0 -52.5 -23t-18.5 -57q0 -50 23 -70.5t72 -20.5
t72 20.5t23 70.5zM785 312q0 44 -24 59t-66 15t-66 -15t-24 -59q0 -36 20.5 -54.5t45.5 -18.5h48q25 0 45.5 18.5t20.5 54.5zM344 442q0 -62 -36 -99t-112 -37q-54 0 -88.5 20.5t-58.5 65.5l38 19q20 -35 44 -50t65 -15q51 0 77 25.5t26 70.5q0 55 -25.5 76.5t-77.5 21.5
q-58 0 -104 -17l-22 19l21 194h239l-12 -40h-189q-2 -22 -7.5 -61.5t-8.5 -63.5q39 9 83 9q148 0 148 -138z" />
    <glyph glyph-name="seveneighths" unicode="&#x215e;" horiz-adv-x="771" 
d="M590 737l-485 -753h-42l486 753h41zM722 118q0 -65 -33 -98t-107 -33t-106.5 33t-32.5 98q0 72 56 102q-51 29 -51 92q0 114 134 114t134 -114q0 -63 -51 -92q57 -34 57 -102zM677 118q0 34 -18.5 57t-52.5 23h-48q-34 0 -52.5 -23t-18.5 -57q0 -50 23 -70.5t72 -20.5
t72 20.5t23 70.5zM672 312q0 44 -24 59t-66 15t-66 -15t-24 -59q0 -36 20.5 -54.5t45.5 -18.5h48q25 0 45.5 18.5t20.5 54.5zM326 696l-198 -381h-50l200 381h-188v-61h-41v101h277v-40z" />
    <glyph glyph-name="partialdiff" unicode="&#x2202;" horiz-adv-x="608" 
d="M543 465q0 -118 -16 -206q-25 -142 -90.5 -208.5t-188.5 -66.5q-96 0 -139.5 49t-43.5 143q0 52 10 108q25 142 88.5 206t187.5 64q87 0 139 -45q-2 226 -237 226q-29 0 -64 -3l7 40q43 5 74 5q78 0 132.5 -21.5t84.5 -64.5t43 -97.5t13 -128.5zM488 372q0 74 -34 107.5
t-110 33.5q-97 0 -148.5 -56.5t-74.5 -186.5q-10 -54 -10 -100q0 -76 34.5 -110.5t110.5 -34.5q96 0 146.5 57t74.5 188q11 61 11 102z" />
    <glyph glyph-name="Delta" unicode="&#x2206;" horiz-adv-x="674" 
d="M629 0h-584l260 721h65zM560 45l-225 637l-225 -637h450z" />
    <glyph glyph-name="product" unicode="&#x220f;" horiz-adv-x="704" 
d="M659 679h-81v-679h-49v679h-353v-679h-49v679h-82v42h614v-42z" />
    <glyph glyph-name="summation" unicode="&#x2211;" horiz-adv-x="531" 
d="M486 0h-441v41l212 341l-212 297v42h440v-42h-387l212 -297l-212 -340h388v-42z" />
    <glyph glyph-name="minus" unicode="&#x2212;" 
d="M538 337h-486v46h486v-46z" />
    <glyph glyph-name="uni2215" unicode="&#x2215;" horiz-adv-x="341" 
d="M490 737l-485 -753h-42l486 753h41z" />
    <glyph glyph-name="uni2219" unicode="&#x2219;" horiz-adv-x="228" 
d="M153 400q0 -12 -10 -12h-61q-8 0 -9.5 1.5t-1.5 10.5v57q0 9 1.5 11t9.5 2h61q7 0 8.5 -1.5t1.5 -11.5v-57z" />
    <glyph glyph-name="radical" unicode="&#x221a;" horiz-adv-x="812" 
d="M767 673h-193l-214 -673h-64l-129 433h-122v48h159l124 -433l210 673h229v-48z" />
    <glyph glyph-name="infinity" unicode="&#x221e;" horiz-adv-x="660" 
d="M595 377q0 -226 -149 -226q-82 0 -136 59q-38 -61 -103 -61q-36 0 -63 14t-41.5 35t-23.5 53t-11.5 61t-2.5 65q0 226 148 226q77 0 134 -60q22 33 47 47t60 14q37 0 63.5 -14t41 -34.5t23 -53t11 -60.5t2.5 -65zM544 377q0 43 -3.5 72.5t-12.5 56t-27.5 40t-46.5 13.5
q-45 0 -64.5 -38t-35.5 -144q-14 -95 -24 -125q51 -57 116 -57q98 0 98 182zM327 503q-48 55 -113 55q-55 0 -76 -49t-21 -134q0 -42 3 -70.5t12 -55.5t27.5 -41t47.5 -14q44 0 64 39.5t35 147.5q11 85 21 122z" />
    <glyph glyph-name="integral" unicode="&#x222b;" horiz-adv-x="607" 
d="M562 767l-10 -45q-62 12 -96 12q-59 0 -93 -28.5t-34 -101.5l-1 -635q0 -93 -49.5 -134t-127.5 -41q-55 0 -106 12l10 46q62 -12 96 -12q125 0 125 134v630q0 93 50.5 134t129.5 41q55 0 106 -12z" />
    <glyph glyph-name="approxequal" unicode="&#x2248;" 
d="M538 520q-48 -69 -134 -69q-40 0 -78 21.5t-73 43t-67 21.5q-86 0 -134 -69v45q48 69 134 69q35 0 67.5 -13.5t53 -29.5t46.5 -29.5t51 -13.5q86 0 134 69v-45zM538 280q-48 -69 -134 -69q-40 0 -78 21.5t-73 43t-67 21.5q-86 0 -134 -69v45q48 69 134 69
q35 0 67.5 -13.5t53 -29.5t46.5 -29.5t51 -13.5q86 0 134 69v-45z" />
    <glyph glyph-name="notequal" unicode="&#x2260;" 
d="M486 737l-99 -218h146v-41h-165l-105 -232h270v-43h-290l-99 -219h-48l99 219h-138v43h158l105 232h-263v41h282l99 218h48z" />
    <glyph glyph-name="lessequal" unicode="&#x2264;" 
d="M468 80h-62l-281 280l281 280h58l-277 -280zM558 -1h-526v42h526v-42z" />
    <glyph glyph-name="greaterequal" unicode="&#x2265;" 
d="M466 360l-281 -280h-62l281 280l-277 280h58zM558 -1h-526v42h526v-42z" />
    <glyph glyph-name="lozenge" unicode="&#x25ca;" horiz-adv-x="608" 
d="M563 379l-259 -319l-259 319l259 319zM493 379l-189 250l-190 -250l190 -250z" />
    <glyph glyph-name="I.alt" unicode="&#xe000;" horiz-adv-x="316" 
d="M271 0h-226v42h89v638h-89v41h226v-41h-88v-638h88v-42z" />
    <glyph glyph-name="IJ.alt" unicode="&#xe001;" horiz-adv-x="764" 
d="M681 201q0 -118 -50.5 -167.5t-147.5 -49.5q-71 0 -122 37l23 33q44 -30 99 -30q81 0 115 41.5t34 135.5v478h-198l-12 42h259v-520zM271 0h-226v42h89v638h-89v41h226v-41h-88v-638h88v-42z" />
    <glyph glyph-name="Iacute.alt" unicode="&#xe002;" horiz-adv-x="316" 
d="M266 914l-172 -142l-4 -2q-4 0 -8 4l-12 11q-3 3 -3 5l2 4l150 169zM271 0h-226v42h89v638h-89v41h226v-41h-88v-638h88v-42z" />
    <glyph glyph-name="Ibreve.alt" unicode="&#xe003;" horiz-adv-x="316" 
d="M309 891q-26 -65 -61 -98t-89 -33t-89 33t-61 98l30 19q31 -57 56 -80t64 -23t64 23t56 80zM271 0h-226v42h89v638h-89v41h226v-41h-88v-638h88v-42z" />
    <glyph glyph-name="Icircumflex.alt" unicode="&#xe004;" horiz-adv-x="316" 
d="M306 792l-23 -22l-123 115l-123 -115l-23 22l127 152q12 14 19 14t19 -14zM271 0h-226v42h89v638h-89v41h226v-41h-88v-638h88v-42z" />
    <glyph glyph-name="Idieresis.alt" unicode="&#xe005;" horiz-adv-x="316" 
d="M307 829q0 -9 -1.5 -10.5t-9.5 -1.5h-50q-8 0 -9.5 1.5t-1.5 10.5v47q0 9 1.5 10.5t9.5 1.5h50h6t3 -1t2 -3.5v-7.5v-47zM84 829q0 -9 -1.5 -10.5t-9.5 -1.5h-49q-8 0 -9.5 1.5t-1.5 10.5v47q0 9 1.5 10.5t9.5 1.5h49h6t3 -1t2 -3.5v-7.5v-47zM271 0h-226v42h89v638h-89
v41h226v-41h-88v-638h88v-42z" />
    <glyph glyph-name="Idotaccent.alt" unicode="&#xe006;" horiz-adv-x="316" 
d="M194 826q0 -9 -1.5 -10.5t-9.5 -1.5h-50q-8 0 -9.5 1.5t-1.5 10.5v46q0 9 1.5 11t9.5 2h50q6 0 7.5 -0.5t2.5 -3t1 -9.5v-46zM271 0h-226v42h89v638h-89v41h226v-41h-88v-638h88v-42z" />
    <glyph glyph-name="Igrave.alt" unicode="&#xe007;" horiz-adv-x="316" 
d="M261 790q0 -1 -4 -5l-11 -11q-4 -4 -8 -4l-4 2l-172 142l46 49l151 -169zM271 0h-226v42h89v638h-89v41h226v-41h-88v-638h88v-42z" />
    <glyph glyph-name="Imacron.alt" unicode="&#xe008;" horiz-adv-x="316" 
d="M311 810h-309v46h309v-46zM271 0h-226v42h89v638h-89v41h226v-41h-88v-638h88v-42z" />
    <glyph glyph-name="Iogonek.alt" unicode="&#xe009;" horiz-adv-x="316" 
d="M233 -168l-36 -8q-25 -5 -53 -5q-37 0 -61 18t-24 51q0 39 28 64l53 48h-95v42h89v638h-89v41h226v-41h-88v-638h88v-42h-84l-58 -57q-27 -25 -27 -54q0 -39 52 -39q18 0 40 4l31 6z" />
    <glyph glyph-name="Itilde.alt" unicode="&#xe00a;" horiz-adv-x="316" 
d="M351 873l-64 -86q-17 -23 -40 -23q-20 0 -40 13l-89 54q-14 9 -21 9q-4 0 -7.5 -1.5t-5 -3t-6 -7t-6.5 -7.5l-55 -61l-24 19l63 87q16 22 40 22q20 0 40 -13l91 -55q11 -7 19 -7q11 0 25 17l55 63zM271 0h-226v42h89v638h-89v41h226v-41h-88v-638h88v-42z" />
    <glyph glyph-name="J.alt" unicode="&#xe00b;" horiz-adv-x="410" 
d="M345 201q0 -118 -50.5 -167.5t-147.5 -49.5q-71 0 -122 37l23 33q44 -30 99 -30q81 0 115 41.5t34 135.5v478h-198l-12 42h259v-520z" />
    <glyph glyph-name="Jcircumflex.alt" unicode="&#xe00c;" horiz-adv-x="428" 
d="M460 781l-23 -22l-123 115l-123 -115l-23 22l127 152q12 14 19 14t19 -14zM345 201q0 -118 -50.5 -167.5t-147.5 -49.5q-71 0 -122 37l23 33q44 -30 99 -30q81 0 115 41.5t34 135.5v478h-198l-12 42h259v-520z" />
    <glyph glyph-name="a.alt" unicode="&#xe00d;" horiz-adv-x="565" 
d="M543 0h-26q-74 0 -89 63q-91 -79 -208 -79q-86 0 -128.5 46t-42.5 126q0 61 30 99.5t71 51.5t94 13q78 0 178 -31v113q0 49 -32 80t-106 31q-62 0 -98.5 -10.5t-61.5 -42.5l-34 23q51 71 194 71q55 0 94.5 -15t58.5 -39.5t27 -48.5t8 -49v-295q0 -36 11 -49t34 -13h26
v-45zM422 102v150q-98 29 -178 29q-144 0 -144 -125q0 -131 120 -131q57 0 100 16.5t102 60.5z" />
    <glyph glyph-name="aacute.alt" unicode="&#xe00e;" horiz-adv-x="565" 
d="M413 743l-172 -142l-4 -2q-4 0 -8 4l-12 11q-3 3 -3 5l2 4l150 169zM543 0h-26q-74 0 -89 63q-91 -79 -208 -79q-86 0 -128.5 46t-42.5 126q0 61 30 99.5t71 51.5t94 13q78 0 178 -31v113q0 49 -32 80t-106 31q-62 0 -98.5 -10.5t-61.5 -42.5l-34 23q51 71 194 71
q55 0 94.5 -15t58.5 -39.5t27 -48.5t8 -49v-295q0 -36 11 -49t34 -13h26v-45zM422 102v150q-98 29 -178 29q-144 0 -144 -125q0 -131 120 -131q57 0 100 16.5t102 60.5z" />
    <glyph glyph-name="abreve.alt" unicode="&#xe00f;" horiz-adv-x="565" 
d="M440 734q-26 -65 -61 -98t-89 -33t-89 33t-61 98l30 19q31 -57 56 -80t64 -23t64 23t56 80zM543 0h-26q-74 0 -89 63q-91 -79 -208 -79q-86 0 -128.5 46t-42.5 126q0 61 30 99.5t71 51.5t94 13q78 0 178 -31v113q0 49 -32 80t-106 31q-62 0 -98.5 -10.5t-61.5 -42.5
l-34 23q51 71 194 71q55 0 94.5 -15t58.5 -39.5t27 -48.5t8 -49v-295q0 -36 11 -49t34 -13h26v-45zM422 102v150q-98 29 -178 29q-144 0 -144 -125q0 -131 120 -131q57 0 100 16.5t102 60.5z" />
    <glyph glyph-name="acircumflex.alt" unicode="&#xe010;" horiz-adv-x="565" 
d="M426 621l-23 -22l-123 115l-123 -115l-23 22l127 152q12 14 19 14t19 -14zM543 0h-26q-74 0 -89 63q-91 -79 -208 -79q-86 0 -128.5 46t-42.5 126q0 61 30 99.5t71 51.5t94 13q78 0 178 -31v113q0 49 -32 80t-106 31q-62 0 -98.5 -10.5t-61.5 -42.5l-34 23q51 71 194 71
q55 0 94.5 -15t58.5 -39.5t27 -48.5t8 -49v-295q0 -36 11 -49t34 -13h26v-45zM422 102v150q-98 29 -178 29q-144 0 -144 -125q0 -131 120 -131q57 0 100 16.5t102 60.5z" />
    <glyph glyph-name="adieresis.alt" unicode="&#xe011;" horiz-adv-x="565" 
d="M426 675q0 -9 -1.5 -10.5t-9.5 -1.5h-50q-8 0 -9.5 1.5t-1.5 10.5v47q0 9 1.5 10.5t9.5 1.5h50h6t3 -1t2 -3.5v-7.5v-47zM203 675q0 -9 -1.5 -10.5t-9.5 -1.5h-49q-8 0 -9.5 1.5t-1.5 10.5v47q0 9 1.5 10.5t9.5 1.5h49h6t3 -1t2 -3.5v-7.5v-47zM543 0h-26q-74 0 -89 63
q-91 -79 -208 -79q-86 0 -128.5 46t-42.5 126q0 61 30 99.5t71 51.5t94 13q78 0 178 -31v113q0 49 -32 80t-106 31q-62 0 -98.5 -10.5t-61.5 -42.5l-34 23q51 71 194 71q55 0 94.5 -15t58.5 -39.5t27 -48.5t8 -49v-295q0 -36 11 -49t34 -13h26v-45zM422 102v150
q-98 29 -178 29q-144 0 -144 -125q0 -131 120 -131q57 0 100 16.5t102 60.5z" />
    <glyph glyph-name="agrave.alt" unicode="&#xe012;" horiz-adv-x="565" 
d="M362 619q0 -1 -4 -5l-11 -11q-4 -4 -8 -4l-4 2l-172 142l46 49l151 -169q2 -2 2 -4zM543 0h-26q-74 0 -89 63q-91 -79 -208 -79q-86 0 -128.5 46t-42.5 126q0 61 30 99.5t71 51.5t94 13q78 0 178 -31v113q0 49 -32 80t-106 31q-62 0 -98.5 -10.5t-61.5 -42.5l-34 23
q51 71 194 71q55 0 94.5 -15t58.5 -39.5t27 -48.5t8 -49v-295q0 -36 11 -49t34 -13h26v-45zM422 102v150q-98 29 -178 29q-144 0 -144 -125q0 -131 120 -131q57 0 100 16.5t102 60.5z" />
    <glyph glyph-name="amacron.alt" unicode="&#xe013;" horiz-adv-x="565" 
d="M543 0h-26q-74 0 -89 63q-91 -79 -208 -79q-86 0 -128.5 46t-42.5 126q0 61 30 99.5t71 51.5t94 13q78 0 178 -31v113q0 49 -32 80t-106 31q-62 0 -98.5 -10.5t-61.5 -42.5l-34 23q51 71 194 71q55 0 94.5 -15t58.5 -39.5t27 -48.5t8 -49v-295q0 -36 11 -49t34 -13h26
v-45zM422 102v150q-98 29 -178 29q-144 0 -144 -125q0 -131 120 -131q57 0 100 16.5t102 60.5zM425 665h-309v46h309v-46z" />
    <glyph glyph-name="aogonek.alt" unicode="&#xe014;" horiz-adv-x="565" 
d="M549 -168l-36 -8q-25 -5 -53 -5q-37 0 -61 18t-24 51q0 39 28 64l64 58q-30 14 -39 53q-91 -79 -208 -79q-86 0 -128.5 46t-42.5 126q0 61 30 99.5t71 51.5t94 13q78 0 178 -31v113q0 49 -32 80t-106 31q-62 0 -98.5 -10.5t-61.5 -42.5l-34 23q51 71 194 71
q55 0 94.5 -15t58.5 -39.5t27 -48.5t8 -49v-295q0 -36 11 -49t34 -13h26v-45h-26h-13l-59 -57q-27 -25 -27 -54q0 -39 52 -39q18 0 40 4l31 6zM422 102v150q-98 29 -178 29q-144 0 -144 -125q0 -131 120 -131q57 0 100 16.5t102 60.5z" />
    <glyph glyph-name="apple" unicode="&#xe015;" horiz-adv-x="790" 
d="M693 369q0 -90 -13.5 -156.5t-46 -120t-92.5 -81t-147 -27.5t-146.5 27.5t-92 81t-45.5 119.5t-13 157q0 82 13.5 144.5t45 115t91.5 80.5t146 28q87 0 147.5 -28t92.5 -80.5t46 -115t14 -144.5zM613 251q0 69 -37 116.5t-110 60.5l-110 20q-26 4 -33.5 12.5t-7.5 34.5
q0 18 3.5 27.5t21.5 17t54 7.5q38 0 59.5 -12t36.5 -40l26 -8l70 36l10 27q-59 116 -201 116q-105 0 -154 -47t-49 -124q0 -138 131 -165l116 -23q30 -6 40.5 -17.5t10.5 -38.5q0 -74 -97 -74q-42 0 -66 15.5t-42 56.5l-27 10l-69 -36l-11 -25q50 -139 214 -139
q105 0 162.5 54t57.5 138h1zM573 251q0 -66 -45.5 -109t-134.5 -43q-126 0 -171 97l35 18q43 -77 135 -77q71 0 104.5 32.5t33.5 81.5q0 78 -83 95l-116 22q-99 18 -99 127q0 131 162 131q108 0 157 -77l-36 -18q-40 56 -120 56q-66 0 -93 -23t-27 -69q0 -40 16 -60t56 -27
l110 -21q115 -21 115 -136h1z" />
    <glyph glyph-name="aring.alt" unicode="&#xe016;" horiz-adv-x="565" 
d="M388 708q0 -45 -32.5 -77t-77.5 -32t-77 32t-32 77t32 77t77 32t77.5 -32t32.5 -77zM543 0h-26q-74 0 -89 63q-91 -79 -208 -79q-86 0 -128.5 46t-42.5 126q0 61 30 99.5t71 51.5t94 13q78 0 178 -31v113q0 49 -32 80t-106 31q-62 0 -98.5 -10.5t-61.5 -42.5l-34 23
q51 71 194 71q55 0 94.5 -15t58.5 -39.5t27 -48.5t8 -49v-295q0 -36 11 -49t34 -13h26v-45zM350 708q0 30 -21 50.5t-51 20.5t-50.5 -20.5t-20.5 -50.5t20.5 -51t50.5 -21t51 21t21 51zM422 102v150q-98 29 -178 29q-144 0 -144 -125q0 -131 120 -131q57 0 100 16.5
t102 60.5z" />
    <glyph glyph-name="arrow" unicode="&#xe017;" horiz-adv-x="790" 
d="M736 360q0 -141 -100 -241t-241 -100t-241 100t-100 241t100 241t241 100t241 -100t100 -241zM659 361l-209 209l-34 -32l149 -152h-419v-47h424l-153 -156l33 -33z" />
    <glyph glyph-name="atilde.alt" unicode="&#xe018;" horiz-adv-x="565" 
d="M458 732l-64 -86q-17 -23 -40 -23q-18 0 -40 13l-89 54q-14 9 -21 9q-4 0 -7.5 -1.5t-5 -3t-6 -7t-6.5 -7.5l-55 -61l-24 19l63 87q16 22 40 22q20 0 40 -13l91 -55q11 -7 19 -7q11 0 25 17l55 63zM543 0h-26q-74 0 -89 63q-91 -79 -208 -79q-86 0 -128.5 46t-42.5 126
q0 61 30 99.5t71 51.5t94 13q78 0 178 -31v113q0 49 -32 80t-106 31q-62 0 -98.5 -10.5t-61.5 -42.5l-34 23q51 71 194 71q55 0 94.5 -15t58.5 -39.5t27 -48.5t8 -49v-295q0 -36 11 -49t34 -13h26v-45zM422 102v150q-98 29 -178 29q-144 0 -144 -125q0 -131 120 -131
q57 0 100 16.5t102 60.5z" />
    <glyph glyph-name="caronalt" unicode="&#xe019;" horiz-adv-x="200" 
d="M152 781l-60 -234q-2 -14 -13 -14h-5q-7 0 -9 2.5t-2 11.5l30 234h59z" />
    <glyph glyph-name="commaaccentalt" unicode="&#xe01a;" horiz-adv-x="200" 
d="M116 808l19 -12q-42 -48 -42 -108h33q7 0 8.5 -2t1.5 -9v-53q0 -8 -2 -10t-8 -2h-56q-7 0 -8.5 2t-1.5 10v52q0 76 56 132z" />
    <glyph glyph-name="dotlessi.alt" unicode="&#xe01b;" horiz-adv-x="276" 
d="M255 -7h-40q-107 0 -107 120v382h-86v42h136v-424q0 -40 13.5 -58t43.5 -18h40v-44z" />
    <glyph glyph-name="f_i.alt" unicode="&#xe022;" horiz-adv-x="620" 
d="M502 725q0 -9 -1.5 -10.5t-9.5 -1.5h-44q-8 0 -9.5 1.5t-1.5 10.5v41q0 9 1.5 11t9.5 2h44q6 0 7.5 -0.5t2.5 -3t1 -9.5v-41zM599 -8h-40q-54 0 -80 29t-26 92v382h-292v-495h-50v495h-84v42h84v67q0 93 49 134t125 41q46 0 97 -12l-8 -42q-72 13 -89 13
q-124 0 -124 -134v-67h341v-424q0 -40 14 -57t43 -17h40v-47z" />
    <glyph glyph-name="i.alt" unicode="&#xe025;" horiz-adv-x="276" 
d="M158 725q0 -9 -1.5 -10.5t-9.5 -1.5h-44q-8 0 -9.5 1.5t-1.5 10.5v41q0 9 1.5 11t9.5 2h44q6 0 7.5 -0.5t2.5 -3t1 -9.5v-41zM255 -7h-40q-107 0 -107 120v382h-86v42h136v-424q0 -40 13.5 -58t43.5 -18h40v-44z" />
    <glyph glyph-name="iacute.alt" unicode="&#xe026;" horiz-adv-x="276" 
d="M230 743l-172 -142l-4 -2q-4 0 -8 4l-12 11q-3 3 -3 5l2 4l150 169zM255 -7h-40q-107 0 -107 120v382h-86v42h136v-424q0 -40 13.5 -58t43.5 -18h40v-44z" />
    <glyph glyph-name="ibreve.alt" unicode="&#xe027;" horiz-adv-x="276" 
d="M286 757q-26 -65 -61 -98t-89 -33t-89 33t-61 98l30 19q31 -57 56 -80t64 -23t64 23t56 80zM255 -7h-40q-107 0 -107 120v382h-86v42h136v-424q0 -40 13.5 -58t43.5 -18h40v-44z" />
    <glyph glyph-name="icircumflex.alt" unicode="&#xe028;" horiz-adv-x="276" 
d="M274 621l-23 -22l-123 115l-123 -115l-23 22l127 152q12 14 19 14t19 -14zM255 -7h-40q-107 0 -107 120v382h-86v42h136v-424q0 -40 13.5 -58t43.5 -18h40v-44z" />
    <glyph glyph-name="idieresis.alt" unicode="&#xe029;" horiz-adv-x="276" 
d="M273 675q0 -9 -1.5 -10.5t-9.5 -1.5h-50q-8 0 -9.5 1.5t-1.5 10.5v47q0 9 1.5 10.5t9.5 1.5h50h6t3 -1t2 -3.5v-7.5v-47zM50 675q0 -9 -1.5 -10.5t-9.5 -1.5h-49q-8 0 -9.5 1.5t-1.5 10.5v47q0 9 1.5 10.5t9.5 1.5h49h6t3 -1t2 -3.5v-7.5v-47zM255 -7h-40
q-107 0 -107 120v382h-86v42h136v-424q0 -40 13.5 -58t43.5 -18h40v-44z" />
    <glyph glyph-name="igrave.alt" unicode="&#xe02a;" horiz-adv-x="276" 
d="M179 619q0 -1 -4 -5l-11 -11q-4 -4 -8 -4l-4 2l-172 142l46 49l151 -169zM255 -7h-40q-107 0 -107 120v382h-86v42h136v-424q0 -40 13.5 -58t43.5 -18h40v-44z" />
    <glyph glyph-name="ij.alt" unicode="&#xe02b;" horiz-adv-x="533" 
d="M158 725q0 -9 -1.5 -10.5t-9.5 -1.5h-44q-8 0 -9.5 1.5t-1.5 10.5v41q0 9 1.5 11t9.5 2h44q6 0 7.5 -0.5t2.5 -3t1 -9.5v-41zM255 -7h-40q-107 0 -107 120v382h-86v42h136v-424q0 -40 13.5 -58t43.5 -18h40v-44zM441 725q0 -9 -1.5 -10.5t-9.5 -1.5h-44q-8 0 -9.5 1.5
t-1.5 10.5v41q0 9 1.5 11t9.5 2h44q6 0 7.5 -0.5t2.5 -3t1 -9.5v-41zM441 -110q0 -60 -30 -96t-107 -36h-43v45h43q52 0 69.5 23t17.5 79v590h-86v42h136v-647z" />
    <glyph glyph-name="imacron.alt" unicode="&#xe02c;" horiz-adv-x="276" 
d="M288 650h-309v46h309v-46zM255 -7h-40q-107 0 -107 120v382h-86v42h136v-424q0 -40 13.5 -58t43.5 -18h40v-44z" />
    <glyph glyph-name="iogonek.alt" unicode="&#xe02d;" horiz-adv-x="276" 
d="M259 -168l-36 -8q-25 -5 -53 -5q-37 0 -61 18t-24 51q0 39 28 64l54 49q-59 21 -59 112v382h-86v42h136v-424q0 -40 13.5 -58t43.5 -18h40v-44h-40h-9l-51 -50q-27 -25 -27 -54q0 -39 52 -39q18 0 40 4l31 6zM158 725q0 -9 -1.5 -10.5t-9.5 -1.5h-44q-8 0 -9.5 1.5
t-1.5 10.5v41q0 9 1.5 11t9.5 2h44q6 0 7.5 -0.5t2.5 -3t1 -9.5v-41z" />
    <glyph glyph-name="itilde.alt" unicode="&#xe02e;" horiz-adv-x="276" 
d="M311 718l-64 -86q-17 -23 -40 -23q-20 0 -40 13l-89 54q-14 9 -21 9q-4 0 -7.5 -1.5t-5 -3t-6 -7t-6.5 -7.5l-55 -61l-24 19l63 87q16 22 40 22q20 0 40 -13l91 -55q11 -7 19 -7q11 0 25 17l55 63zM255 -7h-40q-107 0 -107 120v382h-86v42h136v-424q0 -40 13.5 -58
t43.5 -18h40v-44z" />
    <glyph glyph-name="j.alt" unicode="&#xe02f;" horiz-adv-x="228" 
d="M158 725q0 -9 -1.5 -10.5t-9.5 -1.5h-44q-8 0 -9.5 1.5t-1.5 10.5v41q0 9 1.5 11t9.5 2h44q6 0 7.5 -0.5t2.5 -3t1 -9.5v-41zM158 -110q0 -60 -30 -96t-107 -36h-43v45h43q52 0 69.5 23t17.5 79v590h-86v42h136v-647z" />
    <glyph glyph-name="j.dotless" unicode="&#xe030;" horiz-adv-x="190" 
d="M120 -110q0 -132 -138 -132h-43v45h43q52 0 69.5 23t17.5 79v632h51v-647z" />
    <glyph glyph-name="jcircumflex.alt" unicode="&#xe031;" horiz-adv-x="258" 
d="M158 -110q0 -60 -30 -96t-107 -36h-43v45h43q52 0 69.5 23t17.5 79v590h-86v42h136v-647zM283 621l-23 -22l-123 115l-123 -115l-23 22l127 152q12 14 19 14t19 -14z" />
    <glyph glyph-name="l.alt" unicode="&#xe032;" horiz-adv-x="237" 
d="M234 -8h-40q-107 0 -107 121v624h-84v42h134v-666q0 -41 13.5 -57.5t43.5 -16.5h40v-47z" />
    <glyph glyph-name="lacute.alt" unicode="&#xe033;" horiz-adv-x="274" 
d="M260 943l-172 -142q-6 -4 -12 2l-12 11q-5 5 -1 9l150 169zM234 -8h-40q-107 0 -107 121v624h-84v42h134v-666q0 -41 13.5 -57.5t43.5 -16.5h40v-47z" />
    <glyph glyph-name="lcaron.alt" unicode="&#xe034;" horiz-adv-x="333" 
d="M358 781l-60 -234q-2 -14 -13 -14h-5q-7 0 -9 2.5t-2 11.5l30 234h59zM234 -8h-40q-107 0 -107 121v624h-84v42h134v-666q0 -41 13.5 -57.5t43.5 -16.5h40v-47z" />
    <glyph glyph-name="lcommaaccent.alt" unicode="&#xe035;" horiz-adv-x="274" 
d="M234 -8h-40q-107 0 -107 121v624h-84v42h134v-666q0 -41 13.5 -57.5t43.5 -16.5h40v-47zM138 -250l-19 12q42 48 42 108h-33q-7 0 -8.5 2t-1.5 9v53q0 8 2 10t8 2h56q7 0 8.5 -2t1.5 -10v-52q0 -76 -56 -132z" />
    <glyph glyph-name="ldot.alt" unicode="&#xe036;" horiz-adv-x="386" 
d="M325 385q0 -9 -1.5 -10.5t-9.5 -1.5h-50q-8 0 -9.5 1.5t-1.5 10.5v46q0 9 1.5 11t9.5 2h50q6 0 7.5 -0.5t2.5 -3t1 -9.5v-46zM234 -8h-40q-107 0 -107 121v624h-84v42h134v-666q0 -41 13.5 -57.5t43.5 -16.5h40v-47z" />
    <glyph glyph-name="lslash.alt" unicode="&#xe037;" horiz-adv-x="237" 
d="M234 -8h-40q-107 0 -107 121v296l-70 -42v56l70 41v273h-84v42h134v-286l84 49v-54l-84 -50v-325q0 -41 13.5 -57.5t43.5 -16.5h40v-47z" />
    <glyph glyph-name="uni2014.alt" unicode="&#xe038;" horiz-adv-x="613" 
d="M581 302h-549v54h549v-54z" />
    <glyph glyph-name="h.superior" unicode="&#xf637;" horiz-adv-x="352" 
d="M309 315h-39v213q0 90 -72 90q-43 0 -111 -59v-244h-39v470h39v-186q57 53 111 53q111 0 111 -124v-213z" />
    <glyph glyph-name="zero.fitted" unicode="&#xf639;" 
d="M527 369q0 -75 -5 -129.5t-19.5 -105t-40 -82t-67.5 -50t-100 -18.5t-100 18.5t-67.5 50t-40 82t-19.5 105t-5 129.5q0 71 6 124.5t21 101t41 77.5t67 47.5t97 17.5t97 -17.5t67 -47.5t41 -77.5t21 -101t6 -124.5zM475 369q0 66 -2.5 108t-13 87.5t-29.5 71t-52.5 42
t-82.5 16.5t-82.5 -16.5t-52.5 -42t-29.5 -71t-13 -87.5t-2.5 -108q0 -69 2.5 -113t13 -92t29 -75t52.5 -44.5t83 -17.5t83 17.5t52.5 44.5t29 75t13 92t2.5 113z" />
    <glyph glyph-name="two.fitted" unicode="&#xf63a;" 
d="M517 542q0 -46 -19 -85.5t-50 -69.5t-69 -57.5t-78.5 -56.5t-76 -60.5t-64 -75.5t-40.5 -95h351v110h44v-152h-450q2 61 25.5 113.5t59 89.5t78 70.5t84.5 62.5t76.5 59t56 67.5t21.5 79.5q0 152 -154 152q-165 0 -190 -126h-45q10 69 65 119t170 50q92 0 148.5 -50
t56.5 -145z" />
    <glyph glyph-name="three.fitted" unicode="&#xf63b;" 
d="M533 204q0 -108 -65 -164t-177 -56q-92 0 -148 31.5t-93 101.5l42 21q34 -61 77.5 -87.5t121.5 -26.5q92 0 141.5 46.5t49.5 133.5q0 75 -46 116t-118 41h-104l-12 46h116q64 0 107 36.5t43 113.5q0 140 -163 140q-140 0 -191 -101l-39 19q62 122 230 122q112 0 163 -50
t51 -130q0 -122 -116 -172q65 -23 97.5 -70.5t32.5 -110.5z" />
    <glyph glyph-name="four.fitted" unicode="&#xf63c;" 
d="M562 202h-82v-202h-48v202h-387v57l372 462h63v-476h82v-43zM432 245v423l-339 -423h339z" />
    <glyph glyph-name="five.fitted" unicode="&#xf63d;" 
d="M527 212q0 -103 -61.5 -165.5t-187.5 -62.5q-92 0 -148 31.5t-93 101.5l42 21q33 -60 76.5 -85.5t122.5 -25.5q98 0 147 48.5t49 136.5q0 105 -48 146.5t-148 41.5q-107 0 -183 -28l-28 23l38 326h393l-12 -42h-342l-30 -257q75 22 164 22q249 0 249 -232z" />
    <glyph glyph-name="six.fitted" unicode="&#xf63e;" 
d="M531 233q0 -122 -53.5 -185.5t-181.5 -63.5q-164 0 -210 111q-25 59 -25 200v20v19q0 159 14 222q32 145 159 173q35 8 77 8q134 0 194 -74l-31 -29q-60 60 -163 60q-105 0 -152 -62t-47 -219q0 -5 0.5 -15t0.5 -16q71 80 183 80q126 0 180.5 -56t54.5 -173zM480 233
q0 102 -43.5 144t-140.5 42q-83 0 -133.5 -48t-50.5 -138q0 -110 43.5 -158t140.5 -48t140.5 48t43.5 158z" />
    <glyph glyph-name="seven.fitted" unicode="&#xf63f;" horiz-adv-x="544" 
d="M506 667l-346 -667h-59l357 679h-371v-111h-44v153h463v-54z" />
    <glyph glyph-name="eight.fitted" unicode="&#xf640;" 
d="M535 204q0 -108 -55.5 -164t-178.5 -56t-178.5 56t-55.5 164q0 130 115 181q-105 47 -105 162q0 96 54.5 143t169.5 47t169.5 -47t54.5 -143q0 -115 -105 -162q115 -51 115 -181zM475 547q0 46 -14 77t-40.5 45.5t-54 19.5t-65.5 5t-65.5 -5t-54 -19.5t-40.5 -45.5
t-14 -77q0 -71 40.5 -106t90.5 -35h86q50 0 90.5 35t40.5 106zM484 204q0 65 -37 110.5t-103 45.5h-86q-66 0 -103 -45.5t-37 -110.5q0 -98 44.5 -137.5t138.5 -39.5t138.5 39.5t44.5 137.5z" />
    <glyph glyph-name="nine.fitted" unicode="&#xf641;" 
d="M529 387q0 -159 -14 -222q-32 -145 -159 -173q-35 -8 -77 -8q-134 0 -194 74l31 29q60 -60 163 -60q105 0 152 62t47 219q0 5 -0.5 15t-0.5 16q-71 -80 -183 -80q-126 0 -180.5 56t-54.5 173q0 122 53.5 185.5t181.5 63.5q164 0 210 -111q25 -59 25 -200v-20v-19z
M478 488q0 110 -43.5 158t-140.5 48t-140.5 -48t-43.5 -158q0 -102 43.5 -144t140.5 -42q83 0 133.5 48t50.5 138z" />
    <glyph glyph-name="zero.taboldstyle" unicode="&#xf643;" 
d="M515 268q0 -67 -9 -115t-32 -88t-67.5 -60.5t-111.5 -20.5t-111.5 20.5t-67.5 60.5t-32 88t-9 115t9 115t32 88t67.5 60.5t111.5 20.5t111.5 -20.5t67.5 -60.5t32 -88t9 -115zM466 268q0 128 -35 186t-136 58t-136 -58t-35 -186t35 -186t136 -58t136 58t35 186z" />
    <glyph glyph-name="one.taboldstyle" unicode="&#xf644;" 
d="M489 0h-389v42h169v456l-169 -38v43l221 50v-511h168v-42z" />
    <glyph glyph-name="two.taboldstyle" unicode="&#xf645;" 
d="M521 0h-452q3 62 22.5 109.5t54.5 78t72 48.5t85 31q96 26 127 57.5t31 86.5q0 103 -154 103q-163 0 -171 -122h-47q5 70 57 116t161 46q100 0 152.5 -37.5t52.5 -105.5t-44 -112.5t-150 -73.5q-90 -24 -135.5 -65t-60.5 -116h351v65h48v-109z" />
    <glyph glyph-name="three.taboldstyle" unicode="&#xf646;" 
d="M536 21q0 -108 -65 -164t-177 -56q-92 0 -148 31.5t-93 101.5l42 21q34 -61 77.5 -87.5t121.5 -26.5q92 0 141.5 46.5t49.5 133.5q0 75 -46 116t-118 41h-104l-12 46h116q64 0 107 36.5t43 113.5q0 140 -163 140q-140 0 -191 -101l-39 19q62 122 230 122q112 0 163 -50
t51 -130q0 -122 -116 -172q65 -23 97.5 -70.5t32.5 -110.5z" />
    <glyph glyph-name="four.taboldstyle" unicode="&#xf647;" 
d="M553 0h-82v-202h-48v202h-387v57l372 497h63v-511h82v-43zM423 43v453l-339 -453h339z" />
    <glyph glyph-name="five.taboldstyle" unicode="&#xf648;" 
d="M540 28q0 -103 -61.5 -165.5t-187.5 -62.5q-92 0 -148 31.5t-93 101.5l42 21q33 -60 76.5 -85.5t122.5 -25.5q99 0 147.5 48.5t48.5 136.5q0 105 -48 146.5t-148 41.5q-107 0 -183 -28l-28 23l38 326h393l-12 -42h-342l-30 -257q75 22 164 22q249 0 249 -232z" />
    <glyph glyph-name="six.taboldstyle" unicode="&#xf649;" 
d="M530 233q0 -122 -53.5 -185.5t-181.5 -63.5q-164 0 -210 111q-25 59 -25 200v20v19q0 159 14 222q32 145 159 173q35 8 77 8q64 0 117.5 -22t83.5 -58l-31 -29q-66 66 -170 66q-105 0 -152 -62t-47 -219q0 -5 0.5 -15t0.5 -16q71 80 183 80q126 0 180.5 -56t54.5 -173z
M479 233q0 102 -43.5 144t-140.5 42q-83 0 -133.5 -48t-50.5 -138q0 -110 43.5 -158t140.5 -48t140.5 48t43.5 158z" />
    <glyph glyph-name="seven.taboldstyle" unicode="&#xf64a;" 
d="M526 483l-346 -667h-59l357 679h-371v-111h-44v153h463v-54z" />
    <glyph glyph-name="eight.taboldstyle" unicode="&#xf64b;" 
d="M529 204q0 -108 -55.5 -164t-178.5 -56t-178.5 56t-55.5 164q0 130 115 181q-105 47 -105 162q0 96 54.5 143t169.5 47t169.5 -47t54.5 -143q0 -115 -105 -162q115 -51 115 -181zM469 547q0 46 -14 77t-40.5 45.5t-54 19.5t-65.5 5t-65.5 -5t-54 -19.5t-40.5 -45.5
t-14 -77q0 -71 40.5 -106t90.5 -35h86q50 0 90.5 35t40.5 106zM478 204q0 65 -37 110.5t-103 45.5h-86q-66 0 -103 -45.5t-37 -110.5q0 -98 44.5 -137.5t138.5 -39.5t138.5 39.5t44.5 137.5z" />
    <glyph glyph-name="nine.taboldstyle" unicode="&#xf64c;" 
d="M529 204q0 -159 -14 -222q-32 -145 -159 -173q-35 -8 -77 -8q-64 0 -117.5 22t-83.5 58l31 29q66 -66 170 -66q105 0 152 62t47 219q0 5 -0.5 15t-0.5 16q-71 -80 -183 -80q-126 0 -180.5 56t-54.5 173q0 122 53.5 185.5t181.5 63.5q68 0 114.5 -20t70 -45t35.5 -77.5
t13.5 -86t1.5 -102.5v-19zM478 305q0 110 -43.5 158t-140.5 48t-140.5 -48t-43.5 -158q0 -102 43.5 -144t140.5 -42q83 0 133.5 48t50.5 138z" />
    <glyph glyph-name="zero.denominator" unicode="&#xf655;" horiz-adv-x="339" 
d="M308 215q0 -55 -5.5 -92.5t-19.5 -69t-42 -47t-71 -15.5q-82 0 -110.5 55.5t-28.5 168.5q0 107 29.5 161t109.5 54q79 0 108.5 -54t29.5 -161zM263 215q0 45 -2.5 71.5t-11.5 53t-28.5 38.5t-50.5 12q-25 0 -43 -9t-28 -22.5t-15 -38t-6.5 -47.5t-1.5 -58
q0 -37 1.5 -60.5t6.5 -49.5t15 -40.5t28 -24t43 -9.5t43 9.5t27.5 24t14.5 40.5t6.5 49.5t1.5 60.5z" />
    <glyph glyph-name="one.denominator" unicode="&#xf656;" horiz-adv-x="339" 
d="M284 0h-235v39h95v340q-18 -4 -55 -12t-40 -9v41l140 30v-390h95v-39z" />
    <glyph glyph-name="two.denominator" unicode="&#xf657;" horiz-adv-x="339" 
d="M302 313q0 -45 -27.5 -77t-77.5 -67q-94 -65 -115 -130h179v62h40v-101h-269q2 49 25 89.5t44.5 59t62.5 48.5q32 22 48 35.5t31 35.5t15 45q0 77 -79 77q-86 0 -100 -70h-41q7 46 40 78t101 32q55 0 89 -30t34 -87z" />
    <glyph glyph-name="three.denominator" unicode="&#xf658;" horiz-adv-x="339" 
d="M311 122q0 -64 -38.5 -97.5t-105.5 -33.5q-54 0 -88 20.5t-58 65.5l37 19q21 -36 44.5 -51.5t64.5 -15.5q48 0 74 24t26 69q0 39 -23.5 60t-60.5 21h-66l-11 41h77q32 0 54 19t22 58q0 71 -84 71q-73 0 -103 -59l-37 17q42 80 140 80q67 0 97.5 -30.5t30.5 -78.5
q0 -63 -54 -96q62 -32 62 -103z" />
    <glyph glyph-name="four.denominator" unicode="&#xf659;" horiz-adv-x="339" 
d="M327 113h-45v-113h-43v113h-218v43l214 265h47v-268h45v-40zM239 153v209l-167 -209h167z" />
    <glyph glyph-name="five.denominator" unicode="&#xf65a;" horiz-adv-x="339" 
d="M308 127q0 -62 -36 -99t-112 -37q-54 0 -88.5 20.5t-58.5 65.5l38 19q20 -35 44 -50t65 -15q51 0 77 25.5t26 70.5q0 55 -25.5 76.5t-77.5 21.5q-58 0 -104 -17l-22 19l21 194h239l-12 -40h-189q-2 -22 -7.5 -61.5t-8.5 -63.5q39 9 83 9q148 0 148 -138z" />
    <glyph glyph-name="six.denominator" unicode="&#xf65b;" horiz-adv-x="339" 
d="M310 139q0 -73 -31.5 -110.5t-108.5 -37.5q-26 0 -46.5 4t-34.5 13.5t-24.5 19t-17 27t-10 30t-5 35.5t-2 36.5t-0.5 39.5q0 37 1 56.5t4.5 52t13 50.5t25.5 38t42.5 28.5t62.5 8.5q80 0 119 -51l-27 -26q-39 37 -92 37q-56 0 -80.5 -33t-24.5 -116q39 35 96 35
q75 0 107.5 -33.5t32.5 -103.5zM266 139q0 52 -23 74.5t-73 22.5q-43 0 -69.5 -25t-26.5 -72q0 -57 23 -82.5t73 -25.5t73 25.5t23 82.5z" />
    <glyph glyph-name="seven.denominator" unicode="&#xf65c;" horiz-adv-x="339" 
d="M313 381l-198 -381h-50l200 381h-188v-61h-41v101h277v-40z" />
    <glyph glyph-name="eight.denominator" unicode="&#xf65d;" horiz-adv-x="339" 
d="M313 122q0 -65 -33 -98t-107 -33t-106.5 33t-32.5 98q0 72 56 102q-51 29 -51 92q0 114 134 114t134 -114q0 -63 -51 -92q57 -34 57 -102zM268 122q0 34 -18.5 57t-52.5 23h-48q-34 0 -52.5 -23t-18.5 -57q0 -50 23 -70.5t72 -20.5t72 20.5t23 70.5zM263 316q0 44 -24 59
t-66 15t-66 -15t-24 -59q0 -36 20.5 -54.5t45.5 -18.5h48q25 0 45.5 18.5t20.5 54.5z" />
    <glyph glyph-name="nine.denominator" unicode="&#xf65e;" horiz-adv-x="339" 
d="M309 226q0 -32 -0.5 -49t-3 -46t-8 -45t-16.5 -37t-26.5 -31.5t-39.5 -18.5t-55 -8q-78 0 -119 50l29 26q38 -36 90 -36q56 0 80.5 33t24.5 116q-38 -34 -96 -34q-75 0 -107.5 33.5t-32.5 103.5q0 72 32 109.5t108 37.5q29 0 51.5 -6.5t37 -15.5t25 -26.5t15.5 -31
t7.5 -39t3 -41t0.5 -44.5zM265 283q0 57 -23 82t-73 25t-73 -25t-23 -82q0 -54 22.5 -75.5t73.5 -21.5q44 0 70 25t26 72z" />
    <glyph glyph-name="zero.numerator" unicode="&#xf661;" horiz-adv-x="339" 
d="M308 530q0 -55 -5.5 -92.5t-19.5 -69t-42 -47t-71 -15.5q-82 0 -110.5 55.5t-28.5 168.5q0 107 29.5 161t109.5 54q79 0 108.5 -54t29.5 -161zM263 530q0 45 -2.5 71.5t-11.5 53t-28.5 38.5t-50.5 12q-25 0 -43 -9t-28 -22.5t-15 -38t-6.5 -47.5t-1.5 -58
q0 -37 1.5 -60.5t6.5 -49.5t15 -40.5t28 -24t43 -9.5t43 9.5t27.5 24t14.5 40.5t6.5 49.5t1.5 60.5z" />
    <glyph glyph-name="one.numerator" unicode="&#xf662;" horiz-adv-x="339" 
d="M284 315h-235v39h95v340q-18 -4 -55 -12t-40 -9v41l140 30v-390h95v-39z" />
    <glyph glyph-name="two.numerator" unicode="&#xf663;" horiz-adv-x="339" 
d="M302 628q0 -45 -27.5 -77t-77.5 -67q-94 -65 -115 -130h179v62h40v-101h-269q2 49 25 89.5t44.5 59t62.5 48.5q32 22 48 35.5t31 35.5t15 45q0 77 -79 77q-86 0 -100 -70h-41q7 46 40 78t101 32q55 0 89 -30t34 -87z" />
    <glyph glyph-name="three.numerator" unicode="&#xf664;" horiz-adv-x="339" 
d="M311 437q0 -64 -38.5 -97.5t-105.5 -33.5q-54 0 -88 20.5t-58 65.5l37 19q21 -36 44.5 -51.5t64.5 -15.5q48 0 74 24t26 69q0 39 -23.5 60t-60.5 21h-66l-11 41h77q32 0 54 19t22 58q0 71 -84 71q-73 0 -103 -59l-37 17q42 80 140 80q67 0 97.5 -30.5t30.5 -78.5
q0 -63 -54 -96q62 -32 62 -103z" />
    <glyph glyph-name="four.numerator" unicode="&#xf665;" horiz-adv-x="339" 
d="M327 428h-45v-113h-43v113h-218v43l214 265h47v-268h45v-40zM239 468v209l-167 -209h167z" />
    <glyph glyph-name="five.numerator" unicode="&#xf666;" horiz-adv-x="339" 
d="M308 442q0 -62 -36 -99t-112 -37q-54 0 -88.5 20.5t-58.5 65.5l38 19q20 -35 44 -50t65 -15q51 0 77 25.5t26 70.5q0 55 -25.5 76.5t-77.5 21.5q-58 0 -104 -17l-22 19l21 194h239l-12 -40h-189q-2 -22 -7.5 -61.5t-8.5 -63.5q39 9 83 9q148 0 148 -138z" />
    <glyph glyph-name="six.numerator" unicode="&#xf667;" horiz-adv-x="339" 
d="M310 454q0 -73 -31.5 -110.5t-108.5 -37.5q-26 0 -46.5 4t-34.5 13.5t-24.5 19t-17 27t-10 30t-5 35.5t-2 36.5t-0.5 39.5q0 37 1 56.5t4.5 52t13 50.5t25.5 38t42.5 28.5t62.5 8.5q80 0 119 -51l-27 -26q-39 37 -92 37q-56 0 -80.5 -33t-24.5 -116q39 35 96 35
q75 0 107.5 -33.5t32.5 -103.5zM266 454q0 52 -23 74.5t-73 22.5q-43 0 -69.5 -25t-26.5 -72q0 -57 23 -82.5t73 -25.5t73 25.5t23 82.5z" />
    <glyph glyph-name="seven.numerator" unicode="&#xf668;" horiz-adv-x="339" 
d="M313 696l-198 -381h-50l200 381h-188v-61h-41v101h277v-40z" />
    <glyph glyph-name="eight.numerator" unicode="&#xf669;" horiz-adv-x="339" 
d="M313 437q0 -65 -33 -98t-107 -33t-106.5 33t-32.5 98q0 72 56 102q-51 29 -51 92q0 114 134 114t134 -114q0 -63 -51 -92q57 -34 57 -102zM268 437q0 34 -18.5 57t-52.5 23h-48q-34 0 -52.5 -23t-18.5 -57q0 -50 23 -70.5t72 -20.5t72 20.5t23 70.5zM263 631q0 44 -24 59
t-66 15t-66 -15t-24 -59q0 -36 20.5 -54.5t45.5 -18.5h48q25 0 45.5 18.5t20.5 54.5z" />
    <glyph glyph-name="nine.numerator" unicode="&#xf66a;" horiz-adv-x="339" 
d="M309 541q0 -32 -0.5 -49t-3 -46t-8 -45t-16.5 -37t-26.5 -31.5t-39.5 -18.5t-55 -8q-78 0 -119 50l29 26q38 -36 90 -36q56 0 80.5 33t24.5 116q-38 -34 -96 -34q-75 0 -107.5 33.5t-32.5 103.5q0 72 32 109.5t108 37.5q29 0 51.5 -6.5t37 -15.5t25 -26.5t15.5 -31
t7.5 -39t3 -41t0.5 -44.5zM265 598q0 57 -23 82t-73 25t-73 -25t-23 -82q0 -54 22.5 -75.5t73.5 -21.5q44 0 70 25t26 72z" />
    <glyph glyph-name="commaaccent" unicode="&#xf6c3;" horiz-adv-x="311" 
d="M138 -250l-19 12q42 48 42 108h-33q-7 0 -8.5 2t-1.5 9v53q0 8 2 10t8 2h56q7 0 8.5 -2t1.5 -10v-52q0 -76 -56 -132z" />
    <glyph glyph-name="one.fitted" unicode="&#xf6dc;" horiz-adv-x="467" 
d="M432 0h-389v42h169v636l-169 -38v43l221 50v-691h168v-42z" />
    <glyph glyph-name="a.superior" unicode="&#xf6e9;" horiz-adv-x="341" 
d="M290 315h-29l-7 32q-50 -42 -118 -42q-53 0 -79.5 29t-26.5 79q0 54 34.5 77.5t85.5 23.5t101 -16v60q0 61 -77 61q-35 0 -56 -7t-38 -27l-28 20q35 47 122 47q64 0 90 -29t26 -65v-243zM251 382v83q-52 17 -101 17q-80 0 -80 -69q0 -73 66 -73q33 0 57 9t58 33z" />
    <glyph glyph-name="b.superior" unicode="&#xf6ea;" horiz-adv-x="355" 
d="M322 481q0 -88 -39.5 -132t-104.5 -44q-56 0 -130 37v443h39v-164q58 31 97 31q138 0 138 -171zM282 481q0 138 -98 138q-42 0 -97 -37v-220q47 -22 91 -22q104 0 104 141z" />
    <glyph glyph-name="d.superior" unicode="&#xf6eb;" horiz-adv-x="354" 
d="M306 315h-21l-13 26q-46 -36 -94 -36q-64 0 -105 41t-41 133q0 173 139 173q53 0 96 -24v157h39v-470zM267 377v211q-52 30 -96 30q-99 0 -99 -139t106 -139q42 0 89 37z" />
    <glyph glyph-name="e.superior" unicode="&#xf6ec;" horiz-adv-x="344" 
d="M314 469h-243q2 -68 26.5 -98.5t81.5 -30.5q67 0 93 47l34 -14q-39 -68 -127 -68q-77 0 -112 41t-35 134q0 88 33.5 130t113.5 42q135 0 135 -169v-14zM179 618q-53 0 -79 -26t-29 -89h203q-2 115 -95 115z" />
    <glyph glyph-name="i.superior" unicode="&#xf6ed;" horiz-adv-x="130" 
d="M85 315h-40v327h40v-327zM90 749q0 -9 -2 -10.5t-10 -1.5h-26q-8 0 -10 1.5t-2 10.5v24q0 9 2 10.5t10 1.5h26q8 0 10 -1.5t2 -10.5v-24z" />
    <glyph glyph-name="l.superior" unicode="&#xf6ee;" horiz-adv-x="142" 
d="M143 310h-28q-68 0 -68 77v398h39v-398q0 -22 7 -30.5t22 -8.5h28v-38z" />
    <glyph glyph-name="m.superior" unicode="&#xf6ef;" horiz-adv-x="531" 
d="M485 315h-39v209q0 48 -11.5 71.5t-44.5 23.5q-26 0 -104 -55q2 -12 2 -35v-214h-40v214q0 90 -56 90q-8 0 -17.5 -3t-17 -7t-18.5 -11.5t-16.5 -11.5t-17.5 -14t-15 -12v-245h-40v327h30l8 -42q61 52 105 52q61 0 84 -54q71 54 113 54q49 0 72 -30t23 -97v-210z" />
    <glyph glyph-name="o.superior" unicode="&#xf6f0;" horiz-adv-x="347" 
d="M314 480q0 -88 -32.5 -131.5t-108.5 -43.5q-75 0 -108 43.5t-33 131.5q0 87 33 129.5t108 42.5q76 0 108.5 -42.5t32.5 -129.5zM274 480q0 74 -23.5 106.5t-77.5 32.5t-77.5 -32.5t-23.5 -106.5t23.5 -107t77.5 -33t77.5 33t23.5 107z" />
    <glyph glyph-name="r.superior" unicode="&#xf6f1;" horiz-adv-x="213" 
d="M201 616h-5q-34 0 -54.5 -8.5t-56.5 -37.5v-255h-40v327h28l8 -34q55 44 115 44h5v-36z" />
    <glyph glyph-name="s.superior" unicode="&#xf6f2;" horiz-adv-x="294" 
d="M271 409q0 -48 -34.5 -76t-89.5 -28q-96 0 -125 68l35 13q24 -46 90 -46q36 0 60 17t24 52q0 25 -13.5 37.5t-45.5 17.5l-57 10q-84 13 -84 85q0 46 34 69.5t83 23.5q79 0 112 -52l-32 -16q-25 35 -80 35q-34 0 -56.5 -15t-22.5 -45q0 -38 55 -49l54 -10q47 -8 70 -29
t23 -62z" />
    <glyph glyph-name="t.superior" unicode="&#xf6f3;" horiz-adv-x="238" 
d="M216 356l21 -28q-32 -23 -84 -23q-38 0 -61.5 21.5t-23.5 66.5v215h-58v34h56v112l40 9v-121h115l-11 -34h-104v-215q0 -53 52 -53q29 0 58 16z" />
    <glyph glyph-name="zero.oldstyle" unicode="&#xf730;" horiz-adv-x="528" 
d="M486 268q0 -67 -9 -115t-32 -88t-67.5 -60.5t-111.5 -20.5t-111.5 20.5t-67.5 60.5t-32 88t-9 115t9 115t32 88t67.5 60.5t111.5 20.5t111.5 -20.5t67.5 -60.5t32 -88t9 -115zM437 268q0 128 -35 186t-136 58t-136 -58t-35 -186t35 -186t136 -58t136 58t35 186z" />
    <glyph glyph-name="one.oldstyle" unicode="&#xf731;" horiz-adv-x="489" 
d="M439 0h-389v42h169v456l-169 -38v43l221 50v-511h168v-42z" />
    <glyph glyph-name="two.oldstyle" unicode="&#xf732;" horiz-adv-x="572" 
d="M510 0h-452q3 62 22.5 109.5t54.5 78t72 48.5t85 31q96 26 127 57.5t31 86.5q0 103 -154 103q-163 0 -171 -122h-47q5 70 57 116t161 46q100 0 152.5 -37.5t52.5 -105.5t-44 -112.5t-150 -73.5q-90 -24 -135.5 -65t-60.5 -116h351v65h48v-109z" />
    <glyph glyph-name="three.oldstyle" unicode="&#xf733;" 
d="M533 21q0 -108 -65 -164t-177 -56q-92 0 -148 31.5t-93 101.5l42 21q34 -61 77.5 -87.5t121.5 -26.5q92 0 141.5 46.5t49.5 133.5q0 75 -46 116t-118 41h-104l-12 46h116q64 0 107 36.5t43 113.5q0 140 -163 140q-140 0 -191 -101l-39 19q62 122 230 122q112 0 163 -50
t51 -130q0 -122 -116 -172q65 -23 97.5 -70.5t32.5 -110.5z" />
    <glyph glyph-name="four.oldstyle" unicode="&#xf734;" 
d="M562 0h-82v-202h-48v202h-387v57l372 497h63v-511h82v-43zM432 43v453l-339 -453h339z" />
    <glyph glyph-name="five.oldstyle" unicode="&#xf735;" horiz-adv-x="608" 
d="M540 28q0 -103 -61.5 -165.5t-187.5 -62.5q-92 0 -148 31.5t-93 101.5l42 21q33 -60 76.5 -85.5t122.5 -25.5q99 0 147.5 48.5t48.5 136.5q0 105 -48 146.5t-148 41.5q-107 0 -183 -28l-28 23l38 326h393l-12 -42h-342l-30 -257q75 22 164 22q249 0 249 -232z" />
    <glyph glyph-name="six.oldstyle" unicode="&#xf736;" 
d="M531 233q0 -122 -53.5 -185.5t-181.5 -63.5q-164 0 -210 111q-25 59 -25 200v20v19q0 159 14 222q32 145 159 173q35 8 77 8q64 0 117.5 -22t83.5 -58l-31 -29q-66 66 -170 66q-105 0 -152 -62t-47 -219q0 -5 0.5 -15t0.5 -16q71 80 183 80q126 0 180.5 -56t54.5 -173z
M480 233q0 102 -43.5 144t-140.5 42q-83 0 -133.5 -48t-50.5 -138q0 -110 43.5 -158t140.5 -48t140.5 48t43.5 158z" />
    <glyph glyph-name="seven.oldstyle" unicode="&#xf737;" 
d="M535 483l-346 -667h-59l357 679h-371v-111h-44v153h463v-54z" />
    <glyph glyph-name="eight.oldstyle" unicode="&#xf738;" 
d="M529 204q0 -108 -55.5 -164t-178.5 -56t-178.5 56t-55.5 164q0 130 115 181q-105 47 -105 162q0 96 54.5 143t169.5 47t169.5 -47t54.5 -143q0 -115 -105 -162q115 -51 115 -181zM469 547q0 46 -14 77t-40.5 45.5t-54 19.5t-65.5 5t-65.5 -5t-54 -19.5t-40.5 -45.5
t-14 -77q0 -71 40.5 -106t90.5 -35h86q50 0 90.5 35t40.5 106zM478 204q0 65 -37 110.5t-103 45.5h-86q-66 0 -103 -45.5t-37 -110.5q0 -98 44.5 -137.5t138.5 -39.5t138.5 39.5t44.5 137.5z" />
    <glyph glyph-name="nine.oldstyle" unicode="&#xf739;" 
d="M529 204q0 -159 -14 -222q-32 -145 -159 -173q-35 -8 -77 -8q-64 0 -117.5 22t-83.5 58l31 29q66 -66 170 -66q105 0 152 62t47 219q0 5 -0.5 15t-0.5 16q-71 -80 -183 -80q-126 0 -180.5 56t-54.5 173q0 122 53.5 185.5t181.5 63.5q68 0 114.5 -20t70 -45t35.5 -77.5
t13.5 -86t1.5 -102.5v-19zM478 305q0 110 -43.5 158t-140.5 48t-140.5 -48t-43.5 -158q0 -102 43.5 -144t140.5 -42q83 0 133.5 48t50.5 138z" />
    </font>
</defs>
</svg>
